<svg width="90" height="36" viewBox="0 0 90 36" fill="none" xmlns="http://www.w3.org/2000/svg">
<path d="M23.1381 25.3323C22.9729 25.3246 22.8083 25.3584 22.6594 25.4306C22.5106 25.5029 22.3821 25.6113 22.2858 25.7459C22.0844 26.0217 21.9837 26.4061 21.9837 26.8991C21.9837 27.9257 22.3685 28.4387 23.1381 28.4379C23.539 28.422 23.9345 28.3404 24.309 28.1965V29.0168C23.9076 29.178 23.4781 29.2577 23.0456 29.2512C22.3775 29.2512 21.8659 29.0485 21.5107 28.643C21.1556 28.2375 20.9784 27.6546 20.9791 26.8944C20.97 26.4609 21.0593 26.031 21.2402 25.637C21.4009 25.2915 21.6627 25.003 21.9907 24.8096C22.3396 24.6112 22.7358 24.5116 23.137 24.5213C23.604 24.5262 24.0639 24.6368 24.4822 24.8447L24.1685 25.6381C23.9992 25.5576 23.8256 25.4864 23.6486 25.4248C23.4849 25.3653 23.3123 25.334 23.1381 25.3323V25.3323Z" fill="#87CADA"/>
<path d="M36.5522 29.1879V24.5857H37.5264V29.1879H36.5522Z" fill="#87CADA"/>
<path d="M51.7258 29.1879H50.7505V25.3978H49.5024V24.5857H52.9739V25.3978H51.7258V29.1879Z" fill="#87CADA"/>
<path d="M66.3814 26.4807L67.3415 24.5857H68.3952L66.8731 27.3983V29.1902H65.9049V27.4323L64.3828 24.5904H65.4365L66.3814 26.4807Z" fill="#87CADA"/>
<path d="M68.6148 12.3624H67.5412C67.3445 12.3624 67.3222 12.3624 67.307 12.1597C67.2663 11.7333 67.1551 11.3167 66.978 10.9268C66.5518 10.0056 65.8236 9.50288 64.8307 9.38803C64.2761 9.3158 63.7124 9.36702 63.1799 9.53804C62.8149 9.6555 62.4794 9.85043 62.1966 10.1095C61.9137 10.3686 61.69 10.6857 61.5408 11.0393C61.3909 11.3869 61.2923 11.7544 61.248 12.1304C61.2422 12.169 61.2399 12.2089 61.2363 12.2476C61.2374 12.2624 61.2352 12.2774 61.23 12.2914C61.2248 12.3053 61.2166 12.318 61.2061 12.3286C61.1955 12.3391 61.1828 12.3473 61.1689 12.3525C61.1549 12.3578 61.14 12.3599 61.1251 12.3589H60.9764H58.8783C58.8291 12.3589 58.7788 12.3589 58.7296 12.3589C58.6999 12.359 58.6713 12.3477 58.6496 12.3275C58.6279 12.3073 58.6146 12.2795 58.6125 12.2499C58.5891 12.1128 58.5704 11.9745 58.5399 11.8397C58.4406 11.3711 58.253 10.9256 57.9873 10.5272C57.7596 10.1804 57.4514 9.89405 57.0891 9.69242C56.7268 9.4908 56.3212 9.37993 55.9068 9.36928C55.5291 9.343 55.1497 9.37222 54.7805 9.456C53.8321 9.69039 53.1846 10.2693 52.8135 11.1647C52.6821 11.476 52.5969 11.8049 52.5606 12.1409C52.5395 12.3565 52.536 12.3577 52.3018 12.3589H50.3337C50.2541 12.3589 50.1745 12.3589 50.0995 12.3589C49.9719 12.3589 49.9462 12.3296 49.959 12.1925C49.9719 12.0554 49.993 11.896 50.0187 11.7495C50.1701 10.7935 50.5203 9.88002 51.0467 9.06809C51.4198 8.48968 51.909 7.9953 52.4832 7.6164C53.0575 7.23749 53.7043 6.98235 54.3824 6.8672C54.822 6.78426 55.2686 6.74501 55.7159 6.75C56.7897 6.75049 57.8302 7.12319 58.6605 7.80475C59.0525 8.12629 59.4061 8.492 59.7143 8.89465C59.7693 8.96496 59.8232 9.03762 59.8794 9.10677C59.8857 9.11746 59.8947 9.12631 59.9054 9.13247C59.9162 9.13862 59.9284 9.14185 59.9408 9.14185C59.9532 9.14185 59.9654 9.13862 59.9762 9.13247C59.987 9.12631 59.996 9.11746 60.0023 9.10677C60.0667 9.03176 60.1299 8.95442 60.192 8.87238C60.5151 8.46769 60.8845 8.10229 61.2925 7.78365C62.1387 7.1243 63.1777 6.76117 64.25 6.75C64.9374 6.73034 65.623 6.82945 66.2767 7.04299C67.345 7.39524 68.2544 8.11421 68.8443 9.07278C69.3313 9.85027 69.6611 10.7159 69.8149 11.6206C69.8477 11.7964 69.8688 11.9722 69.8887 12.1515C69.9133 12.3589 69.9098 12.3601 69.6885 12.3624H68.6148Z" fill="#87CADA"/>
<path d="M17.5509 13.0703C17.9279 13.0703 18.3061 13.0703 18.6842 13.0703C18.8212 13.0703 18.8423 13.0926 18.8446 13.2238C18.8446 13.4324 18.8376 13.6422 18.8446 13.8508C18.8521 14.3085 18.9405 14.7612 19.1057 15.188C19.3933 15.9496 19.9386 16.5861 20.6465 16.9869C21.0915 17.2342 21.5833 17.3855 22.0902 17.4311C22.6941 17.5004 23.3055 17.4659 23.8979 17.3291C25.2959 16.9858 26.1822 16.1056 26.6119 14.7509C26.6914 14.4739 26.7309 14.187 26.7289 13.8989C26.7196 13.6645 26.7289 13.4406 26.7289 13.2121C26.7289 13.109 26.7559 13.0797 26.846 13.0785C27.632 13.0785 28.4176 13.0785 29.2029 13.0785C29.2942 13.0785 29.32 13.1066 29.32 13.2133C29.341 13.9809 29.32 14.7438 29.1162 15.4927C28.8995 16.3327 28.5209 17.1221 28.0016 17.8167C27.3103 18.7141 26.3593 19.3762 25.2783 19.7128C24.5666 19.9386 23.826 20.0602 23.0795 20.0738C22.3036 20.1021 21.5274 20.0232 20.773 19.8394C18.8774 19.3601 17.5614 18.1987 16.7922 16.4185C16.5067 15.7708 16.3265 15.0816 16.2583 14.377C16.222 13.9821 16.2466 13.5824 16.2443 13.184C16.2428 13.1685 16.2449 13.153 16.2504 13.1385C16.2559 13.124 16.2646 13.1109 16.2759 13.1003C16.2872 13.0897 16.3008 13.0818 16.3156 13.0772C16.3304 13.0726 16.346 13.0714 16.3613 13.0738C16.5393 13.0738 16.7126 13.0738 16.8976 13.0738L17.5509 13.0703Z" fill="#87CADA"/>
<path d="M26.7677 12.3495C26.726 12.2778 26.7005 12.1978 26.6928 12.1152C26.4469 10.9182 25.7542 10.1002 24.6146 9.66112C24.1585 9.4881 23.6772 9.39111 23.1897 9.37399C22.5425 9.32756 21.892 9.38895 21.2649 9.55565C20.4453 9.79003 19.7721 10.2424 19.3131 10.9807C19.0835 11.3546 18.9291 11.7698 18.8589 12.203C18.8331 12.3519 18.8249 12.3613 18.6961 12.3613H16.4013C16.2643 12.3613 16.2374 12.3308 16.2573 12.203C16.2866 12.0167 16.3182 11.8304 16.3592 11.6464C16.5485 10.7479 16.9247 9.89937 17.4632 9.15602C18.2093 8.13452 19.2777 7.39464 20.4957 7.05591C21.0982 6.88342 21.7193 6.78427 22.3456 6.76058C23.1905 6.71283 24.0377 6.79183 24.8593 6.99497C25.9396 7.25465 26.9204 7.82497 27.681 8.63568C28.3132 9.32912 28.7828 10.1551 29.0555 11.0534C29.1493 11.3472 29.2229 11.6472 29.2756 11.9511C29.291 12.0391 29.3012 12.1279 29.3061 12.2171C29.3131 12.3343 29.2873 12.3577 29.1714 12.3589C28.8541 12.3589 28.5357 12.3589 28.2172 12.3589H26.9656C26.8965 12.3613 26.8274 12.3542 26.7677 12.3495Z" fill="#87CADA"/>
<path d="M5.79126 6.81451C6.50663 6.81451 7.222 6.82506 7.93737 6.81451C8.41432 6.80666 8.8899 6.86785 9.34937 6.99616C10.1885 7.2126 10.9757 7.59559 11.6641 8.12239C12.6288 8.86468 13.2782 9.94407 13.4824 11.1448C13.5339 11.4179 13.5538 11.6956 13.5854 11.9722C13.5926 12.0415 13.5957 12.1111 13.5948 12.1808C13.5948 12.3402 13.5795 12.3566 13.4308 12.3625H11.2543C11.2051 12.3625 11.1548 12.3625 11.1056 12.3625C11.0903 12.3648 11.0746 12.3637 11.0598 12.3591C11.045 12.3545 11.0315 12.3466 11.0202 12.336C11.0089 12.3254 11.0002 12.3123 10.9947 12.2978C10.9892 12.2833 10.9871 12.2677 10.9885 12.2523C10.9862 12.0555 10.9655 11.8593 10.9265 11.6663C10.8517 11.2233 10.6744 10.8039 10.409 10.4417C9.98864 9.87678 9.40674 9.58028 8.73235 9.44551C8.49839 9.3983 8.26034 9.37436 8.02167 9.37402H5.8498C5.79945 9.37402 5.75028 9.37402 5.70111 9.37988C5.6888 9.38017 5.67668 9.38295 5.66548 9.38804C5.65427 9.39314 5.64422 9.40045 5.6359 9.40953C5.62759 9.41862 5.6212 9.42929 5.61712 9.44091C5.61303 9.45253 5.61133 9.46486 5.61212 9.47715C5.61212 9.55684 5.61212 9.63653 5.61212 9.71154V12.0953C5.61212 12.3648 5.61212 12.3636 5.35337 12.3625H3.26229C3.20258 12.3625 3.14521 12.3625 3.08433 12.3543C3.06432 12.3531 3.04544 12.3446 3.03138 12.3303C3.01732 12.316 3.00906 12.297 3.00822 12.2769C3.00003 12.2078 3.00003 12.141 3.00003 12.0683V7.11453C3.00003 6.7899 2.99066 6.81451 3.31615 6.81451H5.79126Z" fill="#87CADA"/>
<path d="M36.2842 20.0703H32.6453C32.5564 20.0703 32.4674 20.0703 32.3772 20.0703C32.3649 20.0713 32.3525 20.0697 32.3408 20.0657C32.3292 20.0616 32.3184 20.0552 32.3093 20.0469C32.3002 20.0385 32.2929 20.0284 32.2879 20.0171C32.2828 20.0058 32.2802 19.9936 32.28 19.9812C32.28 19.9121 32.2742 19.8418 32.2742 19.7726C32.2742 17.6538 32.2742 15.5341 32.2742 13.4137C32.2742 13.0457 32.2414 13.075 32.609 13.075H34.5479C34.617 13.075 34.6872 13.075 34.7563 13.075C34.7687 13.0742 34.7811 13.076 34.7928 13.0801C34.8045 13.0843 34.8152 13.0908 34.8243 13.0992C34.8334 13.1077 34.8407 13.1179 34.8457 13.1292C34.8507 13.1406 34.8534 13.1528 34.8535 13.1653C34.8535 13.2649 34.8605 13.3633 34.8605 13.4629V17.1041C34.8605 17.4838 34.8242 17.4557 35.2118 17.4557C36.8119 17.4557 38.412 17.4557 40.0121 17.4557C40.3809 17.4557 40.3505 17.4288 40.3505 17.7932C40.3505 18.4394 40.3505 19.0859 40.3505 19.7328C40.3505 19.8125 40.3505 19.8922 40.3505 19.9672C40.3505 19.9795 40.348 19.9917 40.3431 20.003C40.3382 20.0143 40.331 20.0244 40.322 20.0328C40.313 20.0411 40.3023 20.0476 40.2907 20.0516C40.2791 20.0556 40.2668 20.0572 40.2545 20.0562C40.1643 20.0562 40.0754 20.0562 39.9864 20.0562L36.2842 20.0703Z" fill="#87CADA"/>
<path d="M83.036 6.75007H87.0028C87.0929 6.75007 87.1819 6.75007 87.2721 6.75007C87.2844 6.7496 87.2966 6.75156 87.3082 6.75584C87.3197 6.76012 87.3303 6.76664 87.3393 6.77502C87.3484 6.7834 87.3556 6.79348 87.3608 6.80469C87.3659 6.81589 87.3688 6.82799 87.3692 6.84031C87.3692 6.90008 87.3692 6.9575 87.3692 7.01961V9.08691C87.3692 9.14668 87.3692 9.2041 87.3692 9.26621C87.3686 9.29129 87.3582 9.31514 87.3403 9.33266C87.3224 9.35017 87.2983 9.35998 87.2732 9.35997C87.1936 9.35997 87.114 9.35997 87.0391 9.35997H84.6494C84.3871 9.35997 84.3848 9.35997 84.3848 9.62131C84.3848 10.4077 84.3848 11.194 84.3848 11.9804C84.3848 12.0601 84.3848 12.1398 84.3848 12.2148C84.379 12.332 84.3602 12.3496 84.2373 12.3507C83.7409 12.3507 83.2433 12.3507 82.7457 12.3507H81.9109C81.896 12.3528 81.8809 12.3516 81.8665 12.3472C81.8522 12.3428 81.839 12.3353 81.8278 12.3252C81.8167 12.3152 81.8079 12.3028 81.802 12.289C81.7961 12.2752 81.7933 12.2603 81.7938 12.2453C81.7938 12.1562 81.7868 12.0671 81.7868 11.9769V9.77718C81.7868 9.70686 81.7868 9.63772 81.7868 9.56857C81.7868 9.37872 81.7739 9.367 81.5795 9.36583C80.76 9.36583 79.9486 9.36583 79.1337 9.36583C78.6396 9.36583 78.7063 9.42794 78.704 8.94159C78.704 8.32398 78.704 7.70637 78.704 7.08993C78.704 7.01024 78.704 6.93055 78.704 6.85554C78.7038 6.84304 78.7062 6.83062 78.711 6.81908C78.7158 6.80753 78.7229 6.7971 78.7319 6.78842C78.7409 6.77974 78.7516 6.773 78.7633 6.76862C78.775 6.76424 78.7875 6.76232 78.8 6.76296C78.889 6.76296 78.978 6.76296 79.0681 6.76296L83.036 6.75007Z" fill="#87CADA"/>
<path d="M73.1026 16.5767V13.3234C73.1026 13.0633 73.0827 13.0609 73.3626 13.0609H75.449C75.4993 13.0609 75.5485 13.0609 75.5988 13.0609C75.6136 13.061 75.6282 13.0642 75.6417 13.0703C75.6552 13.0764 75.6672 13.0852 75.677 13.0963C75.6869 13.1073 75.6942 13.1203 75.6987 13.1344C75.7032 13.1485 75.7047 13.1634 75.703 13.1781C75.703 13.2379 75.703 13.2953 75.703 13.3574C75.703 15.5067 75.703 17.6553 75.703 19.8031V19.8335C75.703 20.0621 75.703 20.0679 75.4689 20.0679C74.7535 20.0679 74.0381 20.0679 73.3228 20.0679C73.2923 20.0679 73.263 20.0679 73.2326 20.0679C73.1225 20.0609 73.1038 20.0421 73.0991 19.9191C73.0991 19.8394 73.0991 19.7597 73.0991 19.6847V16.5767H73.1026Z" fill="#87CADA"/>
<path d="M67.313 16.5556C67.313 15.4806 67.313 14.4063 67.313 13.3328C67.313 13.0539 67.2884 13.0609 67.5928 13.0609H69.6195C69.6886 13.0609 69.7576 13.0609 69.8267 13.0691C69.8469 13.0694 69.8662 13.0775 69.8806 13.0917C69.895 13.1059 69.9034 13.1251 69.904 13.1453C69.911 13.2344 69.9134 13.3234 69.9134 13.4125C69.9134 15.1142 69.9134 16.815 69.9134 18.5151V19.7984C69.9134 19.8476 69.9134 19.898 69.9134 19.9472C69.9063 20.0386 69.8806 20.0644 69.7787 20.0644C69.7389 20.0644 69.6991 20.0644 69.6616 20.0644H67.5741C67.5144 20.0644 67.457 20.0644 67.3961 20.0562C67.376 20.0559 67.3568 20.0478 67.3426 20.0336C67.3284 20.0193 67.3203 20.0001 67.32 19.98C67.32 19.891 67.313 19.8019 67.313 19.7117C67.313 18.6577 67.313 17.603 67.313 16.5474V16.5556Z" fill="#87CADA"/>
<path d="M61.2248 16.5767V19.769C61.2248 20.0808 61.2412 20.0702 60.9415 20.0702H58.8843C58.8246 20.0702 58.7673 20.0702 58.7064 20.0632C58.6865 20.0619 58.6678 20.0534 58.6536 20.0395C58.6394 20.0255 58.6307 20.0069 58.6291 19.987C58.6229 19.9275 58.6201 19.8676 58.6209 19.8077C58.6209 17.66 58.6209 15.5114 58.6209 13.3621C58.6209 13.0644 58.5998 13.0597 58.9078 13.0609H60.9649C61.0234 13.0609 61.082 13.0609 61.1429 13.0679C61.163 13.0688 61.182 13.0773 61.1961 13.0916C61.2102 13.106 61.2184 13.1251 61.219 13.1453C61.219 13.2343 61.2248 13.3234 61.2248 13.4136V16.5779V16.5767Z" fill="#87CADA"/>
<path d="M43.7446 16.5767V13.4429C43.7446 13.3925 43.7446 13.3433 43.7446 13.2941C43.7446 13.0667 43.7446 13.0597 43.9788 13.0597C44.6942 13.0597 45.4095 13.0597 46.1249 13.0597C46.1647 13.0597 46.2045 13.0597 46.242 13.0597C46.2567 13.0599 46.2712 13.0632 46.2846 13.0694C46.298 13.0755 46.31 13.0844 46.3198 13.0954C46.3296 13.1064 46.337 13.1194 46.3415 13.1334C46.3461 13.1474 46.3477 13.1622 46.3462 13.1769C46.3462 13.2261 46.3462 13.2765 46.3462 13.3257C46.3462 15.4844 46.3462 17.6431 46.3462 19.8018C46.3462 19.8323 46.3462 19.8616 46.3462 19.8921C46.3403 20.0421 46.3275 20.0608 46.1706 20.0608H43.8828C43.7727 20.0526 43.7528 20.0327 43.7481 19.9108C43.7481 19.8311 43.7481 19.7514 43.7481 19.6764V16.5767H43.7446Z" fill="#87CADA"/>
<path d="M5.58634 19.9343C5.52474 19.9687 5.45358 19.9818 5.38378 19.9718H3.23416C3.19436 19.9718 3.15455 19.9718 3.11708 19.9718C3.05035 19.9718 3 19.9378 3 19.8628C3 19.7878 3 19.7245 3 19.6542C3 17.5916 3 15.5302 3 13.4699C3 13.3797 3 13.2906 3 13.2015C3 13.0902 3.02693 13.0703 3.14752 13.0632C3.1967 13.0632 3.24587 13.0632 3.29622 13.0632H5.29832C5.36739 13.0632 5.43764 13.0632 5.50672 13.0703C5.51915 13.0696 5.53157 13.0715 5.54322 13.0759C5.55486 13.0803 5.56548 13.0871 5.57438 13.0958C5.58329 13.1045 5.59031 13.1149 5.59498 13.1265C5.59966 13.138 5.6019 13.1504 5.60156 13.1628C5.60156 13.2414 5.60741 13.3211 5.60741 13.3972V19.6683C5.61821 19.7575 5.61104 19.8479 5.58634 19.9343V19.9343Z" fill="#87CADA"/>
<path d="M13.5972 16.6189V19.6905C13.5972 19.7597 13.5972 19.83 13.5972 19.8991C13.5972 20.0515 13.5796 20.0691 13.4227 20.0691H11.1572C11.1273 20.0687 11.0976 20.066 11.0682 20.0609C11.0483 20.0588 11.03 20.0493 11.0167 20.0344C11.0035 20.0194 10.9964 20 10.9968 19.98C10.9968 19.9108 10.9897 19.8417 10.9897 19.7714V13.4195C10.9897 13.1593 10.9897 13.1582 11.2544 13.157C11.9498 13.157 12.6453 13.157 13.3407 13.157C13.3806 13.157 13.4204 13.157 13.4578 13.157C13.5667 13.164 13.589 13.1863 13.5936 13.307C13.5936 13.3961 13.5936 13.4863 13.5936 13.5754L13.5972 16.6189Z" fill="#87CADA"/>
<path d="M49.9497 16.5755V13.4406C49.9497 13.3515 49.9497 13.2613 49.9556 13.1722C49.9548 13.1598 49.9565 13.1474 49.9607 13.1357C49.9648 13.124 49.9713 13.1133 49.9797 13.1042C49.9882 13.0951 49.9984 13.0878 50.0097 13.0828C50.0211 13.0777 50.0333 13.0751 50.0457 13.075C50.0949 13.075 50.1441 13.075 50.1944 13.075H52.282C52.3218 13.075 52.3616 13.075 52.399 13.075C52.4986 13.082 52.5243 13.1042 52.5302 13.1921C52.5302 13.2625 52.5302 13.3316 52.5302 13.4019C52.5302 15.5317 52.5302 17.6615 52.5302 19.7913C52.5302 19.8511 52.5302 19.9085 52.5302 19.9694C52.5303 19.9819 52.528 19.9942 52.5234 20.0057C52.5187 20.0172 52.5119 20.0277 52.5032 20.0365C52.4944 20.0453 52.4841 20.0523 52.4726 20.0571C52.4612 20.0619 52.4489 20.0644 52.4365 20.0644C52.3967 20.0644 52.3569 20.0644 52.3194 20.0644H50.1078C49.9649 20.0585 49.9497 20.0456 49.9438 19.9144C49.9438 19.8347 49.9438 19.755 49.9438 19.68V16.5755H49.9497Z" fill="#87CADA"/>
<path d="M84.385 16.6049V19.7691C84.385 20.0844 84.3991 20.0691 84.1017 20.0691H82.0727C82.013 20.0691 81.9556 20.0691 81.8935 20.0691C81.8811 20.0694 81.8688 20.0672 81.8573 20.0626C81.8458 20.058 81.8353 20.0511 81.8266 20.0424C81.8178 20.0336 81.8109 20.0231 81.8063 20.0116C81.8017 20.0001 81.7995 19.9878 81.7999 19.9754C81.7999 19.9062 81.7999 19.8359 81.7999 19.7668C81.7999 17.6573 81.7999 15.5478 81.7999 13.4383C81.7999 13.034 81.7601 13.0785 82.1734 13.0774C82.7997 13.0774 83.4261 13.0774 84.0467 13.0774C84.1263 13.0774 84.2059 13.0774 84.2808 13.0774C84.2932 13.077 84.3056 13.0792 84.317 13.0839C84.3285 13.0886 84.3389 13.0957 84.3475 13.1046C84.3561 13.1135 84.3627 13.1242 84.367 13.1358C84.3712 13.1475 84.373 13.1599 84.3722 13.1723C84.3722 13.2625 84.3722 13.3516 84.3722 13.4418C84.3722 14.4966 84.3722 15.5513 84.3722 16.606L84.385 16.6049Z" fill="#87CADA"/>
<path d="M75.7079 9.56272V11.9851C75.7079 12.0543 75.7079 12.1246 75.7079 12.1937C75.7079 12.3414 75.6857 12.3613 75.5299 12.3613C74.7744 12.3613 74.0188 12.3613 73.2632 12.3613C73.1286 12.3613 73.1099 12.3379 73.104 12.2054C73.104 12.1457 73.104 12.0882 73.104 12.0273V7.10165C73.104 7.03251 73.104 6.96219 73.104 6.89305C73.104 6.77586 73.1286 6.76179 73.2504 6.75476H75.5463C75.6845 6.75476 75.7009 6.77586 75.7067 6.91063C75.7067 6.97977 75.7067 7.05009 75.7067 7.11923L75.7079 9.56272Z" fill="#87CADA"/>
<path d="M43.7446 9.56265C43.7446 8.71651 43.7446 7.87037 43.7446 7.02423C43.7446 6.75 43.7446 6.75 44.0069 6.75H46.0945C46.1544 6.75039 46.2142 6.75431 46.2736 6.76172C46.2936 6.76292 46.3123 6.77171 46.3261 6.78631C46.3398 6.80091 46.3474 6.8202 46.3474 6.84024C46.3474 6.90938 46.3556 6.9797 46.3556 7.04884V12.0659C46.3556 12.3706 46.3673 12.3636 46.0652 12.3624H44.0362C43.9671 12.3624 43.898 12.3624 43.8289 12.353C43.8189 12.3527 43.8091 12.3505 43.8 12.3463C43.7909 12.3422 43.7826 12.3364 43.7758 12.3291C43.7689 12.3218 43.7636 12.3132 43.7601 12.3038C43.7565 12.2945 43.7549 12.2845 43.7552 12.2745C43.7552 12.1948 43.7481 12.1151 43.7481 12.0401C43.7458 11.212 43.7446 10.3861 43.7446 9.56265Z" fill="#87CADA"/>
<path d="M34.8616 9.56263C34.8616 10.4088 34.8616 11.2545 34.8616 12.0999C34.8616 12.3647 34.8616 12.3671 34.6064 12.3682H32.5177C32.4685 12.3682 32.4181 12.3682 32.369 12.3682C32.3566 12.3681 32.3443 12.3654 32.333 12.3604C32.3216 12.3554 32.3114 12.3481 32.303 12.339C32.2946 12.3299 32.2881 12.3192 32.2839 12.3075C32.2797 12.2958 32.278 12.2834 32.2788 12.271C32.2788 12.1913 32.2788 12.1116 32.2788 12.0366V7.10156C32.2706 6.72185 32.2437 6.74998 32.6066 6.74998H34.5748H34.7527C34.8265 6.74998 34.8569 6.79686 34.8593 6.86717C34.8616 6.93749 34.8593 7.02656 34.8593 7.10156L34.8616 9.56263Z" fill="#87CADA"/>
</svg>
