<svg width="90" height="36" viewBox="0 0 90 36" fill="none" xmlns="http://www.w3.org/2000/svg">
<path d="M69.4028 8.83081V14.8172L76.0303 11.8261L69.4028 8.83081Z" fill="#87CADA"/>
<path d="M76.0303 11.826V17.8124L82.6535 14.8171L76.0303 11.826Z" fill="#87CADA"/>
<path d="M76.0303 17.8125V23.7989L82.6535 20.8078L76.0303 17.8125Z" fill="#87CADA"/>
<path d="M82.6533 14.8171V20.8077L89.2808 17.8124L82.6533 14.8171Z" fill="#87CADA"/>
<path d="M69.4028 14.8171V20.8077L76.0303 17.8124L69.4028 14.8171Z" fill="#87CADA"/>
<path d="M69.4028 20.8036V26.7942L76.0303 23.7989L69.4028 20.8036Z" fill="#87CADA"/>
<path d="M7.49477 11.1348C7.7049 11.1332 7.91312 11.1746 8.10647 11.2563C8.2914 11.3341 8.46127 11.4432 8.60848 11.5789C8.75515 11.7141 8.8718 11.8781 8.95097 12.0606C9.03015 12.2431 9.07011 12.44 9.06831 12.6387V14.9763C9.07011 15.175 9.03015 15.3719 8.95097 15.5544C8.8718 15.7369 8.75515 15.901 8.60848 16.0362C8.46127 16.1718 8.2914 16.281 8.10647 16.3588C7.91305 16.4403 7.70488 16.4816 7.49477 16.4802H1.77856H1.65201V19.4755H0.344238V11.1348H7.49477ZM7.76054 12.6387C7.76058 12.6048 7.75347 12.5713 7.73967 12.5402C7.72586 12.5092 7.70567 12.4814 7.68039 12.4586C7.65597 12.4345 7.627 12.4155 7.59515 12.4025C7.5633 12.3896 7.52918 12.383 7.49477 12.3832H1.91778C1.88266 12.3825 1.84775 12.3888 1.81513 12.4017C1.78252 12.4147 1.75286 12.434 1.72794 12.4586C1.70245 12.4812 1.68211 12.509 1.66829 12.5401C1.65447 12.5711 1.64748 12.6048 1.64779 12.6387V14.9763C1.64748 15.0103 1.65447 15.0439 1.66829 15.075C1.68211 15.106 1.70245 15.1338 1.72794 15.1564C1.75286 15.181 1.78252 15.2004 1.81513 15.2133C1.84775 15.2263 1.88266 15.2326 1.91778 15.2319H7.49477C7.52918 15.232 7.5633 15.2255 7.59515 15.2125C7.627 15.1996 7.65597 15.1805 7.68039 15.1564C7.70588 15.1338 7.72622 15.106 7.74004 15.075C7.75386 15.0439 7.76085 15.0103 7.76054 14.9763V12.6387Z" fill="#87CADA"/>
<path d="M9.70117 11.1097H11.0089V18.1979H18.4252V19.4463H9.70117V11.1097Z" fill="#87CADA"/>
<path d="M26.3011 11.1222C26.5108 11.1212 26.7186 11.1611 26.9128 11.2395C27.0993 11.3144 27.2697 11.4239 27.4149 11.5621C27.558 11.6992 27.6727 11.8629 27.7523 12.0439C27.8338 12.2273 27.8755 12.4257 27.8747 12.6262V19.4504H26.5669V16.5179H20.4626V19.4504H19.1548V12.6262C19.1493 12.4252 19.1867 12.2253 19.2645 12.0397C19.3442 11.8587 19.4588 11.695 19.602 11.5579C19.7484 11.4192 19.9203 11.3097 20.1082 11.2354C20.3025 11.1569 20.5103 11.1171 20.7199 11.1181L26.3011 11.1222ZM26.5669 15.2863V12.6262C26.5672 12.5922 26.5602 12.5586 26.5464 12.5275C26.5326 12.4965 26.5123 12.4687 26.4868 12.446C26.4618 12.4215 26.4322 12.4021 26.3996 12.3892C26.367 12.3762 26.332 12.3699 26.2969 12.3706H20.7284C20.6933 12.3699 20.6583 12.3762 20.6257 12.3892C20.5931 12.4021 20.5635 12.4215 20.5385 12.446C20.513 12.4687 20.4927 12.4965 20.4789 12.5275C20.4651 12.5586 20.4581 12.5922 20.4584 12.6262V15.2863H26.5669Z" fill="#87CADA"/>
<path d="M37.4174 11.1223L33.3929 16.3253V19.4463H32.0851V16.3253L28.0605 11.1223H29.6003L32.739 14.9135L35.865 11.1223H37.4174Z" fill="#87CADA"/>
<path d="M46.2384 13.1122H44.9307V12.6263C44.931 12.5923 44.924 12.5587 44.9102 12.5276C44.8963 12.4965 44.876 12.4688 44.8505 12.4461C44.8256 12.4215 44.7959 12.4022 44.7633 12.3892C44.7307 12.3763 44.6958 12.37 44.6607 12.3707H39.0921C39.057 12.37 39.0221 12.3763 38.9895 12.3892C38.9568 12.4022 38.9272 12.4215 38.9023 12.4461C38.8768 12.4688 38.8564 12.4965 38.8426 12.5276C38.8288 12.5587 38.8218 12.5923 38.8221 12.6263V14.4067C38.8218 14.4406 38.8288 14.4743 38.8426 14.5053C38.8564 14.5364 38.8768 14.5642 38.9023 14.5868C38.9272 14.6114 38.9568 14.6307 38.9895 14.6437C39.0221 14.6566 39.057 14.6629 39.0921 14.6622H44.6691C44.8788 14.6612 45.0866 14.7011 45.2808 14.7795C45.4672 14.8545 45.6376 14.9639 45.7828 15.1021C45.9261 15.2391 46.0408 15.4028 46.1203 15.5838C46.2019 15.7672 46.2436 15.9656 46.2426 16.1661V17.9465C46.2436 18.147 46.2019 18.3455 46.1203 18.5288C46.0409 18.7099 45.9262 18.8737 45.7828 19.0106C45.4805 19.2886 45.081 19.4388 44.6691 19.4295H39.0921C38.6802 19.4388 38.2808 19.2886 37.9784 19.0106C37.8351 18.8736 37.7205 18.7099 37.6409 18.5288C37.5593 18.3455 37.5176 18.147 37.5186 17.9465V17.4606H38.8263V17.9465C38.826 17.9805 38.833 18.0141 38.8468 18.0452C38.8607 18.0763 38.881 18.104 38.9065 18.1267C38.9314 18.1513 38.9611 18.1706 38.9937 18.1836C39.0263 18.1965 39.0612 18.2028 39.0963 18.2021H44.6733C44.7084 18.2028 44.7434 18.1965 44.776 18.1836C44.8086 18.1706 44.8382 18.1513 44.8632 18.1267C44.8886 18.104 44.909 18.0763 44.9228 18.0452C44.9366 18.0141 44.9436 17.9805 44.9433 17.9465V16.1619C44.9436 16.128 44.9366 16.0944 44.9228 16.0633C44.909 16.0322 44.8886 16.0045 44.8632 15.9818C44.8382 15.9572 44.8086 15.9379 44.776 15.9249C44.7434 15.912 44.7084 15.9057 44.6733 15.9064H39.0921C38.6802 15.9153 38.281 15.7651 37.9784 15.4875C37.8351 15.3505 37.7205 15.1868 37.6409 15.0057C37.5594 14.8223 37.5178 14.6239 37.5186 14.4234V12.6263C37.5176 12.4258 37.5593 12.2273 37.6409 12.044C37.7206 11.863 37.8352 11.6993 37.9784 11.5622C38.1235 11.4239 38.2939 11.3144 38.4804 11.2396C38.6746 11.1612 38.8824 11.1213 39.0921 11.1223H44.6691C44.8788 11.1213 45.0866 11.1612 45.2808 11.2396C45.4673 11.3145 45.6376 11.424 45.7828 11.5622C45.9261 11.6992 46.0408 11.8629 46.1203 12.044C46.2019 12.2273 46.2436 12.4258 46.2426 12.6263L46.2384 13.1122Z" fill="#87CADA"/>
<path d="M54.1779 11.1223C54.5897 11.1135 54.989 11.2636 55.2916 11.5412C55.4349 11.6783 55.5495 11.842 55.6291 12.023C55.7104 12.2065 55.7521 12.4048 55.7514 12.6053V17.9256C55.7521 18.1261 55.7104 18.3244 55.6291 18.5079C55.5495 18.6889 55.4349 18.8526 55.2916 18.9896C54.9892 19.2676 54.5898 19.4179 54.1779 19.4086H48.6009C48.189 19.4179 47.7895 19.2676 47.4872 18.9896C47.344 18.8526 47.2293 18.6889 47.1497 18.5079C47.0682 18.3245 47.0265 18.1261 47.0274 17.9256V12.6262C47.0265 12.4258 47.0682 12.2274 47.1497 12.0439C47.2293 11.863 47.344 11.6993 47.4872 11.5622C47.6324 11.424 47.8028 11.3146 47.9892 11.2396C48.1834 11.1612 48.3912 11.1213 48.6009 11.1223H54.1779ZM54.1779 18.2021C54.213 18.2028 54.2479 18.1965 54.2805 18.1836C54.3131 18.1706 54.3428 18.1513 54.3677 18.1267C54.3932 18.104 54.4136 18.0763 54.4274 18.0452C54.4412 18.0141 54.4482 17.9805 54.4479 17.9465V12.6262C54.4482 12.5923 54.4412 12.5587 54.4274 12.5276C54.4136 12.4965 54.3932 12.4687 54.3677 12.4461C54.3428 12.4215 54.3131 12.4022 54.2805 12.3892C54.2479 12.3763 54.213 12.37 54.1779 12.3707H48.6009C48.5658 12.37 48.5309 12.3763 48.4982 12.3892C48.4656 12.4022 48.436 12.4215 48.4111 12.4461C48.3856 12.4687 48.3652 12.4965 48.3514 12.5276C48.3376 12.5587 48.3306 12.5923 48.3309 12.6262V17.9465C48.3306 17.9805 48.3376 18.0141 48.3514 18.0452C48.3652 18.0763 48.3856 18.104 48.4111 18.1267C48.436 18.1513 48.4656 18.1706 48.4982 18.1836C48.5309 18.1965 48.5658 18.2028 48.6009 18.2021H54.1779Z" fill="#87CADA"/>
<path d="M64.0196 11.1223H65.3274V19.4463H63.775L57.9111 12.7854V19.4463H56.5991V11.1223H58.1516L64.0196 17.7831V11.1223Z" fill="#87CADA"/>
<path d="M15.666 24.955V24.7498C15.3579 24.9098 15.0178 24.9999 14.6704 25.0137C13.9827 25.0137 13.8267 24.6283 13.8267 24.025V22.4248H14.1557V24.0292C14.1557 24.5696 14.2907 24.7581 14.7379 24.7581C15.0635 24.7385 15.3819 24.6544 15.6744 24.511V22.4164H16.0119V24.9299L15.666 24.955Z" fill="#87CADA"/>
<path d="M18.497 24.9551V23.3506C18.497 22.8102 18.3662 22.6217 17.919 22.6217C17.5939 22.6414 17.2758 22.724 16.9825 22.8646V24.9592H16.645V22.4457H16.9825V22.6217C17.2797 22.4596 17.61 22.3665 17.9486 22.3494C18.6742 22.3494 18.8387 22.6929 18.8387 23.3422V24.9467L18.497 24.9551Z" fill="#87CADA"/>
<path d="M19.4927 21.9304V21.3649H19.8386V21.943L19.4927 21.9304ZM19.4927 24.955V22.4415H19.8344V24.955H19.4927Z" fill="#87CADA"/>
<path d="M22.2175 25.9269V24.8545C21.9491 24.9607 21.6627 25.0147 21.3738 25.0137C20.6692 25.0137 20.3486 24.6911 20.3486 23.7988V23.6103C20.3486 22.63 20.741 22.3536 21.6142 22.3536C21.9302 22.3525 22.2458 22.3721 22.5592 22.4122V25.9228L22.2175 25.9269ZM22.2175 22.651C22.0192 22.651 21.7492 22.6259 21.6016 22.6259C20.9814 22.6259 20.6988 22.7809 20.6988 23.6103V23.7988C20.6988 24.5152 20.9013 24.7456 21.437 24.7456C21.7033 24.741 21.967 24.6929 22.2175 24.6032V22.651Z" fill="#87CADA"/>
<path d="M25.0483 24.955V24.7498C24.7402 24.9098 24.4001 24.9999 24.0527 25.0137C23.3651 25.0137 23.209 24.6283 23.209 24.025V22.4248H23.538V24.0292C23.538 24.5696 23.673 24.7581 24.1202 24.7581C24.4458 24.7385 24.7642 24.6544 25.0567 24.511V22.4164H25.3942V24.9299L25.0483 24.955Z" fill="#87CADA"/>
<path d="M26.2336 23.7946V23.8491C26.2336 24.4272 26.4108 24.7498 27.1744 24.7498C27.492 24.746 27.809 24.7222 28.1236 24.6786V24.9215C27.804 24.9841 27.479 25.0149 27.1533 25.0137C26.1957 25.0137 25.8877 24.6283 25.8877 23.7821V23.6061C25.8877 22.8144 26.2463 22.3494 27.052 22.3494C27.8578 22.3494 28.2206 22.7976 28.2206 23.6313V23.7863L26.2336 23.7946ZM27.8789 23.4972C27.8789 23.0448 27.7397 22.6259 27.0605 22.6259C26.3813 22.6259 26.2378 23.0448 26.2378 23.4972V23.5391H27.8831L27.8789 23.4972Z" fill="#87CADA"/>
<path d="M30.5829 25.9731C30.2553 25.969 29.9282 25.9424 29.6042 25.8935V25.6714C29.908 25.6966 30.2455 25.7133 30.5829 25.7133C31.1989 25.7133 31.3254 25.5248 31.3254 25.0473V24.9216C31.1062 24.9782 30.8811 25.0091 30.6547 25.0137C29.8742 25.0137 29.4692 24.7079 29.4692 23.8491V23.5224C29.4692 22.7264 29.832 22.3578 30.7348 22.3578C31.0508 22.3632 31.3662 22.3856 31.6798 22.4248V25.0473C31.6629 25.6505 31.4435 25.9731 30.5829 25.9731ZM31.3254 22.6594C31.1226 22.6332 30.9183 22.6192 30.7137 22.6175C30.0387 22.6175 29.8025 22.8898 29.8025 23.5224V23.8491C29.8025 24.5278 30.0472 24.754 30.6462 24.754C30.8711 24.7505 31.0948 24.7209 31.3128 24.666L31.3254 22.6594Z" fill="#87CADA"/>
<path d="M33.937 24.9551V24.775C33.6506 24.9335 33.3283 25.0172 33.0005 25.0179C32.452 25.0179 32.1567 24.7959 32.1567 24.289V24.2178C32.1567 23.5727 32.6166 23.4428 33.4223 23.4428H33.899V23.2291C33.899 22.7348 33.7809 22.6175 33.1565 22.6175C32.8816 22.6192 32.607 22.636 32.3339 22.6678V22.4458C32.6118 22.3907 32.8943 22.3613 33.1776 22.3578C34.072 22.3578 34.2365 22.6343 34.2365 23.2291V24.9551H33.937ZM33.937 23.6983H33.4603C32.7853 23.6983 32.5153 23.7821 32.5153 24.2346V24.2974C32.5153 24.6451 32.7305 24.7666 33.0848 24.7666C33.3804 24.7567 33.6695 24.6778 33.9286 24.5362L33.937 23.6983Z" fill="#87CADA"/>
<path d="M38.0417 24.9551V23.2794C38.0417 22.8605 38.0037 22.6426 37.5523 22.6426C37.2741 22.6595 37.0039 22.7413 36.7635 22.8814C36.7925 23.0191 36.8052 23.1597 36.8014 23.3003V24.976H36.4597V23.3003C36.4597 22.8814 36.4344 22.6636 35.9957 22.6636C35.7206 22.6831 35.4537 22.7647 35.2152 22.9023V24.997H34.8735V22.4834H35.211V22.6217C35.4624 22.4583 35.7544 22.3669 36.0547 22.3578C36.1753 22.342 36.2978 22.3604 36.4083 22.4108C36.5187 22.4612 36.6126 22.5416 36.6791 22.6426C36.9484 22.4681 37.2605 22.3696 37.5819 22.3578C38.337 22.3578 38.3708 22.8395 38.3708 23.2626V24.9383L38.0417 24.9551Z" fill="#87CADA"/>
<path d="M39.0332 21.9304V21.3649H39.3791V21.943L39.0332 21.9304ZM39.0332 24.955V22.4415H39.3749V24.955H39.0332Z" fill="#87CADA"/>
<path d="M41.8974 24.9551V23.3506C41.8974 22.8102 41.7666 22.6217 41.3194 22.6217C40.9943 22.6414 40.6762 22.724 40.3829 22.8646V24.9592H40.0454V22.4457H40.3829V22.6217C40.6801 22.4596 41.0104 22.3665 41.349 22.3494C42.0746 22.3494 42.2391 22.6929 42.2391 23.3422V24.9467L41.8974 24.9551Z" fill="#87CADA"/>
<path d="M43.8505 25.9731C43.5228 25.969 43.1958 25.9424 42.8718 25.8935V25.6714C43.1756 25.6966 43.513 25.7133 43.8505 25.7133C44.4664 25.7133 44.593 25.5248 44.593 25.0473V24.9216C44.3738 24.9782 44.1487 25.0091 43.9222 25.0137C43.1418 25.0137 42.7368 24.7079 42.7368 23.8491V23.5224C42.7368 22.7264 43.0996 22.3578 44.0024 22.3578C44.3184 22.3632 44.6338 22.3856 44.9474 22.4248V25.0473C44.9305 25.6505 44.7111 25.9731 43.8505 25.9731ZM44.5761 22.6594C44.3733 22.6332 44.169 22.6192 43.9644 22.6175C43.2895 22.6175 43.0532 22.8898 43.0532 23.5224V23.8491C43.0532 24.5278 43.2979 24.754 43.8969 24.754C44.1218 24.7505 44.3455 24.7209 44.5635 24.666L44.5761 22.6594Z" fill="#87CADA"/>
<path d="M47.2131 25.0137C46.9112 25.0127 46.6102 24.9819 46.3145 24.9215V24.6827C46.6097 24.7222 46.9069 24.746 47.2046 24.7539C47.732 24.7539 47.8965 24.5906 47.8965 24.335C47.8965 24.0795 47.7742 23.9873 47.2679 23.7988L47.0654 23.7276C46.5297 23.5307 46.2808 23.3296 46.2808 22.9735C46.2808 22.6175 46.6056 22.3577 47.2848 22.3577C47.5615 22.3561 47.8374 22.3856 48.1074 22.4457V22.6803C47.84 22.6475 47.5711 22.6293 47.3017 22.6258C46.8376 22.6258 46.6267 22.7012 46.6267 22.9735C46.6267 23.2458 46.7701 23.3129 47.2046 23.4721L47.4071 23.5475C48.0315 23.7862 48.2509 23.9664 48.2509 24.3308C48.2509 24.6953 48.0062 25.0137 47.2131 25.0137Z" fill="#87CADA"/>
<path d="M49.7354 25.0137C48.9381 25.0137 48.5669 24.5947 48.5669 23.8197V23.5474C48.5669 22.7682 48.9381 22.3535 49.7354 22.3535C50.5328 22.3535 50.904 22.7724 50.904 23.5474V23.8197C50.904 24.6031 50.5328 25.0137 49.7354 25.0137ZM50.5792 23.5516C50.5792 22.9023 50.3303 22.63 49.7354 22.63C49.1406 22.63 48.8917 22.9065 48.8917 23.5516V23.8239C48.8917 24.4733 49.1406 24.7497 49.7354 24.7497C50.3303 24.7497 50.5792 24.4691 50.5792 23.8239V23.5516Z" fill="#87CADA"/>
<path d="M51.4482 24.955V21.3649H51.7857V24.9676L51.4482 24.955Z" fill="#87CADA"/>
<path d="M54.2793 24.9551V24.7498C53.9711 24.9098 53.6311 25 53.2837 25.0137C52.596 25.0137 52.4399 24.6283 52.4399 24.0251V22.4248H52.769V24.0293C52.769 24.5697 52.904 24.7582 53.3512 24.7582C53.6742 24.7361 53.9897 24.6507 54.2793 24.5068V22.4122H54.6167V24.9258L54.2793 24.9551Z" fill="#87CADA"/>
<path d="M56.2111 25.0137C55.7344 25.0137 55.5741 24.8503 55.5741 24.3853V22.6803L54.9624 22.6552V22.4206H55.5741V21.7419H55.9116V22.4206H56.7173V22.6761H55.9116V24.3518C55.9116 24.6744 55.958 24.7498 56.2491 24.7498C56.3883 24.7498 56.595 24.7498 56.7173 24.7247V24.9383C56.5512 24.9785 56.3818 25.0038 56.2111 25.0137V25.0137Z" fill="#87CADA"/>
<path d="M57.1221 21.9304V21.3649H57.468V21.943L57.1221 21.9304ZM57.1221 24.955V22.4415H57.4638V24.955H57.1221Z" fill="#87CADA"/>
<path d="M59.1812 25.0137C58.3839 25.0137 58.0127 24.5947 58.0127 23.8197V23.5474C58.0127 22.7682 58.3839 22.3535 59.1812 22.3535C59.9786 22.3535 60.3498 22.7724 60.3498 23.5474V23.8197C60.3498 24.6031 59.9743 25.0137 59.1812 25.0137ZM60.025 23.5516C60.025 22.9023 59.7761 22.63 59.1812 22.63C58.5864 22.63 58.3375 22.9065 58.3375 23.5516V23.8239C58.3375 24.4733 58.5864 24.7497 59.1812 24.7497C59.7761 24.7497 60.025 24.4691 60.025 23.8239V23.5516Z" fill="#87CADA"/>
<path d="M62.7162 24.9551V23.3506C62.7162 22.8102 62.5855 22.6217 62.1383 22.6217C61.8132 22.6414 61.4951 22.724 61.2017 22.8646V24.9592H60.8643V22.4457H61.2017V22.6217C61.4989 22.4596 61.8292 22.3665 62.1678 22.3494C62.8892 22.3494 63.0579 22.6929 63.0579 23.3422V24.9467L62.7162 24.9551Z" fill="#87CADA"/>
<path d="M64.467 25.0137C64.1651 25.0127 63.8641 24.9819 63.5684 24.9215V24.6827C63.8636 24.7222 64.1608 24.746 64.4585 24.7539C64.9859 24.7539 65.1504 24.5906 65.1504 24.335C65.1504 24.0795 65.0281 23.9873 64.5218 23.7988L64.3193 23.7276C63.7836 23.5307 63.5347 23.3296 63.5347 22.9735C63.5347 22.6175 63.8595 22.3577 64.5387 22.3577C64.8154 22.3561 65.0913 22.3856 65.3613 22.4457V22.6803C65.0939 22.6475 64.825 22.6293 64.5556 22.6258C64.0915 22.6258 63.8806 22.7012 63.8806 22.9735C63.8806 23.2458 64.024 23.3129 64.4585 23.4721L64.661 23.5475C65.2854 23.7862 65.5048 23.9664 65.5048 24.3308C65.5048 24.6953 65.2474 25.0137 64.467 25.0137Z" fill="#87CADA"/>
</svg>
