<svg width="100" height="40" viewBox="0 0 100 40" fill="none" xmlns="http://www.w3.org/2000/svg">
<path fill-rule="evenodd" clip-rule="evenodd" d="M38.5551 21.4115C38.4961 21.434 38.4241 21.4878 38.3952 21.531C38.3663 21.5743 38.3422 24.4142 38.3416 27.8421C38.3406 33.5489 38.3504 34.0826 38.4586 34.1725C38.5463 34.2454 38.9029 34.2768 39.8428 34.2942C41.2585 34.3205 41.6603 34.2582 41.729 34.0019C41.7526 33.9137 41.7725 32.8517 41.773 31.6419L41.774 29.4424H44.1702H46.5665V31.7177C46.5665 33.5695 46.5854 34.0188 46.668 34.1318C46.7629 34.2616 46.8672 34.2707 48.2664 34.2707C49.43 34.2707 49.7896 34.2488 49.8816 34.1725C49.9901 34.0826 50 33.5527 50 27.8282V21.5821L49.841 21.4707C49.7102 21.379 49.432 21.3594 48.2673 21.3594C46.948 21.3594 46.843 21.369 46.7096 21.5024C46.5725 21.6396 46.5665 21.7408 46.5665 23.9345V26.2235H44.1702H41.774V23.9345C41.774 21.7408 41.768 21.6396 41.6309 21.5024C41.4971 21.3686 41.3966 21.3597 40.0751 21.365C39.2981 21.3681 38.6141 21.3891 38.5551 21.4115ZM55.2456 21.5918C55.0953 21.7595 50.9299 33.725 50.9299 33.9889C50.9299 34.2871 51.0316 34.3064 52.5941 34.3064C53.4588 34.3064 54.1433 34.2762 54.2212 34.2344C54.3119 34.1859 54.4399 33.8887 54.6141 33.3224C54.7562 32.8604 54.9053 32.3778 54.9454 32.2499L55.0182 32.0175H57.1531H59.2879L59.3607 32.2499C59.4009 32.3778 59.5499 32.8604 59.6921 33.3224C59.8662 33.8887 59.9943 34.1859 60.085 34.2344C60.1629 34.2762 60.8474 34.3064 61.712 34.3064C63.2745 34.3064 63.3763 34.2871 63.3763 33.9889C63.3763 33.725 59.2109 21.7595 59.0606 21.5918C58.9185 21.4332 58.8913 21.4309 57.1531 21.4309C55.4149 21.4309 55.3877 21.4332 55.2456 21.5918ZM60.6724 21.5167C60.6252 21.564 60.5867 21.6685 60.5868 21.7492C60.5873 22.0268 64.8623 34.1178 64.994 34.214C65.176 34.3471 68.7296 34.3471 68.9116 34.214C69.0433 34.1178 73.3182 22.0268 73.3187 21.7492C73.3193 21.4498 73.2192 21.4309 71.6317 21.4309C70.2908 21.4309 70.0994 21.4454 69.9718 21.5561C69.8689 21.6454 69.4445 22.9207 68.4901 26.0089C67.7544 28.3891 67.1243 30.3665 67.0896 30.4032C67.055 30.44 67.0109 30.4542 66.9915 30.4348C66.9722 30.4155 66.3409 28.438 65.5887 26.0404C64.6202 22.9536 64.179 21.6447 64.0768 21.5561C63.9489 21.4449 63.7544 21.4309 62.3454 21.4309C61.2063 21.4309 60.734 21.4552 60.6724 21.5167ZM74.9165 21.5918C74.7662 21.7595 70.6009 33.725 70.6009 33.9889C70.6009 34.2871 70.7026 34.3064 72.2651 34.3064C73.1298 34.3064 73.8142 34.2762 73.8921 34.2344C73.9828 34.1859 74.1109 33.8887 74.2851 33.3224C74.4272 32.8604 74.5763 32.3778 74.6164 32.2499L74.6892 32.0175H76.824H78.9589L79.0317 32.2499C79.0718 32.3778 79.2209 32.8604 79.363 33.3224C79.5372 33.8887 79.6652 34.1859 79.7559 34.2344C79.8338 34.2762 80.5183 34.3064 81.383 34.3064C82.9455 34.3064 83.0472 34.2871 83.0472 33.9889C83.0472 33.725 78.8818 21.7595 78.7315 21.5918C78.5894 21.4332 78.5622 21.4309 76.824 21.4309C75.0858 21.4309 75.0587 21.4332 74.9165 21.5918ZM83.387 21.5082C83.2692 21.5768 83.2618 21.956 83.2618 27.8697C83.2618 34.0139 83.2649 34.16 83.4001 34.2324C83.4904 34.2807 84.8281 34.3064 87.2491 34.3064C90.3403 34.3064 90.983 34.2895 91.0986 34.2049C91.2276 34.1107 91.2375 34.0072 91.2375 32.7496C91.2375 31.7074 91.2149 31.3686 91.1393 31.2775C91.0519 31.172 90.8029 31.1591 88.8682 31.1591H86.6953V26.4381C86.6953 21.8124 86.6924 21.7142 86.5522 21.574C86.4184 21.4401 86.3154 21.431 84.9607 21.4331C84.1105 21.4343 83.4604 21.4654 83.387 21.5082ZM91.7561 21.5082C91.6383 21.5768 91.6309 21.956 91.6309 27.8697C91.6309 34.0139 91.634 34.16 91.7692 34.2324C91.8598 34.2808 93.2665 34.3064 95.8414 34.3064C99.3222 34.3064 99.7881 34.2935 99.8876 34.1941C99.9806 34.101 100 33.8798 100 32.9105C100 31.7815 99.9943 31.7355 99.841 31.6281C99.7051 31.5329 99.3471 31.5167 97.3732 31.5167H95.0644V30.408V29.2993H97.1388C99.1178 29.2993 99.2197 29.2927 99.3562 29.1562C99.4873 29.0251 99.4993 28.9178 99.4993 27.8687C99.4993 26.8195 99.4873 26.7122 99.3562 26.5811C99.2197 26.4446 99.1178 26.4381 97.1388 26.4381H95.0644V25.3293V24.2206H97.3891C99.6185 24.2206 99.7197 24.2147 99.8569 24.0775C99.988 23.9465 100 23.8391 100 22.8011C100 21.7939 99.9854 21.6545 99.8692 21.5493C99.7507 21.4421 99.3669 21.4311 95.8098 21.4331C93.2748 21.4345 91.8368 21.4611 91.7561 21.5082ZM9.28648 21.5349C9.26302 21.5544 7.37654 21.6111 4.14878 21.6893C3.18491 21.7127 2.3319 21.7422 2.25322 21.7549C2.17454 21.7675 1.63541 21.7803 1.05508 21.7833C0.417454 21.7865 0 21.8163 0 21.8587C0 21.8972 0.986552 24.0619 2.19227 26.6691C3.39807 29.2763 4.47089 31.5976 4.57632 31.8275L4.76803 32.2456L5.68162 30.7725C6.18412 29.9622 6.61924 29.2993 6.64857 29.2993C6.6779 29.2993 7.2108 29.5433 7.83276 29.8415C11.5709 31.6338 15.6905 32.9278 19.3133 33.4476C19.569 33.4843 19.8909 33.5317 20.0286 33.5529C21.3295 33.7532 22.4348 33.8217 24.7139 33.8434C27.5285 33.8703 28.2152 33.8306 30.4363 33.5127C32.2928 33.2471 35.6938 32.4054 35.6938 32.2117C35.6938 32.2032 34.865 32.2004 33.8519 32.2054C31.2009 32.2185 29.6726 32.0917 26.7883 31.6195C24.8971 31.3099 22.3464 30.6621 20.1717 29.9389C19.29 29.6458 17.3633 28.9205 16.7848 28.6641C15.1326 27.9317 14.6073 27.6855 13.5551 27.1506C12.2852 26.5051 10.8483 25.6956 9.95436 25.1224C9.58341 24.8844 9.44163 24.7541 9.47096 24.6778C9.49371 24.6183 9.93112 23.8932 10.4428 23.0662C10.9546 22.2393 11.3734 21.548 11.3734 21.53C11.3734 21.4959 9.32747 21.5008 9.28648 21.5349ZM57.8482 27.2659C58.1739 28.3253 58.4404 29.2161 58.4405 29.2456C58.4406 29.2752 57.8612 29.2993 57.1531 29.2993C56.4449 29.2993 55.8655 29.2762 55.8655 29.2479C55.8655 29.1803 57.0176 25.4178 57.0611 25.3434C57.1655 25.1649 57.3134 25.5261 57.8482 27.2659ZM77.5192 27.2659C77.8449 28.3253 78.1114 29.2161 78.1114 29.2456C78.1115 29.2752 77.5322 29.2993 76.824 29.2993C76.1159 29.2993 75.5365 29.2762 75.5365 29.2479C75.5365 29.1803 76.6886 25.4178 76.732 25.3434C76.8364 25.1649 76.9843 25.5261 77.5192 27.2659Z" fill="#96C8D8"/>
<path d="M13.5193 17.9402C13.505 17.7399 13.4835 17.5396 13.4835 17.3393C13.4835 13.584 13.4835 9.83576 13.4835 6.08039C13.4835 5.95879 13.4835 5.84434 13.4907 5.72274C13.5121 5.49384 13.6337 5.35078 13.8769 5.35078C14.6709 5.35078 15.4721 5.35078 16.2661 5.35078C16.5236 5.35078 16.6595 5.53676 16.7882 5.72274C18.2618 7.81859 19.7353 9.90729 21.2088 12.0031C21.2231 12.0246 21.2303 12.0461 21.2446 12.0604C21.3376 12.1391 21.3519 12.3465 21.5164 12.2893C21.638 12.2463 21.5665 12.0747 21.5665 11.9674C21.5593 9.99313 21.5522 8.01173 21.545 6.03748C21.545 5.40801 21.6094 5.34363 22.2317 5.34363C22.9613 5.34363 23.6838 5.34363 24.4134 5.34363C24.9785 5.34363 25.0644 5.42946 25.0644 6.00886C25.0644 7.21773 25.0644 8.4266 25.0644 9.62832C25.0644 12.1748 25.0644 14.7142 25.0644 17.2607C25.0644 17.4824 25.0357 17.7113 25.0214 17.933C23.9699 17.933 22.9256 17.933 21.8741 17.933C21.4234 17.5325 21.1302 17.0103 20.7797 16.5382C19.6137 14.9359 18.4406 13.3408 17.2818 11.7385C17.2317 11.6741 17.196 11.5954 17.0887 11.5525C17.01 11.6455 17.0386 11.7671 17.0386 11.8744C17.0386 13.3908 17.0386 14.9001 17.0386 16.4166C17.0386 16.7456 17.1387 17.0747 17.1101 17.4037C17.0958 17.5968 17.0887 17.7828 16.9456 17.933C15.8011 17.9402 14.6566 17.9402 13.5193 17.9402Z" fill="#96C8D8"/>
<path d="M29.6709 17.9402C29.6566 17.7399 29.6351 17.5396 29.6351 17.3393C29.6351 13.584 29.6351 9.83576 29.6351 6.08039C29.6351 5.95879 29.6351 5.84434 29.6423 5.72274C29.6637 5.49384 29.7853 5.35078 30.0286 5.35078C30.8225 5.35078 31.6237 5.35078 32.4177 5.35078C32.6752 5.35078 32.8111 5.53676 32.9399 5.72274C34.4134 7.81859 35.8869 9.90729 37.3605 12.0031C37.3748 12.0246 37.3819 12.0461 37.3962 12.0604C37.4892 12.1391 37.5035 12.3465 37.668 12.2893C37.7896 12.2463 37.7181 12.0747 37.7181 11.9674C37.711 9.99313 37.7038 8.01173 37.6966 6.03748C37.6966 5.40801 37.761 5.34363 38.3833 5.34363C39.113 5.34363 39.8354 5.34363 40.565 5.34363C41.1301 5.34363 41.216 5.42946 41.216 6.00886C41.216 7.21773 41.216 8.4266 41.216 9.62832C41.216 12.1748 41.216 14.7142 41.216 17.2607C41.216 17.4824 41.1873 17.7113 41.173 17.933C40.1215 17.933 39.0772 17.933 38.0257 17.933C37.575 17.5325 37.2818 17.0103 36.9313 16.5382C35.7653 14.9359 34.5922 13.3408 33.4334 11.7385C33.3833 11.6741 33.3476 11.5954 33.2403 11.5525C33.1616 11.6455 33.1902 11.7671 33.1902 11.8744C33.1902 13.3908 33.1902 14.9001 33.1902 16.4166C33.1902 16.7456 33.2904 17.0747 33.2617 17.4037C33.2474 17.5968 33.2403 17.7828 33.0972 17.933C31.9527 17.9402 30.8082 17.9402 29.6709 17.9402Z" fill="#96C8D8"/>
<path d="M25.6652 17.9402C25.6509 17.7756 25.6295 17.6111 25.6295 17.4466C25.6295 13.6555 25.6295 9.87149 25.6295 6.08036C25.6295 5.97307 25.6295 5.86577 25.6366 5.75848C25.6509 5.50812 25.7868 5.36506 26.0443 5.36506C26.917 5.36506 27.7825 5.3579 28.6552 5.36506C28.8913 5.36506 29.0343 5.49381 29.0558 5.72986C29.0629 5.84431 29.0772 5.96591 29.0772 6.08036C29.0844 9.87865 29.0844 13.6841 29.0915 17.4824C29.0915 17.6326 29.1202 17.7899 29.0343 17.933C27.9041 17.9402 26.7883 17.9402 25.6652 17.9402Z" fill="#96C8D8"/>
<path d="M64.5423 6.98882C65.744 6.53103 66.9958 6.2449 68.2619 6.00885C74.4064 4.88582 80.4579 5.34362 86.4093 7.16765C88.6482 7.85435 90.8156 8.72702 92.9043 9.79998C93.3764 10.0432 93.3692 10.036 93.6482 9.58539C94.1632 8.74848 94.6854 7.91872 95.229 7.04605C95.8013 8.27638 96.352 9.44948 96.8957 10.6297C97.8828 12.7542 98.8699 14.8787 99.857 17.0031C100.05 17.4252 100.057 17.4252 99.5852 17.4323C96.0516 17.5325 92.518 17.6398 88.9915 17.7399C88.8771 17.7399 88.7269 17.8114 88.6625 17.697C88.6053 17.5897 88.7412 17.4895 88.7984 17.3894C89.342 16.5024 89.8928 15.6154 90.4507 14.7356C90.5795 14.5353 90.558 14.4495 90.3578 14.3207C84.621 10.737 78.4193 8.38367 71.7025 7.43947C69.3277 7.10327 66.9386 7.01744 64.5495 7.07466C64.5137 7.0532 64.5137 7.01744 64.5423 6.98882Z" fill="#96C8D8"/>
<path d="M53.2404 13.1762C53.1975 13.2978 53.1546 13.4194 53.1117 13.5339C53.0902 13.5696 53.0688 13.5625 53.0473 13.5267C53.0902 13.3121 53.1331 13.0975 53.1689 12.8758C53.2047 12.9759 53.1403 13.0904 53.2404 13.1762Z" fill="#96C8D8"/>
<path d="M64.5423 6.98877C64.5423 7.01738 64.5495 7.05315 64.5495 7.08176C64.4922 7.12468 64.3849 7.14614 64.3778 7.08891C64.3563 6.98877 64.4636 6.98877 64.5423 6.98877Z" fill="#96C8D8"/>
<path d="M53.133 13.7127C53.0472 13.7127 53.0114 13.7627 53.0043 13.8414C52.9971 13.8987 52.9614 13.9416 52.9399 13.9916C52.9471 13.9416 52.99 13.9058 52.9971 13.8557C52.99 13.727 53.1259 13.6483 53.133 13.5267C53.2403 13.3193 53.083 13.0904 53.1688 12.8829C53.2117 12.046 53.2332 11.2091 53.1116 10.3722C52.7682 7.89007 51.1302 6.08749 48.6552 5.58678C46.5021 5.15044 44.3133 5.43656 42.1388 5.37218C41.9385 5.36503 41.8097 5.49379 41.7811 5.70123C41.7668 5.82998 41.7596 5.95874 41.7596 6.08749C41.7596 9.86432 41.7596 13.634 41.7596 17.4108C41.7596 17.5896 41.7883 17.7613 41.7954 17.9401C44.1273 17.9401 46.4664 17.9401 48.7983 17.9401C50.3719 17.6826 51.495 16.7885 52.3605 15.5152C52.4106 15.408 52.4964 15.315 52.5751 15.2291C52.7825 14.8858 52.8255 14.4494 53.226 14.1991C53.412 14.0846 53.3834 13.8271 53.133 13.7127ZM49.5136 13.0689C49.206 14.3779 48.2904 15.1075 46.9027 15.1576C46.4378 15.1791 45.9728 15.1504 45.5079 15.1719C45.279 15.1791 45.2289 15.1075 45.2289 14.8929C45.236 13.8486 45.236 12.8114 45.236 11.767C45.236 10.7227 45.2432 9.68549 45.2289 8.64114C45.2289 8.41224 45.2861 8.33356 45.5222 8.34071C46.0443 8.36217 46.5737 8.3121 47.0958 8.36932C48.5121 8.52669 49.2632 9.22769 49.5493 10.6368C49.721 11.4523 49.7067 12.2678 49.5136 13.0689Z" fill="#96C8D8"/>
<path d="M53.0473 13.5338C53.0688 13.5338 53.0902 13.541 53.1117 13.541C53.1045 13.6125 53.0974 13.6769 53.0902 13.7484C53.0688 13.7985 53.0544 13.8414 53.033 13.8915C53.0187 13.9201 52.9972 13.9272 52.9758 13.8986C52.94 13.7556 53.0187 13.6483 53.0473 13.5338Z" fill="#96C8D8"/>
<path d="M52.4035 15.5439C52.3749 15.5153 52.3534 15.4867 52.3248 15.458C52.3677 15.3579 52.3749 15.2363 52.5323 15.2506C52.4894 15.3436 52.4464 15.4437 52.4035 15.5439Z" fill="#96C8D8"/>
<path d="M52.9757 13.8916C52.9972 13.8916 53.0115 13.8916 53.033 13.8844C53.0044 13.9631 52.9757 14.0346 52.9328 14.1491C52.8828 14.0203 52.8828 13.9488 52.9757 13.8916Z" fill="#96C8D8"/>
<path d="M12.525 16.4881C11.309 12.9688 10.0858 9.44946 8.86264 5.9373C8.69097 5.44374 8.59083 5.36505 8.09726 5.36505C7.21743 5.36505 6.33761 5.36505 5.45063 5.36505C4.84261 5.36505 4.77824 5.40797 4.57795 5.97306C3.25463 9.79281 1.92416 13.6125 0.593687 17.4251C0.557921 17.5324 0.565074 17.6612 0.436319 17.7256C0.400554 17.8972 0.464931 17.9473 0.643758 17.9473C1.73818 17.9402 2.83975 17.9402 3.93417 17.9402C4.08439 17.8615 4.12731 17.7113 4.17738 17.5682C4.31329 17.1676 4.43489 16.7599 4.54934 16.345C4.62087 16.0875 4.76393 15.9802 5.02859 15.9802C6.15878 15.9874 7.28181 15.9874 8.412 15.9802C8.68382 15.9802 8.82688 16.0875 8.89126 16.345C9.0057 16.7527 9.12731 17.1605 9.26321 17.5682C9.31329 17.7113 9.3562 17.8615 9.50642 17.9402C10.6509 17.9402 11.7954 17.9402 12.9399 17.9402C12.947 17.418 12.6895 16.9602 12.525 16.4881ZM7.78968 13.1404C7.43203 13.1404 7.07437 13.1404 6.71672 13.1404C6.35907 13.1404 6.00141 13.1404 5.64376 13.1404C5.48639 13.1404 5.43632 13.1047 5.49354 12.933C5.85835 11.7456 6.22316 10.5582 6.58796 9.37077C6.60942 9.29209 6.62373 9.1991 6.73818 9.20625C6.82402 9.21341 6.84548 9.29209 6.86693 9.35647C7.23174 10.551 7.59655 11.7527 7.97566 12.9473C8.03289 13.1619 7.91128 13.1404 7.78968 13.1404Z" fill="#96C8D8"/>
<path d="M64.063 17.5253C62.704 13.6269 61.352 9.7356 60.0001 5.83718C59.8785 5.49383 59.6711 5.35792 59.3063 5.36507C58.4121 5.37938 57.518 5.37223 56.6239 5.37223C56.0015 5.37223 55.9515 5.41515 55.7512 5.98024C54.9143 8.37652 54.0774 10.7728 53.2404 13.1762C53.126 13.2692 53.1332 13.4194 53.0759 13.541C53.0759 13.6054 53.0545 13.6769 53.0902 13.7413C53.3334 13.9845 53.3263 14.1276 53.033 14.242C52.9114 14.285 52.8685 14.3708 52.8256 14.4638C52.7254 14.7213 52.6324 14.986 52.5323 15.2506C52.4035 15.315 52.4107 15.4652 52.3392 15.5654C52.0888 16.202 51.8528 16.8529 51.6453 17.5038C51.5952 17.6541 51.5595 17.8043 51.6811 17.9402C52.8256 17.9402 53.9701 17.9402 55.1146 17.9402C55.2648 17.8615 55.3077 17.7113 55.3578 17.5682C55.4937 17.1676 55.6153 16.7599 55.7297 16.345C55.8012 16.0875 55.9443 15.9802 56.209 15.9802C57.3392 15.9874 58.4622 15.9874 59.5924 15.9802C59.8642 15.9802 60.0073 16.0875 60.0716 16.345C60.1861 16.7528 60.3077 17.1605 60.4436 17.5682C60.4937 17.7113 60.5366 17.8615 60.6868 17.9402C61.8313 17.9402 62.9758 17.9402 64.1203 17.9402C64.1274 17.7971 64.106 17.6612 64.063 17.5253ZM58.9343 13.1405C58.5909 13.1333 58.2404 13.1405 57.8971 13.1405C57.5538 13.1405 57.2033 13.1333 56.8599 13.1405C56.6882 13.1405 56.5952 13.1333 56.6668 12.9116C57.0387 11.7385 57.3964 10.5654 57.754 9.3851C57.7755 9.30642 57.7827 9.21343 57.8971 9.21343C58.0116 9.21343 58.0187 9.30642 58.0402 9.3851C58.3978 10.5582 58.7555 11.7385 59.1274 12.9116C59.199 13.1262 59.106 13.1476 58.9343 13.1405Z" fill="#96C8D8"/>
</svg>
