<svg width="240" height="96" viewBox="0 0 240 96" fill="none" xmlns="http://www.w3.org/2000/svg">
<path fill-rule="evenodd" clip-rule="evenodd" d="M207.866 41.3532C207.973 41.4006 208.079 41.4515 208.181 41.5059C208.729 41.785 209.237 42.1372 209.691 42.553C210.41 43.1851 210.979 43.9686 211.354 44.8464C211.666 45.5816 211.841 46.3678 211.867 47.1656V47.2478L225.655 31.5539L225.845 31.3375L234.408 21.5715C235.038 20.8532 235.134 20.2085 234.843 19.6676C234.829 19.6633 234.814 19.6555 234.803 19.645C234.793 19.6345 234.784 19.6215 234.778 19.6071C234.751 19.545 234.717 19.4857 234.678 19.4297C234.597 19.3304 234.507 19.2391 234.408 19.1571C234.231 19.0451 234.024 18.9907 233.813 19.0013H225.424C224.722 19.0009 224.02 19.0573 223.327 19.17C221.027 20.0027 218.968 21.3879 217.334 23.2028C213.903 27.1166 210.915 33.5015 208.829 38.7562L207.866 41.3532ZM215.203 28.486C214.794 29.4414 214.46 30.4265 214.203 31.4327C214.035 32.1121 213.9 32.8 213.778 33.4967V33.4974V33.4976C213.726 33.8305 213.673 34.1633 213.625 34.4919C213.505 35.4914 213.4 36.491 213.348 37.5208C213.311 38.2566 213.258 38.977 213.206 39.6929V39.6931C213.184 39.9791 213.164 40.2644 213.144 40.5497C213.087 41.255 213.004 41.9602 212.906 42.6612C212.891 42.7738 212.872 42.8862 212.853 42.9987C212.845 43.055 212.836 43.1112 212.827 43.1674C212.66 44.2739 212.427 45.3693 212.128 46.4473C212.733 45.4302 213.21 44.3434 213.551 43.2108L217.668 37.6506L219.84 34.7385L214.03 41.3977C214.078 41.1598 214.12 40.9218 214.164 40.6838C214.246 40.2511 214.312 39.8184 214.368 39.3857L219.801 31.9866L214.556 37.9319C214.558 37.8947 214.564 37.8569 214.57 37.8187V37.8186C214.58 37.759 214.59 37.6983 214.59 37.6376L214.75 36.0367L214.78 36.0626L218.638 30.7101L219.453 29.5721L218.459 30.7058L214.933 34.626C215.011 33.9915 215.107 33.3597 215.22 32.7308L219.392 26.8677L215.545 31.1039C215.719 30.3423 215.914 29.5894 216.153 28.8495C216.798 26.9448 217.577 25.0881 218.485 23.2937C217.127 24.844 216.02 26.5959 215.203 28.486Z" fill="#96C8D8"/>
<path d="M81.7948 30.4897C81.3968 30.4897 81.0891 30.3635 80.872 30.111C80.6548 29.8226 80.5824 29.48 80.6548 29.0833L81.7405 24.0526C81.8129 23.6559 82.012 23.3313 82.3377 23.0789C82.6997 22.7904 83.0616 22.6461 83.4235 22.6461H90.2093C90.6074 22.6461 90.915 22.7904 91.1322 23.0789C91.3493 23.3313 91.4217 23.6559 91.3493 24.0526L90.2093 29.0833C90.1732 29.48 89.9922 29.8226 89.6665 30.111C89.3407 30.3635 88.9788 30.4897 88.5807 30.4897H81.7948Z" fill="#96C8D8"/>
<path d="M74.9547 62.5131C74.5566 62.5131 74.2489 62.387 74.0318 62.1344C73.8509 61.8461 73.7966 61.5214 73.869 61.1608L79.2433 35.7368C79.3157 35.3761 79.5148 35.0696 79.8406 34.8172C80.1662 34.5287 80.5282 34.3844 80.9263 34.3844H87.7121C88.1103 34.3844 88.3998 34.5107 88.5808 34.7631C88.7978 35.0155 88.8703 35.3401 88.7979 35.7368L83.3691 61.1608C83.2969 61.5576 83.0978 61.882 82.772 62.1344C82.4825 62.387 82.1387 62.5131 81.7405 62.5131H74.9547Z" fill="#96C8D8"/>
<path fill-rule="evenodd" clip-rule="evenodd" d="M5.27144 62.2426C5.45238 62.4229 5.70574 62.5131 6.03145 62.5131H13.4688C14.3374 62.5131 15.025 62.1164 15.5317 61.3231L18.6803 56.076H32.8492L33.7178 61.2149C33.8625 62.0804 34.4235 62.5131 35.4007 62.5131H42.2951C42.6932 62.5131 43.019 62.369 43.2723 62.0805C43.5257 61.7919 43.6342 61.3952 43.5979 60.8903L38.3322 26.2163C38.1874 25.1705 37.5721 24.6476 36.4864 24.6476H27.6919C26.6424 24.6476 25.81 25.1705 25.1947 26.2163L5.16287 60.8903C5.0543 61.1067 5 61.305 5 61.4853C5 61.7738 5.09049 62.0263 5.27144 62.2426ZM32.3063 47.9619H22.6433L30.4062 34.1681L32.3063 47.9619Z" fill="#96C8D8"/>
<path d="M50.794 62.1885C51.0111 62.4049 51.373 62.5131 51.8797 62.5131H58.0684C58.5751 62.5131 58.9731 62.4049 59.2628 62.1885C59.5884 61.9361 59.896 61.5935 60.1855 61.1608L75.7659 36.0613C75.9469 35.7728 76.0374 35.5204 76.0374 35.304C76.0374 35.0155 75.9469 34.7992 75.7659 34.6549C75.585 34.4746 75.3316 34.3844 75.006 34.3844H68.0572C67.2973 34.3844 66.7 34.7631 66.2658 35.5204L56.8198 51.6945L54.3769 35.6286C54.2684 35.2319 54.1054 34.9254 53.8883 34.709C53.7074 34.4926 53.3816 34.3844 52.9112 34.3844H46.831C46.2882 34.3844 45.8901 34.5287 45.6368 34.8172C45.4195 35.1057 45.3471 35.4843 45.4195 35.9531L50.3597 61.1608C50.4682 61.5935 50.613 61.9361 50.794 62.1885Z" fill="#96C8D8"/>
<path fill-rule="evenodd" clip-rule="evenodd" d="M91.9832 60.6198C93.6479 62.2426 96.0004 63.054 99.0405 63.054C100.959 63.054 102.551 62.7655 103.818 62.1885C105.084 61.5755 106.351 60.6739 107.618 59.4839L107.238 61.1609C107.165 61.5214 107.238 61.8461 107.455 62.1344C107.672 62.387 107.98 62.5131 108.378 62.5131H114.838C115.2 62.5131 115.544 62.387 115.869 62.1344C116.195 61.882 116.394 61.5576 116.467 61.1609L121.895 35.7368C121.968 35.3761 121.895 35.0696 121.678 34.8172C121.461 34.5287 121.153 34.3844 120.755 34.3844H114.349C113.951 34.3844 113.589 34.5107 113.264 34.7631C112.974 35.0155 112.793 35.3401 112.721 35.7368L112.395 37.0891C111.635 36.0433 110.676 35.2499 109.518 34.709C108.36 34.132 106.767 33.8435 104.741 33.8435C101.085 33.8435 98.0815 34.9614 95.7289 37.1973C93.3765 39.3972 91.6755 42.4985 90.626 46.5014L89.8116 50.342C89.6306 51.2796 89.5402 52.3616 89.5402 53.5877C89.5402 56.6169 90.3546 58.961 91.9832 60.6198ZM106.912 54.0746C105.935 55.0482 104.65 55.5351 103.058 55.5351C101.827 55.5351 100.959 55.2286 100.452 54.6155C99.9453 54.0024 99.6919 53.1189 99.6919 51.9648C99.6919 51.3878 99.7462 50.7749 99.8547 50.1258C99.9634 49.1159 100.199 47.998 100.561 46.7719C101.067 45.077 101.773 43.7607 102.678 42.8231C103.582 41.8494 104.813 41.3626 106.369 41.3626C107.636 41.3626 108.559 41.6871 109.138 42.3362C109.717 42.9854 110.006 43.8689 110.006 44.9868C110.006 45.2392 109.97 45.654 109.898 46.2309C109.717 47.421 109.427 48.7733 109.029 50.2879C108.631 51.8025 107.925 53.0648 106.912 54.0746Z" fill="#96C8D8"/>
<path d="M137.578 62.5132C130.81 62.5132 127.426 59.9889 127.426 54.9401C127.426 53.9303 127.553 52.8665 127.806 51.7486L129.923 41.7412H125.689C125.291 41.7412 124.983 41.615 124.766 41.3626C124.549 41.0741 124.495 40.7495 124.603 40.3889L125.526 35.7369C125.598 35.3761 125.798 35.0696 126.123 34.8173C126.449 34.5288 126.811 34.3844 127.209 34.3844H131.498L133.398 25.459C133.47 25.0623 133.669 24.7378 133.995 24.4853C134.321 24.2329 134.664 24.1067 135.026 24.1067H141.704C142.102 24.1067 142.391 24.2509 142.572 24.5394C142.789 24.7919 142.862 25.0984 142.789 25.459L140.889 34.3844H147.675C148.073 34.3844 148.363 34.5108 148.544 34.7632C148.761 35.0155 148.833 35.3402 148.761 35.7369L147.784 40.3889C147.711 40.7856 147.512 41.1101 147.187 41.3626C146.861 41.615 146.517 41.7412 146.155 41.7412H139.315L137.361 50.9372C137.216 51.5502 137.143 52.1633 137.143 52.7763C137.143 53.4615 137.306 53.9664 137.632 54.2909C137.994 54.6155 138.591 54.7778 139.424 54.7778H143.821C144.219 54.7778 144.508 54.922 144.689 55.2105C144.907 55.463 144.979 55.7875 144.907 56.1842L143.821 61.1609C143.748 61.5576 143.549 61.8821 143.224 62.1345C142.898 62.387 142.554 62.5132 142.192 62.5132H137.578Z" fill="#96C8D8"/>
<path d="M148.366 62.1344C148.583 62.387 148.891 62.5131 149.289 62.5131H156.455C156.852 62.5131 157.215 62.387 157.54 62.1344C157.867 61.882 158.065 61.5576 158.138 61.1608L161.069 47.5292C161.358 46.0867 161.973 44.9688 162.915 44.1754C163.855 43.382 165.05 42.9854 166.498 42.9854H171.982C172.379 42.9854 172.74 42.8591 173.067 42.6067C173.392 42.3182 173.573 41.9936 173.61 41.633L174.858 35.7368C174.93 35.3401 174.858 35.0155 174.641 34.7631C174.46 34.5107 174.189 34.3844 173.826 34.3844H170.678C168.796 34.3844 167.203 34.691 165.901 35.304C164.598 35.881 163.475 36.7285 162.535 37.8464L162.969 35.7909C163.041 35.3942 162.969 35.0696 162.753 34.8172C162.571 34.5287 162.281 34.3844 161.883 34.3844H155.26C154.863 34.3844 154.5 34.5287 154.175 34.8172C153.849 35.0696 153.65 35.3942 153.577 35.7909L148.203 61.1608C148.131 61.5214 148.185 61.8461 148.366 62.1344Z" fill="#96C8D8"/>
<path d="M181.258 30.4897C180.859 30.4897 180.552 30.3635 180.336 30.111C180.118 29.8226 180.045 29.48 180.118 29.0833L181.203 24.0526C181.276 23.6559 181.475 23.3313 181.801 23.0789C182.163 22.7904 182.525 22.6461 182.887 22.6461H189.672C190.071 22.6461 190.379 22.7904 190.595 23.0789C190.813 23.3313 190.885 23.6559 190.813 24.0526L189.672 29.0833C189.636 29.48 189.456 29.8226 189.129 30.111C188.804 30.3635 188.441 30.4897 188.044 30.4897H181.258Z" fill="#96C8D8"/>
<path d="M174.418 62.5131C174.02 62.5131 173.713 62.387 173.495 62.1344C173.314 61.8461 173.26 61.5214 173.333 61.1608L178.706 35.7368C178.779 35.3761 178.977 35.0696 179.304 34.8172C179.629 34.5287 179.992 34.3844 180.389 34.3844H187.175C187.574 34.3844 187.862 34.5107 188.044 34.7631C188.261 35.0155 188.334 35.3401 188.261 35.7368L182.833 61.1608C182.76 61.5576 182.562 61.882 182.235 62.1344C181.946 62.387 181.602 62.5131 181.203 62.5131H174.418Z" fill="#96C8D8"/>
<path fill-rule="evenodd" clip-rule="evenodd" d="M192.869 36.3157L198.136 46.8654C198.052 47.2793 198.007 47.7076 198.007 48.1464C198.007 51.6701 200.874 54.5265 204.411 54.5265C207.947 54.5265 210.813 51.6701 210.813 48.1464C210.813 45.0884 208.654 42.533 205.772 41.911L202.368 35.3961C202.079 34.7468 201.59 34.4224 200.902 34.4224H194.17C193.773 34.4224 193.429 34.5847 193.14 34.9092C192.886 35.1977 192.76 35.5223 192.76 35.8829C192.76 35.955 192.796 36.0993 192.869 36.3157ZM204.411 50.5792C205.759 50.5792 206.852 49.49 206.852 48.1464C206.852 46.8029 205.759 45.7138 204.411 45.7138C203.063 45.7138 201.969 46.8029 201.969 48.1464C201.969 49.49 203.063 50.5792 204.411 50.5792Z" fill="#96C8D8"/>
<path fill-rule="evenodd" clip-rule="evenodd" d="M200.828 54.9491C200.93 55.0035 201.034 55.0544 201.143 55.1018L200.179 57.6988C198.094 62.9535 195.106 69.3384 191.675 73.2522C190.041 75.067 187.981 76.4523 185.681 77.285C184.988 77.3977 184.287 77.4541 183.585 77.4537H175.194C174.985 77.4643 174.778 77.4099 174.599 77.2979C174.502 77.2159 174.412 77.1246 174.331 77.0254C174.292 76.9694 174.258 76.9099 174.231 76.848C174.225 76.8335 174.216 76.8205 174.206 76.81C174.194 76.7995 174.18 76.7917 174.165 76.7873C173.875 76.2464 173.971 75.6017 174.599 74.8834L183.164 65.1175L183.354 64.9011L197.142 49.2072V49.2894C197.168 50.0872 197.343 50.8733 197.655 51.6086C198.03 52.4864 198.599 53.2698 199.317 53.902C199.77 54.3178 200.28 54.67 200.828 54.9491ZM194.806 65.0222C194.549 66.0284 194.214 67.0136 193.806 67.9689C192.989 69.8592 191.882 71.6109 190.524 73.1614C191.432 71.3668 192.211 69.5102 192.856 67.6055C193.095 66.8656 193.29 66.1127 193.464 65.3512L189.617 69.5872L193.789 63.7242C193.902 63.0954 193.998 62.4635 194.076 61.8289L190.55 65.7492L189.556 66.8829L190.371 65.7448L194.228 60.3924L194.259 60.4183L194.419 58.8174C194.419 58.7566 194.429 58.696 194.437 58.6364V58.6363C194.445 58.5981 194.45 58.5602 194.453 58.5231L189.208 64.4684L194.641 57.0693C194.697 56.6366 194.762 56.2039 194.845 55.7712C194.887 55.5332 194.931 55.2952 194.979 55.0573L189.168 61.7165L191.341 58.8044L195.456 53.2442C195.797 52.1116 196.276 51.0248 196.881 50.0077C196.581 51.0857 196.349 52.1811 196.182 53.2875C196.173 53.3438 196.164 53.4 196.156 53.4562C196.137 53.5688 196.118 53.6812 196.103 53.7938C196.005 54.4948 195.922 55.2 195.865 55.9053C195.845 56.1906 195.825 56.4759 195.803 56.7619V56.7621C195.751 57.478 195.698 58.1983 195.661 58.9342C195.608 59.964 195.504 60.9636 195.384 61.9631C195.336 62.2916 195.283 62.6245 195.231 62.9574V62.9576V62.9583C195.109 63.655 194.974 64.3429 194.806 65.0222Z" fill="#96C8D8"/>
<path d="M204.411 55.7659C207.172 55.7659 209.593 54.3067 210.937 52.1198L215.194 60.6429C215.265 60.8593 215.301 61.0035 215.301 61.0755C215.301 61.4363 215.175 61.7608 214.923 62.0493C214.632 62.3739 214.289 62.5362 213.891 62.5362H207.159C206.471 62.5362 205.982 62.2116 205.694 61.5625L202.545 55.5376C203.143 55.6867 203.767 55.7659 204.411 55.7659Z" fill="#96C8D8"/>
</svg>
