<svg width="100" height="40" viewBox="0 0 100 40" fill="none" xmlns="http://www.w3.org/2000/svg">
<path d="M19.849 15.5649V5.65047C19.849 5.33005 19.9055 5.01904 19.3971 5.01904H12.9571C12.6088 5.01904 12.4581 5.16983 12.477 5.50911C12.4958 5.84839 12.477 5.92378 12.477 6.13112V24.6688C12.6242 26.0386 11.6712 27.2828 10.3115 27.4961C8.94574 27.7136 7.65549 26.8025 7.40221 25.4416C7.28923 24.9892 7.10093 24.9892 6.7714 24.9892H0.642148C0.0960706 24.9892 -0.0169109 25.1777 0.00191933 25.6866C0.218467 31.2847 5.90521 35.7895 11.479 34.7529C16.3919 33.9873 19.9744 29.6914 19.849 24.7159V15.5649Z" fill="#96C8D8"/>
<path d="M55.9184 28.6929C54.9769 28.7589 54.0919 28.8814 53.2257 28.8532C52.3595 28.8249 51.8981 28.4008 51.8887 27.4207V19.4665C51.8887 19.033 52.03 18.8634 52.4631 18.8728H55.4006C55.7772 18.8728 55.9278 18.7691 55.9184 18.3733V13.8025C55.9184 13.4161 55.7866 13.2936 55.41 13.303H52.4631C52.0394 13.303 51.8887 13.171 51.8887 12.7375V7.96881C51.8887 7.51644 51.7569 7.3468 51.2862 7.3468H46.4656C45.9384 7.3468 45.7877 7.53529 45.7971 8.0442V12.615C45.7971 13.1145 45.6653 13.3595 45.1287 13.303H43.9989C43.8221 13.2799 43.6447 13.3417 43.5205 13.4698C43.3963 13.5978 43.3398 13.777 43.368 13.9533V17.2706C43.368 18.8634 43.368 18.8634 44.9309 18.8728C45.7877 18.8728 45.7877 18.8728 45.7877 19.7398C45.7877 22.7462 45.7877 25.762 45.8442 28.7683C45.8123 31.0165 47.1729 33.0501 49.2619 33.8763C51.2328 34.6867 53.4346 34.7337 55.4382 34.0083C55.7551 33.9376 55.9617 33.6315 55.909 33.3109V28.6929H55.9184Z" fill="#96C8D8"/>
<path d="M100 34.3193H94.6899C93.7484 34.3193 93.7484 34.3193 93.7484 33.3768V22.1619C93.7532 21.8081 93.7248 21.4548 93.6636 21.1063C93.3058 19.2215 92.402 18.4581 90.5472 18.4393C88.9492 18.3348 87.5411 19.4813 87.3178 21.0686C87.2206 21.5813 87.1702 22.1018 87.1672 22.6237C87.1672 26.2803 87.1672 29.9338 87.1672 33.5842C87.1672 34.1214 87.0448 34.3193 86.4799 34.3099H81.7158C81.2451 34.3099 81.0568 34.1968 81.0568 33.6878V13.9533C81.0568 13.4915 81.1886 13.3313 81.6593 13.3407H86.2916C86.8565 13.3407 87.1201 13.4726 87.026 14.0664C87.0327 14.2004 87.0548 14.3332 87.0919 14.4622C87.3272 14.3114 87.5155 14.2077 87.6944 14.0852C89.8821 12.5473 92.7129 12.2633 95.162 13.3359C97.6111 14.4086 99.3237 16.6825 99.6799 19.3346C99.7458 19.7587 99.8588 20.1733 99.9529 20.5974L100 34.3193Z" fill="#96C8D8"/>
<path d="M28.1814 25.762C28.3792 26.7768 28.9255 27.6903 29.7255 28.3443C31.3951 29.6716 33.7326 29.7594 35.4969 28.561C35.6489 28.4702 35.8196 28.4154 35.9959 28.4008C36.123 28.4098 36.2474 28.4417 36.3631 28.4951L41.4285 29.9182C40.7298 31.2236 39.7209 32.337 38.4909 33.1601C33.2279 36.7225 23.728 34.8942 22.1839 25.9317C21.448 22.574 22.2951 19.0641 24.4812 16.4131C26.5734 13.7556 29.887 12.3662 33.2467 12.7376C35.5628 12.8419 37.7645 13.775 39.4513 15.367C41.209 17.1268 42.2494 19.4785 42.37 21.964C42.4364 22.9053 42.4364 23.85 42.37 24.7913C42.37 25.6489 42.1534 25.7903 41.3155 25.7903H28.1343L28.1814 25.762ZM36.1183 20.8802C35.883 19.1461 34.2353 18.0529 32.1734 18.0529C30.2904 18.1094 28.6427 19.3723 28.4921 20.8802H36.1183Z" fill="#96C8D8"/>
<path d="M68.2334 34.8377C61.9723 34.8377 57.3401 30.1255 57.3777 23.6981C57.1531 19.673 59.175 15.8547 62.629 13.7814C66.083 11.7081 70.4003 11.7213 73.8416 13.8156C77.283 15.9098 79.2817 19.7404 79.0325 23.764C79.1718 26.6954 78.0878 29.5528 76.0399 31.6528C73.992 33.7527 71.1643 34.9064 68.2334 34.8377ZM72.9409 23.7263C72.875 23.1703 72.8468 22.6048 72.7338 22.0582C72.3585 20.0583 70.6928 18.5569 68.6665 18.3922C66.6338 18.1357 64.6894 19.3035 63.9589 21.2195C63.4188 22.5473 63.3133 24.0123 63.6576 25.4039C63.9427 27.0358 65.0826 28.3882 66.6417 28.9442C68.2007 29.5001 69.9381 29.1738 71.1897 28.0898C72.4041 26.9756 73.051 25.3722 72.9504 23.7263H72.9409Z" fill="#96C8D8"/>
<path d="M19.8484 15.5649V24.65C19.9331 30.0105 15.7604 34.4749 10.4113 34.7467C5.06215 35.0184 0.459282 31 0.00128174 25.6584C0.00128174 25.1495 0.095433 24.9515 0.64151 24.961C2.68459 24.9892 4.70885 24.9892 6.77076 24.9892C7.10029 24.9892 7.28859 25.0458 7.39216 25.4228C7.64544 26.7836 8.93569 27.6948 10.3014 27.4773C11.6611 27.2639 12.6141 26.0197 12.4669 24.65C12.4669 18.4802 12.4669 12.3009 12.4669 6.11227V5.49026C12.4617 5.3604 12.5103 5.23415 12.6012 5.14136C12.6921 5.04857 12.8173 4.99749 12.9471 5.00009H19.387C19.8954 5.00009 19.839 5.3112 19.839 5.63163V15.5649H19.8484Z" fill="#96C8D8"/>
<path d="M55.9184 28.693V33.3203C55.9712 33.641 55.7646 33.947 55.4477 34.0177C53.444 34.7432 51.2423 34.6961 49.2714 33.8858C47.1795 33.054 45.8217 31.0116 45.8631 28.7589C45.7595 25.7526 45.8631 22.7368 45.8066 19.7304C45.8066 18.8634 45.8066 18.8634 44.9498 18.8634C43.3869 18.8634 43.3869 18.8634 43.3869 17.2612V13.9438C43.3869 13.4726 43.5093 13.237 44.0177 13.2936C44.3938 13.3219 44.7715 13.3219 45.1475 13.2936C45.6842 13.3501 45.8254 13.1051 45.816 12.6056V8.02536C45.816 7.51644 45.9572 7.31853 46.4845 7.32796H51.305C51.7758 7.32796 51.9076 7.49759 51.9076 7.94996V12.7375C51.9076 13.1711 52.0582 13.3124 52.4819 13.303H55.4289C55.8055 13.303 55.9467 13.4161 55.9373 13.8025V18.3921C55.9373 18.788 55.796 18.9011 55.4194 18.8916H52.4819C52.0488 18.8916 51.9076 19.0518 51.9076 19.4854V27.4395C51.9076 28.3819 52.2748 28.8437 53.2445 28.872C54.1384 28.8596 55.0309 28.7999 55.9184 28.693Z" fill="#96C8D8"/>
</svg>
