<svg width="100" height="40" viewBox="0 0 100 40" fill="none" xmlns="http://www.w3.org/2000/svg">
<g clip-path="url(#clip0)">
<path d="M0.563698 16.9275C1.34035 16.9337 2.117 16.9337 2.89365 16.9337C3.28197 16.9337 3.38845 16.846 3.50745 16.4577C3.69535 15.8439 3.87699 15.2301 4.06489 14.6226C5.42403 14.6163 6.78316 14.6163 8.14857 14.61C8.31768 14.61 8.38031 14.6789 8.42415 14.8293C8.57447 15.3554 8.73105 15.8815 8.88764 16.4076C8.93774 16.5642 8.96906 16.727 9.12564 16.821C9.1507 16.8711 9.2008 16.8836 9.25091 16.8836C9.27596 16.8961 9.30728 16.9275 9.33233 16.9275C10.2468 16.9337 11.1675 16.94 12.0819 16.9337C12.3387 16.9337 12.464 16.7646 12.3951 16.5141C12.3262 16.2573 12.2385 16.0005 12.1508 15.7437C11.7124 14.491 11.274 13.2384 10.8418 11.992C10.7353 11.66 10.6351 11.3218 10.5161 10.9898C10.1278 9.86872 9.72692 8.74758 9.33233 7.62645C8.97532 6.57421 8.62458 5.51571 8.26131 4.46348C8.18615 4.238 8.01077 4.11273 7.76024 4.12526C7.59739 4.13152 7.42829 4.13152 7.26544 4.13779C6.51384 4.13779 5.76224 4.13779 5.01065 4.13779C4.81649 4.13152 4.62232 4.07515 4.44695 4.20042C4.32168 4.19416 4.27784 4.28184 4.24026 4.37579C4.01478 4.8017 3.90204 5.27145 3.74546 5.72867C3.40724 6.68695 3.08155 7.65777 2.75586 8.62858C2.7308 8.67242 2.70575 8.71627 2.68696 8.76637C1.89778 11.0462 1.10861 13.3323 0.313165 15.6184C0.225479 15.8752 0.181636 16.1571 0 16.3763C0 16.5016 0 16.6268 0 16.7521C0.156583 16.9149 0.344482 16.9713 0.563698 16.9275ZM5.26118 10.9711C5.53677 10.1192 5.78103 9.26117 6.05662 8.4031C6.08794 8.29662 6.08794 8.12125 6.20694 8.12125C6.351 8.12125 6.351 8.30289 6.38231 8.41563C6.5389 8.95427 6.71427 9.48665 6.87085 10.0316C6.90217 10.1318 6.90217 10.2696 7.02743 10.3071C7.00238 10.3948 7.01491 10.4825 7.03996 10.5765C7.10259 10.8207 7.15896 11.065 7.24665 11.2968C7.34686 11.5661 7.40323 11.8041 7.13391 11.9732C7.13391 11.9669 7.13391 11.9607 7.13391 11.9544C7.0337 11.8354 6.88964 11.8479 6.75811 11.8479C6.26957 11.8417 5.78103 11.8479 5.28623 11.8479C5.18602 11.8479 5.09207 11.8604 5.00438 11.8855C5.04823 11.6725 5.1547 11.4721 5.13591 11.2466C5.22986 11.184 5.22986 11.0587 5.26118 10.9711Z" fill="#96C8D8"/>
<path d="M12.8335 16.5266C12.8586 16.7896 12.9776 16.9525 13.2657 16.9525C13.9108 16.9462 14.556 16.9462 15.2011 16.94C15.4266 16.9462 15.6583 16.9462 15.8838 16.9525C16.1155 16.9588 16.2596 16.8523 16.2972 16.6205C16.3159 16.5078 16.3222 16.3951 16.3222 16.2823C16.3034 14.2968 16.2846 12.3176 16.2721 10.3322C16.2721 10.2507 16.2157 10.1255 16.3347 10.0879C16.4475 10.0503 16.4913 10.1631 16.5477 10.232C16.7606 10.5138 16.9673 10.7957 17.1803 11.0775C17.3055 11.2591 17.4245 11.4408 17.5498 11.6162C18.0571 12.3114 18.5645 13.0003 19.0718 13.6956C19.5603 14.3783 20.0426 15.061 20.5437 15.7311C20.8193 16.1007 21.0072 16.5328 21.3892 16.8147C21.4268 16.8836 21.4957 16.8773 21.5583 16.8836C21.6585 16.965 21.7775 16.9337 21.8903 16.9337C22.5041 16.9337 23.1179 16.9337 23.7317 16.9337C24.3017 16.9337 24.3956 16.8398 24.3956 16.2635C24.3956 12.4429 24.3956 8.62855 24.3956 4.80793C24.3956 4.72651 24.3956 4.63882 24.3893 4.5574C24.3643 4.29434 24.2328 4.1315 23.9509 4.1315C23.7442 4.1315 23.5375 4.13776 23.3246 4.13776C22.7421 4.13776 22.1533 4.13776 21.5709 4.13776C21.0573 4.11271 20.9445 4.20039 20.9383 4.60751C20.8882 4.7453 20.8882 4.88309 20.9383 5.02089C20.8005 5.18373 20.9257 5.3591 20.9257 5.52821C20.9195 7.29447 20.932 9.06072 20.932 10.8332C20.932 10.9272 21.0134 11.0775 20.8506 11.1213C20.7003 11.1652 20.6627 11.0149 20.6 10.9272C20.1303 10.2821 19.6668 9.63068 19.2033 8.9793C18.6021 8.07112 17.9757 7.17546 17.3181 6.30486C16.8734 5.66601 16.4349 5.02715 15.9903 4.38829C15.8462 4.1816 15.6207 4.1315 15.3827 4.1315C14.7877 4.1315 14.1927 4.12523 13.6039 4.1315C13.4411 4.1315 13.272 4.08765 13.1154 4.18787C12.7834 4.26929 12.8148 4.53861 12.8148 4.78914C12.8148 8.62855 12.8148 12.4742 12.8148 16.3136C12.8335 16.3825 12.8273 16.4577 12.8335 16.5266Z" fill="#96C8D8"/>
<path d="M25.5669 16.94C26.0992 16.94 26.6316 16.9338 27.164 16.9275C27.3644 16.9338 27.5586 16.94 27.759 16.94C28.3666 16.94 28.4229 16.8836 28.4229 16.2824C28.4229 12.4617 28.4167 8.64113 28.4167 4.82051C28.4167 4.71403 28.4167 4.61382 28.4104 4.50734C28.3916 4.26307 28.2601 4.12528 28.0096 4.12528C27.7277 4.12528 27.4459 4.13155 27.164 4.13155C26.5878 4.12528 26.0178 4.12528 25.4416 4.11902C25.1785 4.11902 25.0345 4.24428 25.0094 4.50734C25.0032 4.61382 24.9906 4.71403 24.9906 4.82051C24.9906 8.0148 24.9906 11.2091 24.9906 14.4034C24.9906 15.061 24.9844 15.7124 24.9906 16.3701C24.9969 16.8273 25.1159 16.94 25.5669 16.94Z" fill="#96C8D8"/>
<path d="M39.9412 16.9275C40.4798 16.9275 40.5612 16.8461 40.5675 16.32C40.5675 14.6101 40.5675 12.9064 40.5675 11.1966C40.5675 9.04199 40.5675 6.88741 40.5675 4.73283C40.5675 4.23803 40.4547 4.13155 39.9599 4.12529C39.509 4.12529 39.0643 4.13155 38.6133 4.13155C38.2688 4.13155 37.9244 4.11903 37.5861 4.12529C37.2229 4.13155 37.1101 4.25682 37.1039 4.62635C37.0976 5.29026 37.1039 5.96044 37.1039 6.62435C37.1039 8.04612 37.1101 9.47416 37.1039 10.8959C37.1039 10.9711 37.154 11.0713 37.0475 11.1151C36.9348 11.159 36.8784 11.0776 36.822 10.9961C36.7343 10.8709 36.6341 10.7519 36.5402 10.6266C35.8637 9.59942 35.1435 8.59729 34.4232 7.59516C34.229 7.31331 34.0411 7.03146 33.8469 6.74962C33.3083 5.99176 32.7697 5.23389 32.231 4.4823C32.1559 4.28813 32.0243 4.1754 31.8114 4.1754C31.7049 4.1065 31.5922 4.13155 31.4794 4.12529C30.8844 4.12529 30.2894 4.12529 29.6944 4.12529C29.1056 4.12529 28.9991 4.2255 28.9991 4.81425C28.9991 8.58477 28.9991 12.349 28.9991 16.1195C28.9991 16.9212 29.0618 16.9839 29.851 16.9275C30.6213 16.94 31.398 16.9651 32.1684 16.915C32.5003 16.8586 32.4815 16.5955 32.4815 16.3638C32.4815 15.0736 32.4753 13.7896 32.469 12.4993C32.4628 11.7603 32.4502 11.0275 32.444 10.2884C32.444 10.2132 32.4127 10.1067 32.5191 10.0754C32.6193 10.0441 32.6632 10.1318 32.7196 10.1944C32.7885 10.2821 32.8573 10.3761 32.92 10.47C33.3584 11.0588 33.7968 11.6538 34.2353 12.2425C34.9054 13.2509 35.6383 14.2155 36.3585 15.1863C36.7155 15.6874 37.0726 16.1884 37.4296 16.6832C37.5047 16.7897 37.5987 16.8649 37.7365 16.8711C37.8367 16.9525 37.9557 16.9212 38.0684 16.9212C38.6948 16.9338 39.3148 16.9275 39.9412 16.9275Z" fill="#96C8D8"/>
<path d="M58.0108 19.4453C57.6976 19.2825 57.3656 19.1885 57.0212 19.1447C56.6955 19.0131 56.3447 19.082 56.019 19.0069C55.543 18.9129 55.0545 18.9317 54.5722 18.963C54.4469 18.963 54.3154 18.9317 54.1964 19.0006C53.3884 19.0382 52.6243 19.2324 51.9479 19.6958C51.0898 20.2094 50.5762 20.9673 50.357 21.9381C50.3131 22.1385 50.357 22.1886 50.5574 22.1824C51.3904 22.1761 52.2234 22.1824 53.0565 22.1761C53.1254 22.1761 53.2068 22.2074 53.2569 22.126C53.52 21.6625 53.9709 21.4871 54.4595 21.3807C54.9793 21.3619 55.4992 21.3368 56.019 21.4433C56.3134 21.5498 56.6328 21.6124 56.8896 21.8191C57.1026 22.1886 57.1777 22.5644 56.9084 22.9465C56.6579 23.197 56.3385 23.3098 56.019 23.4413C55.8061 23.4851 55.5931 23.5165 55.3864 23.5666C55.0357 23.6417 54.6724 23.6167 54.3342 23.7545C53.4949 23.7983 52.6995 23.9987 51.9541 24.3871C51.2902 24.6564 50.714 25.0322 50.3946 25.7024C49.9499 26.6356 49.9373 27.6127 50.144 28.6023C50.357 29.642 50.977 30.3435 51.9479 30.7506C52.6744 31.1264 53.4573 31.2454 54.2653 31.1953C54.854 31.2203 55.4365 31.1702 56.019 31.07C56.7205 30.9886 57.3782 30.7882 57.9732 30.3998C58.3866 30.1681 58.7436 29.8675 59.0379 29.4979C59.6831 28.6837 59.9461 27.7317 59.9586 26.7107C59.9712 25.1825 59.9712 23.6543 59.9586 22.126C59.9524 20.9109 59.1569 19.8399 58.0108 19.4453ZM57.0525 26.3036C57.0587 27.074 56.7644 27.7191 56.1819 28.2265C56.0942 28.3079 56.0002 28.3831 55.9564 28.4958C55.5367 28.5271 55.1547 28.6962 54.7664 28.8403C54.7538 28.7526 54.6599 28.7651 54.5972 28.7526C54.472 28.7275 54.3467 28.7463 54.2214 28.7401C53.4323 28.7025 52.9563 28.1952 52.975 27.406C52.9876 26.7295 53.2882 26.3287 53.9521 26.0782C54.1024 26.0218 54.2841 26.003 54.3718 25.8589C54.3968 25.8715 54.4219 25.8777 54.4469 25.8777C54.973 25.8276 55.4929 25.7086 56.0002 25.5583C56.0817 25.5332 56.1568 25.4957 56.1693 25.3955C56.495 25.4205 56.7894 25.3391 57.0337 25.1261C57.09 25.5019 57.0525 25.9028 57.0525 26.3036Z" fill="#96C8D8"/>
<path d="M47.5573 19.8838C47.2504 19.627 46.8558 19.5581 46.5176 19.3765C45.9163 19.1322 45.2963 18.9944 44.6511 19.0007C43.5738 18.8942 42.5529 19.1009 41.5633 19.5268C40.9871 19.7209 40.4735 20.0341 39.9975 20.4099C39.9787 20.4287 39.9599 20.4412 39.9411 20.46C39.4839 20.8609 39.1707 21.3682 38.9578 21.9381C38.6384 22.7712 38.582 23.6418 38.582 24.5186C38.5695 28.0261 38.5757 31.5335 38.5757 35.041C38.5757 35.1162 38.5757 35.185 38.5757 35.2602C38.5757 35.3354 38.607 35.3792 38.6885 35.3792C39.1958 35.3604 39.7031 35.4293 40.2104 35.3416C40.9433 35.3166 41.5571 34.6715 41.5633 33.9011C41.5696 32.5482 41.5633 31.2016 41.5633 29.8487C41.5633 29.7548 41.5132 29.6483 41.6072 29.5669C41.7825 29.617 41.7825 29.8299 41.9329 29.8988C41.9579 29.9427 41.983 29.9928 42.0143 30.0303C42.841 30.9761 43.9183 31.2705 45.1271 31.2078C46.0103 31.2078 46.8057 30.9636 47.4884 30.3936C48.215 29.9239 48.6847 29.2412 49.0229 28.4708C49.8246 26.6544 49.906 24.7629 49.4363 22.8526C49.1419 21.6563 48.6221 20.5853 47.5573 19.8838ZM40.1353 35.3291C40.1541 35.3291 40.1791 35.3228 40.1979 35.3228C40.1791 35.3291 40.1603 35.3291 40.1353 35.3291ZM46.5677 25.9905C46.5301 26.122 46.5113 26.2536 46.48 26.3851C46.2984 27.1492 45.9664 27.8257 45.2837 28.2766C45.2086 28.3267 45.1397 28.3706 45.0896 28.4457C44.9768 28.3956 44.8703 28.4583 44.7639 28.4833C43.8244 28.6837 43.0101 28.477 42.3713 27.7317C42.3149 27.6628 42.2648 27.5751 42.1583 27.5751C42.1771 27.406 42.0644 27.2807 42.0018 27.1367C41.6761 26.3162 41.6009 25.4644 41.6761 24.5938C41.7011 24.3307 41.7512 24.0614 41.7074 23.7983C41.745 23.7545 41.7512 23.6981 41.7637 23.648C42.102 22.3139 42.8285 21.7252 44.2064 21.6626C44.3129 21.6563 44.4319 21.6688 44.5133 21.5874C44.5572 21.6563 44.6323 21.6751 44.7012 21.6939C45.4027 21.863 45.8725 22.3202 46.2107 22.9278C46.2357 22.9779 46.2545 23.0405 46.3046 23.0718C46.5113 23.9236 46.6491 24.7754 46.599 25.6586C46.6053 25.7588 46.6115 25.8778 46.5677 25.9905Z" fill="#96C8D8"/>
<path d="M81.4668 20.6479C81.1662 20.1531 80.7215 19.8274 80.2204 19.5643C79.5565 19.176 78.8237 19.0382 78.0721 18.9944C77.4583 18.8879 76.8445 18.9255 76.2307 18.9505C76.118 18.938 76.0115 18.9317 75.905 18.9944C75.8486 19.0006 75.786 19.0069 75.7296 19.0132C75.0783 19.0883 74.4644 19.27 73.9195 19.6332C73.0364 20.1656 72.4915 20.9235 72.2785 21.9319C72.2347 22.1448 72.2848 22.1699 72.479 22.1699C73.312 22.1636 74.1388 22.1699 74.9718 22.1636C75.0407 22.1636 75.1158 22.1887 75.1785 22.1198C75.3664 21.8692 75.5731 21.6312 75.8674 21.4934C76.4812 21.3181 77.1076 21.3118 77.7402 21.3807C77.9093 21.4245 78.0784 21.4621 78.2475 21.506C78.6985 21.6312 78.9552 21.9005 78.9928 22.2826C79.0367 22.7022 78.8488 23.0154 78.4166 23.2221C78.2412 23.3098 78.0533 23.3724 77.8654 23.4413C77.3017 23.5415 76.738 23.6417 76.1743 23.742C75.6733 23.7545 75.191 23.8422 74.7338 24.0489C74.1262 24.1616 73.5938 24.4372 73.1053 24.8005C72.7608 24.9758 72.5228 25.2639 72.3537 25.6022C71.8338 26.6293 71.8464 27.7066 72.1157 28.7902C72.2723 29.4228 72.598 29.9552 73.1679 30.3184C73.6314 30.688 74.1638 30.9197 74.74 31.0387C75.5292 31.2517 76.3247 31.2078 77.1201 31.1264C77.4395 31.1327 77.759 31.1013 78.0721 31.045C78.8488 30.9009 79.5879 30.6754 80.2204 30.1744C80.2518 30.1431 80.2768 30.1117 80.3081 30.0867C81.3478 29.3226 81.7925 28.239 81.8614 26.9989C81.9491 25.3829 81.899 23.7607 81.8928 22.1386C81.8802 21.6187 81.7487 21.1114 81.4668 20.6479ZM78.9553 26.6106C78.8488 27.5814 78.3477 28.2641 77.4145 28.6085C77.3143 28.6461 77.214 28.6712 77.1326 28.7401C77.0763 28.6962 77.0011 28.715 76.9385 28.7213C76.1806 28.8027 75.4666 28.7401 74.9405 28.1075C74.9718 28.0261 74.9718 27.9446 74.953 27.8695C74.8653 27.5626 74.8653 27.2619 74.953 26.955C74.9718 26.8861 74.9718 26.811 74.9342 26.7421C74.9279 26.7421 74.9279 26.7358 74.9279 26.7296C75.2348 26.36 75.6232 26.122 76.0741 25.9717C76.1368 25.9529 76.2119 25.9341 76.237 25.859C76.2745 25.8715 76.3121 25.8777 76.3497 25.8715C76.8132 25.8026 77.2704 25.7149 77.7214 25.5834C77.784 25.5646 77.8592 25.5333 77.8654 25.4518C77.9343 25.5019 78.0283 25.4832 78.116 25.4706C78.3039 25.4393 78.473 25.3516 78.6483 25.2953C78.9678 25.1888 78.9803 25.195 78.9928 25.5207C79.0054 25.884 78.9928 26.2535 78.9553 26.6106Z" fill="#96C8D8"/>
<path d="M60.679 16.9024C61.5371 16.965 62.3952 16.9212 63.2532 16.9086C63.5163 16.9024 63.6102 16.7207 63.51 16.4264C63.1468 15.3679 62.771 14.3094 62.4014 13.2509C62.1947 12.6308 61.9943 12.0107 61.7751 11.3969C61.3805 10.2883 61.036 9.15465 60.5976 8.05857C60.5663 7.93957 60.535 7.82056 60.4974 7.70156C60.1529 6.71196 59.8084 5.72236 59.4702 4.72649C59.2823 4.17532 59.1821 4.10016 58.5871 4.13147C57.9169 4.13147 57.253 4.13147 56.5828 4.13147C56.3573 4.12521 56.1318 4.13147 55.9001 4.11895C55.5995 4.10642 55.4116 4.24421 55.3113 4.5198C55.1736 4.92691 55.0358 5.34029 54.9042 5.74741C54.3092 7.36334 53.7518 8.98554 53.2194 10.6203C53.1943 10.6766 53.1568 10.7267 53.138 10.7831C52.9 11.4157 52.7309 12.0671 52.449 12.6809C52.424 12.6809 52.3989 12.6809 52.3739 12.6809C52.3864 12.5556 52.3864 12.4304 52.4114 12.3114C52.7058 10.8583 52.662 9.41145 52.2047 7.99594C51.9229 7.1316 51.4782 6.34869 50.7579 5.75367C50.1191 5.07723 49.3174 4.69517 48.4405 4.45717C47.4384 4.144 46.4112 4.10016 45.3777 4.13774C44.4194 4.13774 43.4612 4.13774 42.4966 4.13774C42.2774 4.13147 42.0582 4.12521 41.839 4.12521C41.2377 4.12521 41.175 4.18784 41.175 4.78912C41.175 8.616 41.175 12.4492 41.175 16.276C41.175 16.3512 41.175 16.4201 41.175 16.4952C41.1813 16.7834 41.3254 16.9399 41.6135 16.9462C41.9079 16.9462 42.196 16.9399 42.4903 16.9399C43.4298 16.9399 44.3693 16.9399 45.3088 16.9399C46.3423 16.9713 47.3757 16.9462 48.3779 16.6205C49.2923 16.4076 50.094 15.9942 50.7579 15.3303C50.9897 15.1674 51.1525 14.9419 51.3341 14.729C51.641 14.3595 51.8289 13.921 52.0732 13.5139C52.092 13.5327 52.1171 13.5578 52.1358 13.5765C52.1171 13.8208 52.0168 14.04 51.9417 14.2592C51.7037 14.967 51.4469 15.6685 51.2089 16.3762C51.1337 16.5955 51.0648 16.8397 51.4281 16.8898C52.3551 16.9775 53.2883 16.9212 54.2153 16.9149C54.3718 16.9149 54.5159 16.8272 54.566 16.6518C54.7476 16.0693 54.9543 15.4931 55.0859 14.8981C55.1485 14.6538 55.2988 14.5661 55.5556 14.5849C55.875 14.6037 56.1945 14.5787 56.5139 14.5787C57.159 14.5787 57.8104 14.5787 58.4555 14.5787C58.7123 14.5849 58.9754 14.6037 59.2322 14.5912C59.4201 14.5849 59.5078 14.6413 59.5579 14.8292C59.7019 15.3553 59.8585 15.8814 60.0214 16.4076C60.0903 16.6268 60.1278 16.8898 60.4473 16.8961L60.4535 16.8898C60.5287 16.8898 60.6038 16.8961 60.679 16.9024ZM48.9666 11.0587C48.8977 11.779 48.7286 12.4679 48.2526 13.0504C48.2025 13.1068 48.1649 13.1757 48.1712 13.2509C48.1023 13.2383 48.0396 13.2759 47.9895 13.3135C47.4885 13.6705 46.931 13.8146 46.3235 13.8709C45.9915 13.9022 45.6471 13.8459 45.3339 13.9899C45.2838 13.9523 45.2274 13.9336 45.171 13.921C44.67 13.8271 44.67 13.8271 44.67 13.301C44.67 11.4408 44.67 9.58055 44.67 7.72035C44.67 7.64519 44.6762 7.5763 44.67 7.50114C44.6575 7.26939 44.7577 7.15039 44.9957 7.15665C45.1335 7.15665 45.2775 7.16918 45.3965 7.06897C45.5406 7.18797 45.7222 7.13786 45.8851 7.14413C46.6554 7.18171 47.4196 7.25687 48.0334 7.79551C48.0897 7.84562 48.1524 7.88946 48.2338 7.87693C48.2338 7.97715 48.2964 8.05231 48.3528 8.12747C48.547 8.39053 48.6785 8.67864 48.7787 8.9918C48.9791 9.66824 49.0292 10.3572 48.9666 11.0587ZM58.4367 11.9418C58.1173 11.7915 56.8521 11.7915 56.5327 11.9418C56.5264 11.9356 56.5264 11.9293 56.5202 11.9293C56.4262 11.8291 56.2195 11.923 56.1819 11.7602C56.1569 11.6161 56.2508 11.4783 56.2822 11.3405C56.3135 11.209 56.3636 11.0837 56.4012 10.9522C56.4951 10.5514 56.6893 10.1756 56.7081 9.75593C56.7832 9.69956 56.7895 9.59308 56.8208 9.51166C56.9586 9.11707 57.0713 8.72248 57.1966 8.32789C57.2217 8.24647 57.2279 8.10868 57.3407 8.1212C57.4409 8.12747 57.4471 8.259 57.4785 8.34668C57.491 8.38426 57.4972 8.42811 57.5098 8.46569C57.7415 9.24234 57.9733 10.0127 58.2175 10.7894C58.2551 10.9146 58.2676 11.065 58.4054 11.1464C58.3678 11.2716 58.3866 11.3969 58.4367 11.5159C58.5119 11.6537 58.5119 11.7978 58.4367 11.9418Z" fill="#96C8D8"/>
<path d="M69.98 20.2846C69.8297 20.0842 69.6167 19.9589 69.4163 19.8148C68.9403 19.4829 68.3891 19.3388 67.8442 19.176C67.4621 19.0507 67.0738 18.9755 66.6729 18.9881C65.6708 18.8565 64.7188 19.0507 63.7793 19.3827C63.0903 19.6144 62.4452 19.9338 61.894 20.4224C61.8439 20.46 61.7938 20.4975 61.75 20.5351C60.8606 21.412 60.5412 22.5268 60.5286 23.7106C60.4911 27.4999 60.5036 31.2829 60.5036 35.0722C60.5036 35.1224 60.5036 35.1787 60.5036 35.2288C60.5036 35.3228 60.5537 35.3604 60.6414 35.3541C61.0923 35.329 61.5496 35.3979 62.0005 35.3353C62.0444 35.3416 62.1007 35.329 62.1634 35.3103C62.8523 35.2664 63.4536 34.6463 63.4661 33.9261C63.4787 32.5669 63.4724 31.2078 63.4787 29.8487C63.4787 29.7422 63.4411 29.6232 63.5162 29.5104C63.6478 29.5605 63.6603 29.7109 63.7668 29.7735C64.3242 30.594 65.1259 31.0074 66.0905 31.1452C66.7231 31.2328 67.3557 31.2516 67.9757 31.0637C68.8087 30.8821 69.4914 30.4625 70.0301 29.8048C70.4059 29.3789 70.7441 28.9217 70.9758 28.4018C71.6836 26.8297 71.7525 25.1762 71.5145 23.5039C71.3329 22.2951 70.8568 21.1928 69.98 20.2846ZM67.9381 27.525C67.9006 27.5939 67.863 27.669 67.8505 27.7504C67.7941 27.7504 67.7628 27.8068 67.7314 27.8444C67.3431 28.2703 66.8483 28.4832 66.2846 28.5521C66.2157 28.5584 66.1531 28.5647 66.103 28.621C66.0278 28.5521 65.9214 28.5584 65.8211 28.5396C65.1572 28.4331 64.581 28.1826 64.1989 27.5939C64.1426 27.5124 64.0799 27.431 63.986 27.3934C64.011 27.1993 63.8983 27.0427 63.8419 26.8798C63.5851 26.1783 63.6165 25.4518 63.6165 24.7253C63.6165 24.1365 63.7167 23.5728 63.9171 23.0216C63.9547 22.9089 64.011 22.8024 63.986 22.6834C64.0611 22.6584 64.1238 22.602 64.1739 22.5394C64.6624 21.8942 65.3075 21.5873 66.1218 21.65C66.2157 21.6562 66.3535 21.6876 66.3911 21.556C66.3974 21.556 66.3974 21.556 66.4036 21.556C66.8483 21.769 67.2993 21.9694 67.7064 22.2387C67.7314 22.3703 67.8129 22.4767 67.888 22.5895C68.0571 22.84 68.2012 23.1093 68.2764 23.4037C68.6334 24.8129 68.6522 26.2034 67.9381 27.525Z" fill="#96C8D8"/>
<path d="M99.1232 22.245C99.1232 22.0007 99.0919 21.7439 99.0355 21.5059C98.8852 20.8232 98.5282 20.2721 97.9331 19.8837C97.9269 19.8086 97.858 19.7898 97.8141 19.7585C97.4634 19.5079 97.0688 19.3513 96.6492 19.2511C96.2233 19.0945 95.7848 19.0069 95.3276 19.0069C95.1836 18.9254 95.0332 18.9505 94.8829 18.963C94.8641 18.963 94.8391 18.963 94.8203 18.963C94.1063 18.9442 93.3922 18.8816 92.6908 19.0758C91.9893 19.1634 91.3504 19.414 90.8055 19.8712C90.0789 20.3911 89.6593 21.0988 89.4839 21.9694C89.4463 22.1636 89.4965 22.1886 89.6718 22.1886C90.4923 22.1824 91.3128 22.1886 92.1396 22.1824C92.2335 22.1824 92.3588 22.2325 92.3901 22.0759C92.5279 21.8817 92.697 21.7189 92.8849 21.5748C93.4925 21.3744 94.1188 21.2992 94.7576 21.3744C95.052 21.4683 95.3589 21.4934 95.6533 21.6187C96.004 21.769 96.1606 22.0446 96.1794 22.3891C96.1982 22.7022 96.0354 22.934 95.7848 23.1219C95.528 23.3035 95.2337 23.3849 94.9518 23.5039C94.8892 23.5102 94.8265 23.5164 94.7639 23.5227C94.6386 23.5415 94.5196 23.554 94.3944 23.5791C93.8056 23.6918 93.2043 23.7106 92.6281 23.8797C91.9579 23.9674 91.3379 24.1991 90.7554 24.5311C90.0226 24.8756 89.5152 25.4142 89.296 26.2097C89.0518 27.1116 89.0518 28.0135 89.3211 28.9092C89.5591 29.6983 90.0476 30.2934 90.818 30.6378C91.3942 30.9886 92.0268 31.1577 92.697 31.1953C93.4549 31.2329 94.2127 31.2329 94.9643 31.1013C94.9831 31.1076 95.0082 31.1076 95.0332 31.0888C95.5594 31.045 96.0604 30.9322 96.5176 30.6504C97.1064 30.5 97.5949 30.2057 97.9519 29.7046C98.0647 29.5856 98.1837 29.4729 98.2839 29.3413C98.8037 28.6712 99.0292 27.8882 99.0856 27.0552C99.1795 25.4455 99.1107 23.8484 99.1232 22.245ZM96.1669 26.4101C96.098 27.1993 95.8224 27.882 95.1397 28.3455C95.0395 28.4144 94.9393 28.4833 94.8892 28.6023C94.8704 28.6148 94.8516 28.621 94.8328 28.6336C94.8328 28.6336 94.8328 28.6336 94.8328 28.6273L92.8285 28.7463C92.8285 28.7463 92.8285 28.7463 92.8223 28.7463C92.8223 28.6085 92.6845 28.5772 92.5968 28.5083C91.9016 28.0072 91.889 26.8172 92.5717 26.3036C92.6594 26.2347 92.7534 26.1784 92.7722 26.0656C92.8223 26.0844 92.8724 26.0907 92.9162 26.0781C93.4925 25.909 94.0812 25.79 94.6637 25.646C94.7451 25.6272 94.814 25.5896 94.8453 25.5207C94.8767 25.527 94.9017 25.5207 94.9268 25.4957C95.0082 25.5646 95.1084 25.5082 95.2023 25.4831C95.4403 25.4142 95.6784 25.3328 95.9101 25.2389C96.0792 25.17 96.1669 25.2201 96.1669 25.408C96.1732 25.7462 96.1919 26.0781 96.1669 26.4101Z" fill="#96C8D8"/>
<path d="M89.0643 19.4014C89.0643 19.3012 89.0893 19.1822 88.9202 19.1885C88.0747 19.1947 87.2416 19.2386 86.4337 19.5016C85.4879 19.6895 84.6674 20.1154 83.991 20.8044C83.8782 20.8545 83.8219 20.9547 83.7467 21.0424C82.8636 22.0633 82.4815 23.2847 82.4439 24.5937C82.3876 26.6418 82.4251 28.6899 82.4126 30.738C82.4126 30.9447 82.469 31.0011 82.6757 31.0011C83.54 30.9886 84.4043 31.0011 85.2687 30.9948C85.3438 30.9948 85.4378 31.0387 85.4879 30.9384C85.4942 30.8132 85.5004 30.6879 85.5067 30.5689C85.5317 28.5396 85.4503 26.5165 85.5505 24.4872C85.5881 23.7043 85.87 23.0592 86.5589 22.627C86.728 22.5331 86.9159 22.4767 87.1101 22.4391C87.6738 22.3201 88.2438 22.3076 88.82 22.3264C88.9954 22.3327 89.0768 22.3013 89.0768 22.0946C89.058 21.1927 89.0643 20.2971 89.0643 19.4014Z" fill="#96C8D8"/>
<path d="M67.6437 5.87899C68.1886 5.9792 68.7336 6.02931 69.2847 6.06062C69.7795 6.16084 70.2743 6.22973 70.7754 6.26105C71.3955 6.38632 72.0218 6.50532 72.6481 6.57422C73.2745 6.69948 73.8945 6.82475 74.5209 6.95001C75.047 7.07528 75.5731 7.20055 76.1055 7.32581C76.6065 7.46361 77.1076 7.60766 77.6149 7.74545C78.0659 7.91456 78.5231 8.07115 78.9929 8.18389C79.3561 8.34047 79.7319 8.46574 80.114 8.57221C80.5462 8.76011 80.9783 8.93548 81.4293 9.06701C81.8364 9.25491 82.2498 9.43655 82.6757 9.57434C83.1642 9.83114 83.6715 10.0441 84.1851 10.2508C84.8741 10.5827 85.5631 10.921 86.2458 11.2529C86.9598 11.6412 87.6675 12.0358 88.3816 12.4241C88.8826 12.7373 89.3712 13.063 89.8785 13.3636C90.0727 13.4826 90.0789 13.5829 89.9662 13.7582C89.747 14.0965 89.5403 14.4472 89.3336 14.7917C88.9077 15.4869 88.488 16.1884 88.0809 16.8523C88.939 16.8523 89.7845 16.8523 90.6301 16.8523C91.3378 16.8335 92.0456 16.8085 92.7596 16.7897C93.3421 16.7709 93.9309 16.7458 94.5133 16.727C95.0958 16.7458 95.6846 16.6895 96.2671 16.6644C96.8934 16.6895 97.5197 16.6456 98.1461 16.6018C98.7599 16.6143 99.3737 16.608 100.013 16.5391C99.7996 16.0757 99.6054 15.656 99.4112 15.2301C99.0167 14.3908 98.6158 13.5453 98.2212 12.706C97.645 11.3844 97.0374 10.0817 96.4049 8.78516C95.9414 7.75172 95.4716 6.72454 94.9831 5.64098C94.7764 5.99173 94.5885 6.29863 94.4069 6.60553C94.3442 6.68696 94.2753 6.76212 94.219 6.8498C93.862 7.41976 93.5049 7.99599 93.1542 8.57221C93.054 8.73506 92.9538 8.82901 92.7596 8.73506C92.0894 8.39058 91.3879 8.10873 90.699 7.80809C89.9349 7.47613 89.177 7.13165 88.3878 6.86233C87.6738 6.54916 86.9473 6.26731 86.1957 6.04183C85.5693 5.77251 84.9179 5.57209 84.254 5.4155C83.7467 5.23387 83.2206 5.12739 82.6882 5.05223C82.2748 4.95202 81.8615 4.83302 81.4355 4.78917C81.0222 4.70149 80.6088 4.58875 80.1829 4.55117C79.7695 4.46348 79.3561 4.39458 78.9365 4.36327C78.5043 4.27558 78.0659 4.22547 77.6275 4.20668C77.0262 4.11274 76.4186 4.06889 75.8111 4.0501C75.31 4.02505 74.8152 3.94989 74.3079 3.98747C74.358 3.98747 74.3956 3.99373 74.4332 4C74.3956 3.99373 74.3517 3.99373 74.3079 3.98747C73.788 3.98747 73.2619 3.98747 72.7421 3.98121C72.6607 3.98121 72.573 3.98121 72.4915 3.98747C72.216 3.98747 71.9341 3.93736 71.6585 4.03131C71.3015 4.03758 70.9445 4 70.5938 4.08768C70.1115 4.08768 69.6355 4.119 69.1657 4.21921C68.6772 4.23174 68.1949 4.29437 67.7189 4.40085C67.5435 4.37579 67.3869 4.46348 67.2116 4.47601C66.7731 4.51359 66.3347 4.57622 65.9151 4.72028C64.7689 4.90191 63.6603 5.21508 62.5767 5.61593C63.7166 5.62846 64.8503 5.68483 65.9777 5.72241C66.5226 5.82262 67.08 5.87273 67.6437 5.87899Z" fill="#96C8D8"/>
<path d="M34.8616 29.5168C34.7802 29.5168 34.6925 29.5105 34.6111 29.5105C34.2227 29.4416 33.8344 29.4353 33.4398 29.4353C32.9638 29.3539 32.4878 29.3289 32.0118 29.3101C31.5045 29.2224 30.9971 29.1597 30.4836 29.1347C30.0138 29.0345 29.5378 28.9718 29.0618 28.9343C28.6922 28.8403 28.3102 28.7777 27.9281 28.7526C27.4772 28.6336 27.0199 28.5522 26.5565 28.5021C26.0804 28.3706 25.5982 28.2704 25.1096 28.1952C24.5397 28.0511 23.976 27.9071 23.406 27.763C23.0365 27.6566 22.6607 27.5501 22.2911 27.4436C21.9091 27.2808 21.5082 27.1805 21.1074 27.0615C20.7629 26.8924 20.3871 26.8235 20.0301 26.6983C19.504 26.454 18.9465 26.2786 18.4016 26.0782C17.8379 25.8402 17.2805 25.6084 16.7168 25.3704C16.2345 25.145 15.7522 24.9257 15.27 24.7003C14.9192 24.5312 14.5622 24.3558 14.2115 24.1867C13.8231 23.9612 13.4286 23.742 13.0214 23.5603C12.6519 23.3537 12.2824 23.1407 11.9128 22.934C11.4932 22.6835 11.0736 22.4392 10.6476 22.1887C10.4598 22.0634 10.2781 21.9319 10.084 21.8066C9.95242 21.7252 9.93363 21.65 10.0338 21.5122C10.1904 21.293 10.3094 21.0488 10.441 20.817C10.9608 19.984 11.4807 19.1447 12.0444 18.2428C11.418 18.3305 10.8731 18.2929 10.322 18.3367C10.084 18.3367 9.84595 18.2992 9.6142 18.3743C9.55783 18.3743 9.50146 18.3743 9.45136 18.3806C9.05677 18.3869 8.65592 18.3931 8.26133 18.3994C7.8229 18.4182 7.38447 18.4307 6.9523 18.4495C6.51387 18.437 6.07543 18.4307 5.637 18.4933C5.17978 18.5059 4.7163 18.5121 4.25907 18.5246C3.67659 18.5434 3.0941 18.5622 2.51161 18.5748C2.42392 18.581 2.3425 18.581 2.25481 18.5873C2.06065 18.5935 1.86649 18.5434 1.67233 18.6249C1.53453 18.5935 1.39674 18.6123 1.25895 18.6311C0.839307 18.6311 0.425928 18.6311 0.00628662 18.6311C0.00628662 18.675 0.00628662 18.7125 0.00628662 18.7564C0.194186 18.8566 0.206713 19.057 0.288136 19.2199C0.595038 19.8587 0.895677 20.4976 1.19632 21.1364C1.5909 22.0446 1.99802 22.9465 2.44898 23.8297C2.94378 24.9696 3.45737 26.097 4.0148 27.2056C4.35929 27.9697 4.70377 28.7401 5.07957 29.5794C5.29878 29.1597 5.56184 28.8716 5.69964 28.5021C5.77479 28.4081 5.85622 28.3142 5.92511 28.2077C6.26333 27.6753 6.60155 27.143 6.92724 26.6043C6.99614 26.4916 7.05877 26.3914 7.20909 26.4289C7.50347 26.6106 7.82916 26.7296 8.14859 26.8611C8.56197 27.0427 8.97535 27.2244 9.38872 27.3998C9.752 27.5877 10.1403 27.7317 10.5224 27.8758C10.9671 28.0887 11.4243 28.2829 11.9003 28.4269C12.2636 28.6086 12.6394 28.7401 13.0277 28.8654C13.4035 29.0032 13.7793 29.141 14.1488 29.2725C14.5184 29.4165 14.8942 29.5481 15.2825 29.6295C15.746 29.8111 16.2283 29.9239 16.7105 30.0303C17.2554 30.1431 17.8003 30.2496 18.3453 30.3623C18.8401 30.475 19.3349 30.594 19.8485 30.6316C20.2368 30.7381 20.6376 30.8007 21.0385 30.8195C21.383 30.926 21.74 30.926 22.0907 30.9698C22.6356 31.0199 23.1805 31.0701 23.7254 31.1139C24.1012 31.1327 24.477 31.2078 24.8528 31.1828C25.0595 31.1953 25.2662 31.2078 25.4792 31.2078C26.1306 31.2204 26.7882 31.283 27.4396 31.2016C27.5398 31.2016 27.6337 31.1953 27.734 31.1953C28.1787 31.1891 28.6233 31.2329 29.068 31.1389C29.5628 31.1515 30.0514 31.0826 30.5462 31.0387C30.922 30.9886 31.3103 30.9824 31.6798 30.8884C32.231 30.8446 32.7822 30.7694 33.3146 30.6316C33.847 30.5815 34.3668 30.475 34.8804 30.3185C35.7761 30.1619 36.6404 29.8988 37.4859 29.5543C36.8533 29.5543 36.2207 29.5543 35.5882 29.5543C35.3439 29.4729 35.0996 29.5105 34.8616 29.5168Z" fill="#96C8D8"/>
</g>
<defs>
<clipPath id="clip0">
<rect width="100" height="31.3792" fill="white" transform="translate(0 4)"/>
</clipPath>
</defs>
</svg>
