<svg width="100" height="40" viewBox="0 0 100 40" fill="none" xmlns="http://www.w3.org/2000/svg">
<path d="M8.8581 5.49671C10.7734 5.49671 12.3809 5.88432 13.6806 6.65956C14.9801 7.4348 15.9377 8.44943 16.5534 9.70349C17.1691 10.9576 17.4769 12.3027 17.4769 13.7392C17.4769 15.1756 17.1691 16.5096 16.5534 17.7408C15.9606 18.9492 15.0144 19.9297 13.7147 20.6822C12.4151 21.4346 10.7962 21.8107 8.8581 21.8107H4.6514V29.4377H0V5.49671H8.8581ZM8.13995 17.9118C9.48516 17.9118 10.6137 17.5926 11.5258 16.9541C12.4379 16.3158 12.8939 15.244 12.8939 13.7392C12.8939 12.2343 12.4379 11.1855 11.5258 10.5927C10.6366 9.9771 9.50801 9.66929 8.13995 9.66929H4.6514V17.9118H8.13995ZM25.718 29.7114C23.4836 29.7114 21.7394 28.8564 20.4853 27.1462C19.2312 25.4361 18.6041 23.1788 18.6041 20.3743C18.6041 17.5242 19.2312 15.244 20.4853 13.534C21.7621 11.8012 23.5406 10.9347 25.8207 10.9347C27.3484 10.9347 28.5454 11.2881 29.4118 11.995C30.2783 12.679 30.894 13.4086 31.2587 14.1839H31.5323V11.3794H36.2864V29.4377H31.5323V26.3253H31.2587C30.8482 27.169 30.2099 27.9443 29.3434 28.651C28.477 29.3579 27.2686 29.7114 25.718 29.7114ZM27.4624 25.8808C28.8076 25.8808 29.8222 25.3336 30.5062 24.2391C31.1903 23.1447 31.5323 21.8336 31.5323 20.3059C31.5323 18.7783 31.1903 17.4787 30.5062 16.4069C29.8451 15.3353 28.8304 14.7995 27.4624 14.7995C26.0943 14.7995 25.0797 15.3353 24.4184 16.4069C23.7572 17.4787 23.4266 18.7783 23.4266 20.3059C23.4266 21.8564 23.7572 23.1788 24.4184 24.2732C25.0797 25.345 26.0943 25.8808 27.4624 25.8808ZM48.0979 32.0029C47.7787 32.8465 47.4367 33.5875 47.0718 34.226C46.707 34.8871 46.0572 35.5256 45.1224 36.1412C44.2103 36.7569 43.0019 37.0648 41.4971 37.0648C40.8586 37.0648 40.3114 37.0076 39.8554 36.8937C39.3993 36.8024 39.1142 36.7454 39.0003 36.7227V33.4051C39.3652 33.4964 39.8554 33.5419 40.471 33.5419C41.2235 33.5419 41.8277 33.4165 42.2836 33.1658C42.7396 32.9149 43.1045 32.5843 43.3781 32.1739C43.6517 31.7634 43.9253 31.1934 44.1989 30.4638L44.7804 29.0273L38.2821 11.3794H43.0703L46.9693 23.7944H47.1745L51.2787 11.3794H56.0669L48.0979 32.0029ZM62.723 9.63509V15.4151H71.9231V19.1089H62.723V29.4377H57.9689V5.49671H73.1544V9.63509H62.723ZM75.232 11.3794H79.9518V29.4377H75.232V11.3794ZM77.5577 8.26703C76.8053 8.26703 76.1782 8.01622 75.6765 7.5146C75.175 6.99018 74.9241 6.36314 74.9241 5.63351C74.9241 4.88108 75.175 4.25406 75.6765 3.75243C76.1782 3.25081 76.8053 3 77.5577 3C78.3101 3 78.9372 3.26222 79.4387 3.78663C79.9404 4.28826 80.1911 4.90389 80.1911 5.63351C80.1911 6.36314 79.9404 6.99018 79.4387 7.5146C78.9372 8.01622 78.3101 8.26703 77.5577 8.26703ZM88.1663 20.4086L82.6598 11.3794H87.8584L91.2785 17.5699H91.4153L94.8355 11.3794H100L94.4251 20.4086L100 29.4377H94.8355L91.4153 23.2131H91.2785L87.8927 29.4377H82.694L88.1663 20.4086Z" fill="#96C8D8"/>
</svg>
