<svg width="100" height="40" viewBox="0 0 100 40" fill="none" xmlns="http://www.w3.org/2000/svg">
<g clip-path="url(#clip0)">
<path fill-rule="evenodd" clip-rule="evenodd" d="M7.92432 7.21708C6.39197 7.45621 4.32289 7.99407 3.0035 9.36579C2.00718 10.2094 1.20904 11.8374 0.920771 13.6138C0.787443 14.4359 0.685286 19.0186 0.684376 24.219L0.682556 33.3768H1.9412C2.63355 33.3768 3.54818 33.2311 3.97387 33.0535C5.2778 32.5085 5.4605 31.8453 5.4605 27.6555V23.9594L6.23248 24.8022C7.34209 26.0137 8.81984 26.6016 10.7856 26.6137C12.8085 26.6262 14.0644 26.1045 15.5592 24.6309C18.3957 21.8346 19.2046 16.433 17.4777 11.8178C16.2252 8.47027 12.2277 6.54498 7.92432 7.21708ZM11.3915 11.6071C12.8417 12.3738 13.4858 13.7333 13.6071 16.2836C13.7106 18.46 13.454 19.7344 12.6847 20.8647C11.9665 21.9199 11.1472 22.4687 10.0746 22.6125C8.08313 22.8796 6.38787 21.6617 5.76401 19.5153C5.03822 17.0189 5.69803 13.1192 7.02948 12.0358C8.31884 10.9864 9.92036 10.829 11.3915 11.6071Z" fill="#96C8D8"/>
<path fill-rule="evenodd" clip-rule="evenodd" d="M37.8142 9.36579C39.1336 7.99407 41.2027 7.45621 42.735 7.21708C47.0384 6.54498 51.0359 8.47027 52.2884 11.8178C54.0153 16.433 53.2065 21.8346 50.37 24.6309C48.8752 26.1045 47.6192 26.6262 45.5963 26.6137C43.6306 26.6016 42.1528 26.0137 41.0432 24.8022L40.2712 23.9594V27.6555C40.2712 31.8453 40.0885 32.5085 38.7846 33.0535C38.3589 33.2311 37.4443 33.3768 36.7519 33.3768H35.4933L35.4951 24.219C35.496 19.0186 35.5982 14.4359 35.7315 13.6138C36.0198 11.8374 36.8179 10.2094 37.8142 9.36579ZM48.4178 16.2836C48.2966 13.7333 47.6525 12.3738 46.2022 11.6071C44.7311 10.829 43.1296 10.9864 41.8402 12.0358C41.6737 12.1712 41.5178 12.3506 41.3738 12.5658C40.3654 14.0722 39.9397 17.331 40.5747 19.5153C40.6136 19.6494 40.6569 19.7799 40.704 19.9067C41.4116 21.8081 43.0183 22.8629 44.8853 22.6125C45.9579 22.4687 46.7772 21.9199 47.4955 20.8647C48.2647 19.7344 48.5214 18.46 48.4178 16.2836Z" fill="#96C8D8"/>
<path fill-rule="evenodd" clip-rule="evenodd" d="M55.151 9.88985C55.961 8.62899 57.3077 7.74271 59.0742 7.31165C59.2489 7.26903 59.4277 7.23084 59.6104 7.1972C60.8272 6.97332 64.1201 7.12439 65.4079 7.4634C66.9639 7.87317 68.1968 8.73638 68.8758 9.89151C69.2894 10.595 69.5071 11.3965 69.5062 12.2126L69.5024 16.0853C69.4974 20.97 69.4726 21.2596 68.9595 22.4056C68.2869 23.9086 66.5808 25.481 65.083 25.9786L65.0716 25.9823C63.7049 26.4341 61.0909 26.9183 59.05 26.6405L59.0416 26.6393C58.8278 26.61 58.6198 26.5742 58.418 26.532C55.3881 25.8997 53.6967 23.8404 53.7022 20.7495C53.7028 20.3137 53.7297 19.9076 53.785 19.5289C54.172 16.8778 55.9542 15.5682 59.9524 14.8212C60.1437 14.7855 60.3253 14.7513 60.498 14.7185C63.0863 14.2268 63.6305 14.0486 64.2448 13.5653C64.3342 13.495 64.4134 13.4206 64.4823 13.3428C64.9649 12.7984 64.946 12.0925 64.4011 11.5476C64.2789 11.4254 64.134 11.3079 63.9704 11.1991C62.8248 10.4378 60.7649 10.1064 59.1947 11.6109C58.6027 12.1781 58.426 12.2175 56.4695 12.2175C54.0994 12.2175 54.0444 12.1608 54.8097 10.5111C54.9101 10.295 55.0238 10.0878 55.151 9.88985ZM63.395 22.1818C64.3272 21.4665 64.7897 20.3395 64.9726 18.4174L64.9776 18.3643C64.9813 18.3257 64.9847 18.2874 64.9881 18.2495C65.0627 17.4216 65.088 16.7756 65.0434 16.7822L64.9324 16.8172C64.8086 16.8605 64.6027 16.9388 64.3884 17.0247C64.0755 17.1503 63.0517 17.4561 62.1132 17.7044C59.3802 18.4272 58.7732 18.7569 58.3839 19.7297C57.9768 20.7474 58.2082 21.9182 58.9488 22.5885C59.663 23.2349 61.7168 23.1715 62.9664 22.4643C63.1193 22.3778 63.2619 22.284 63.395 22.1818Z" fill="#96C8D8"/>
<path d="M70.855 13.5824C71.8261 10.5382 73.7209 8.77899 76.8431 8.02226C77.5639 7.84775 78.742 7.69622 79.4617 7.68575L80.7699 7.66687V12.3788L79.1618 12.5135C77.2864 12.671 76.3128 13.1599 75.6587 14.2729C75.2316 14.9999 75.1902 15.5109 75.1242 20.8387L75.053 26.6162H70.3729C70.3729 26.6162 70.3269 23.5647 70.3729 20.4472C70.4403 15.8899 70.531 14.5983 70.855 13.5824Z" fill="#96C8D8"/>
<path fill-rule="evenodd" clip-rule="evenodd" d="M24.7925 7.1972C22.4711 7.62448 20.7938 8.78234 19.9918 10.5111C19.2264 12.1608 19.2815 12.2175 21.6516 12.2175C23.608 12.2175 23.7848 12.1781 24.3768 11.6109C26.1712 9.89151 28.6055 10.57 29.5832 11.5476C30.2059 12.1704 30.1415 13.0033 29.4268 13.5653C28.7716 14.0809 28.196 14.2492 25.1344 14.8212C20.5652 15.6749 18.8901 17.2634 18.8842 20.7495C18.8783 24.0465 20.8031 26.1697 24.2237 26.6393C26.2714 26.9204 28.8994 26.4321 30.265 25.9786C31.7628 25.481 33.469 23.9086 34.1415 22.4056C34.6546 21.2596 34.6794 20.97 34.6844 16.0853L34.6883 12.2127C34.6892 11.3965 34.4714 10.5951 34.0578 9.89151C33.3789 8.73638 32.1459 7.87316 30.5899 7.4634C29.3022 7.12439 26.0093 6.97332 24.7925 7.1972ZM30.1547 18.4174C29.9456 20.6141 29.3713 21.7722 28.1484 22.4643C26.8989 23.1715 24.845 23.2349 24.1308 22.5885C23.3903 21.9183 23.1589 20.7474 23.5659 19.7297C23.9552 18.7569 24.5622 18.4272 27.2952 17.7044L30.2254 16.7822C30.273 16.7745 30.2411 17.5103 30.1547 18.4174Z" fill="#96C8D8"/>
<path fill-rule="evenodd" clip-rule="evenodd" d="M82.105 10.5111C82.907 8.78234 84.5843 7.62448 86.9057 7.1972C88.1225 6.97332 91.4154 7.12439 92.7032 7.4634C94.2592 7.87316 95.4921 8.73638 96.171 9.89151C96.5847 10.5951 96.8024 11.3965 96.8015 12.2127L96.7976 16.0853C96.7926 20.97 96.7678 21.2596 96.2548 22.4056C95.5822 23.9086 93.876 25.481 92.3783 25.9786C91.0127 26.4321 88.3846 26.9204 86.3369 26.6393C82.9164 26.1697 80.9915 24.0465 80.9975 20.7495C81.0034 17.2634 82.6784 15.6749 87.2477 14.8212C90.3092 14.2492 90.8848 14.0809 91.5401 13.5653C92.2547 13.0033 92.3191 12.1704 91.6964 11.5476C90.7187 10.57 88.2845 9.89151 86.49 11.6109C85.898 12.1781 85.7212 12.2175 83.7648 12.2175C81.3947 12.2175 81.3396 12.1608 82.105 10.5111ZM90.2616 22.4643C91.4846 21.7722 92.0588 20.6141 92.2679 18.4174C92.3544 17.5103 92.3862 16.7745 92.3387 16.7822L89.4084 17.7044C86.6755 18.4272 86.0684 18.7569 85.6791 19.7297C85.2721 20.7474 85.5035 21.9183 86.2441 22.5885C86.9583 23.2349 89.0121 23.1715 90.2616 22.4643Z" fill="#96C8D8"/>
</g>
<defs>
<clipPath id="clip0">
<rect width="100" height="26.8293" fill="white" transform="translate(0 7)"/>
</clipPath>
</defs>
</svg>
