<svg width="30" height="31" viewBox="0 0 30 31" fill="none" xmlns="http://www.w3.org/2000/svg">
<g clip-path="url(#clip0)">
<path d="M9.49364 20.5475V12.3829H7.59491V10.2943H12.0569V20.5475H9.49364ZM21.8354 12.9526C21.8354 13.807 21.3607 14.6614 20.5063 15.0412C21.6455 15.5159 22.3101 16.4652 22.3101 17.6045C22.3101 19.4083 20.6962 20.6424 18.1329 20.6424C15.5696 20.6424 13.9557 19.5032 13.9557 17.6994C13.9557 16.5602 14.7152 15.5159 15.8544 15.0412C15 14.5665 14.4304 13.7121 14.4304 12.8576C14.4304 11.2437 15.8544 10.1994 18.0379 10.1994C20.4114 10.1994 21.8354 11.2437 21.8354 12.9526ZM16.424 17.4146C16.424 18.269 16.9936 18.7437 18.1329 18.7437C19.2721 18.7437 19.8417 18.269 19.8417 17.4146C19.8417 16.5602 19.1772 16.0855 18.1329 16.0855C17.0886 16.0855 16.424 16.5602 16.424 17.4146ZM16.7088 13.0475C16.7088 13.807 17.2785 14.1867 18.2278 14.1867C19.1772 14.1867 19.7468 13.807 19.7468 13.0475C19.7468 12.288 19.1772 11.9083 18.2278 11.9083C17.2785 11.9083 16.7088 12.288 16.7088 13.0475Z" fill="white"/>
<path d="M26.6772 11.4336C27.1519 12.6677 27.3418 13.9968 27.3418 15.4209C27.3418 22.2563 21.8354 27.7627 15 27.7627C8.16456 27.7627 2.65823 22.2563 2.65823 15.4209C2.65823 8.58546 8.16456 3.07913 15 3.07913C16.3291 3.07913 17.6582 3.269 18.9873 3.74368V0.990519C17.6582 0.610772 16.3291 0.420898 15 0.420898C6.74051 0.420898 0 7.16141 0 15.4209C0 23.6804 6.74051 30.4209 15 30.4209C23.2595 30.4209 30 23.6804 30 15.4209C30 14.0918 29.8101 12.7627 29.4304 11.4336H26.6772Z" fill="white"/>
<path d="M26.0126 4.40822V1.56012H23.924V4.40822H21.0759V6.49683H23.924V9.34493H26.0126V6.49683H28.8607V4.40822H26.0126Z" fill="white"/>
</g>
<defs>
<clipPath id="clip0">
<rect width="30" height="30" fill="white" transform="translate(0 0.420898)"/>
</clipPath>
</defs>
</svg>
