<svg width="100" height="40" viewBox="0 0 100 40" fill="none" xmlns="http://www.w3.org/2000/svg">
<path d="M13.4569 4.52789C12.883 4.04011 12.2518 3.95403 11.4484 4.32704C14.2603 1.25691 19.2241 1.3143 21.6056 4.35573C21.5482 4.78612 21.2039 4.72874 20.9457 4.75743C18.7076 4.78612 16.4696 4.78612 14.2316 4.75743C13.9446 4.72874 13.7151 4.61397 13.4569 4.52789Z" fill="#96C8D8"/>
<path d="M24.647 4.2408C24.1592 4.03995 23.6715 3.95386 23.0689 4.29818C25.5078 1.25675 30.4143 1.37152 32.9392 4.03994C32.7671 4.24079 32.5088 4.26949 32.2793 4.26949C29.7543 4.26949 27.2007 4.38426 24.647 4.2408Z" fill="#96C8D8"/>
<path d="M1.75026 4.35555C1.2051 4.09732 0.631241 4.03993 0 4.21209C2.23803 1.37151 7.05842 1.25673 9.66946 3.92516C9.46861 4.35555 9.06691 4.24078 8.7226 4.24078C6.91495 4.26947 5.10731 4.24078 3.29967 4.24078C2.7832 4.29817 2.26673 4.29817 1.75026 4.35555Z" fill="#96C8D8"/>
<path d="M3.07007 9.20463C3.07007 8.65947 3.07007 8.14299 3.07007 7.59783C3.27092 7.36829 3.55785 7.36829 3.81608 7.36829C6.16889 7.3396 8.55039 7.36829 10.9032 7.3396C11.0467 7.3396 11.1901 7.3683 11.3336 7.42568C11.5631 7.99954 11.4484 8.60208 11.4484 9.20463C11.1614 9.46286 10.8171 9.43418 10.4728 9.43418C8.32084 9.43418 6.19758 9.43418 4.04562 9.43418C3.70131 9.43418 3.357 9.46286 3.07007 9.20463Z" fill="#96C8D8"/>
<path d="M34.5173 7.7413C34.546 7.85607 34.546 7.94215 34.5747 8.05692C34.4886 8.48731 34.7469 8.94639 34.4025 9.3194C34.2017 9.40548 33.9722 9.43418 33.7713 9.43418C31.5046 9.43418 29.2379 9.43418 26.9711 9.43418C26.6842 9.43418 26.3686 9.43417 26.139 9.20463C26.139 8.71685 26.139 8.22908 26.139 7.7413C26.426 7.48306 26.7703 7.51176 27.1146 7.51176C29.2665 7.51176 31.4185 7.51176 33.5418 7.51176C33.8861 7.48307 34.2591 7.48306 34.5173 7.7413Z" fill="#96C8D8"/>
<path d="M22.8967 7.59787C22.8967 7.68395 22.9254 7.77003 22.9254 7.82742C23.1263 9.37683 23.0689 9.43421 21.5769 9.43421C19.6545 9.43421 17.7033 9.43421 15.7809 9.43421C15.4079 9.43421 15.0349 9.4916 14.7193 9.26206C14.5185 8.74559 14.6045 8.22912 14.6906 7.71265C14.9488 7.48311 15.2932 7.5118 15.5801 7.5118C17.8755 7.4831 20.1422 7.56918 22.4377 7.45441C22.6098 7.45441 22.7533 7.4831 22.8967 7.59787Z" fill="#96C8D8"/>
<path d="M23.0115 18.2716C23.0115 19.3046 23.0115 20.3375 23.0115 21.3704C22.9255 21.3991 22.8394 21.3704 22.8107 21.2844C22.7246 21.1409 22.7246 20.9687 22.6959 20.7966C22.7246 20.1367 22.3229 19.9932 21.7777 19.9932C19.9988 19.9932 18.2198 19.9932 16.4696 19.9932C16.0966 19.9932 15.7236 20.0506 15.4366 19.7923C15.0923 19.362 14.9489 18.8455 14.8628 18.329C15.1497 18.0421 15.5514 18.0995 15.8957 18.0995C17.6747 18.0995 19.4536 18.0995 21.2613 18.0995C21.7491 18.0995 22.2368 18.0708 22.7246 17.9847C22.9541 17.8986 22.9828 18.0995 23.0115 18.2716Z" fill="#96C8D8"/>
<path d="M14.6621 17.4109C14.6334 17.2961 14.6334 17.2101 14.6047 17.0953C14.6908 16.6649 14.4326 16.2058 14.8056 15.8328C15.1499 15.6893 15.5229 15.718 15.8959 15.718C17.8183 15.718 19.7407 15.718 21.6631 15.718C23.0404 15.718 23.0404 15.7467 23.0117 17.0953C23.0117 17.2101 23.0117 17.3248 22.9543 17.4396C22.7248 17.6691 22.4091 17.6404 22.1222 17.6404C19.9416 17.6404 17.7609 17.6404 15.609 17.6404C15.2646 17.6404 14.9203 17.6405 14.6621 17.4109Z" fill="#96C8D8"/>
<path d="M33.7426 26.3631C31.6768 26.191 29.8404 25.4736 28.3197 24.0103C28.4632 23.6947 28.7501 23.6373 29.0657 23.6373C30.6438 23.6086 32.2219 23.6086 33.8 23.6373C34.0869 23.6373 34.3739 23.7234 34.5747 23.9816C34.6608 24.5268 34.6034 25.0719 34.6034 25.6458C34.6034 26.4779 34.5747 26.4779 33.7426 26.3631Z" fill="#96C8D8"/>
<path d="M1.75037 4.35568C1.83644 3.89659 2.20945 4.06875 2.46769 4.06875C4.61964 4.06875 6.7716 4.06875 8.89486 4.06875C9.1531 4.06875 9.44002 4.15483 9.66957 3.95398C10.1287 4.24091 10.3869 4.69999 10.5877 5.18776C10.473 5.76162 10.0139 5.61816 9.66957 5.61816C8.06277 5.64685 6.45598 5.61816 4.84918 5.61816C4.33271 5.61816 3.81624 5.61816 3.32847 5.67554C3.07023 5.70424 2.84069 5.70424 2.63984 5.53208C2.32422 5.15908 2.03729 4.75737 1.75037 4.35568Z" fill="#96C8D8"/>
<path d="M26.139 19.3048C26.139 18.8744 26.139 18.4153 26.139 17.985C26.4547 17.698 26.8564 17.7554 27.2581 17.7554C29.2379 17.7554 31.189 17.7554 33.1688 17.7554C34.6034 17.7554 34.6895 17.8702 34.5173 19.3335C34.2591 19.5631 33.9148 19.5344 33.6278 19.5344C31.4185 19.5344 29.2379 19.5344 27.0285 19.5344C26.7416 19.5344 26.3973 19.5631 26.139 19.3048Z" fill="#96C8D8"/>
<path d="M33.6854 5.07302C33.9436 5.47472 34.1732 5.90511 34.2306 6.39289C34.374 6.88067 33.9723 6.76589 33.7428 6.76589C33.0829 6.79458 32.4229 6.76589 31.763 6.76589C30.1849 6.76589 28.6068 6.76589 27.0287 6.76589C26.6557 6.76589 26.2827 6.79459 25.9958 6.53635C25.8523 6.10596 25.7088 5.64688 25.5941 5.21648C25.7949 4.98694 26.0818 4.98695 26.3401 4.98695C28.6642 4.95825 30.9883 4.98694 33.3411 4.95825C33.4559 4.98694 33.5706 5.04433 33.6854 5.07302Z" fill="#96C8D8"/>
<path d="M34.5173 19.3045C34.5173 19.1036 34.5173 18.9028 34.5173 18.7306C34.5747 18.1281 34.2878 17.9846 33.7426 17.9846C31.2177 18.0133 28.6927 17.9846 26.139 17.9846C26.139 17.5829 26.139 17.2099 26.139 16.8082C26.3399 16.6361 26.5694 16.5787 26.8277 16.5787C29.2379 16.5787 31.648 16.55 34.0582 16.5787C34.1443 16.5787 34.2591 16.6074 34.3452 16.6361C34.6321 16.7221 34.6034 16.9804 34.6034 17.2099C34.6608 18.8741 34.6608 20.5383 34.6034 22.1738C34.2591 22.0016 34.3739 21.686 34.3165 21.399C34.2878 21.026 34.3165 20.653 34.3165 20.2513C34.3165 19.9644 34.2591 19.6201 34.5173 19.3045Z" fill="#96C8D8"/>
<path d="M34.5174 9.20478C34.5748 8.83177 34.4601 8.43007 34.6035 8.05707C34.6896 8.97524 34.6609 9.9221 34.6035 10.8403C34.5748 11.7871 34.5748 11.7871 33.6567 11.7871C31.5334 11.7871 29.4101 11.7871 27.2869 11.7871C26.9139 11.7871 26.4835 11.8445 26.1678 11.5576C26.1678 11.1559 26.1678 10.7829 26.1678 10.3812C26.4835 10.1229 26.8565 10.1516 27.2295 10.1516C29.1232 10.1516 30.9882 10.123 32.882 10.1516C33.628 10.1516 34.2592 10.0369 34.5174 9.20478Z" fill="#96C8D8"/>
<path d="M34.6035 17.2385C34.5748 17.0951 34.5461 16.9516 34.5174 16.8081C34.2879 16.5499 34.3166 16.2056 34.3166 15.89C34.3166 15.2874 33.9723 15.1153 33.4271 15.1153C31.3899 15.1153 29.3241 15.1153 27.2869 15.1153C26.9139 15.1153 26.5122 15.1726 26.1678 14.8857C26.1678 14.484 26.1678 14.111 26.1678 13.7093C26.4835 13.4511 26.8565 13.4798 27.2008 13.4798C29.5536 13.4798 31.9351 13.4798 34.2879 13.4798C34.5174 13.4798 34.6035 13.6519 34.6035 13.8528C34.6322 15.0005 34.6896 16.1195 34.6035 17.2385Z" fill="#96C8D8"/>
<path d="M25.9956 6.56503C28.664 6.56503 31.3325 6.59372 33.9722 6.62241C34.1443 6.62241 34.173 6.56503 34.2017 6.42157C34.4313 6.82327 34.5174 7.28235 34.5174 7.74143C31.7342 7.74143 28.9223 7.74143 26.1391 7.74143C26.1104 7.33973 26.053 6.93804 25.9956 6.56503Z" fill="#96C8D8"/>
<path d="M34.5174 21.514C34.5461 21.7435 34.46 22.0018 34.6034 22.2313C34.6034 23.4077 34.6321 24.5554 34.6321 25.7318C34.6321 26.6213 34.6321 26.6213 33.714 26.3917C34.3739 26.4778 34.5747 26.1909 34.5174 25.5597C34.46 25.0432 34.4887 24.5267 34.4887 24.0389C34.3165 22.9486 33.5705 22.8912 32.6523 22.9199C31.1603 22.9773 29.6683 22.9486 28.1763 22.9486C27.8033 22.9486 27.4302 22.9199 27.1146 22.7191C26.799 22.3748 26.5982 22.0018 26.5408 21.5427C26.799 21.2844 27.1146 21.3131 27.4302 21.3131C29.4674 21.3131 31.5333 21.3131 33.5705 21.3131C33.9148 21.2844 34.2591 21.2557 34.5174 21.514Z" fill="#96C8D8"/>
<path d="M34.5174 13.5949C34.2305 13.7957 33.9149 13.7383 33.5993 13.7383C31.1317 13.7383 28.6354 13.7383 26.1678 13.7383C26.1678 13.3367 26.1678 12.9636 26.1678 12.5619C26.4261 12.3324 26.7417 12.3324 27.0573 12.3324C29.238 12.3324 31.4186 12.3324 33.5993 12.3324C34.6035 12.3324 34.7183 12.5046 34.5174 13.5949Z" fill="#96C8D8"/>
<path d="M33.6853 5.07292C33.3697 5.27377 33.0254 5.24508 32.6811 5.24508C30.3283 5.24508 27.9468 5.24508 25.594 5.24508C25.3357 4.84338 25.0201 4.52776 24.6471 4.24083C24.8766 3.9539 25.1923 4.06867 25.4505 4.06867C27.9468 4.06867 30.443 4.03998 32.9106 4.03998C33.3123 4.32691 33.5132 4.67122 33.6853 5.07292Z" fill="#96C8D8"/>
<path d="M34.5173 9.20477C34.546 10.2951 34.4599 10.3812 33.3122 10.3812C30.9307 10.3812 28.5492 10.3812 26.139 10.3812C26.139 9.97948 26.139 9.60647 26.139 9.20477C28.9222 9.20477 31.7341 9.20477 34.5173 9.20477Z" fill="#96C8D8"/>
<path d="M22.8969 7.59811C20.831 7.91373 18.7652 7.68418 16.728 7.74157C16.0393 7.77026 15.3794 7.74157 14.6908 7.74157C14.6621 7.74157 14.6334 7.74157 14.6047 7.74157C14.5473 7.31118 14.4899 6.88079 14.4612 6.42171C14.5473 6.36432 14.6334 6.33563 14.7482 6.33563C17.3879 6.36432 20.0276 6.24955 22.6674 6.39302C22.8108 6.76602 22.8969 7.16771 22.8969 7.59811Z" fill="#96C8D8"/>
<path d="M2.61108 5.53206C4.99258 5.21644 7.40278 5.44598 9.78427 5.3886C10.0712 5.3886 10.3868 5.50336 10.5877 5.18774C10.8746 5.56075 10.9894 5.99115 11.1041 6.42154C10.9033 6.79454 10.559 6.79454 10.2147 6.79454C8.06271 6.82323 5.88206 6.79454 3.7301 6.79454C3.44317 6.79454 3.15625 6.76585 2.89801 6.565C2.81193 6.22069 2.72585 5.87637 2.61108 5.53206Z" fill="#96C8D8"/>
<path d="M34.5174 21.5141C31.8777 21.5141 29.2379 21.5141 26.5982 21.5141C26.3687 21.1411 26.2826 20.7681 26.2826 20.3377C26.5408 20.0508 26.9138 20.1081 27.2581 20.1081C29.3527 20.1081 31.4473 20.1081 33.5706 20.1081C33.9149 20.1081 34.2592 20.0795 34.5461 20.3377C34.5174 20.7394 34.5174 21.1124 34.5174 21.5141Z" fill="#96C8D8"/>
<path d="M3.61518 14.7999C3.41433 14.513 3.35695 14.1974 3.29956 13.8817C3.32825 13.4513 3.67257 13.394 3.98819 13.394C6.28361 13.3653 8.55034 13.3653 10.8458 13.394C11.0753 13.394 11.2761 13.4513 11.4483 13.6235C11.4483 14.0252 11.4483 14.3982 11.4483 14.7999C11.1901 15.0581 10.8744 15.0294 10.5588 15.0294C8.55034 15.0294 6.54184 15.0294 4.53335 15.0294C4.18904 15.0008 3.87342 14.9721 3.61518 14.7999Z" fill="#96C8D8"/>
<path d="M15.408 19.7637C17.5312 19.7637 19.6545 19.7637 21.7491 19.7637C22.8968 19.7637 22.8968 19.7637 22.8968 20.9401C22.7246 21.2557 22.409 21.3131 22.0934 21.3131C20.257 21.3131 18.4207 21.3705 16.5844 21.2844C16.0679 20.8541 15.6375 20.395 15.408 19.7637Z" fill="#96C8D8"/>
<path d="M16.5557 21.2557C16.7278 20.9688 17.0434 21.0549 17.3017 21.0549C18.8798 21.0549 20.4579 21.0549 22.0647 21.0549C22.3516 21.0549 22.6385 21.0836 22.9255 20.9114C22.9255 21.0549 22.9255 21.1984 22.9255 21.3418C22.9255 21.3705 22.9541 21.3992 22.9541 21.3992C23.1263 22.8912 23.1263 22.8912 21.6343 22.8912C20.6013 22.8912 19.5684 23.006 18.5929 22.6904C17.8181 22.3748 17.1295 21.887 16.5557 21.2557Z" fill="#96C8D8"/>
<path d="M34.5174 13.5947C34.5461 12.5618 34.5461 12.5618 33.5132 12.5618C31.0743 12.5618 28.6067 12.5618 26.1678 12.5618C26.1678 12.2175 26.1678 11.8732 26.1678 11.5288C28.8363 11.5288 31.476 11.5002 34.1444 11.5575C34.8618 11.5575 34.3453 10.9837 34.6035 10.8115C34.6609 11.8158 34.6609 12.8487 34.6035 13.853C34.5748 13.7669 34.5461 13.6808 34.5174 13.5947Z" fill="#96C8D8"/>
<path d="M22.8968 17.4111C22.9255 15.9477 22.9255 15.9477 21.4334 15.9477C19.1954 15.9477 16.9287 15.9477 14.6906 15.9477C14.4898 14.8287 14.5759 14.6853 15.6949 14.7139C17.9329 14.7139 20.1423 14.6566 22.3803 14.7426C22.6098 14.7426 22.8107 14.6852 23.0402 14.6566C23.0402 15.8617 23.0402 17.0954 23.0402 18.3005C23.0115 18.2145 22.9829 18.1284 22.9255 18.0136C22.7246 17.7841 22.7533 17.6119 22.8968 17.4111Z" fill="#96C8D8"/>
<path d="M14.6906 9.20482C17.1008 9.20482 19.511 9.20482 21.9498 9.20482C22.8967 9.20482 22.8967 9.20482 22.9254 8.28665C22.9254 8.14319 22.9254 7.99973 22.9541 7.85626C23.1836 8.83182 23.0402 9.83606 23.0402 10.8403C22.9541 10.8403 22.868 10.8116 22.8106 10.7542C22.5524 10.4386 22.2081 10.496 21.8638 10.496C19.8266 10.496 17.7607 10.496 15.7235 10.496C14.5758 10.4386 14.4897 10.3238 14.6906 9.20482Z" fill="#96C8D8"/>
<path d="M3.61517 14.7998C6.22621 14.7998 8.83725 14.7998 11.4483 14.7711C11.4483 15.058 11.4483 15.3737 11.4483 15.6606C11.3048 15.9475 11.0753 16.1197 10.7597 16.1197C8.63641 16.1771 6.54183 16.2631 4.41857 16.0623C4.04557 15.6893 3.72994 15.3163 3.61517 14.7998Z" fill="#96C8D8"/>
<path d="M11.4197 13.5948C8.9521 13.5948 6.48452 13.5948 4.04564 13.5948C3.75871 13.5948 3.44309 13.5375 3.27093 13.8818C3.12747 13.4514 3.0127 13.021 3.07008 12.5906C3.35701 12.3324 3.70132 12.3611 4.04564 12.3611C6.19759 12.3611 8.32086 12.3611 10.4728 12.3611C10.8171 12.3611 11.1614 12.3324 11.4484 12.5906C11.4197 12.9062 11.4197 13.2505 11.4197 13.5948Z" fill="#96C8D8"/>
<path d="M3.07001 9.20477C5.85321 9.20477 8.63641 9.20477 11.4196 9.20477C11.4196 9.54909 11.4196 9.8934 11.4196 10.2377C11.1327 10.4959 10.7884 10.4673 10.4441 10.4673C8.29209 10.4673 6.16883 10.4673 4.01687 10.4673C3.67256 10.4673 3.32825 10.4959 3.04132 10.2377C3.07001 9.8934 3.07001 9.54909 3.07001 9.20477Z" fill="#96C8D8"/>
<path d="M11.4196 10.9549C11.4196 11.2992 11.4196 11.6435 11.4196 11.9879C11.1327 12.2461 10.7884 12.2174 10.4441 12.2174C8.29209 12.2174 6.16883 12.2174 4.01687 12.2174C3.67256 12.2174 3.32825 12.2461 3.04132 11.9879C3.04132 11.6435 3.04132 11.2992 3.04132 10.9549C3.32825 10.6967 3.67256 10.7254 4.01687 10.7254C6.16883 10.7254 8.29209 10.7254 10.4441 10.7254C10.8171 10.7254 11.1614 10.6967 11.4196 10.9549Z" fill="#96C8D8"/>
<path d="M26.1393 14.9147C28.5782 14.9147 31.0457 14.9147 33.4846 14.9147C34.5176 14.9147 34.5176 14.9147 34.4889 15.9477C34.202 16.2059 33.8576 16.1772 33.5133 16.1772C31.3614 16.1772 29.2381 16.1772 27.0861 16.1772C26.7418 16.1772 26.3975 16.2059 26.1106 15.9477C26.1393 15.6034 26.1393 15.259 26.1393 14.9147Z" fill="#96C8D8"/>
<path d="M34.5175 20.3376C31.763 20.3376 29.0372 20.3376 26.2827 20.3376C26.1105 20.0219 26.1392 19.6489 26.1679 19.3046C28.9511 19.3046 31.7343 19.3046 34.5175 19.3046C34.5175 19.6489 34.5175 19.9933 34.5175 20.3376Z" fill="#96C8D8"/>
<path d="M2.9267 6.56503C5.36558 6.56503 7.83316 6.56503 10.272 6.56503C10.559 6.56503 10.8746 6.62242 11.1328 6.42157C11.2476 6.73719 11.3624 7.0815 11.3337 7.42582C11.0467 7.59797 10.7311 7.59797 10.4155 7.59797C7.97662 7.59797 5.53774 7.59797 3.07016 7.59797C2.9267 7.25365 2.9267 6.90935 2.9267 6.56503Z" fill="#96C8D8"/>
<path d="M13.457 4.528C15.8959 4.528 18.3347 4.528 20.7736 4.49931C21.0606 4.49931 21.3762 4.61408 21.6057 4.32715C21.8926 4.61408 22.0935 4.9297 22.2083 5.33139C22.2083 5.76179 21.8353 5.73309 21.577 5.76179C19.3103 5.81917 17.0436 5.79048 14.8055 5.76179C14.576 5.76179 14.3751 5.67571 14.203 5.56094C13.9447 5.21663 13.7152 4.87231 13.457 4.528Z" fill="#96C8D8"/>
<path d="M14.1741 5.56091C16.5843 5.56091 18.9945 5.56091 21.4047 5.53221C21.6916 5.53221 22.0073 5.64698 22.2081 5.33136C22.4376 5.64698 22.5811 6.01999 22.6098 6.42169C22.5811 6.50777 22.5811 6.62253 22.4376 6.62253C19.9414 6.59384 17.4738 6.59385 14.9775 6.56515C14.7767 6.56515 14.5758 6.53646 14.4324 6.42169C14.3463 6.13476 14.2602 5.84783 14.1741 5.56091Z" fill="#96C8D8"/>
<path d="M27.1435 22.6904C29.1807 22.6904 31.1892 22.6904 33.2264 22.6904C34.5462 22.6904 34.5462 22.6904 34.5175 24.0103C33.2264 23.7234 31.9065 23.8955 30.6153 23.8668C29.8406 23.8668 29.0659 23.6947 28.3199 24.0103C27.8321 23.666 27.4304 23.2356 27.1435 22.6904Z" fill="#96C8D8"/>
<path d="M23.0115 14.6277C22.8967 14.7999 22.9828 15.0294 22.495 14.9721C21.4334 14.7999 20.3144 14.9147 19.1953 14.9147C18.0189 14.9147 16.8425 14.9147 15.6948 14.9147C14.6619 14.9147 14.6619 14.9147 14.6906 15.9476C14.6332 16.3206 14.7767 16.7223 14.6045 17.0953C14.5184 16.1198 14.5471 15.1442 14.6045 14.1687C14.834 13.7096 15.2644 13.8243 15.6374 13.8243C17.9902 13.7957 20.3717 13.8243 22.7245 13.7957C23.0689 13.8243 22.9541 14.1113 23.0115 14.3121C23.0115 14.4269 23.0115 14.5417 23.0115 14.6277Z" fill="#96C8D8"/>
<path d="M26.139 15.9476C28.9222 15.9476 31.7054 15.9476 34.4886 15.9476C34.4886 16.2345 34.4886 16.5214 34.4886 16.837C31.7054 16.837 28.9222 16.837 26.139 16.837C26.139 16.5214 26.139 16.2345 26.139 15.9476Z" fill="#96C8D8"/>
<path d="M22.8968 13.8816C22.6099 14.0538 22.2943 14.0251 21.9787 14.0251C19.798 14.0251 17.6174 14.0251 15.4654 14.0251C15.1785 14.0251 14.8628 13.9677 14.6046 14.1685C14.6046 13.9677 14.6046 13.7668 14.6046 13.566C14.6333 13.3364 14.5759 13.1069 14.8629 12.9921C15.5515 12.82 16.2688 12.906 16.9861 12.906C18.6216 12.906 20.2571 12.906 21.8926 12.906C22.2369 12.906 22.5812 12.8773 22.8968 13.0782C23.0403 13.3364 23.0116 13.6234 22.8968 13.8816Z" fill="#96C8D8"/>
<path d="M22.8967 17.4109C22.8967 17.6118 22.8967 17.8126 22.8967 18.0135C22.6098 18.2717 22.2654 18.3004 21.8638 18.3004C19.5109 18.3004 17.1581 18.3004 14.8053 18.3004C14.6332 18.0135 14.6332 17.7266 14.6332 17.4109C17.4164 17.4109 20.1709 17.4109 22.8967 17.4109Z" fill="#96C8D8"/>
<path d="M22.8968 13.8817C22.8968 13.6234 22.8968 13.3939 22.8968 13.1356C22.6385 12.7913 22.2655 12.7913 21.9212 12.7913C19.8553 12.7913 17.7608 12.7913 15.6949 12.7913C15.3219 12.7913 14.9489 12.7913 14.7193 13.1356C14.6906 13.2791 14.6619 13.4226 14.6332 13.566C14.5759 12.6479 14.5759 11.7297 14.6332 10.8115C14.7193 10.8402 14.7767 10.8689 14.8341 10.955C14.9489 11.4141 15.2358 11.6149 15.7236 11.6149C17.8468 11.6149 19.9701 11.5862 22.0934 11.6149C22.4664 11.6149 22.7246 11.5288 22.7533 11.1271C22.782 11.0124 22.8394 10.8976 22.9541 10.8115C22.9828 10.8115 23.0115 10.8115 23.0402 10.8115C23.0402 11.9879 23.0402 13.1356 23.0402 14.312C22.8968 14.1973 22.9255 14.0251 22.8968 13.8817Z" fill="#96C8D8"/>
<path d="M22.9255 10.8117C22.9255 10.8978 22.9255 11.0126 22.9255 11.0986C20.3145 11.2708 17.7034 11.1847 15.0924 11.156C14.9489 11.156 14.8055 11.0699 14.6907 10.9552C14.662 10.8978 14.6333 10.8691 14.6046 10.8117C14.6046 9.77877 14.6046 8.74583 14.6046 7.71289C14.6333 7.71289 14.662 7.71289 14.6907 7.71289C14.6907 8.20067 14.6907 8.68844 14.6907 9.17621C14.662 10.2092 14.662 10.2092 15.6949 10.2092C17.9617 10.2092 20.2284 10.2378 22.5238 10.1805C23.1551 10.1805 22.8107 10.5822 22.9255 10.8117Z" fill="#96C8D8"/>
<path d="M11.4197 10.9551C8.63646 10.9551 5.85327 10.9551 3.07007 10.9551C3.07007 10.6969 3.07007 10.4673 3.07007 10.2091C5.85327 10.2091 8.63646 10.2091 11.4197 10.2091C11.4197 10.4673 11.4197 10.7256 11.4197 10.9551Z" fill="#96C8D8"/>
<path d="M4.41858 16.0625C4.64812 15.8616 4.93505 15.9477 5.19328 15.9477C6.88616 15.9477 8.57903 15.9477 10.2719 15.9477C10.7023 15.9477 11.104 15.8903 11.4483 15.6608C11.4483 16.0625 11.4483 16.4355 11.4483 16.8372C11.3335 16.9519 11.1614 17.038 10.9892 17.038C9.0955 17.038 7.20178 17.1815 5.30805 16.9806C4.90636 16.7224 4.61943 16.4355 4.41858 16.0625Z" fill="#96C8D8"/>
<path d="M3.07007 11.988C5.85327 11.988 8.63646 11.988 11.4197 11.988C11.4197 12.1889 11.4197 12.3897 11.4197 12.5619C8.63646 12.5619 5.85327 12.5619 3.07007 12.5619C3.07007 12.361 3.07007 12.1889 3.07007 11.988Z" fill="#96C8D8"/>
<path d="M7.31669 18.3004C6.82891 18.1569 6.39852 17.87 6.02551 17.5544C6.0829 17.2101 6.34113 17.2101 6.57067 17.2101C8.12008 17.1527 9.66949 17.2101 11.2189 17.1814C11.305 17.1814 11.3624 17.2388 11.4198 17.2675C11.4198 17.6118 11.4198 17.9561 11.4198 18.3004C11.2763 18.4439 11.1041 18.5013 10.9033 18.5013C9.69819 18.5013 8.49309 18.6447 7.31669 18.3004Z" fill="#96C8D8"/>
<path d="M18.5929 22.6904C19.8554 22.6904 21.1179 22.633 22.3803 22.6904C22.8681 22.7191 22.9542 22.5756 22.9255 22.1453C22.8968 21.887 22.9255 21.6001 22.9255 21.3419C22.9542 21.3419 22.9829 21.3419 23.0116 21.3419C23.0116 22.0305 23.0116 22.6904 23.0403 23.379C23.069 23.7233 22.9255 23.8668 22.5812 23.8381C21.1752 23.6947 19.798 23.4651 18.5929 22.6904Z" fill="#96C8D8"/>
<path d="M11.4197 17.2674C10.0137 17.5831 8.55039 17.3248 7.14445 17.4109C6.77144 17.4396 6.36975 17.2674 6.02543 17.5257C5.7385 17.3822 5.48027 17.2101 5.27942 16.9518C5.50896 16.7223 5.79589 16.8084 6.02543 16.8084C7.83308 16.8084 9.61203 16.8084 11.4197 16.8084C11.4197 16.9518 11.4197 17.124 11.4197 17.2674Z" fill="#96C8D8"/>
<path d="M7.31659 18.3004C8.69384 18.3004 10.0711 18.3004 11.4483 18.3004C11.5057 19.3907 11.5057 19.362 10.4441 19.2185C9.32508 19.0464 8.26345 18.8742 7.31659 18.3004Z" fill="#96C8D8"/>
<path d="M14.6908 13.1644C14.6047 12.734 14.8056 12.5619 15.2646 12.5619C17.6175 12.5906 19.9989 12.5906 22.3518 12.5619C22.8108 12.5619 22.983 12.7054 22.9256 13.1644C20.1711 13.1644 17.4453 13.1644 14.6908 13.1644Z" fill="#96C8D8"/>
<path d="M14.6907 10.955C17.1295 10.955 19.5397 10.955 21.9786 10.955C22.2942 10.955 22.6099 10.9263 22.8968 11.0984C23.0116 11.7297 22.8394 11.9018 22.0934 11.8732C19.9127 11.7871 17.7034 11.8158 15.5228 11.8445C14.8341 11.8731 14.5472 11.6723 14.6907 10.955Z" fill="#96C8D8"/>
<path d="M50.2475 29.248L49.7503 32.1045H47.7727L49.2299 23.6855L52.254 23.6913C53.1907 23.6913 53.927 23.9515 54.4628 24.4719C55.0025 24.9923 55.2396 25.6669 55.1741 26.4957C55.1278 27.0623 54.9466 27.5538 54.6305 27.9702C54.3144 28.3865 53.8962 28.7045 53.3758 28.9242C52.8592 29.144 52.2791 29.2538 51.6353 29.2538L50.2475 29.248ZM50.5193 27.681L51.7105 27.6926C52.2116 27.681 52.5952 27.5191 52.8611 27.2069C53.1271 26.8908 53.2331 26.5034 53.1792 26.0447C53.1483 25.8095 53.0577 25.6245 52.9074 25.4896C52.7609 25.3508 52.5662 25.2737 52.3234 25.2583L50.9414 25.2525L50.5193 27.681ZM59.2274 30.5317H56.5387L55.7928 32.1045H53.6128L58.071 23.6855H59.9329L61.4883 32.1045H59.4298L59.2274 30.5317ZM57.2788 28.9647H59.025L58.655 26.062L57.2788 28.9647ZM65.7672 29.1324H64.6686L64.1481 32.1045H62.1706L63.6277 23.6855L66.5998 23.6913C67.552 23.6913 68.2844 23.9149 68.7971 24.362C69.3136 24.8053 69.5449 25.4125 69.491 26.1834C69.4486 26.7925 69.2732 27.2975 68.9648 27.6984C68.6564 28.0954 68.2247 28.4096 67.6696 28.6409L68.8029 32.0062V32.1045H66.6923L65.7672 29.1324ZM64.9345 27.5654L66.091 27.577C66.4071 27.577 66.6808 27.4999 66.9121 27.3457C67.1472 27.1915 67.3149 26.9814 67.4151 26.7154C67.5154 26.4456 67.5443 26.1854 67.5019 25.9348C67.4248 25.5069 67.1511 25.2814 66.6808 25.2583L65.3393 25.2525L64.9345 27.5654ZM74.6661 30.5317H71.9774L71.2314 32.1045H69.0515L73.5097 23.6855H75.3715L76.927 32.1045H74.8685L74.6661 30.5317ZM72.7175 28.9647H74.4637L74.0937 26.062L72.7175 28.9647Z" fill="#96C8D8"/>
<path d="M44.6042 8.49473C45.6545 8.63794 46.6332 8.94832 47.397 9.73603C47.6835 10.0463 47.8267 9.85536 48.0177 9.71215C48.3041 9.56893 48.5906 9.52118 48.9009 9.52118C50.4286 9.52118 51.9563 9.52118 53.484 9.52118C53.8659 9.52118 54.224 9.56894 54.5104 9.83148C54.7014 10.0225 54.8685 10.2373 55.0595 10.4283C54.8446 10.6431 54.5821 10.6431 54.3195 10.6431C51.1209 10.6192 47.9222 10.667 44.7236 10.6193C43.5539 10.5954 42.3604 10.667 41.1907 10.6431C40.8804 10.6431 40.5701 10.6908 40.3314 10.4283C41.1668 9.21087 42.3126 8.56637 43.7687 8.47091C44.0313 8.37539 44.2939 8.51861 44.6042 8.49473Z" fill="#96C8D8"/>
<path d="M67.83 18.7829C67.7349 19.3558 67.3531 19.6184 66.8518 19.69C66.3264 19.7616 65.873 19.5468 65.7057 19.0694C65.5148 18.5681 65.3239 18.7829 65.0615 18.95C62.9608 20.1674 60.1439 19.881 58.5208 18.2578C58.5924 17.9236 58.8788 17.9475 59.0937 17.9475C61.8148 17.9236 64.536 17.9236 67.2816 17.9475C67.4725 17.9475 67.6391 17.9713 67.8064 18.0907C67.9258 18.3055 67.8779 18.5442 67.83 18.7829Z" fill="#96C8D8"/>
<path d="M40.2837 10.4282C45.201 10.4282 50.0944 10.4282 55.0117 10.4282C55.1788 10.5953 55.3459 10.7862 55.3459 11.0488C55.2266 11.2875 55.0118 11.3353 54.797 11.3353C54.0808 11.3353 53.3647 11.4068 52.6725 11.2636C51.6937 10.6191 50.7151 10.6191 49.7364 11.2636C48.328 11.383 46.9196 11.5024 45.5352 11.192C45.1771 11.0488 44.8429 10.9294 44.4849 10.7862C44.2462 10.7385 44.0075 10.7146 43.7687 10.7862C43.3869 10.8817 43.0049 10.9772 42.6707 11.1682C41.7398 11.4546 40.8088 11.4785 39.8779 11.1682C39.9495 10.9056 40.0211 10.6191 40.2837 10.4282Z" fill="#96C8D8"/>
<path d="M57.4227 11.1682C57.6613 10.6908 57.9955 10.285 58.4014 9.95083C58.5684 9.83149 58.7355 9.8315 58.9265 9.85538C61.1226 9.90314 63.2947 9.90314 65.4912 9.85538C65.7057 9.85538 65.8966 9.85538 66.0639 9.97471C66.5415 10.3328 66.8754 10.7863 67.1378 11.3115C66.4221 11.4786 65.6821 11.3115 64.9657 11.3592C64.6554 11.3831 64.3687 11.3353 64.0584 11.3831C63.3662 11.2637 62.7456 10.9295 62.0056 10.9534C61.4091 11.0012 60.9555 11.3592 60.3826 11.3831C59.6426 11.3592 58.9026 11.3831 58.1626 11.3592C57.9001 11.3592 57.6375 11.3831 57.4227 11.1682Z" fill="#96C8D8"/>
<path d="M66.0875 9.97464C63.8202 10.2134 61.5284 10.0463 59.2368 10.094C58.9503 10.094 58.6878 10.0224 58.4014 9.97464C60.5258 7.89794 64.1063 7.89794 66.0875 9.97464Z" fill="#96C8D8"/>
<path d="M72.8428 14.8204C72.4852 14.8204 72.127 14.8204 71.7688 14.7726C71.4349 14.7487 71.3628 14.9158 71.3628 15.2023C70.9331 14.8681 70.4318 14.892 69.9306 14.892C69.6203 14.892 69.31 14.9397 69.0476 14.7249C68.9997 14.3191 68.9997 13.9133 69.0476 13.5075C69.2627 13.3165 69.5252 13.3165 69.7876 13.3165C71.387 13.3165 72.9865 13.3165 74.5852 13.3165C74.9198 13.3165 75.2301 13.3165 75.5168 13.5075C76.018 13.8178 76.4235 14.2236 76.7338 14.7249C76.495 14.9397 76.2089 14.9158 75.9223 14.9158C74.8956 14.9158 73.8695 14.9397 72.8428 14.8204Z" fill="#96C8D8"/>
<path d="M84.4679 18.2577C83.8473 19.2126 82.9399 19.6423 81.8181 19.69C81.0066 19.7138 80.1951 19.69 79.3835 19.69C78.5241 19.69 78.2138 19.4513 77.9514 18.5919C77.7841 18.3293 77.9035 18.1384 78.1659 18.019C78.2374 17.9713 78.3096 17.9474 78.4047 17.9474C80.2429 17.8758 82.0812 17.8997 83.943 17.9474C84.1576 17.9474 84.3727 18.019 84.4679 18.2577Z" fill="#96C8D8"/>
<path d="M75.5168 13.5076C73.3682 13.5076 71.1961 13.5076 69.0475 13.5076C69.0475 13.1495 69.0475 12.7675 69.0475 12.4095C69.8354 12.1469 70.5991 12.0992 71.387 12.4095C71.8646 12.4572 72.3415 12.3618 72.8191 12.2901C73.7737 12.1708 74.7525 12.2186 75.7077 12.2424C75.9222 12.2424 76.2089 12.2186 76.2562 12.5527C76.1131 12.9346 75.6355 13.0778 75.5168 13.5076Z" fill="#96C8D8"/>
<path d="M80.3859 12.2662C80.7205 12.7436 81.269 12.8391 81.7945 13.0062C82.6539 13.2687 83.5605 13.3881 84.2533 14.0804C84.086 14.3668 83.7757 14.3907 83.5133 14.3907C82.1048 14.3907 80.7205 14.4861 79.312 14.3429C78.6199 13.9371 78.2617 13.3403 78.1902 12.5526C78.1423 12.29 78.3568 12.2423 78.5241 12.2423C79.1447 12.2184 79.7653 12.1468 80.3859 12.2662Z" fill="#96C8D8"/>
<path d="M84.3006 9.11537C84.6352 9.83144 84.4443 10.3327 83.7042 10.6908C82.7969 10.5476 81.8896 10.643 80.9587 10.643C80.3381 10.643 79.7417 10.643 79.1211 10.643C78.8581 10.643 78.5956 10.6669 78.3811 10.4282C78.6199 9.8792 78.9538 9.4018 79.5029 9.09149C79.8369 8.94827 80.1951 8.90051 80.5769 8.90051C81.5557 8.90051 82.5103 8.90051 83.4891 8.90051C83.7758 8.90051 84.0861 8.90051 84.3006 9.11537Z" fill="#96C8D8"/>
<path d="M67.7827 18.1385C64.8941 18.1385 62.0299 18.1385 59.1413 18.1385C58.9265 18.1385 58.6878 18.0668 58.5207 18.2578C58.1865 18.0429 57.9478 17.7565 57.733 17.4223C57.9716 17.1598 58.3058 17.2313 58.5923 17.2075C59.6903 17.1836 60.7884 17.2314 61.8862 17.2314C62.3402 17.2314 62.7699 17.0643 63.2232 17.1359C64.4408 17.2791 65.6578 17.1597 66.8518 17.2075C67.1621 17.2075 67.496 17.1597 67.7827 17.3507C67.9021 17.6133 67.9493 17.8758 67.7827 18.1385Z" fill="#96C8D8"/>
<path d="M54.4628 9.83143C54.1763 9.73597 53.866 9.7121 53.5795 9.7121C51.7176 9.7121 49.8557 9.7121 47.9938 9.7121C49.6886 7.9457 52.9589 8.01727 54.4628 9.83143Z" fill="#96C8D8"/>
<path d="M87.0462 4.38898C87.7619 4.38898 88.4068 5.03347 88.4068 5.74961C88.4068 6.48956 87.7862 7.11025 87.0462 7.11025C86.3062 7.11025 85.6855 6.48956 85.6855 5.74961C85.6855 5.03347 86.3062 4.41286 87.0462 4.38898Z" fill="#96C8D8"/>
<path d="M71.3391 8.61406C71.3391 9.37789 71.3391 10.1656 71.3391 10.9295C70.933 10.5953 70.4561 10.5953 69.9549 10.5953C69.6446 10.5953 69.31 10.6669 69.0476 10.4282C68.9997 9.61662 68.9997 8.80503 69.0476 7.99344C69.7161 7.65925 70.4318 7.87404 71.1246 7.82628C71.2676 7.82628 71.3155 7.94568 71.3155 8.0889C71.3155 8.25599 71.2676 8.44696 71.3391 8.61406Z" fill="#96C8D8"/>
<path d="M78.4047 10.4282C79.9805 10.4282 81.5321 10.4282 83.1072 10.4521C83.3224 10.4521 83.6327 10.3089 83.7042 10.6908L83.6563 10.7147H83.6084C82.7969 10.8579 81.9618 10.6669 81.126 10.8102C80.4338 11.0727 80.3144 11.2876 80.3623 12.2901C79.8611 12.5289 79.3356 12.3618 78.8108 12.4095C78.572 12.4333 78.3096 12.314 78.1423 12.5765C77.9993 11.8127 78.0708 11.1205 78.4047 10.4282Z" fill="#96C8D8"/>
<path d="M84.4679 18.2578C84.2291 18.1146 83.9666 18.1146 83.7042 18.1146C81.8424 18.1146 79.9562 18.1146 78.0944 18.1146C78.0708 18.0907 78.0465 18.0668 78.0465 18.043C78.0465 18.0191 78.0465 17.9953 78.0708 17.9953C78.3811 17.494 78.8108 17.3269 79.3835 17.3508C80.2429 17.3746 81.1023 17.3746 81.9854 17.3746C82.7254 17.1837 83.489 17.2075 84.2533 17.2314C84.4915 17.2314 84.7303 17.2075 84.9212 17.4223C84.8497 17.7326 84.7067 18.0191 84.4679 18.2578Z" fill="#96C8D8"/>
<path d="M85.9001 10.4521C85.9001 10.1656 85.8522 9.87916 85.8764 9.61661C85.9001 8.94823 86.4013 8.44695 87.0219 8.44695C87.6668 8.42307 88.2159 8.94823 88.2159 9.64049C88.2395 11.2159 88.2159 12.7913 88.1916 14.3668C87.8334 14.2236 87.9528 13.8894 87.9056 13.603C87.9056 13.1972 87.8813 12.8152 87.9056 12.4095C87.8813 12.0275 87.8813 11.6456 87.9056 11.2637C87.9056 10.834 87.7147 10.6669 87.285 10.643C86.831 10.5953 86.3298 10.7624 85.9001 10.4521Z" fill="#96C8D8"/>
<path d="M77.7126 18.9739C77.4023 19.5468 76.9247 19.7855 76.3999 19.6662C75.8507 19.5468 75.4926 19.0694 75.4926 18.4726C75.4926 18.2101 75.4926 17.9475 75.4926 17.6849C75.3732 17.3268 75.6356 17.2791 75.8744 17.2314C76.1611 17.1836 76.4477 17.2075 76.7102 17.2075C77.689 17.2075 77.9514 17.4939 77.8084 18.4488C77.7841 18.6397 77.8084 18.8307 77.7126 18.9739Z" fill="#96C8D8"/>
<path d="M69.0476 6.53727C69.0476 6.20308 68.9997 5.84501 69.024 5.51082C69.0476 4.86632 69.5488 4.4128 70.1694 4.38892C70.8143 4.36504 71.3391 4.84244 71.3628 5.51082C71.387 6.05986 71.3628 6.60884 71.3628 7.15788C70.8615 6.41793 70.0743 6.70436 69.3815 6.63272C69.2628 6.60884 69.1434 6.6566 69.0476 6.53727Z" fill="#96C8D8"/>
<path d="M69.0476 10.4521C69.5252 10.4521 70.0264 10.4998 70.504 10.4282C70.9573 10.3804 71.1961 10.5475 71.3627 10.9295C71.387 11.4069 71.387 11.9082 71.4106 12.3856C70.6227 12.3856 69.8591 12.3856 69.0712 12.3856C68.9997 11.7411 68.9997 11.0966 69.0476 10.4521Z" fill="#96C8D8"/>
<path d="M85.9 10.4521C86.4012 10.4521 86.9267 10.4521 87.4279 10.4521C87.9055 10.4521 88.1437 10.5954 88.12 11.1205C88.0964 11.5502 88.12 11.9798 88.12 12.4095C87.38 12.7198 86.64 12.7198 85.9242 12.4095C85.8521 11.7411 85.8521 11.0966 85.9 10.4521Z" fill="#96C8D8"/>
<path d="M67.7827 18.1384C67.7827 17.8997 67.7827 17.661 67.7827 17.3984C67.5439 17.0165 67.639 16.6107 67.639 16.2049C67.639 15.9662 67.639 15.7036 67.639 15.4649C67.6154 14.7726 67.5917 14.7726 66.9232 14.7488C66.422 14.7249 65.8729 14.8682 65.4189 14.534C65.2523 14.1043 65.2759 13.6746 65.3953 13.245C65.4668 13.0779 65.6105 13.0062 65.7771 12.9824C66.3741 12.9108 66.9705 12.9346 67.5675 12.9585C67.6869 12.9585 67.7348 13.0301 67.7827 13.1256C67.9736 15.0114 67.9493 16.8971 67.8299 18.7829C67.8299 18.5681 67.8063 18.3533 67.7827 18.1384Z" fill="#96C8D8"/>
<path d="M45.5113 11.192C46.8003 11.192 48.0893 11.1682 49.3783 11.1682C49.4977 11.1682 49.617 11.2159 49.7125 11.2637C49.3783 11.5979 49.0918 11.9798 48.9009 12.4095C48.0654 12.6959 47.2299 12.6959 46.3945 12.4095C46.1797 11.932 45.8694 11.5501 45.5113 11.192Z" fill="#96C8D8"/>
<path d="M46.3945 12.4095C47.2299 12.4095 48.0654 12.4095 48.9009 12.4095C48.7577 14.3192 48.877 16.2527 48.8293 18.1623C48.8293 18.401 48.9009 18.6397 48.7338 18.8545C48.519 18.6397 48.5667 18.3771 48.5428 18.1385C48.5428 17.8758 48.5428 17.6372 48.5428 17.3746C48.5428 17.0165 48.5428 16.6585 48.5428 16.3004C48.5667 16.0617 48.519 15.7991 48.5428 15.5604C48.5428 15.274 48.5428 15.0114 48.5428 14.7249C48.5428 13.6508 48.5428 13.6508 47.5164 13.6508C46.7048 13.6508 46.7048 13.6508 46.7048 14.701C46.7048 14.9875 46.7048 15.2501 46.7048 15.5365C46.7048 15.7514 46.7048 15.9662 46.7048 16.181C46.7048 16.5868 46.7048 16.9688 46.7048 17.3746C46.7048 17.6372 46.7048 17.8758 46.7048 18.1385C46.7048 18.401 46.7287 18.6636 46.5377 18.8784C46.3707 18.6874 46.4422 18.4488 46.4422 18.2339C46.4183 16.2765 46.5139 14.343 46.3945 12.4095Z" fill="#96C8D8"/>
<path d="M61.982 17.3745C60.7884 17.3745 59.5949 17.3984 58.4013 17.3984C58.1865 17.3984 57.9478 17.3984 57.733 17.4223C57.3988 17.0642 57.16 16.6584 57.0407 16.181C57.3988 15.8707 57.8045 16.0139 58.2104 15.99C58.64 15.9662 59.0697 15.9661 59.4755 16.0139C59.7142 16.0378 59.8813 16.181 60.0723 16.3242C60.5258 16.7062 61.051 16.9926 61.6238 17.112C61.7668 17.1358 61.9583 17.1836 61.982 17.3745Z" fill="#96C8D8"/>
<path d="M76.2562 12.5289C76.0653 12.2901 75.8028 12.4095 75.5883 12.3856C74.681 12.3379 73.7501 12.505 72.8192 12.2663C73.4161 12.0037 73.941 11.6217 74.3943 11.1443C75.278 10.9534 76.1374 10.8579 76.9962 11.1921C76.7817 11.6456 76.6859 12.1947 76.2562 12.5289Z" fill="#96C8D8"/>
<path d="M57.4227 11.1682C58.4491 11.2159 59.4755 11.0488 60.4781 11.2637C60.12 11.7888 59.8097 12.3617 59.1413 12.5766C58.3775 12.5049 57.5898 12.6482 56.8259 12.5049C56.9214 12.0275 57.1124 11.574 57.4227 11.1682Z" fill="#96C8D8"/>
<path d="M69.0476 6.5373C69.5967 6.32245 70.1694 6.5373 70.7421 6.46567C71.1961 6.39409 71.2197 6.87149 71.3627 7.15792C71.3627 7.63532 71.3627 8.13661 71.3627 8.61401C71.3155 8.01727 71.0288 7.87406 70.4561 7.99339C70.0021 8.08885 69.5252 8.01727 69.0712 8.01727C68.976 7.51599 68.9997 7.03859 69.0476 6.5373Z" fill="#96C8D8"/>
<path d="M67.8064 13.1256C67.0427 13.1733 66.2548 12.9824 65.4912 13.2688C65.0136 12.9346 64.8706 12.4333 64.8227 11.8843C64.8706 11.7649 64.9657 11.6695 65.0851 11.6695C65.7536 11.574 66.4458 11.574 67.1143 11.6695C67.2573 11.6934 67.3531 11.8127 67.4482 11.9081C67.5197 12.3379 67.83 12.672 67.8064 13.1256Z" fill="#96C8D8"/>
<path d="M39.8539 11.1682C40.7849 11.1682 41.7158 11.1682 42.6468 11.1682C42.3603 11.6217 41.9545 12.0036 41.7874 12.5288C41.0236 12.5288 40.212 12.7436 39.472 12.3856C39.4959 11.9559 39.6153 11.5501 39.8539 11.1682Z" fill="#96C8D8"/>
<path d="M52.6724 11.2637C53.2931 11.0489 53.9137 11.216 54.5343 11.1683C54.8208 11.1444 55.1073 11.216 55.3698 11.0489C55.6801 11.4308 55.7995 11.9082 55.8472 12.3856C55.0834 12.7437 54.3196 12.5527 53.5318 12.5289C53.317 12.0515 53.0305 11.6218 52.6724 11.2637Z" fill="#96C8D8"/>
<path d="M39.472 12.3856C40.0688 12.3856 40.6417 12.3856 41.2385 12.3856C41.4295 12.3856 41.6442 12.3378 41.7875 12.5288C41.7875 14.4384 41.7875 16.3481 41.7636 18.2338C41.7636 18.4486 41.8352 18.6873 41.6681 18.8783C41.4533 18.7112 41.4772 18.4725 41.4533 18.2577C41.4772 17.9951 41.4295 17.7564 41.4533 17.4938C41.4533 17.1597 41.4295 16.8493 41.4533 16.5152C41.4772 16.181 41.4295 15.8706 41.4533 15.5364C41.4533 15.25 41.4533 14.9635 41.4533 14.6771C41.4533 14.5816 41.4533 14.4861 41.4533 14.3668C41.4295 13.6746 41.4056 13.6507 40.7372 13.6268C40.3075 13.6029 39.8301 13.7461 39.4243 13.4597C39.3766 13.1255 39.4243 12.7674 39.472 12.3856Z" fill="#96C8D8"/>
<path d="M74.9434 10.0702C74.9677 9.85534 74.9913 9.64048 75.0392 9.42569C75.1586 8.7812 75.7313 8.37537 76.3519 8.44701C76.9726 8.51858 77.3786 9.01987 77.3786 9.66436C77.3786 9.9031 77.4023 10.1418 77.2592 10.3566C76.8774 10.0702 76.4235 10.1418 75.9701 10.1179C75.6119 10.1179 75.278 10.1895 74.9434 10.0702Z" fill="#96C8D8"/>
<path d="M71.3391 18.3771C71.3391 19.1888 70.8615 19.7139 70.1457 19.7139C69.3815 19.69 68.9517 19.0932 69.0239 18.1384C69.6445 17.8042 70.3124 17.9713 70.9573 18.0191C71.1718 18.0191 71.2676 18.21 71.3391 18.3771Z" fill="#96C8D8"/>
<path d="M88.2159 18.4964C88.311 19.2364 87.5231 19.7616 86.9504 19.7138C86.2104 19.6422 85.8285 19.0694 85.9 18.1384C86.6164 17.8281 87.3322 17.8758 88.025 18.1145C88.168 18.21 88.1437 18.3771 88.2159 18.4964Z" fill="#96C8D8"/>
<path d="M55.8472 18.6635C55.8233 19.308 55.4175 19.5944 54.8685 19.6899C54.3195 19.7854 53.8659 19.4751 53.6273 18.8783C53.5556 18.6157 53.5317 18.3532 53.6511 18.0906C54.3911 17.8519 55.1072 17.8519 55.8472 18.0906C55.9427 18.2815 55.9188 18.4486 55.8472 18.6635Z" fill="#96C8D8"/>
<path d="M74.9435 10.0701C75.612 9.80753 76.3042 9.9985 76.9727 9.95074C77.2351 9.92686 77.2115 10.1656 77.2351 10.3327C77.2351 10.643 77.1636 10.9055 76.9963 11.1682C76.1375 11.1443 75.2538 11.1443 74.3944 11.1204C74.5853 10.7862 74.7526 10.4281 74.9435 10.0701Z" fill="#96C8D8"/>
<path d="M46.5377 18.8546C46.5377 18.6159 46.5615 18.3534 46.5615 18.1146C47.2777 17.8043 47.9938 17.8043 48.7099 18.1146C48.7099 18.3534 48.7338 18.6159 48.7338 18.8546C48.5667 19.4036 48.1848 19.6901 47.6357 19.6662C47.1106 19.6901 46.7048 19.4275 46.5377 18.8546Z" fill="#96C8D8"/>
<path d="M41.6442 18.2577C41.6442 18.4726 41.6681 18.6874 41.6681 18.9022C41.3817 19.5229 40.8804 19.8093 40.3075 19.6661C39.663 19.499 39.3765 18.9977 39.4481 18.1145C40.1881 17.8758 40.952 17.7088 41.6442 18.2577Z" fill="#96C8D8"/>
<path d="M77.235 15.5604C77.498 15.9662 77.6647 16.4197 77.7126 16.8972C76.901 16.7778 76.0895 16.8972 75.278 16.7778C75.0392 16.4197 74.7768 16.0617 74.538 15.7036C74.5137 15.5365 74.6095 15.4649 74.7289 15.441C75.564 15.3694 76.4234 15.2023 77.235 15.5604Z" fill="#96C8D8"/>
<path d="M77.235 15.5604C76.5192 15.5604 75.8028 15.5604 75.0871 15.5604C74.8955 15.5604 74.681 15.4889 74.5137 15.7036C74.0125 15.274 73.4634 14.9637 72.8192 14.7966C73.3683 14.5817 73.9174 14.725 74.4901 14.7011C75.2301 14.6773 75.9701 14.7011 76.7101 14.7011C76.9489 14.9637 77.1399 15.2262 77.235 15.5604Z" fill="#96C8D8"/>
<path d="M84.9212 17.3984C83.9903 17.4461 83.0594 17.3029 82.1284 17.47C82.0812 17.47 82.0333 17.3984 81.9854 17.3746C82.3915 17.2314 82.7254 16.9687 82.8684 16.5391C82.9163 16.181 83.0836 15.9901 83.4654 15.9901C83.8236 15.9901 84.2055 15.9901 84.5637 15.9901C85.0406 16.0139 85.2315 16.2288 85.0649 16.7062C85.0885 16.9449 85.0649 17.1836 84.9212 17.3984Z" fill="#96C8D8"/>
<path d="M55.8472 18.6636C55.8233 18.4965 55.8233 18.3055 55.7995 18.1384C55.6324 17.9235 55.6562 17.661 55.6562 17.3984C55.6324 17.0165 55.6562 16.6107 55.6562 16.2287C55.6562 15.7991 55.3698 15.7991 55.0356 15.7513C54.5582 15.7036 54.033 15.9184 53.5795 15.5603C53.5795 15.1785 53.5078 14.8204 53.6272 14.4384C54.3672 14.2236 55.1072 14.1759 55.8233 14.4862C55.9427 15.8706 55.9427 17.2552 55.8472 18.6636Z" fill="#96C8D8"/>
<path d="M71.3391 16.6585C71.3391 17.112 71.3391 17.5417 71.3391 17.9952C71.0052 17.5417 70.5276 17.5417 70.0264 17.5417C69.6918 17.5417 69.3343 17.6371 69.0476 17.3746C68.9997 16.9688 68.9997 16.563 69.0476 16.1572C69.6682 15.823 70.3124 15.9662 70.9573 16.0378C71.2912 16.0855 71.2676 16.4197 71.3391 16.6585Z" fill="#96C8D8"/>
<path d="M88.0965 13.6269C88.1437 13.8656 88.0007 14.1282 88.1916 14.3668C88.1916 14.7727 88.1916 15.1785 88.1916 15.5843C88.168 15.5843 88.1201 15.6081 88.0965 15.6081C88.0486 15.5604 88.0007 15.5127 87.9771 15.4649C87.9528 15.0352 87.7383 14.892 87.3086 14.892C86.831 14.892 86.3298 15.0352 85.8764 14.7488C85.8285 14.343 85.8285 13.9372 85.8764 13.5314C86.6643 13.2449 87.4044 13.0778 88.0965 13.6269Z" fill="#96C8D8"/>
<path d="M84.3006 9.11532C82.7018 9.11532 81.1024 9.11532 79.503 9.11532C80.0042 8.63792 80.6248 8.4947 81.2691 8.44701C81.9376 8.39925 82.6061 8.42313 83.2746 8.44701C83.7522 8.44701 84.1812 8.59022 84.3006 9.11532Z" fill="#96C8D8"/>
<path d="M55.8472 14.4624C55.1072 14.4624 54.3911 14.4624 53.6511 14.4624C53.5079 14.1282 53.6034 13.794 53.5795 13.4598C53.5556 13.2688 53.6511 13.1256 53.842 13.1017C54.5104 13.054 55.1788 12.8869 55.8472 13.1017C55.9188 13.5792 55.9188 14.0327 55.8472 14.4624Z" fill="#96C8D8"/>
<path d="M39.4482 13.4836C39.9733 13.4836 40.4985 13.5075 41.0237 13.4836C41.525 13.4598 41.7397 13.603 41.6682 14.1043C41.6443 14.2952 41.6682 14.5101 41.6682 14.7011C40.9281 14.9875 40.1882 14.9875 39.4482 14.7011C39.3766 14.2952 39.4005 13.8895 39.4482 13.4836Z" fill="#96C8D8"/>
<path d="M85.9001 17.3984C85.8522 16.9926 85.8522 16.5868 85.9001 16.181C86.6643 15.9184 87.428 15.8229 88.1437 16.3481C88.1437 16.7538 88.2159 17.1597 88.0965 17.5416C87.3801 17.5893 86.6164 17.7087 85.9001 17.3984Z" fill="#96C8D8"/>
<path d="M41.6442 16.539C41.6442 16.8732 41.6442 17.1835 41.6442 17.5177C40.9042 17.5893 40.1642 17.7325 39.4481 17.3983C39.4004 16.9926 39.4004 16.5867 39.4481 16.181C40.0449 15.8468 40.6893 15.99 41.31 16.0616C41.6203 16.0616 41.5726 16.3719 41.6442 16.539Z" fill="#96C8D8"/>
<path d="M55.8472 13.1256C55.3459 13.2211 54.8446 13.2927 54.3433 13.245C53.7466 13.1733 53.5318 13.4359 53.6273 13.9849C53.6511 14.152 53.6273 14.3191 53.6511 14.4623C53.6511 14.8204 53.6511 15.2023 53.6511 15.5604C53.8182 15.7514 53.8182 15.9662 53.8182 16.181C53.8421 16.5869 53.8421 16.9687 53.8182 17.3746C53.8182 17.6371 53.8421 17.8997 53.6511 18.1145C53.6511 18.3771 53.6273 18.6158 53.6273 18.8784C53.4602 18.6636 53.5318 18.401 53.5318 18.1862C53.5318 16.3004 53.5079 14.4146 53.5079 12.5288C54.033 12.2424 54.606 12.4573 55.1549 12.3856C55.3698 12.3617 55.6085 12.3856 55.8233 12.3856C55.8711 12.6482 55.9188 12.8869 55.8472 13.1256Z" fill="#96C8D8"/>
<path d="M85.0649 16.7061C85.0885 16.3003 84.9212 16.1332 84.4915 16.181C84.1576 16.2049 83.7994 16.2049 83.4654 16.181C83.1309 16.1571 82.9878 16.3003 82.8684 16.5629C82.94 15.8945 82.5581 15.5604 81.9854 15.3694C81.9854 15.0352 82.2721 15.0591 82.463 15.0591C83.0836 15.0113 83.7042 15.0352 84.3485 15.0591C84.6588 15.0591 84.8976 15.1784 85.017 15.4887C85.1121 15.8707 85.2315 16.2764 85.0649 16.7061Z" fill="#96C8D8"/>
<path d="M79.312 14.3429C79.5029 14.152 79.7417 14.2236 79.9326 14.2236C80.983 14.2236 82.0569 14.2236 83.1072 14.2236C83.4891 14.2236 83.8709 14.1997 84.2533 14.0804C84.4442 14.1997 84.6109 14.3668 84.683 14.5817C84.5158 14.9397 84.1812 14.892 83.8951 14.892C82.7018 14.892 81.5078 14.9397 80.3144 14.8203C79.9326 14.7488 79.5981 14.6055 79.312 14.3429Z" fill="#96C8D8"/>
<path d="M59.6665 16.1571C58.7833 16.1571 57.9001 16.181 57.0169 16.181C56.8737 15.9662 56.7782 15.7275 56.7782 15.4649C56.6588 15.0352 56.993 15.0591 57.2318 15.0352C57.8285 15.0113 58.4253 14.9637 59.022 15.1069C59.4517 15.3455 59.6665 15.6797 59.6665 16.1571Z" fill="#96C8D8"/>
<path d="M88.0965 13.6269C87.3801 13.3643 86.6164 13.5553 85.9001 13.5076C85.8522 13.1495 85.8522 12.7676 85.9001 12.4095C86.6401 12.4095 87.3801 12.4095 88.0965 12.4095C88.0965 12.7914 88.0965 13.2211 88.0965 13.6269Z" fill="#96C8D8"/>
<path d="M56.6826 13.3404C56.6826 13.2688 56.7065 13.1971 56.7065 13.1255C57.4703 12.8152 58.2342 12.863 58.9742 13.1733C59.0697 13.2449 59.0935 13.3642 59.0935 13.4836C59.022 13.7701 59.0935 14.1042 58.831 14.319C58.1148 14.4623 57.3749 14.5339 56.6826 14.2713C56.611 13.961 56.611 13.6507 56.6826 13.3404Z" fill="#96C8D8"/>
<path d="M56.7065 14.2236C57.4227 14.2236 58.1388 14.2236 58.8788 14.2236C59.022 14.3192 58.9027 14.5578 59.1174 14.6295C59.1891 14.8204 59.3084 15.0114 59.1413 15.2023C58.5446 15.2023 57.9478 15.2023 57.351 15.2023C57.1362 15.2023 56.8736 15.1307 56.8259 15.4649C56.6827 15.2501 56.7065 15.0114 56.7065 14.7727C56.6349 14.5817 56.5872 14.3907 56.7065 14.2236Z" fill="#96C8D8"/>
<path d="M80.2908 14.8204C80.529 14.6294 80.7921 14.7249 81.0545 14.7249C82.0569 14.701 83.0357 14.7249 84.0382 14.7249C84.2533 14.7249 84.4915 14.7249 84.6831 14.6055C84.8976 14.8442 84.9934 15.1307 85.0406 15.4649C84.9212 15.3932 84.8018 15.25 84.6831 15.25C83.7994 15.2739 82.8927 15.0591 82.009 15.3694C81.4127 15.1784 80.8636 14.9874 80.2908 14.8204Z" fill="#96C8D8"/>
<path d="M75.278 16.7778C76.0895 16.6107 76.9247 16.4675 77.7126 16.8972C77.7605 17.1836 77.8084 17.47 77.8556 17.7565C77.975 18.043 77.9271 18.3294 77.8556 18.6158C77.8084 18.7352 77.8556 18.9023 77.7126 18.9739C77.7126 17.3746 77.7126 17.3746 76.1132 17.3985C75.8744 17.3985 75.5641 17.2791 75.4926 17.6849C75.421 17.3985 75.3495 17.0881 75.278 16.7778Z" fill="#96C8D8"/>
<path d="M69.0475 14.7249C69.573 14.7249 70.0979 14.7727 70.6227 14.701C71.0524 14.6533 71.2433 14.8442 71.3627 15.2023C71.3627 15.4172 71.3627 15.6081 71.3627 15.8229C70.79 15.7752 70.1936 15.7514 69.6203 15.7514C69.4057 15.7514 69.2148 15.7275 69.0475 15.5843C69.0475 15.2739 69.0475 14.9875 69.0475 14.7249Z" fill="#96C8D8"/>
<path d="M67.4245 11.9082C66.6845 11.6695 65.8966 11.8127 65.133 11.7888C64.9657 11.7888 64.8706 11.8843 64.8463 12.0514C64.393 11.9798 64.1542 11.6695 63.9869 11.2636C65.0372 11.1204 66.0875 11.0966 67.1142 11.2875C67.2815 11.4785 67.4482 11.6695 67.4245 11.9082Z" fill="#96C8D8"/>
<path d="M85.9001 14.701C86.3298 14.701 86.7831 14.701 87.2128 14.701C88.0965 14.701 88.0965 14.7011 88.0965 15.5604C87.3565 15.8946 86.6164 15.7991 85.9001 15.5604C85.8522 15.274 85.8522 14.9875 85.9001 14.701Z" fill="#96C8D8"/>
<path d="M39.4481 14.701C40.1881 14.701 40.9281 14.701 41.668 14.701C41.668 14.9875 41.668 15.274 41.668 15.5604C40.9281 15.8468 40.1881 15.8468 39.4481 15.5604C39.4004 15.274 39.4004 14.9875 39.4481 14.701Z" fill="#96C8D8"/>
<path d="M59.022 13.2449C58.2581 13.054 57.4704 13.1255 56.7065 13.1255C56.6826 12.9107 56.7543 12.7198 56.8259 12.5049C57.6375 12.3378 58.4491 12.2423 59.2607 12.5527C59.2845 12.8152 59.4039 13.1255 59.022 13.2449Z" fill="#96C8D8"/>
<path d="M69.0475 17.3984C69.5009 17.3984 69.9785 17.4223 70.4318 17.3984C70.9094 17.3746 71.2676 17.47 71.3391 18.0191C71.3391 18.1384 71.3391 18.2577 71.3391 18.3771C70.9809 18.0191 70.504 18.1623 70.0742 18.1384C69.7397 18.1145 69.3815 18.1384 69.0475 18.1384C69.0475 17.8758 69.0475 17.6371 69.0475 17.3984Z" fill="#96C8D8"/>
<path d="M39.4481 17.3985C40.1881 17.4701 40.9281 17.2553 41.6442 17.5178C41.6442 17.7566 41.6442 17.9953 41.6442 18.2578C40.9281 17.9953 40.1642 18.1862 39.4481 18.1385C39.4004 17.8759 39.4004 17.6372 39.4481 17.3985Z" fill="#96C8D8"/>
<path d="M85.9001 17.3985C86.6401 17.4701 87.3801 17.2553 88.0965 17.5178C88.1916 17.7566 88.1916 17.9953 88.0965 18.2578C87.3801 17.9953 86.6164 18.1862 85.9001 18.1385C85.8522 17.8759 85.8522 17.6372 85.9001 17.3985Z" fill="#96C8D8"/>
<path d="M69.0475 15.5604C69.6203 15.5604 70.2173 15.5604 70.79 15.5604C71.0288 15.5604 71.2197 15.6081 71.3627 15.7991C71.3627 16.0855 71.3627 16.372 71.3627 16.6584C71.2197 16.2765 70.9573 16.1333 70.5512 16.1572C70.05 16.2049 69.5488 16.1572 69.0475 16.1572C69.0475 15.9662 69.0475 15.7752 69.0475 15.5604Z" fill="#96C8D8"/>
<path d="M39.4482 15.5604C40.1882 15.5604 40.9282 15.5604 41.6681 15.5604C41.6681 15.8946 41.6681 16.2049 41.6681 16.5391C41.5249 16.2765 41.3578 16.1333 41.0236 16.1572C40.4985 16.2049 39.9972 16.1572 39.472 16.1572C39.4004 15.9662 39.4004 15.7752 39.4482 15.5604Z" fill="#96C8D8"/>
<path d="M85.9001 15.5604C86.6401 15.5604 87.3801 15.5604 88.0965 15.5604C88.1916 15.7991 88.1916 16.0378 88.0965 16.3004C87.3801 16.1094 86.6164 16.181 85.9001 16.181C85.8522 15.9662 85.8522 15.7752 85.9001 15.5604Z" fill="#96C8D8"/>
<path d="M88.1201 16.3004C88.1201 16.0617 88.1201 15.823 88.1201 15.5604C88.1437 15.5604 88.1916 15.5604 88.2158 15.5604C88.2158 16.5391 88.2158 17.5178 88.2158 18.4965C88.1916 18.4248 88.1437 18.3294 88.1201 18.2577C88.1201 18.0191 88.1201 17.7803 88.1201 17.5178C88.1201 17.112 88.1201 16.7062 88.1201 16.3004Z" fill="#96C8D8"/>
<path d="M81.1497 10.7863C81.9618 10.5714 82.797 10.7385 83.6328 10.6908C82.797 10.9056 81.9618 10.7624 81.1497 10.7863Z" fill="#96C8D8"/>
<path d="M56.7065 14.2236C56.7065 14.3907 56.6826 14.5816 56.6826 14.7487C56.5394 14.2713 56.5633 13.7939 56.6826 13.3165C56.6826 13.6507 56.7065 13.9371 56.7065 14.2236Z" fill="#96C8D8"/>
<path d="M44.6042 8.49482C44.3177 8.63803 44.0313 8.47094 43.7449 8.49482C44.0313 8.37548 44.3177 8.3993 44.6042 8.49482Z" fill="#96C8D8"/>
<path d="M43.7449 10.7863C43.9835 10.6192 44.2223 10.6431 44.4609 10.7863C44.2223 10.7863 43.9835 10.7863 43.7449 10.7863Z" fill="#96C8D8"/>
<path d="M63.1517 17.2551C63.7723 17.0165 64.345 16.6584 64.7984 16.181C65.8014 15.8707 66.8039 15.8468 67.8063 16.181C67.8063 16.5867 67.8063 16.9926 67.8063 17.3984C66.5172 17.3984 65.2281 17.3984 63.9396 17.3984C63.6529 17.3984 63.3905 17.4222 63.1517 17.2551Z" fill="#96C8D8"/>
<path d="M65.276 15.4409C65.3475 15.1545 65.4433 14.868 65.5148 14.5816C66.159 14.5816 66.7797 14.5577 67.4245 14.5816C68.093 14.6055 67.7106 15.1306 67.8064 15.4409C67.7348 15.5842 67.6391 15.6797 67.4724 15.6797C66.8518 15.7513 66.2069 15.7513 65.5863 15.6797C65.4433 15.6797 65.3239 15.608 65.276 15.4409Z" fill="#96C8D8"/>
<path d="M65.276 15.441C66.1118 15.632 66.9706 15.6081 67.8064 15.441C67.8064 15.6797 67.8064 15.9184 67.8064 16.1571C66.8039 16.1571 65.8015 16.1571 64.7984 16.1571C64.9657 15.9423 65.1087 15.6797 65.276 15.441Z" fill="#96C8D8"/>
<path d="M46.5615 14.7249C46.49 13.5076 46.49 13.4837 47.7312 13.5076C48.8054 13.5315 48.7576 13.1973 48.7338 14.7249C48.0177 15.0114 47.2777 15.0114 46.5615 14.7249Z" fill="#96C8D8"/>
<path d="M48.7337 16.3004C48.7337 16.6584 48.7337 17.0404 48.7337 17.3984C48.0177 17.6849 47.3015 17.6849 46.5854 17.3984C46.5854 16.9926 46.5854 16.5868 46.5854 16.181C47.3015 15.9185 48.0415 15.7753 48.7337 16.3004Z" fill="#96C8D8"/>
<path d="M46.5615 14.725C47.2777 14.725 47.9938 14.725 48.7337 14.725C48.7337 15.0114 48.7337 15.2978 48.7337 15.5843C48.0177 15.8708 47.3015 15.8708 46.5854 15.5843C46.5615 15.2978 46.5615 15.0114 46.5615 14.725Z" fill="#96C8D8"/>
<path d="M46.5854 17.3984C47.3015 17.3984 48.0177 17.3984 48.7337 17.3984C48.7337 17.6372 48.7337 17.8758 48.7337 18.1385C48.0177 18.1385 47.3015 18.1385 46.5854 18.1385C46.5854 17.8758 46.5854 17.6372 46.5854 17.3984Z" fill="#96C8D8"/>
<path d="M46.5615 15.5604C47.2777 15.5604 47.9938 15.5604 48.7099 15.5604C48.7099 15.7991 48.7099 16.0378 48.7099 16.2765C47.9938 16.0378 47.2777 16.2049 46.5615 16.1572C46.5615 15.9662 46.5615 15.7752 46.5615 15.5604Z" fill="#96C8D8"/>
<path d="M53.6512 18.1383C53.6512 17.8996 53.6512 17.6609 53.6512 17.3983C54.3673 17.1119 55.0834 17.088 55.7995 17.3983C55.7995 17.637 55.7995 17.8758 55.7995 18.1383C55.0834 18.1383 54.3673 18.1383 53.6512 18.1383Z" fill="#96C8D8"/>
<path d="M55.7995 17.3985C55.0834 17.3985 54.3673 17.3985 53.6512 17.3985C53.6512 16.9926 53.6512 16.5869 53.6512 16.181C54.3673 15.8707 55.0834 15.8707 55.7995 16.181C55.7995 16.5869 55.7995 16.9926 55.7995 17.3985Z" fill="#96C8D8"/>
<path d="M55.7995 16.1811C55.0834 16.1811 54.3673 16.1811 53.6512 16.1811C53.6512 15.9662 53.6512 15.7753 53.6512 15.5604C54.2002 15.5604 54.7253 15.5843 55.2744 15.5604C55.7756 15.5127 55.9189 15.7275 55.7995 16.1811Z" fill="#96C8D8"/>
<path d="M58.9981 13.5076C58.9981 13.8656 58.9981 14.2475 58.9981 14.6056C58.6878 14.5578 58.9504 14.343 58.8788 14.2475C58.9504 13.985 58.8072 13.7224 58.9981 13.5076Z" fill="#96C8D8"/>
</svg>
