<svg width="100" height="40" viewBox="0 0 100 40" fill="none" xmlns="http://www.w3.org/2000/svg">
<path d="M82.6312 10.7985C81.153 10.2598 79.5904 9.98953 78.0172 10.0003C72.9293 10.0003 69.336 12.5633 69.3105 16.2425C69.2787 18.9454 71.864 20.4686 73.8197 21.3717C75.8262 22.3003 76.4972 22.8854 76.4908 23.7153C76.4781 24.9778 74.8881 25.5502 73.4095 25.5502C71.3775 25.5502 70.2677 25.2671 68.5601 24.558L67.9273 24.2623L67.2054 28.498C68.4424 29.0131 70.6715 29.4551 72.9738 29.4933C78.3829 29.4933 81.9189 26.9461 81.9603 23.0317C82.0048 20.8725 80.6056 19.2412 77.661 17.8929C75.8707 17.0184 74.7609 16.4333 74.7609 15.5461C74.7609 14.7607 75.7117 13.9212 77.6992 13.9212C79.0219 13.8892 80.3364 14.1373 81.5564 14.6494L82.0334 14.8624L82.7553 10.7699L82.6312 10.7985V10.7985ZM95.8343 10.3437H91.8594C90.6224 10.3437 89.6907 10.684 89.1501 11.9114L81.5055 29.2293H86.9146L87.9958 26.3897L94.5973 26.396C94.7531 27.0606 95.2301 29.2293 95.2301 29.2293H100L95.8343 10.3437V10.3437ZM61.9935 10.1847H67.1482L63.9237 29.0799H58.7754L61.9935 10.1784V10.1847V10.1847ZM48.9081 20.599L49.4423 23.2225L54.4793 10.3437H59.9393L51.8273 29.2039H46.3801L41.9282 13.2343C41.8561 12.971 41.6867 12.7448 41.4544 12.6015C39.8498 11.7726 38.1496 11.1436 36.3919 10.7285L36.4619 10.331H44.7583C45.884 10.3755 46.7903 10.7285 47.0924 11.9305L48.9049 20.6085V20.599H48.9081ZM89.4745 22.526L91.5287 17.241C91.5032 17.2982 91.9516 16.1503 92.2124 15.4412L92.5653 17.0725L93.7578 22.5229H89.4713V22.526H89.4745Z" fill="#96C8D8"/>
<path d="M11.5064 12.0847H20.0347V27.4086H11.5064V12.0847Z" fill="#94D4E9"/>
<path d="M12.048 19.7466C12.048 16.6332 13.5099 13.8716 15.757 12.0846C14.1056 10.7851 12.021 10 9.74676 10C4.35885 10 0 14.3588 0 19.7466C0 25.1343 4.35885 29.4933 9.74663 29.4933C12.0208 29.4933 14.1055 28.7082 15.757 27.4085C13.5099 25.6487 12.048 22.8601 12.048 19.7466V19.7466Z" fill="#96C8D8"/>
<path d="M31.5411 19.7466C31.5411 25.1343 27.1823 29.4933 21.7945 29.4933C19.5203 29.4933 17.4356 28.7082 15.7841 27.4085C18.0583 25.6217 19.4933 22.8601 19.4933 19.7466C19.4933 16.6332 18.0312 13.8716 15.7841 12.0846C17.4355 10.7851 19.5203 10 21.7945 10C27.1823 10 31.5412 14.386 31.5412 19.7466H31.5411Z" fill="#96C8D8"/>
</svg>
