<svg width="100" height="40" viewBox="0 0 100 40" fill="none" xmlns="http://www.w3.org/2000/svg">
<g clip-path="url(#clip0)">
<g style="mix-blend-mode:luminosity">
<path d="M16.5962 36.1924C25.762 36.1924 33.1924 28.762 33.1924 19.5962C33.1924 10.4304 25.762 3 16.5962 3C7.43037 3 0 10.4304 0 19.5962C0 28.762 7.43037 36.1924 16.5962 36.1924Z" fill="#7CB8CB"/>
<path d="M16.5962 35.6607C25.4684 35.6607 32.6608 28.4684 32.6608 19.5961C32.6608 10.7239 25.4684 3.53156 16.5962 3.53156C7.72397 3.53156 0.531616 10.7239 0.531616 19.5961C0.531616 28.4684 7.72397 35.6607 16.5962 35.6607Z" fill="#96C8D8"/>
<path d="M16.5961 35.3222C25.2814 35.3222 32.3222 28.2814 32.3222 19.5961C32.3222 10.9108 25.2814 3.87 16.5961 3.87C7.91081 3.87 0.869995 10.9108 0.869995 19.5961C0.869995 28.2814 7.91081 35.3222 16.5961 35.3222Z" fill="#96C8D8"/>
<path fill-rule="evenodd" clip-rule="evenodd" d="M7.25609 17.8237C7.16209 17.7378 7.06278 17.6518 6.97143 17.5659C6.88009 17.4801 6.78626 17.3941 6.69226 17.3082L6.41291 17.0427C6.36724 16.997 6.31891 16.9568 6.27324 16.911C6.22757 16.8708 6.17393 16.8251 6.12826 16.7847C5.75756 16.433 5.38475 16.0812 5.01919 15.7293C5.39785 16.0757 5.76854 16.4197 6.1472 16.7713L6.27873 16.903C6.3244 16.9485 6.37273 16.9888 6.4184 17.0345L6.69757 17.2923C6.79157 17.3781 6.88292 17.4642 6.97692 17.5578C7.07092 17.6514 7.16226 17.7377 7.25627 17.8233L7.25609 17.8237ZM2.33636 17.7706C2.33636 17.7706 3.68441 17.9101 4.34242 18.0041C4.95192 18.0901 6.85867 18.3827 6.85867 18.3827L2.33636 17.7706ZM2.33636 17.7706C2.71502 17.8028 3.09368 17.843 3.47233 17.8834C3.66565 17.9021 3.85099 17.9235 4.03634 17.9423L4.32082 17.9747C4.41482 17.988 4.50617 18.0014 4.60017 18.0149L5.72818 18.1947L6.292 18.2887C6.47735 18.321 6.6627 18.356 6.85601 18.3882C6.67066 18.3695 6.47735 18.3426 6.292 18.3156L5.72818 18.2351L4.60017 18.0687C4.50617 18.0552 4.41482 18.0363 4.32082 18.023L4.03616 17.9903C3.85082 17.9715 3.6575 17.9446 3.47216 17.923C3.0935 17.8775 2.71484 17.829 2.33618 17.7701L2.33636 17.7706ZM6.72448 18.734C6.72448 18.734 5.28508 19.0993 4.79897 19.239C4.321 19.3705 2.87346 19.811 2.87346 19.811L6.7243 18.7341L6.72448 18.734Z" fill="#96C8D8"/>
<path fill-rule="evenodd" clip-rule="evenodd" d="M6.72439 18.7339C6.40485 18.8279 6.08709 18.9193 5.76296 19.0053L4.80153 19.2631C4.482 19.3571 4.16424 19.4484 3.84559 19.5424L3.36762 19.674C3.20918 19.7196 3.04809 19.7598 2.88434 19.8057C3.0426 19.7526 3.20387 19.6982 3.36231 19.6525L3.84028 19.4996C4.15981 19.4001 4.47757 19.3061 4.79622 19.2068C5.12106 19.1262 5.44077 19.0402 5.76561 18.9623C6.07435 18.8844 6.39937 18.8067 6.72439 18.7341V18.7339ZM3.075 20.6972C3.23326 20.638 5.05946 19.7869 5.48379 19.5881C5.69622 19.4886 6.31369 19.2695 6.31369 19.2695L3.075 20.6972Z" fill="#96C8D8"/>
<path fill-rule="evenodd" clip-rule="evenodd" d="M3.07494 20.6973C3.21444 20.6442 3.34615 20.5793 3.48033 20.5175L3.87776 20.3321L4.67544 19.9482C4.94098 19.8219 5.19908 19.6826 5.47294 19.564C5.61261 19.5051 5.75229 19.4567 5.89178 19.4111L6.10421 19.344C6.17662 19.3252 6.24389 19.3036 6.31665 19.2849C6.05111 19.4111 5.77158 19.5185 5.50569 19.6419C5.24015 19.7736 4.96859 19.8811 4.69456 19.9991L3.8836 20.3562C3.61133 20.4665 3.34579 20.5846 3.07477 20.6973H3.07494ZM3.25197 21.4408C3.25197 21.4408 4.9061 20.4715 5.47542 20.1599C5.77353 19.9935 6.73761 19.5153 6.73761 19.5153L3.25197 21.4408Z" fill="#96C8D8"/>
<path fill-rule="evenodd" clip-rule="evenodd" d="M3.25214 21.4413C3.53131 21.2694 3.81596 21.0948 4.10062 20.9176L4.52548 20.6597C4.67047 20.5738 4.81014 20.4933 4.95796 20.4074C5.10294 20.3214 5.24261 20.2355 5.39025 20.155C5.46054 20.1116 5.53418 20.0739 5.61047 20.0422L5.83601 19.9295C6.13412 19.7845 6.43223 19.6367 6.74645 19.5104C6.46179 19.6905 6.16899 19.8436 5.87637 20.0019C5.73138 20.0824 5.58357 20.155 5.43858 20.2355C5.2936 20.3161 5.15393 20.4021 5.00611 20.48C4.86112 20.5659 4.72145 20.6464 4.57381 20.7243L4.13603 20.9633L3.25249 21.4413H3.25214ZM6.72432 19.7278C6.72432 19.7278 5.6958 20.5174 5.36282 20.7698C5.02983 21.0222 4.04964 21.7312 4.04964 21.7312L6.72432 19.7278Z" fill="#96C8D8"/>
<path fill-rule="evenodd" clip-rule="evenodd" d="M12.6271 26.095L12.1008 25.0987L12.4068 23.8526L14.5901 23.0094L13.6609 21.1028L14.1201 19.1773L14.9822 17.4531L17.6463 17.0342L19.6038 15.1678L23.8309 15.4874L24.6606 20.007L23.0628 25.6975L22.1525 28.6436L18.4626 28.7833L16.7493 27.5963L14.7432 26.7583L12.6271 26.095Z" fill="#CACACA"/>
<path fill-rule="evenodd" clip-rule="evenodd" d="M19.0991 26.0626C19.0991 26.0626 18.5888 26.2963 17.7183 26.2425C17.4664 25.9042 15.7022 25.7458 15.7022 25.7458C15.7022 25.7458 15.482 25.6787 15.0925 25.8398C14.7006 25.9991 14.3299 25.9794 13.9835 26.0653C13.637 26.1511 13.2931 25.7001 13.0275 25.6061C12.762 25.5068 12.4099 25.2678 12.4099 25.2678L11.6664 25.1952L10.1733 24.5641L7.80136 22.201L7.15681 23.21L6.95801 24.4588L7.67514 25.9385L9.60596 27.6975L13.3709 28.6534L15.6025 27.9959L18.3981 26.8143L19.0991 26.0625V26.0626Z" fill="#D6D6D6"/>
<path fill-rule="evenodd" clip-rule="evenodd" d="M5.72276 17.711L6.20073 16.2636L6.77022 15.3289L8.60422 15.1758L8.05366 16.7818L6.52044 19.5103L7.15685 21.946L6.02901 22.5098L5.6824 21.9782L5.40323 20.759L5.38446 19.3894L5.72276 17.711Z" fill="#E8E8E8"/>
<path fill-rule="evenodd" clip-rule="evenodd" d="M7.77978 25.9635L7.42803 25.4721C7.42803 25.4721 7.33403 25.2384 7.38784 25.0343C7.44095 24.8275 7.43334 24.8141 7.40661 24.7362C7.37988 24.6583 7.15417 24.3897 7.16762 24.1587C7.1809 23.925 7.14886 23.8471 7.32057 23.662C7.50043 23.4821 7.44679 23.1706 7.44679 23.1706L7.68047 23.3155L7.73358 23.235C7.73358 23.235 7.81943 23.3021 7.81943 23.4069C7.8382 23.2619 7.76031 22.5904 7.93751 22.4375C8.11471 22.2845 8.42893 23.1544 8.42893 23.1544L8.23562 21.8922L7.73871 20.598L6.85517 19.4164L6.80207 18.1138V18.001C6.80207 18.001 6.3965 18.6242 6.28373 19.1163C6.20319 19.4546 6.3965 19.8655 6.35631 20.3516C6.32392 20.835 6.28373 20.7973 6.40181 20.9889C6.51989 21.1804 6.80738 21.5743 6.69461 21.859C6.5953 22.1034 6.25683 21.9315 6.25683 21.9315C6.25683 21.9315 6.18973 22.1302 6.09839 22.2028C6.06617 22.0847 6.0313 22.0094 5.96686 21.9372C5.96137 21.9829 5.94809 22.0447 5.94809 22.0447C5.94809 22.0447 5.88897 21.8593 5.82984 21.6256C5.74947 21.3143 5.66344 20.9034 5.58554 20.6832C5.55333 20.8094 5.47278 21.1933 5.47278 21.1933L5.51845 21.7843L5.73867 22.5952L5.9511 23.1263L6.15787 23.7762L6.33755 24.2127L6.48253 24.5457L6.60875 25.295L7.21825 25.9394L7.54327 26.0846L7.77943 25.9637L7.77978 25.9635Z" fill="#DFDFDF"/>
<path fill-rule="evenodd" clip-rule="evenodd" d="M6.04228 16.5294C6.04228 16.5294 5.60449 17.2729 5.47845 18.0224C5.35241 18.7719 5.23947 19.5639 5.31913 20.5843C5.39967 21.613 5.5528 22.2439 5.67637 22.6952C5.8888 23.4445 6.439 24.4865 6.439 24.4865L6.45776 24.4461C6.36528 24.2708 6.29147 24.0863 6.23754 23.8956C6.16496 23.6109 6.13805 23.2726 6.07096 23.1195C6.01183 22.9666 5.91252 22.8349 5.86419 22.6469C5.81852 22.467 5.81108 22.1823 5.67088 21.9703C5.61175 21.8842 5.53917 21.6587 5.51775 21.4332C5.49084 21.0947 5.53121 20.716 5.49899 20.4046C5.43986 19.8863 5.39967 19.5346 5.45331 19.2632C5.50695 18.9918 5.78648 18.2214 5.95837 17.609C6.07114 17.2169 6.00387 16.8866 6.21063 16.5455C6.4174 16.2072 6.5438 15.9091 6.58929 15.7023C6.6424 15.5143 6.04157 16.5294 6.04157 16.5294H6.04228Z" fill="#E5E5E5"/>
<path fill-rule="evenodd" clip-rule="evenodd" d="M8.11831 16.2312C8.11831 16.2312 7.89278 16.2985 7.78532 16.4165C7.67787 16.5293 7.63219 16.6233 7.48721 16.814C7.34222 17.0046 7.33408 17.1604 7.21583 17.3994C7.09775 17.6331 6.83717 17.9848 6.80495 18.111C6.77273 18.2373 6.71909 18.828 6.652 19.1073C6.59287 19.3867 6.71909 19.7305 6.71909 19.7305L6.87204 19.6981C6.87204 19.6981 6.87204 19.8969 7.02517 20.0312C7.17812 20.1628 7.20503 19.5853 7.20503 19.5853L7.777 17.6545L8.63894 17.0691L8.73294 16.5964L8.11795 16.2312H8.11831Z" fill="#EBEBEB"/>
<path fill-rule="evenodd" clip-rule="evenodd" d="M8.53705 17.1069C8.53705 17.1069 8.13148 17.1336 7.93286 17.2788C7.85231 17.3377 7.82009 17.386 7.73423 17.4586C7.5758 17.5901 7.41453 17.7111 7.33681 17.8835C7.25078 18.0552 7.15678 18.3158 7.09234 18.8072C7.06543 19.014 7.06543 19.2046 7.04667 19.3712C7.01976 19.5967 6.97957 19.7766 7.00099 19.9023C7.0279 20.16 7.29379 20.2944 7.31964 20.587L7.87019 20.3079L8.38852 18.2641L9.48962 17.5737L8.86649 16.8755L8.53634 17.1056L8.53705 17.1069Z" fill="#D7D7D7"/>
<path fill-rule="evenodd" clip-rule="evenodd" d="M5.63256 30.8689C5.63486 30.8487 5.63716 30.8285 5.63947 30.8078C5.71984 30.1174 5.73347 29.5941 5.79242 29.2664C5.87827 28.8019 5.9374 28.6291 5.92395 28.4553C5.90518 28.1761 5.88376 27.972 5.91067 27.7571C5.95086 27.4725 6.2302 27.1342 6.22224 26.9005C6.21675 26.7151 6.12275 26.5944 6.0422 26.4816C5.96165 26.3689 5.89722 26.2749 5.89722 26.2749C5.89722 26.2749 6.44777 25.8962 6.44246 24.3708C6.4537 24.374 6.46452 24.3785 6.47468 24.3842L6.74588 25.1548L6.93123 25.3804L7.64287 26.707L8.55863 27.596L9.912 28.5063L10.7607 29.4298L10.8465 31.8924L9.73745 33.3318L9.55582 33.6608C8.11283 32.9363 6.7896 31.9947 5.63239 30.8687L5.63256 30.8689Z" fill="#CACACA"/>
<path fill-rule="evenodd" clip-rule="evenodd" d="M9.02051 33.2249C9.02051 33.2249 9.03927 32.9188 9.29171 32.72C9.33207 32.7871 9.3588 32.8517 9.35084 32.8998C9.39651 32.8195 9.71604 32.3038 10.4385 32.1694C11.1609 32.0379 11.3355 31.5116 11.3355 31.5116L12.8687 30.1179L14.6223 28.5039L16.7546 27.7546L17.7511 27.5101C17.7511 27.5101 17.7698 27.5827 17.7323 27.7438C17.9175 27.7305 18.3284 27.6365 18.7553 27.486C18.9272 27.4189 19.0885 27.392 19.1744 27.4807C19.3006 27.5988 19.3193 27.8781 19.3273 28.0445C19.5341 27.9989 19.7731 27.8003 19.9646 27.819C20.2709 27.8512 20.5421 28.2111 20.8536 28.2111C21.2645 28.2111 21.4497 27.9587 21.7372 27.7599C21.9091 27.6418 22.156 27.4944 22.2957 27.3947C22.6287 27.1502 26.152 26.0734 26.152 26.0734L27.3873 26.1539L27.5861 27.4805L27.4799 30.9485C27.4668 30.9611 27.4537 30.9741 27.4404 30.9867L21.8237 33.9202L14.0381 35.1137C12.2941 34.8288 10.6111 34.2499 9.06087 33.4017L9.02104 33.2247L9.02051 33.2249Z" fill="#BFBFBF"/>
<path fill-rule="evenodd" clip-rule="evenodd" d="M6.1048 31.3102C6.21544 31.0788 6.31493 30.8853 6.33245 30.8161C6.34626 30.9556 6.37158 31.2617 6.42256 31.587C6.31552 31.4961 6.2096 31.4037 6.1048 31.31V31.3102Z" fill="#D6D6D6"/>
<path fill-rule="evenodd" clip-rule="evenodd" d="M11.7921 34.5737L12.799 34.2936L12.8849 34.3205C12.8849 34.3205 12.9305 34.3474 12.9305 34.4386C13.0567 34.3662 13.1642 34.3795 13.2421 34.3313C13.2823 34.4172 13.3225 34.7019 13.4998 34.7367C13.685 34.7771 13.8838 34.6562 14.0853 34.5032C14.2839 34.3448 14.5101 34.146 14.6813 34.0654C14.7441 34.1809 14.7998 34.3002 14.8479 34.4225C15.0734 34.2426 15.4655 33.5122 16.0241 33.5255C16.1855 33.144 16.4552 32.8182 16.7998 32.5883C17.3181 32.2366 17.643 32.2097 18.0485 32.2419C18.2096 32.0326 18.4081 31.8551 18.634 31.7183C18.7011 31.7452 18.8864 31.8579 19.1174 31.7505C19.3511 31.6432 19.6142 31.2268 19.9606 31.1732C20.1473 31.1475 20.3371 31.1874 20.4977 31.286C20.4977 31.286 21.5067 30.2842 22.203 29.9512C22.1761 29.8706 22.1224 29.5672 22.9387 28.8957C22.9844 28.9361 22.9522 29.0489 22.9844 29.0551C22.9977 29.0551 23.1968 28.9692 23.4489 28.7757C23.7605 28.5422 24.1336 28.2978 24.3592 28.2307C24.784 28.1044 25.2347 28.3622 25.2347 28.3622C25.2731 28.3353 25.3158 28.3153 25.361 28.3031C25.4682 28.2843 25.5461 28.2708 25.6053 28.25C25.5999 28.3896 25.6778 28.6286 25.6053 28.8354C25.6893 28.8827 25.7784 28.9205 25.8708 28.9481C25.8253 29.0475 25.7258 29.2999 25.5594 29.4208C25.6989 29.4879 25.7177 29.5658 25.9165 29.6332C25.8359 29.746 25.704 29.9395 25.6453 30.0581C25.5861 30.1843 25.3739 30.708 25.2799 30.9066C25.1806 31.1054 25.0464 31.4706 24.9818 31.5439C24.9171 31.6172 24.6837 31.9279 24.5038 32.0808C24.6631 32.0217 25.3149 31.8231 25.5914 31.7478C25.5091 31.8685 25.0919 32.4876 24.6907 33.0829C22.7701 34.2341 20.6261 34.9628 18.4018 35.2203C16.1774 35.4778 13.9237 35.2583 11.7908 34.5763L11.7921 34.5737Z" fill="#CACACA"/>
<path fill-rule="evenodd" clip-rule="evenodd" d="M8.60346 17.0343C8.60346 17.0343 8.36996 17.0343 8.32429 17.0665C8.27861 17.0987 8.55796 17.166 8.64382 17.1982C8.72968 17.2304 8.91502 17.3781 8.96335 17.4963C9.00902 17.6091 10.6417 18.2669 10.6417 18.2669L11.7965 18.2078L12.1946 17.6578L11.4373 16.9945L11.9684 15.4288L11.2649 15.5416L9.57303 16.5506L8.72437 16.8757L8.60346 17.0343Z" fill="#C4C4C4"/>
<path fill-rule="evenodd" clip-rule="evenodd" d="M11.1393 17.5524C11.156 17.5795 11.1795 17.6016 11.2075 17.6167C11.2355 17.6318 11.2669 17.6392 11.2987 17.6383C11.5377 17.6383 11.7577 17.6974 11.849 17.8182C12.0022 18.0117 12.4265 18.6293 12.4265 18.6293L13.4416 18.9945L13.5071 17.7992L12.398 17.0286L11.1358 17.4931V17.5523H11.1386L11.1393 17.5524Z" fill="#CACACA"/>
<path fill-rule="evenodd" clip-rule="evenodd" d="M10.9402 17.9957C10.9402 17.9957 11.1254 18.0092 11.359 17.9231C11.5927 17.8371 11.9767 17.6519 12.1433 17.7245C12.3768 17.8238 12.3284 18.1354 12.581 18.4149C12.734 18.5868 13.0133 18.5815 13.1718 18.7668C13.3302 18.9522 13.8753 18.8662 13.8753 18.8662L14.0821 19.9814L13.2523 21.045L12.981 22.3661H11.859L10.834 21.9595L10.3291 20.738L10.5815 19.5027L10.9402 17.9957Z" fill="#BFBFBF"/>
<path fill-rule="evenodd" clip-rule="evenodd" d="M13.1106 18.0493C13.1384 18.0579 13.1673 18.0624 13.1964 18.0627C13.1642 18.0896 13.0969 18.1486 13.1238 18.3017C13.1507 18.4548 13.2366 18.6482 13.1642 18.7662C13.222 18.8294 13.2651 18.9046 13.2904 18.9864C13.3361 19.1182 13.3495 19.2389 13.6475 19.2578C13.6045 19.2843 13.5648 19.3159 13.5294 19.3518C13.5294 19.3518 13.7362 19.5317 13.841 19.6981C13.9483 19.6935 14.2329 19.605 14.2329 19.605L14.292 19.6453L14.4183 19.5922C14.4183 19.5922 14.3002 19.5466 14.386 19.2592C14.4666 19.0068 14.5392 19.0203 14.5454 19.0015C14.5516 18.9827 14.6045 18.7168 14.6045 18.6094C14.6447 18.4699 14.6769 18.0456 14.6769 18.0456L14.591 17.1084L14.1078 16.8156L13.7148 16.4362L13.3441 17.1344L13.0999 17.3778L13.0812 17.982L13.1106 18.0493Z" fill="#C2C2C2"/>
<path fill-rule="evenodd" clip-rule="evenodd" d="M14.2732 17.2653C14.2732 17.2653 14.3591 17.5096 14.3914 17.6976C14.4029 17.6611 14.4092 17.6231 14.4102 17.5848C14.4102 17.5848 14.4773 17.9555 14.4906 18.1087C14.5175 18.1032 14.5437 18.0952 14.5497 18.1219C14.5557 18.1487 14.617 18.447 14.6028 18.6134C14.7146 18.4289 14.8694 18.2741 15.0539 18.1623C15.1613 18.095 15.2876 18.0226 15.4193 18.0171C15.626 18.0118 15.7763 18.1488 16.0234 18.1488C16.6195 18.1488 17.1594 17.7111 17.5568 17.5769C17.8495 17.4774 18.1019 17.405 18.2791 17.2437C18.3651 17.1713 18.5183 17.0102 18.6578 16.7711C18.8431 16.4524 19.0364 16.175 19.2299 16.1401C19.1424 16.1562 19.0533 16.1625 18.9644 16.1589C18.9644 16.1589 19.0235 16.0998 19.1237 16.0192C19.2239 15.9387 19.3439 15.8394 19.5156 15.8394C19.8219 15.8394 19.9748 15.8849 20.1467 15.8849C20.3186 15.8795 20.4179 15.8394 20.4179 15.8394C20.4179 15.8394 20.598 15.9656 21.0034 15.9656C21.4089 15.9709 21.6801 16.0058 21.8924 16.0247C22.1046 16.0437 22.8161 15.9656 23.0202 15.9716C23.1533 15.9767 23.284 16.0087 23.4044 16.0656L22.7464 14.1537L20.3827 12.0878L18.9755 13.0841L16.8109 15.2486L14.7163 16.0247L14.2785 16.5161V17.2653H14.2732Z" fill="#B1B1B1"/>
<path fill-rule="evenodd" clip-rule="evenodd" d="M18.9729 16.1695C18.9729 16.1695 19.032 16.1106 19.1312 16.03C19.2303 15.9495 19.3516 15.85 19.5233 15.85C19.8294 15.85 19.9825 15.8957 20.1544 15.8957C20.3263 15.8904 20.4256 15.85 20.4256 15.85C20.4256 15.85 20.6058 15.9761 21.011 15.9761C21.4166 15.9814 21.6878 16.0162 21.9 16.035C22.1123 16.0538 22.8238 15.9761 23.0279 15.9819C23.1609 15.9869 23.2915 16.0189 23.4118 16.0759L23.1137 15.2138L22.7675 14.556L21.7791 13.4736C21.7791 13.4736 20.593 12.7754 20.584 12.7701C20.5787 12.7648 20.1731 12.6573 20.1731 12.6573L19.0989 13.3072L18.1242 15.8289L18.1055 16.36L18.7364 16.6581C18.8948 16.3926 19.0696 16.1802 19.2333 16.1533C19.0855 16.1694 18.9727 16.1694 18.9727 16.1694L18.9729 16.1695Z" fill="#B3B3B3"/>
<path fill-rule="evenodd" clip-rule="evenodd" d="M18.9595 16.3495C18.8655 16.3548 18.7878 16.336 18.7662 16.2689C18.6857 16.0434 18.6212 16.0112 18.5538 16.0112C18.4864 16.0112 18.3954 16.1562 18.3414 16.1694C18.2874 16.1827 18.2233 16.003 18.2233 16.003L18.1642 15.9761C18.1642 15.9761 17.8177 16.2017 17.5734 16.4676C17.3291 16.7335 16.9289 17.1847 16.749 17.2651C16.5692 17.3454 15.9514 17.3725 15.74 17.4182C15.5286 17.4639 15.2942 17.617 15.262 17.6519C15.2298 17.6867 15.3562 17.7243 15.375 17.7591C15.3937 17.7914 15.168 17.7779 15.1493 17.8123C15.136 17.8392 15.2024 17.9921 15.2353 18.07C15.2929 18.0414 15.3561 18.0258 15.4205 18.0243C15.6272 18.019 15.7777 18.156 16.0246 18.156C16.6209 18.156 17.1606 17.7183 17.558 17.5839C17.8508 17.4846 18.1033 17.412 18.2805 17.2509C18.3663 17.1785 18.5195 17.0172 18.6591 16.7782C18.7611 16.6145 18.8606 16.4614 18.9601 16.3486L18.9595 16.3495Z" fill="#B1B1B1"/>
<path fill-rule="evenodd" clip-rule="evenodd" d="M10.4091 29.64C10.4091 29.64 10.356 29.4412 9.8639 28.9284C9.72422 28.7834 9.63837 28.6628 9.54436 28.5766C9.31069 28.3562 9.17367 28.2973 9.00727 28.1711C8.64206 27.8998 8.24464 27.8998 7.93856 27.5669C7.63248 27.2339 7.27577 26.5976 7.02794 25.9474C6.78364 25.2976 6.71637 25.0908 6.71637 25.072C6.71637 25.0533 6.78364 24.927 6.8695 24.9458C6.95536 24.9646 6.95536 25.131 6.97695 25.1713C7.01973 25.2372 7.06825 25.2992 7.12194 25.3565C7.24816 25.5017 7.42802 25.6752 7.51936 25.934C7.5006 25.7137 7.42536 25.4695 7.42536 25.4695C7.42536 25.4695 7.89802 25.7676 8.30075 26.079C8.70632 26.3905 8.87273 26.498 8.99116 26.6966C9.10959 26.8952 9.38858 27.419 9.52224 27.5722C9.65589 27.7253 11.4872 28.3026 11.4872 28.3026L12.3584 28.9521L12.7908 29.9001L12.4524 30.4311L11.8025 30.5708L10.7471 30.0982L10.4091 29.6398V29.64Z" fill="#B1B1B1"/>
<path fill-rule="evenodd" clip-rule="evenodd" d="M8.06439 26.3742C8.06439 26.3742 8.28461 26.7259 8.82171 27.0589C9.30517 27.3517 10.0704 27.6176 10.7527 27.7761C11.1446 27.8701 11.5368 27.9425 11.8885 27.948C12.8365 27.9612 13.489 27.6902 14.2975 27.6015C14.7353 27.5558 15.2724 27.521 15.8309 27.3891C16.5478 27.2172 16.9722 27.0237 17.5496 26.7518C17.9685 26.5585 18.3526 26.4135 18.664 26.2282C19.1018 25.9704 19.4213 25.6831 19.792 25.5972C19.7463 25.7234 19.698 25.949 19.3328 26.1827C19.5261 26.1772 19.792 26.1639 19.792 26.1639C19.792 26.1639 19.5343 26.3168 19.0804 26.6606C18.801 26.8731 18.4305 27.2326 18.0518 27.4716C17.8074 27.6247 17.5415 27.7371 17.3669 27.8288C16.9421 28.0625 16.7707 28.1806 16.4915 28.4661C16.5908 28.4608 16.599 28.4661 16.599 28.4661C16.599 28.4661 16.2471 28.5118 15.9948 28.646C15.9417 28.646 15.8496 28.6272 15.6885 28.6729C15.5623 28.7131 15.3957 28.8046 15.224 28.8527C14.9796 28.9253 14.8992 28.8931 14.8992 28.8931L14.9394 28.9737C14.9394 28.9737 14.6207 28.9682 14.5145 28.979C14.5333 28.9843 14.528 28.9924 14.528 28.9924C14.5093 28.9955 14.4913 29.0019 14.4749 29.0112C14.4237 29.0443 14.3675 29.0688 14.3084 29.0836C14.2762 29.0889 14.2493 29.0889 14.209 29.097C14.2224 29.1293 14.3272 29.3095 14.3755 29.4157C14.3354 29.4426 13.731 29.8991 13.731 29.8991C13.7497 29.9286 13.7651 29.9602 13.7767 29.9931C13.7954 30.0521 13.8036 30.1381 13.8223 30.1783C13.8678 30.2589 13.8947 30.2723 13.8947 30.2723C13.8947 30.2723 13.8223 30.2858 13.6959 30.318C13.5887 30.3449 13.457 30.3904 13.2711 30.4173C13.214 30.4247 13.1567 30.4292 13.0992 30.4308C13.1261 30.4899 13.2442 30.7154 13.0266 30.9758C12.809 31.2362 12.7419 31.2741 12.6749 31.4405C12.6411 31.415 12.6051 31.3925 12.5674 31.3732C12.495 31.341 12.3955 31.2929 12.3606 31.2283C12.3403 31.3143 12.3134 31.3987 12.2801 31.4807C12.213 31.6606 12.1137 31.8379 12.0949 31.9721C12.0223 31.8916 11.8882 31.7331 11.7028 31.7654C11.5175 31.7976 11.3698 32.05 11.3376 32.1226C11.3376 32.0769 11.3054 32.042 11.2974 32.0957C11.2919 32.1548 11.19 32.7723 10.6206 33.2718C10.6153 33.1456 10.6153 32.8663 10.6019 32.7751C10.5488 32.8282 10.4838 32.9066 10.097 33.0732C9.71834 33.2396 9.77836 33.4062 9.77836 33.4062C9.77836 33.4062 9.74614 33.1407 9.95025 32.861C10.157 32.5818 10.2832 32.4501 10.2832 32.4287C10.2799 32.4069 10.2706 32.3864 10.2563 32.3695C10.2294 32.3426 10.1758 32.3104 10.1758 32.289C10.208 32.2757 10.5275 32.1226 10.5088 31.8055C10.49 31.5211 10.3693 31.3732 10.2832 31.2686C10.27 31.2552 10.4096 31.1559 10.3907 31.1236C10.3772 31.1049 10.2055 30.9785 10.1839 30.9112C10.189 30.8711 10.198 30.8315 10.2108 30.7931C10.2296 30.734 10.243 30.6936 10.2377 30.6535C10.2243 30.5864 10.1517 30.401 10.1303 30.3823C10.149 30.3876 10.2832 30.3823 10.2832 30.3823C10.2832 30.3823 10.176 30.2104 10.157 30.1298C10.1381 30.0493 10.0979 29.837 10.0765 29.7968C10.1221 29.8021 10.2349 29.8101 10.2349 29.7968C10.2404 29.7565 10.1356 29.6894 10.1818 29.6375C10.214 29.6428 10.2758 29.6697 10.3347 29.745C10.3025 29.6589 10.2489 29.4925 10.1359 29.4254C10.1891 29.4067 10.3696 29.3582 10.5281 29.4522C10.6865 29.5462 10.7405 29.6777 10.7405 29.6777C10.7405 29.6777 10.8345 29.7503 10.9797 29.8577C11.1461 29.9893 11.3581 30.1764 11.6966 30.3088C11.7692 30.3491 11.9544 30.3491 12.0887 30.3222C12.1472 30.3083 12.2033 30.2857 12.2551 30.2551C12.2738 30.2441 12.2937 30.2351 12.3143 30.2282C12.2854 30.1703 12.2522 30.1146 12.2149 30.0617C12.2606 30.0617 12.3143 30.0671 12.3143 30.0671C12.3143 30.0671 12.3465 29.9946 12.2015 29.8547C12.2337 29.8225 12.2741 29.8016 12.2741 29.7473C12.2284 29.7419 12.1478 29.6749 12.1291 29.6479C12.1558 29.6292 12.1962 29.5674 12.2418 29.5486C12.2015 29.5164 12.1022 29.3821 12.0565 29.3688C12.1001 29.3526 12.1424 29.3328 12.1827 29.3096C12.1827 29.3096 11.9572 29.2505 11.8846 29.2022C11.812 29.1491 11.7048 29.0572 11.6403 29.0303C11.573 29.0034 11.455 28.9901 11.4066 28.9363C11.4521 28.9498 11.5247 28.9363 11.5785 28.9363C11.6187 28.9363 11.6377 28.9416 11.6509 28.9416C11.6456 28.9228 11.6456 28.8825 11.7504 28.8692C11.8008 28.8616 11.8497 28.8462 11.8954 28.8235C11.8954 28.8235 11.7959 28.8182 11.683 28.7108C11.57 28.6033 11.4762 28.5175 11.4118 28.504C11.3447 28.4905 11.2185 28.5497 11.1406 28.5442C11.0331 28.5309 10.9874 28.4771 10.9874 28.4771C10.9874 28.4771 10.6304 28.5093 9.83819 28.026C9.15328 27.607 8.85517 27.2365 8.85517 27.2365C8.79107 27.2132 8.72911 27.1844 8.67 27.1505C8.41225 27.0163 8.05501 26.7369 8.06581 26.3715L8.06439 26.3742Z" fill="#A3A3A3"/>
<path fill-rule="evenodd" clip-rule="evenodd" d="M17.9441 10.256C18.0063 10.2762 18.0615 10.3135 18.1035 10.3635C18.2297 10.5085 18.3102 10.7823 18.0229 11.0751C18.1357 11.1153 18.1822 11.1282 18.2807 11.1153C18.1813 11.2336 17.9558 11.486 17.9424 11.7062C17.9289 11.8861 18.0417 11.9399 18.0417 11.9399C18.0417 11.9399 17.8698 12.1385 17.8618 12.471C17.943 12.3794 18.0318 12.295 18.1274 12.2186C18.3262 12.0601 18.6 11.8803 18.7854 11.7675C18.7828 11.8148 18.7892 11.8621 18.8041 11.907C18.8041 11.907 19.1504 11.6223 19.4414 11.7487C19.5729 11.8079 19.5138 11.993 19.5138 11.993C19.5138 11.993 19.6939 11.9259 19.8201 12.0521C19.9463 12.1784 20.1247 12.5039 20.2163 12.6301C20.2564 12.6893 20.3612 12.802 20.4685 12.9766C20.6151 13.2209 20.7375 13.479 20.8339 13.7472C20.8392 13.6075 20.8741 13.3901 21.2717 13.5269C21.6691 13.6666 22.1202 13.9594 22.4988 14.536C22.8775 15.1126 22.9713 15.7635 23.162 16.0113C23.3553 16.2503 23.5541 16.6477 23.5676 16.8143C23.581 16.9809 23.5084 17.5178 23.9058 18.9707C24.0186 18.5196 24.1905 17.5178 24.1905 17.5178L24.2845 16.6343L24.392 13.9005L21.5372 11.5289L19.3056 9.90942L17.8528 10.0491L17.944 10.2559L17.9441 10.256Z" fill="#A2A2A2"/>
<path fill-rule="evenodd" clip-rule="evenodd" d="M23.2481 14.3244C23.2481 14.3244 23.2078 14.0589 22.5365 13.6074C21.865 13.1617 21.3414 13.1617 20.8581 12.783C20.4874 12.4849 20.1008 11.8 19.849 11.5745C19.6046 11.3516 19.5644 10.707 19.5644 10.707L20.3888 10.0166L21.6149 8.24444L22.6514 7.10315L23.1481 7.79355L23.8385 8.60451L24.2225 10.2319L24.3622 12.614L23.2469 14.3246L23.2481 14.3244Z" fill="#959595"/>
<path fill-rule="evenodd" clip-rule="evenodd" d="M24.078 17.1799C24.0983 16.8186 24.0537 16.4567 23.9463 16.1112C23.7692 15.5606 23.3824 14.5831 23.2028 14.217C23.1302 13.8114 23.184 13.7792 23.2619 13.7335C23.3398 13.6879 23.6326 13.5211 23.793 12.936C23.9533 12.351 24.451 12.3319 24.451 12.3319L24.757 12.1063L25.2217 13.269L25.6271 14.3191L25.7533 15.1221L25.8473 15.8069L25.6271 17.2544L24.5397 18.2373L24.0778 17.1799H24.078Z" fill="#9F9F9F"/>
<path fill-rule="evenodd" clip-rule="evenodd" d="M8.90247 33.3138V33.2841C8.92506 33.27 8.94501 33.252 8.96142 33.231C8.98018 33.2041 8.99381 33.1719 9.00709 33.1639C9.034 33.1504 9.16022 33.1108 9.22731 33.1235C9.2944 33.1363 9.47178 33.2094 9.56578 33.2041C9.75909 33.1988 9.98463 33.051 10.3419 33.1182C10.879 33.2175 11.0052 33.5827 11.3167 33.7895C11.5292 33.9347 11.749 33.8701 11.7813 33.8701H11.8537C11.8671 33.8701 11.9664 33.7573 12.0202 33.7628C12.1277 33.7681 12.1383 33.8568 12.2054 33.8621C12.3639 33.8809 12.6701 33.7815 12.8232 33.8219C12.8686 33.8361 12.9099 33.8611 12.9436 33.8947C12.9773 33.9284 13.0023 33.9696 13.0166 34.015C13.0488 34.1144 13.0219 34.2406 12.944 34.3132C12.7776 34.4661 12.6191 34.6113 12.5869 34.738C12.6279 34.7693 12.6672 34.8026 12.7048 34.8379C11.3761 34.4993 10.0977 33.9875 8.90247 33.3154V33.3138Z" fill="#AEAEAE"/>
<path fill-rule="evenodd" clip-rule="evenodd" d="M23.2025 27.948C23.2025 27.948 23.6214 27.3895 23.7665 27.1128C23.9115 26.8276 23.3073 23.2163 23.3073 23.2163L24.5212 19.2392L24.4888 17.9448C24.4888 17.9448 24.5479 16.7497 24.6876 16.2314C24.8542 16.5295 25.3725 16.8894 25.4853 17.08C25.5384 16.7147 25.7188 15.9441 25.692 15.1223C25.7914 15.2753 26.0303 16.8142 26.0303 16.8142L26.2693 17.8506L26.5809 18.9517L26.9273 20.1146L27.1341 20.9176L27.2522 21.1109L27.3517 21.4492L27.4457 21.8146L27.7169 22.6712L27.8762 23.3747L28.0024 24.6504C28.0299 24.7481 28.0496 24.8477 28.0615 24.9485C28.0669 25.0882 28.0428 25.1687 28.0428 25.193C28.0428 25.2172 28.0885 25.4991 28.0697 25.7113C28.0428 25.9237 28.0428 26.09 27.8762 26.2424C27.7096 26.3948 27.605 27.3058 27.605 27.3058L27.3069 27.1072C27.3069 27.1072 27.366 26.8358 27.2263 26.5888C27.0867 26.3419 26.8155 26.2907 26.6623 26.3311C26.5094 26.3633 26.2033 26.4114 26.1038 26.4975C26.0098 26.5833 25.779 26.8492 25.5667 26.9701C25.3012 27.1295 24.8685 27.142 24.6377 27.1957C24.404 27.2488 24.1462 27.4081 23.8749 27.5931C23.6621 27.7309 23.4374 27.8493 23.2036 27.9471L23.2025 27.948Z" fill="#A8A8A8"/>
<path fill-rule="evenodd" clip-rule="evenodd" d="M23.2025 33.8159C23.2025 33.8159 23.2202 33.8274 23.2544 33.8461C25.1623 32.9523 26.8718 31.6852 28.2819 30.1197C28.2665 29.5763 28.2465 29.0192 28.2246 28.8128C28.1791 28.375 28.2113 27.9292 28.1978 27.6715C28.1844 27.4137 28.0394 26.3636 27.9723 26.0924C27.8997 25.8212 27.7599 25.6868 27.7386 25.6868C27.7199 25.6923 27.6069 26.1972 27.6069 26.3241C27.6069 26.4511 27.58 26.7566 27.58 26.8345C27.5612 26.829 27.5533 26.7814 27.5533 26.7619C27.5264 26.829 27.4942 26.9473 27.4807 26.9607C27.4672 26.9742 27.4995 26.8479 27.4807 26.821C27.4619 26.7941 27.4276 26.8076 27.435 26.7405C27.4382 26.7007 27.4445 26.6612 27.4538 26.6224C27.4538 26.6224 27.3732 26.7405 27.3143 27.0413C27.2552 27.3394 27.2552 27.3475 27.2337 27.3742C27.215 27.4066 27.1075 27.5139 27.102 27.5543C27.0967 27.6267 27.2015 27.6993 27.2095 27.7394C27.2148 27.8067 27.1155 28.1181 27.0833 28.2705C27.0511 28.4229 27.0645 28.7216 27.0302 28.8747C27.0033 29.0144 26.9771 29.0949 26.8852 29.1539C26.9523 29.1673 27.0167 29.1861 27.0167 29.1861C27.0167 29.1861 27.1107 29.5835 26.8717 29.922C26.7859 30.0401 26.7645 30.0939 26.6731 30.2013C26.4931 30.4 26.3534 30.6262 26.3399 30.7733C26.3307 30.7299 26.3244 30.6859 26.3212 30.6416C26.3212 30.6416 26.042 30.9666 25.9238 31.152C25.7708 31.391 25.5586 31.3775 25.4989 31.4366C25.4392 31.4958 25.4263 31.603 25.4458 31.6891C25.3927 31.7024 25.2928 31.7213 25.2256 31.9281C25.1933 32.0353 25.1128 32.1405 24.9866 32.2127C24.8604 32.2849 24.7072 32.3067 24.6293 32.3255C24.6964 32.3443 24.7233 32.3442 24.7556 32.3657C24.7154 32.4328 24.53 32.5376 24.3233 32.6719C24.1165 32.7981 24.017 32.9833 23.966 33.1042C23.9129 33.217 23.8345 33.2896 23.7083 33.303C23.7614 33.3352 23.84 33.4103 23.8802 33.4346C23.821 33.448 23.7208 33.448 23.5419 33.6011C23.3539 33.7569 23.2894 33.8026 23.2034 33.816L23.2025 33.8159Z" fill="#9D9D9D"/>
<path fill-rule="evenodd" clip-rule="evenodd" d="M19.4657 35.0603C19.5686 34.9882 19.6799 34.9291 19.7973 34.8845C20.2161 34.7181 20.6592 34.6859 20.8338 34.6322C21.0004 34.5791 21.1319 34.5058 21.3387 34.4656C21.3332 34.5127 21.3286 34.557 21.3236 34.5988C20.714 34.7904 20.0933 34.9445 19.4648 35.0603H19.4657Z" fill="#B8B8B8"/>
<path fill-rule="evenodd" clip-rule="evenodd" d="M27.1912 24.0434C27.1912 24.0434 27.1054 24.5079 26.9522 24.8007C26.7991 25.0935 26.6336 25.4989 26.6336 25.4989C26.6346 25.4075 26.6454 25.3166 26.6658 25.2275C26.4725 25.3403 26.0025 25.6117 25.8692 25.7324C25.743 25.8452 25.5307 26.044 25.4771 26.138C25.6033 25.7674 25.7348 25.4345 25.7564 25.2813C25.5631 25.421 24.6606 26.1649 24.1908 26.6563L22.7271 27.8406C22.5582 27.9317 22.3843 28.0132 22.2062 28.0845C21.9539 28.1918 21.6558 28.2832 21.4356 28.3692C21.4947 28.2107 21.5885 28.0709 21.7202 27.9367C21.8599 27.8052 22.2787 27.3513 22.3432 27.1401C22.4023 26.9199 22.4158 26.7883 22.3379 26.603C22.2653 26.6218 22.0989 26.6299 21.9861 26.6621C21.8734 26.6943 21.7524 26.8151 21.7524 26.8151C21.7524 26.8151 21.8383 26.3237 22.0236 25.8591C21.884 25.8645 21.645 25.9046 21.645 25.9046C21.645 25.9046 21.978 25.3461 22.5478 24.9568C22.3733 24.994 22.2025 25.047 22.0376 25.1151C21.7046 25.2548 21.3394 25.4615 21.0682 25.5743C21.2212 25.3619 22.2954 23.8288 22.9346 22.4001C23.5719 20.9741 23.81 20.6089 23.9497 19.8436C24.0221 19.465 24.0028 18.9054 24.0221 18.4042C24.0409 17.9073 24.1026 17.4616 24.0625 17.1635C24.2289 17.3702 24.852 17.953 24.8734 19.2555C24.8922 20.5579 24.2774 22.317 23.6247 23.2648C23.784 23.3105 24.1968 23.3643 24.621 22.6275C25.0451 21.8907 25.04 21.685 25.1931 21.3788C25.2119 21.5319 25.2064 21.5856 25.2064 21.5856C25.2064 21.5856 25.8242 20.8364 26.1168 19.8937C26.176 20.2993 26.3505 20.6565 26.0765 21.4004C25.8322 22.0717 25.5127 22.2356 25.5127 22.2356C25.5127 22.2356 25.6711 22.2087 25.9046 22.069C25.945 22.1683 25.937 22.2814 26.0041 22.3215C26.0712 22.3615 26.1625 22.4289 26.176 22.4933C26.2484 22.3859 26.3611 22.2489 26.3962 22.1469C26.3693 22.3593 26.3505 23.2882 26.4493 23.7609C26.6562 23.7421 26.8683 23.7286 27.0133 23.3553C26.914 23.7207 26.914 23.9407 26.9811 24.2523C27.0912 24.1772 27.1905 24.0429 27.1905 24.0429L27.1912 24.0434Z" fill="#9A9A9A"/>
<path fill-rule="evenodd" clip-rule="evenodd" d="M20.2135 9.24102C20.2135 9.24102 20.0067 9.32688 19.655 9.32688C19.3489 9.32688 19.4348 9.2088 18.9568 9.2088C18.2211 9.2088 15.651 9.63366 15.1998 9.62765C14.907 9.62233 16.1879 9.75386 16.1879 9.75386L19.4617 9.79954L20.1195 9.74643L20.364 9.24899L20.2135 9.24102Z" fill="#8C8C8C"/>
<path fill-rule="evenodd" clip-rule="evenodd" d="M11.7248 15.6405C11.7248 15.6405 11.3057 15.9601 11.1285 16.2045C10.9513 16.449 10.8573 16.6099 10.6559 16.8087C10.7032 16.8105 10.7504 16.8042 10.7956 16.79C10.7956 16.79 10.7956 16.8431 10.7633 16.857C10.7912 16.8539 10.8194 16.8571 10.8458 16.8663C10.8723 16.8755 10.8964 16.8905 10.9163 16.9102C10.8572 16.9424 10.6961 17.1036 10.8223 17.2943C10.9163 17.4393 11.1151 17.4526 11.1151 17.4526C11.1151 17.4526 11.0694 17.5843 11.2601 17.5708C11.671 17.552 12.1302 17.372 12.3422 17.4177C12.5547 17.4708 12.6754 17.4903 12.8257 17.7508C12.985 18.0086 13.1238 18.049 13.1238 18.049C13.1238 18.049 13.2178 17.8098 13.1964 17.4527C13.2735 17.2603 13.3162 17.0558 13.3226 16.8485L13.1829 15.82L12.5734 15.0493L11.7839 15.487L11.7248 15.64V15.6405Z" fill="#C4C4C4"/>
<path fill-rule="evenodd" clip-rule="evenodd" d="M12.474 15.4874C12.474 15.4874 12.5331 15.6271 12.7803 15.6404C12.7533 15.6995 12.7533 15.7076 12.7615 15.7531C12.7668 15.7988 12.7748 15.8659 12.7748 15.8659C12.802 15.8527 12.8266 15.8347 12.8473 15.8128C12.8608 15.8719 12.8339 15.9657 12.8473 16.033C12.8556 16.0739 12.8692 16.1136 12.8875 16.1511C12.8914 16.1419 12.8959 16.133 12.901 16.1243C12.9063 16.1109 12.9541 16.2693 13.0863 16.3899C13.0862 16.3713 13.0908 16.3531 13.0996 16.3368C13.1016 16.3705 13.1128 16.4029 13.1318 16.4308C13.1219 16.4261 13.1129 16.4197 13.1051 16.412C13.1051 16.412 13.1184 16.8369 13.191 17.0566C13.2031 17.0424 13.2139 17.0271 13.2232 17.0109C13.2232 16.9976 13.2179 17.1291 13.2044 17.2233C13.1856 17.3173 13.1991 17.4489 13.1991 17.4489C13.2475 17.4107 13.3007 17.3791 13.3574 17.3549C13.4379 17.3225 13.5698 17.2231 13.6502 17.0029C13.6968 16.8782 13.7327 16.7498 13.7576 16.619C13.7836 16.6689 13.8015 16.7227 13.8107 16.7783C13.8162 16.8454 13.9424 16.8105 13.9424 16.8105L13.9693 16.5177L14.1287 15.8544L14.2736 15.4435L14.9718 14.356L16.2333 13.3845L17.3344 13.637L18.2635 12.3748L16.663 11.4133L15.1483 11.5718L13.7737 13.4757L12.6728 15.2026L12.474 15.4872V15.4874Z" fill="#B6B6B6"/>
<path fill-rule="evenodd" clip-rule="evenodd" d="M20.4068 12.7322C20.4068 12.7322 20.3127 12.7509 20.0415 12.8915C19.7703 13.032 19.5823 13.0766 19.4775 13.2834C19.3727 13.4902 19.3648 13.6541 19.3648 13.6541C19.3648 13.6541 19.5501 13.5736 19.6576 13.5466C19.7703 13.5199 19.8966 13.5279 19.8831 13.5736C19.8702 13.6049 19.8523 13.6339 19.83 13.6594C19.83 13.6594 20.0424 13.6541 20.0368 13.7589C20.0311 13.8637 19.9966 13.9791 19.9564 14.0301C19.916 14.0832 19.7496 14.1618 19.7309 14.2236C19.6852 14.3498 19.7496 14.3551 19.7254 14.4571C19.7066 14.5566 19.6181 14.7499 19.328 15.0882C19.0298 15.4267 18.9031 15.6657 18.9031 15.6657C18.9031 15.6657 18.7581 15.3944 18.6829 15.1608C18.6298 15.1875 18.3446 15.3459 18.3446 15.3459L17.6839 13.0446L17.6972 12.8915C17.6972 12.8915 17.7563 12.8191 17.7698 12.6847C17.6705 12.6525 17.657 12.6256 17.5253 12.4995C17.3936 12.3735 17.2863 12.2202 17.0663 12.1154C17.034 12.0563 16.9937 11.9759 16.8326 11.9435C16.6715 11.9111 16.5748 11.8845 16.5748 11.8845C16.5748 11.8845 16.6607 11.8522 16.7011 11.7851C16.6016 11.7985 16.5212 11.8307 16.3036 11.8254C16.0834 11.8199 16.0592 11.812 15.9384 11.8307C15.8177 11.8495 15.6729 11.9033 15.6189 11.718C15.5598 11.6723 15.4336 11.7127 15.3261 11.8709C15.2186 12.0292 15.1811 12.1556 14.9743 12.2174C14.9598 12.3085 14.9279 12.396 14.8803 12.4751C14.8212 12.5746 14.7272 12.6739 14.601 12.8215C14.4022 13.0552 14.4344 13.4392 14.1175 13.732C13.798 14.0246 14.1706 12.9209 14.1706 12.9209L14.6808 11.6994L16.1337 10.2787L18.3895 10.1258L18.6098 11.2942L19.7109 11.6728L20.4064 12.7336L20.4068 12.7322Z" fill="#AEAEAE"/>
<path fill-rule="evenodd" clip-rule="evenodd" d="M20.7641 12.9899L19.8161 11.623L19.1528 11.1127C19.1528 11.1127 18.6801 10.2428 18.6479 10.2159C18.621 10.1971 18.1753 10.1488 17.8906 10.13L17.9437 10.2615C18.0058 10.2817 18.061 10.3189 18.103 10.369C18.2292 10.514 18.3098 10.7878 18.0225 11.0806C18.1352 11.1208 18.1818 11.1337 18.2802 11.1208C18.1809 11.2391 17.9554 11.4915 17.9419 11.7117C17.9285 11.8916 18.0412 11.9452 18.0412 11.9452C18.0412 11.9452 17.8694 12.144 17.8614 12.4763C17.9426 12.3848 18.0314 12.3003 18.1269 12.2239C18.3257 12.0645 18.5996 11.8854 18.7849 11.7726C18.7824 11.8199 18.7888 11.8673 18.8037 11.9123C18.8037 11.9123 19.15 11.6276 19.441 11.7539C19.5725 11.813 19.5134 11.9983 19.5134 11.9983C19.5134 11.9983 19.6934 11.9312 19.8196 12.0575C19.9459 12.1837 20.1257 12.5085 20.2171 12.6349C20.2572 12.694 20.362 12.8068 20.4693 12.9812C20.6159 13.2256 20.7383 13.4837 20.8347 13.7519C20.84 13.6445 20.8616 13.4942 21.0471 13.4942L20.7651 12.9893L20.7641 12.9899Z" fill="#A2A2A2"/>
<path fill-rule="evenodd" clip-rule="evenodd" d="M6.55265 16.8731C6.55265 16.8731 6.48555 16.7065 6.55265 16.3817C6.61974 16.0568 6.72454 15.9037 6.75941 15.4257C6.79429 14.9478 7.10585 14.3515 7.10585 14.3515L7.96779 13.9596L8.57747 14.126L8.75733 14.9424L7.98656 15.3673C7.98656 15.3673 7.94637 15.5472 7.72881 15.6921C7.51124 15.8371 7.21047 15.9499 7.13807 16.0977C7.09479 16.1882 7.0632 16.2839 7.04407 16.3824C7.04407 16.3824 6.82385 16.3367 6.69232 16.4817C6.55265 16.6295 6.55796 16.761 6.55265 16.8738V16.8731Z" fill="#ECECEC"/>
<path fill-rule="evenodd" clip-rule="evenodd" d="M8.29275 16.6556C8.29275 16.6556 8.22017 16.7013 8.16653 16.815C8.11342 16.7291 7.98649 16.2187 7.98118 15.7595C7.97587 15.3003 7.94843 15.1865 8.05465 15.0282C8.16086 14.87 8.57741 14.7032 8.51828 14.4182C8.45915 14.147 8.21202 14.0342 7.9086 14.1121C7.69617 14.1652 7.53809 14.617 7.31787 14.8425C7.15128 15.0144 6.95266 14.9875 6.89902 15.0815C6.82644 15.2077 6.89353 15.334 6.87211 15.4145C6.86663 15.4414 6.79953 15.5864 6.67862 15.7609C6.43433 16.1127 6.0208 16.6096 5.96698 17.0554C5.98574 16.8029 5.97247 16.7976 6.03956 16.5183L5.9992 16.4512L6.26474 15.5811L6.43663 14.8641L6.82078 13.6635L7.49737 12.4364L8.15538 11.7005L8.84011 11.7462L8.92066 12.7747L9.31277 14.7057L10.1372 15.7208L8.81586 16.61L8.29222 16.6556H8.29275Z" fill="#CBCBCB"/>
<path fill-rule="evenodd" clip-rule="evenodd" d="M8.70366 17.0204C8.70366 17.0204 8.5909 17.0473 8.55053 17.0259C8.51017 17.0045 8.47016 16.9802 8.48344 16.9533C8.49672 16.9264 8.5693 16.8809 8.5693 16.8593C8.57079 16.8398 8.56462 16.8205 8.55209 16.8054C8.53956 16.7904 8.52167 16.7808 8.50221 16.7788C8.44042 16.7708 8.42166 16.811 8.42166 16.811C8.42166 16.811 8.36253 16.7655 8.31438 16.7579C8.34287 16.7544 8.37154 16.7526 8.40024 16.7524C8.32603 16.7188 8.24731 16.6962 8.16656 16.6853C8.23366 16.6451 8.36536 16.5269 8.45122 16.5269C8.53708 16.5269 8.5909 16.5136 8.57744 16.4679C8.56399 16.4222 8.4969 16.3551 8.42449 16.3282C8.45122 16.296 8.47016 16.2477 8.40573 16.1158C8.33846 15.9843 8.36536 15.8956 8.38696 15.8635C8.40573 15.8232 8.47282 15.7508 8.50504 15.7051C8.53726 15.6594 8.56416 15.5976 8.6178 15.5654C8.64471 15.5467 8.73057 15.5123 8.8166 15.4796C8.9106 15.4473 8.9885 15.407 9.04213 15.4473C9.10126 15.4875 9.07435 15.5414 9.07435 15.5414C9.07435 15.5414 9.2597 15.4741 9.4261 15.5601C9.59268 15.6405 9.99825 15.6916 9.99825 15.6916L10.1436 15.9844L9.18216 16.8089L8.78474 17.0077L8.70419 17.0209L8.70366 17.0204Z" fill="#C5C5C5"/>
<path fill-rule="evenodd" clip-rule="evenodd" d="M10.0382 15.6728C10.0382 15.6728 9.74013 15.8716 9.67304 15.944C9.71322 15.9495 9.78032 15.9764 9.75341 16.0165C9.72119 16.0567 9.52788 16.1964 9.42042 16.3281C9.30766 16.4596 9.2002 16.6262 9.16267 16.7068C9.12249 16.7792 8.81623 16.9914 8.71161 17.0182C8.93183 17.0182 9.37493 16.747 9.54133 16.747C9.53602 16.8275 9.587 16.9188 9.681 16.9268C9.775 16.9348 10.0462 16.9859 10.4114 16.7604C10.7766 16.5402 10.6559 16.3763 10.8088 16.269C11.1016 16.0755 11.2197 15.9036 11.3808 15.7963C11.5419 15.689 11.6253 15.6646 11.6253 15.6646C11.6253 15.6646 11.6306 15.5841 11.6784 15.5922C11.6915 15.5937 11.7039 15.5988 11.7143 15.6068C11.7247 15.6149 11.7328 15.6256 11.7375 15.6379C11.7375 15.6379 12.0169 15.4391 12.3748 15.3854C12.3665 15.3817 12.3598 15.375 12.356 15.3667C12.356 15.3667 12.3828 15.3532 12.3883 15.3398C12.3883 15.3398 12.407 15.3129 12.4205 15.3263C12.4339 15.3398 12.4527 15.4391 12.4796 15.4794C12.5387 15.4525 12.6515 15.2001 12.6515 15.2001L12.9229 14.424V13.715L12.7104 13.7554L11.1172 14.432L10.1503 15.4338L10.0375 15.6728H10.0382Z" fill="#BFBFBF"/>
<path fill-rule="evenodd" clip-rule="evenodd" d="M14.625 12.195C14.7112 12.174 14.7938 12.1405 14.8702 12.0955C14.838 12.1815 14.838 12.2755 14.6983 12.4796C14.5586 12.6837 14.5533 12.7133 14.4405 12.9254C14.3278 13.1456 14.3143 13.4625 14.2069 13.602C14.255 13.5786 14.3067 13.5632 14.3598 13.5565C14.3598 13.5565 14.2525 13.6505 14.2069 13.7498C14.1612 13.8491 14.0807 14.0559 13.882 14.1823C13.6834 14.3086 13.4308 14.389 13.1596 14.6871C12.8882 14.9798 12.609 15.3504 12.4692 15.4837C12.5418 15.3575 12.6411 15.1051 12.668 14.9387C12.6949 14.7723 12.6625 14.5733 12.7082 14.3533C12.7538 14.1332 12.7538 13.9746 12.9737 13.5905C13.1936 13.2063 13.5699 11.8717 13.5699 11.8717L14.3809 11.614L14.6254 12.1941L14.625 12.195Z" fill="#949494"/>
<path fill-rule="evenodd" clip-rule="evenodd" d="M14.0395 11.7036C14.0395 11.7036 13.7952 12.0553 13.7281 12.3669C13.661 12.6784 13.7226 12.6515 13.6825 12.8047C13.6584 12.898 13.6584 12.996 13.6825 13.0893C13.7671 12.953 13.8829 12.8388 14.0204 12.7562C14.2514 12.6167 14.4394 12.5172 14.5515 12.3991C14.6642 12.2729 14.7582 12.0661 15.0025 11.9077C14.9032 11.8942 14.7636 11.8485 14.737 11.8546C14.8365 11.7418 15.1344 11.5699 15.4352 11.3631C15.7333 11.1507 15.7145 11.065 16.198 10.8529C16.0396 10.8799 15.9643 10.8395 15.8326 10.8529C15.8857 10.7402 16.0716 10.6864 16.2575 10.5012C16.4434 10.316 16.1394 10.042 16.1394 10.042L14.7232 10.8986L14.0385 11.7043L14.0395 11.7036Z" fill="#9B9B9B"/>
<path fill-rule="evenodd" clip-rule="evenodd" d="M10.1967 11.0644L10.2289 10.8066L10.6345 10.1568L11.0588 9.01547V7.45516L11.0266 6.55286L11.0937 5.96194L11.1447 5.77412L11.1985 5.70154L11.5448 5.8814L12.0229 6.53126L12.0686 7.78549L11.6039 9.76464L10.2773 11.2122L10.1967 11.0644Z" fill="#BFBFBF"/>
<path fill-rule="evenodd" clip-rule="evenodd" d="M11.2521 5.62909C11.2521 5.62909 11.0397 5.63458 10.9944 6.51812C10.949 7.40165 10.9271 7.86617 10.8949 8.30396C10.8627 8.74174 10.7876 9.00746 10.7499 9.26538C10.7122 9.52331 10.6908 9.87489 10.57 10.0898C10.5169 10.1891 10.4035 10.5007 10.1376 10.7343C9.83945 10.9921 9.39405 11.1721 9.32661 11.1856C9.20835 11.2123 8.60947 11.2714 8.36518 11.4058C8.27932 11.4515 8.1315 11.5051 7.96775 11.6582C7.64274 11.9509 7.21044 12.4745 6.89887 13.1056C6.4209 14.0483 5.94293 16.7095 5.94293 16.7095L6.05039 16.5296C6.05039 16.5296 6.06384 16.2907 6.30283 15.8716C6.5365 15.4528 6.46941 14.9828 6.79425 14.1798C6.92047 13.8737 7.07891 13.4763 7.27222 13.1378C7.57847 12.5873 7.94899 12.1146 8.32234 11.8569C8.93184 11.438 9.6033 11.3467 9.6033 11.3467L10.3257 10.8687C10.3257 10.8687 10.452 10.6244 10.6185 10.3451C10.852 9.95313 11.1496 9.51535 11.2146 8.87894C11.3141 7.93627 11.0749 7.31863 11.0884 6.76011C11.1018 6.20159 11.1071 5.79072 11.2201 5.69123C11.333 5.59174 11.2523 5.62945 11.2523 5.62945L11.2521 5.62909Z" fill="#8C8C8C"/>
<path fill-rule="evenodd" clip-rule="evenodd" d="M11.2521 9.84519C11.2521 9.84519 11.5708 9.06097 11.7166 8.36543C11.7435 8.22576 11.7972 8.08626 11.8106 7.9735C11.8777 7.31549 11.8965 7.04429 11.8106 6.68439C11.7435 6.41885 11.4858 6.17951 11.3514 5.99399C11.2199 5.8005 11.1581 5.72845 11.185 5.68774C11.2119 5.64702 11.3166 5.58046 11.4185 5.58842C11.5269 5.59158 11.6335 5.61674 11.7319 5.66239C11.8302 5.70804 11.9183 5.77322 11.9907 5.85396C12.1974 6.09295 12.3612 6.90408 12.3612 6.90408L12.5334 7.97438L12.9712 9.32243L11.2525 9.84626L11.2521 9.84519Z" fill="#A0A0A0"/>
<path fill-rule="evenodd" clip-rule="evenodd" d="M14.2464 9.02889C14.2464 9.02889 14.1873 9.05562 14.08 9.02889C14.0846 9.07273 14.077 9.11698 14.058 9.15677C14.039 9.19656 14.0095 9.23035 13.9725 9.25442C13.8598 9.20875 12.8042 9.30009 12.8042 9.30009C12.8042 9.30009 12.3127 9.21406 12.1596 8.56419C12.0523 8.13172 12.2402 7.53567 12.1784 7.14356C12.0844 6.5661 11.9529 6.45316 11.9394 6.27348C11.9259 6.0938 11.9125 6.04795 11.9125 5.93518C11.8534 5.92173 11.8185 5.90296 11.7595 5.90296C11.7461 5.84985 11.7728 5.80347 11.7139 5.70947C11.7461 5.72293 11.9663 5.74983 12.2241 5.99413C12.4365 6.19293 12.4365 6.26533 12.4685 6.3057C12.5087 6.34588 12.8337 6.62434 12.9734 6.90192C13.1131 7.1795 13.3843 8.06463 13.4461 8.20961C13.4648 8.26874 13.5052 8.32786 13.6054 8.46205C13.7612 8.65554 13.9894 8.97542 14.2471 9.02853L14.2464 9.02889Z" fill="#8B8B8B"/>
<path fill-rule="evenodd" clip-rule="evenodd" d="M12.5064 6.31921C12.6691 6.58201 12.8152 6.85469 12.944 7.13566C13.1025 7.49272 13.1965 7.78552 13.3953 8.02451C13.2878 7.71312 13.0971 7.10078 12.9844 6.88322C12.8582 6.65309 12.6004 6.40525 12.5064 6.31939V6.31921Z" fill="#8C8C8C"/>
<path fill-rule="evenodd" clip-rule="evenodd" d="M10.6801 10.7342C10.6801 10.7342 10.4089 10.8013 9.90405 11.0672C9.73747 11.1531 9.57921 11.2255 9.42608 11.2928C9.0283 11.4726 8.60167 11.6388 8.2632 11.7305C8.29011 11.7628 8.30339 11.776 8.30339 11.776C8.30339 11.776 8.30339 11.9078 8.37597 11.9828C8.33578 12.0232 7.79851 12.3884 7.95712 13.6102C8.0644 13.57 8.19062 13.5162 8.20938 13.5162C8.24178 13.5217 8.24975 13.6102 8.28993 13.6102C8.33012 13.6102 8.46182 13.5571 8.6015 13.3765C8.59619 13.4491 8.51564 14.1795 8.94794 14.671C9.02848 14.577 9.23259 14.2654 9.23259 14.2654L9.2379 14.1661C9.2379 14.1661 9.25667 13.8196 9.36961 13.5028C9.48255 13.1859 9.7026 12.9522 9.7026 12.9522L10.8517 11.3114L10.6798 10.7341L10.6801 10.7342Z" fill="#C3C3C3"/>
<path fill-rule="evenodd" clip-rule="evenodd" d="M9.60592 13.1436C9.55331 13.1807 9.49535 13.2097 9.43402 13.2294C9.41526 13.1623 9.38835 12.9313 9.54679 12.7058C9.73214 12.4344 10.1375 12.0827 10.2503 11.803C10.3229 11.6229 10.2907 11.1719 10.9352 10.5944C11.5798 10.0169 11.832 9.81832 11.832 9.81832L12.874 9.29468L14.155 9.79956L13.5185 12.2938L13.0245 13.4622L11.0595 13.0917L9.60574 13.1436H9.60592Z" fill="#B9B9B9"/>
<path fill-rule="evenodd" clip-rule="evenodd" d="M10.356 12.4662L10.6005 12.1602V11.9426C10.6005 11.9426 10.8717 11.87 11.1643 11.5719C11.4569 11.2738 11.8625 10.7018 12.2198 10.7367C12.577 10.7771 12.6119 11.5128 12.6253 11.7197C12.6388 11.9267 12.6844 12.3963 12.7568 12.6489C12.8374 12.9014 11.8868 13.8573 11.8868 13.8573L11.2411 14.3487L10.356 12.4662Z" fill="#CCCCCC"/>
<path fill-rule="evenodd" clip-rule="evenodd" d="M11.1125 15.0147C11.1125 15.0147 11.3113 14.7031 11.1656 14.636C11.2515 14.4427 11.4099 14.2386 11.4099 14.2386C11.4099 14.2386 11.5227 13.9594 11.8879 13.6157C12.2531 13.2719 12.4788 13.0435 12.5379 12.8127C12.5743 12.6622 12.5942 12.5082 12.597 12.3535C12.6365 12.3857 12.6787 12.4144 12.7232 12.4393C12.7824 12.4662 13.0615 12.6971 13.0214 13.1618C12.9812 13.6264 12.8089 13.8198 12.8089 13.8198C12.8089 13.8198 12.6425 13.9862 12.5244 14.0722C12.398 14.1581 12.3525 14.2574 12.1403 14.2655C12.1621 14.2482 12.1866 14.2345 12.2129 14.2252C12.2129 14.2252 11.9927 14.1984 11.8744 14.3057C11.7562 14.413 11.5048 14.7435 11.3786 14.843C11.2523 14.9235 11.113 15.0149 11.113 15.0149L11.1125 15.0147Z" fill="#ADADAD"/>
<path fill-rule="evenodd" clip-rule="evenodd" d="M20.0417 9.79137C19.7244 9.67574 19.391 9.61051 19.0535 9.59806C18.4895 9.57929 17.6651 9.61151 16.8568 9.61682C15.9867 9.62213 15.1972 9.31871 14.1016 9.26507C13.9217 9.15762 13.4643 8.68761 12.0364 9.68391C12.1222 9.6786 13.073 9.46369 13.4032 9.8774C13.7362 10.2883 13.6422 10.9865 13.5967 11.1529C13.5106 11.5236 13.2313 12.0633 13.1187 12.442C13.0061 12.8206 13.0327 13.0196 12.9521 13.2852C12.8716 13.5507 12.6944 13.6826 12.799 13.9887C12.9387 13.9028 13.0114 13.9028 13.2448 13.3792C13.4781 12.8555 13.4301 12.4822 13.8169 12.0391C14.1956 11.5933 14.8259 10.9836 15.0656 10.8305C15.3053 10.6774 17.2085 9.68923 19.2013 10.6319C19.6819 10.5809 20.0418 9.79119 20.0418 9.79119L20.0417 9.79137Z" fill="#A8A8A8"/>
<path fill-rule="evenodd" clip-rule="evenodd" d="M12.8391 9.42606C12.8371 9.40588 12.8327 9.38602 12.8258 9.36693C12.8072 9.32766 12.7827 9.29143 12.7532 9.25948C12.7532 9.25948 12.2806 9.17362 12.0416 9.20035C11.6226 9.24602 11.2439 9.76435 11.0667 10.0302C10.8895 10.2961 10.6693 10.7068 10.4303 10.9191C10.4329 10.8984 10.4282 10.8775 10.4169 10.86C10.4169 10.86 10.4303 10.8787 10.4036 10.9056C10.3769 10.9325 10.3767 10.9458 10.3901 10.9587L10.4305 10.9989C10.4438 10.9989 10.8145 10.8323 11.3193 10.3616C11.8564 9.87021 12.2673 9.61813 12.4822 9.53174C12.5968 9.48304 12.7166 9.44758 12.8393 9.42606H12.8391Z" fill="#989898"/>
<path fill-rule="evenodd" clip-rule="evenodd" d="M22.0075 7.40686C22.0075 7.40686 21.9215 7.51414 21.8141 7.63239C21.5751 7.88483 21.2635 8.16931 20.9976 8.46211C20.7453 8.74146 20.4607 8.95903 20.141 9.32423C19.8213 9.68944 19.4506 10.0948 19.3568 10.2131C19.2709 10.3313 19.2038 10.5246 19.2038 10.624C19.1581 10.5917 19.1045 10.5569 19.1045 10.5569C19.1271 10.599 19.1541 10.6387 19.185 10.6751C19.2521 10.7691 19.3568 10.8875 19.4106 10.9598C19.4766 11.0517 19.524 11.1557 19.5501 11.2659C19.5823 11.2712 19.7891 11.3115 20.047 10.8872C20.3049 10.4629 20.643 9.99835 20.643 9.99835L21.1801 9.20067L21.5186 8.52407L21.9435 7.76675L22.0081 7.40686H22.0075Z" fill="#858585"/>
<path fill-rule="evenodd" clip-rule="evenodd" d="M22.5581 6.86456C22.5581 6.86456 22.2331 7.1301 22.1069 7.28943C21.9806 7.44875 21.682 7.86689 21.682 7.86689L21.7895 7.85343L22.3347 7.37015L22.5471 6.99149L22.5579 6.86527L22.5581 6.86456Z" fill="#8C8C8C"/>
<path fill-rule="evenodd" clip-rule="evenodd" d="M22.4586 28.2059C22.4586 28.2059 22.4533 27.9856 22.5768 27.8541C22.703 27.7224 23.0226 27.5291 23.3341 26.804C23.6457 26.0789 23.6804 25.9151 23.6804 25.9151C23.6804 25.9151 23.1219 26.3931 22.7776 26.5059C22.8581 26.3393 22.9038 26.2212 22.9442 26.1352C22.8985 26.095 22.7052 26.0493 22.6864 26.0279C22.7937 25.9205 22.8528 25.6572 23.0704 25.4827C23.3497 25.2702 23.8599 24.9052 24.2564 24.5798C24.653 24.2545 25.4326 23.4977 25.5321 23.2775C25.5912 23.3633 25.6045 23.417 25.6045 23.417C25.6045 23.417 25.2126 23.9273 25.0085 24.2522C24.8284 24.5315 24.8419 24.69 24.8419 24.69L25.2126 24.5306C25.2126 24.5306 25.3198 24.9281 24.8339 25.5324C25.0463 25.4519 25.132 25.5002 25.2527 25.4329C25.0539 25.5593 24.7801 25.7312 24.5223 26.2037C24.2699 26.6764 23.9261 27.2269 23.3462 27.5705C22.7822 27.9331 22.4572 28.2043 22.4572 28.2043L22.4586 28.2059Z" fill="#7E7E7E"/>
<path fill-rule="evenodd" clip-rule="evenodd" d="M21.003 10.0709C21.003 10.0709 20.7828 10.53 20.7506 10.8872C20.7453 10.9732 20.7237 11.0403 20.7237 11.1397C20.7184 11.4592 20.7424 11.8164 20.6706 11.9828C20.6437 11.9157 20.6302 11.8701 20.6033 11.8433C20.5631 11.9561 20.4905 12.3078 20.4314 12.4394C20.4047 12.3535 20.3455 12.0554 20.351 11.7037C20.3565 11.3519 20.3643 11.2846 20.3643 11.2122C20.351 11.3195 20.2785 11.4647 20.2515 11.5505C20.2114 11.4781 20.1657 11.3841 20.1119 11.3062C20.0797 11.3593 20.0395 11.4378 20.0046 11.4781C19.9991 11.4459 19.9858 11.3599 19.9777 11.2391C19.9724 11.0995 19.9642 10.9196 19.9724 10.8819C19.9857 10.8095 20.0986 10.5248 20.3376 10.2643C20.6222 9.95269 20.915 9.35399 21.0009 9.16865C21.0868 8.9833 21.452 8.21271 21.452 8.21271H21.7313L21.3257 9.13643C21.3257 9.13643 21.0814 9.64131 20.9552 9.82683C20.829 10.0124 20.5631 10.544 20.4449 10.7507C20.5307 10.638 20.6033 10.5788 20.6893 10.4714C20.7725 10.3961 21.0034 10.0713 21.0034 10.0713L21.003 10.0709Z" fill="#686868"/>
<path fill-rule="evenodd" clip-rule="evenodd" d="M22.5634 6.82928C22.5178 6.96972 22.4457 7.10012 22.351 7.21343C22.1844 7.41223 21.8272 7.67795 21.6528 7.89002C21.4935 8.09679 21.1748 8.6608 21.3196 9.32942C21.3727 9.18444 21.4728 8.89713 21.7386 8.57211C22.0045 8.24709 22.2892 7.87392 22.429 7.58395C22.5685 7.29115 22.5873 7.0603 22.5873 7.0603L22.6404 6.99321L22.6082 6.84008L22.5625 6.82928H22.5634Z" fill="#A9A9A9"/>
<path fill-rule="evenodd" clip-rule="evenodd" d="M28.0014 24.6422C28.0014 24.6422 27.8939 24.3496 27.8617 24.0837C27.8295 23.8178 27.9148 23.7651 27.8161 23.4608C27.7569 23.2754 27.6497 23.3014 27.6227 23.2754C27.5958 23.2494 27.5771 22.9693 27.5824 22.8162C27.5877 22.6631 27.5771 22.4644 27.5502 22.3784C27.51 22.3462 27.4831 22.3193 27.4239 22.1207C27.3569 21.9219 27.3246 21.8226 27.2924 21.7636C27.2602 21.7047 27.166 21.6508 27.166 21.5917C27.166 21.4735 27.2735 21.4119 27.2735 21.3793C27.2682 21.3122 27.1876 21.366 27.166 21.3471C27.1393 21.3148 27.2333 21.1215 27.1984 21.0946C27.185 21.0813 27.091 21.1941 27.0667 21.1619C27.0398 21.1295 27.0076 20.81 26.9593 20.5979C26.9138 20.3911 26.8652 20.2408 26.8599 20.179C26.8546 20.1199 26.4892 19.0779 26.4007 18.8255C26.3294 18.6122 26.2694 18.3953 26.2209 18.1756C26.194 18.0494 26.1752 17.7915 26.1617 17.8184C26.1483 17.8453 26.1564 17.9768 26.1348 17.9715C26.1161 17.966 26.049 17.507 26.0276 17.4344C26.0088 17.3618 25.8959 17.1158 25.8682 16.9377C25.8413 16.7577 25.7824 16.2877 25.742 15.9681C25.7017 15.6486 25.6829 15.5171 25.6829 15.437C25.6895 15.2413 25.6787 15.0454 25.6507 14.8516C25.5976 14.5131 25.4913 14.1023 25.3982 13.8635C25.2184 13.4122 24.7402 12.2575 24.6547 11.9702C24.6547 11.8976 24.7487 11.9379 24.7487 11.9379C24.7487 11.9379 24.9822 12.5234 25.1541 12.9744C25.3207 13.4257 25.4791 13.8231 25.5195 13.8635C25.5517 13.9036 25.8042 14.3467 25.9169 15.0718C26.0297 15.7969 26.0699 16.4656 26.1371 16.9113C26.1694 17.1237 26.1963 17.3491 26.2634 17.5746C26.3358 17.8191 26.4485 18.0715 26.5963 18.4582C26.7226 18.7832 26.8166 19.0544 26.8676 19.2881C26.9267 19.5862 26.9267 19.8117 26.9616 19.9595C26.9939 20.0857 27.0421 20.338 27.155 20.703C27.268 21.0681 27.4342 21.5382 27.547 21.8309C27.7674 22.4163 27.8656 22.9051 27.8989 23.1656C27.9283 23.4342 28.0278 24.3634 28.0009 24.6426L28.0014 24.6422Z" fill="#8C8C8C"/>
<path fill-rule="evenodd" clip-rule="evenodd" d="M22.5768 6.79712L22.5634 6.82934C22.5634 6.82934 22.6036 6.8428 22.5956 6.89661C22.5962 6.97024 22.5917 7.04382 22.5821 7.11683C22.5689 7.21083 22.5419 7.28324 22.5366 7.34236C22.5366 7.46858 22.5554 7.61357 22.3773 7.97346C22.3242 8.07277 22.2915 8.15863 22.2645 8.21776C22.1975 8.36274 22.184 8.38434 22.1249 8.45143C22.2189 8.39833 22.5573 8.18589 22.7291 8.21776C22.611 8.28485 22.431 8.41656 22.3182 8.58845C22.3451 8.59376 22.4579 8.61536 22.6368 8.58845C22.9349 8.54278 23.2679 8.43532 23.5606 8.45674C23.8803 8.47551 23.754 8.07277 23.754 8.07277L23.3851 7.26182L22.6869 6.77057L22.5768 6.7973V6.79712Z" fill="#9C9C9C"/>
<path fill-rule="evenodd" clip-rule="evenodd" d="M24.3975 12.8718C24.3975 12.8718 24.086 12.5603 23.9597 11.491C23.8335 10.4168 23.8604 8.83565 23.8604 8.83565L23.608 8.218C23.608 8.218 23.5549 7.80713 23.4226 7.65418C23.2904 7.50123 23.0307 7.2433 22.9125 7.11708C22.7942 6.99086 22.66 6.81897 22.5795 6.79206C22.6197 6.72497 22.7997 6.34631 23.4897 6.341C24.1798 6.33569 24.3926 6.71966 24.4646 6.85933C24.5367 6.999 24.862 7.60284 24.9828 8.75351C25.0955 9.90276 25.101 9.9888 25.0823 10.3862C25.0688 10.6064 24.9962 11.1166 24.8698 11.6617C24.7544 12.1237 24.6282 12.6394 24.3972 12.8729L24.3975 12.8718Z" fill="#7F7F7F"/>
<path fill-rule="evenodd" clip-rule="evenodd" d="M23.4206 13.7875C23.5244 13.795 23.6281 13.7716 23.7187 13.7203C23.818 13.715 24.1779 13.7606 24.4544 13.4089C24.4732 13.4892 24.5217 13.707 24.3953 13.9003C24.4625 13.833 24.5619 13.8063 24.5753 13.7875C24.5806 13.8868 24.6746 14.1929 24.2772 14.9368C24.3845 14.8187 24.5107 14.824 24.6235 14.8106C24.6289 14.9502 24.704 15.4201 24.5054 15.6727C24.3739 15.8446 24.1589 15.7908 24.1589 15.7908C24.1621 15.7532 24.1621 15.7155 24.1589 15.678C24.1536 15.6054 24.1267 15.533 24.1457 15.4847C24.0418 15.4372 23.9472 15.3717 23.8663 15.2912C23.6326 15.071 23.3292 14.6951 23.3078 14.4158C23.2809 14.1042 23.5602 14.0371 23.5602 14.0371C23.5368 14.0162 23.5169 13.9917 23.5011 13.9646C23.4877 13.9191 23.4742 13.8465 23.4206 13.7875Z" fill="#686868"/>
<path fill-rule="evenodd" clip-rule="evenodd" d="M21.3493 10.4093C21.3493 10.4093 21.3359 10.3905 21.2635 10.4763C21.2769 10.3905 21.2904 10.3098 21.2957 10.2319C21.33 10.1598 21.3743 10.0929 21.4274 10.0332C21.3871 10.1136 21.3601 10.1862 21.3601 10.1862C21.3601 10.1862 21.4596 10.0009 21.6046 9.88809C21.7039 9.80754 21.8301 9.77001 21.8838 9.69478C21.9429 9.61423 21.9295 9.60077 21.9429 9.58732C21.9429 9.58732 22.0746 9.50146 22.2761 9.24885C22.3028 9.21663 22.3432 9.18175 22.3701 9.14954C22.4156 9.13077 22.523 9.08244 22.6492 9.01783C22.781 8.94542 22.9286 8.84611 23.0199 8.8054C23.1998 8.72485 23.3906 8.73299 23.4791 8.6066C23.5462 8.58783 23.6186 8.38638 23.6054 8.21466C23.7047 8.25485 24.2149 8.57172 24.3896 9.2646C24.5158 9.75603 24.2901 10.5133 24.1961 10.8787C24.1021 11.2441 24.0888 11.5151 23.9571 11.6815C23.7905 11.9019 23.2536 12.2126 23.1219 12.3665C23.0091 12.4927 22.6708 12.8122 22.6841 13.043C22.6976 13.2149 22.9096 13.3086 22.9555 13.3412C23.0013 13.3737 23.001 13.4137 23.087 13.3943C23.1731 13.3748 23.2051 13.3351 23.2402 13.3351C23.2803 13.3405 23.2803 13.3486 23.2991 13.3486C23.3127 13.3482 23.3262 13.3464 23.3395 13.3431C23.3395 13.3431 23.326 13.5876 22.754 13.6618C22.7137 13.6672 22.6735 13.6805 22.6223 13.6887C22.6896 13.6564 22.7298 13.6564 22.8024 13.5571C22.7218 13.5437 22.4908 13.5302 22.4317 13.5115C22.4504 13.4792 22.5122 13.3932 22.5632 13.353C22.6089 13.3128 22.5579 13.2999 22.5177 13.3208C22.4485 13.3679 22.3821 13.4189 22.3189 13.4738C22.2518 13.5329 22.1927 13.6134 22.0852 13.6862C22.053 13.5787 22.0583 13.3746 22.1847 13.227C22.1523 13.2323 22.0906 13.3263 22.0316 13.3075C22.0209 13.2096 22.0273 13.1105 22.0504 13.0147C22.0826 12.8938 22.2571 12.6817 22.2571 12.6817L23.1003 11.1751L23.2802 10.0338L21.3493 10.4089V10.4093Z" fill="#96C8D8"/>
<path fill-rule="evenodd" clip-rule="evenodd" d="M21.3038 10.4737C21.3038 10.4737 21.2582 10.5059 21.3495 10.5677C21.3361 10.5864 21.3038 10.6535 21.2635 10.6992C21.218 10.7523 21.1695 10.7852 21.1507 10.8309C21.1105 10.9249 21.0783 10.9893 21.0783 11.0297C21.0783 11.0701 21.0649 11.3278 20.9521 11.4942C20.9117 11.5533 20.8661 11.6526 20.8338 11.7197C20.7667 11.8378 20.7076 11.9322 20.6942 11.9853C20.6674 12.0793 20.6487 12.337 20.6487 12.337C20.6487 12.337 20.7078 12.2644 20.7292 12.2377C20.6968 12.3048 20.6619 12.3772 20.611 12.431C20.6432 12.4041 20.7372 12.337 20.8956 12.1974C21.1158 12.0122 21.4596 11.7006 21.8787 11.4538C21.7523 11.4995 21.645 11.4995 21.5591 11.513C21.6262 11.4459 22.2304 10.7369 22.5473 10.6698C22.5665 10.6454 22.5761 10.6148 22.5742 10.5838L22.3028 10.557L21.7523 10.6751L21.6719 10.2502L21.3038 10.4731V10.4737Z" fill="#8F8F8F"/>
<path fill-rule="evenodd" clip-rule="evenodd" d="M22.1794 12.8905C22.1794 12.8905 22.1068 12.9629 22.0397 13.143C21.9881 13.089 21.9438 13.0285 21.908 12.9629C21.8087 12.7965 21.6557 12.5843 21.2985 12.7052C21.2932 12.5924 21.2851 12.5333 21.2985 12.4527C21.3576 12.4395 21.5375 12.2945 21.7174 12.0822C21.8438 11.9372 21.9618 11.7707 22.0424 11.5586C22.0955 11.5182 22.1874 11.4511 22.3079 11.3732C22.4798 11.2552 22.6866 11.0939 22.7188 10.914C22.6382 10.9462 22.4664 11.0268 22.2084 11.0135C22.3079 10.9678 22.4609 10.9195 22.4421 10.7207C22.4825 10.6938 22.5147 10.675 22.5147 10.675C22.4844 10.6649 22.4526 10.6604 22.4207 10.6616C22.4152 10.6428 22.4072 10.6161 22.3616 10.6294C22.3159 10.6426 22.3084 10.6428 22.3024 10.6616C22.2837 10.6671 22.2219 10.6616 22.1762 10.694C22.1305 10.7264 22.0043 10.8335 21.956 10.8522C21.9748 10.82 22.0015 10.7719 22.0015 10.7719C22.0015 10.7719 21.87 10.7851 21.776 10.825C21.6041 10.8841 21.4054 10.9916 21.204 11.0962C21.2227 11.064 21.2309 11.0431 21.2442 11.0371C21.2574 11.031 21.2898 11.0238 21.2898 11.0183C21.2898 11.0128 21.2766 10.9652 21.2845 10.9459C21.3447 10.8183 21.4158 10.6961 21.497 10.5807C21.591 10.4543 21.6097 10.2744 21.6097 10.2744L22.0206 10.0677L23.1753 9.80212L23.9247 9.8478L23.8307 10.3661L23.3881 11.2711L23.0095 12.0955L22.577 12.6006L22.1796 12.8905H22.1794Z" fill="#424242"/>
<path fill-rule="evenodd" clip-rule="evenodd" d="M24.0511 10.6475C24.0511 10.6475 23.5999 11.2061 23.4736 11.2921C23.5542 11.1202 24.0511 10.097 24.231 9.81233C24.1908 9.78011 24.137 9.78011 24.2632 9.28125C24.1559 9.53351 24.1182 9.66522 24.0297 9.73231C23.9412 9.7994 23.9302 9.77799 23.8704 9.77799C23.8817 9.75755 23.8863 9.73409 23.8836 9.71089C23.8836 9.71089 23.505 9.66522 23.2463 9.66522C22.9877 9.66522 22.4758 9.80489 22.1909 9.91766C21.9654 10.0117 21.8392 10.0117 21.7586 10.0706C21.6781 10.1377 21.6324 10.2103 21.592 10.229C21.5598 10.2478 21.4069 10.2961 21.3718 10.3471C21.3396 10.4002 21.286 10.4599 21.286 10.4733C21.286 10.4868 21.2725 10.5057 21.3129 10.4921C21.3261 10.4868 21.4256 10.433 21.5384 10.3659C21.6914 10.28 21.8767 10.1807 22.0111 10.1216C22.395 9.96847 22.5159 9.99537 22.6877 9.96315C22.8675 9.93094 23.1254 9.8557 23.2971 9.8557C23.469 9.85039 23.7941 9.8557 23.8693 9.86915C23.8371 9.89606 23.8102 9.92828 23.8236 10.041C23.8236 10.0733 23.7967 10.1081 23.7705 10.186C23.6901 10.4063 23.537 10.7715 23.4519 10.9568C23.3338 11.2091 23.1996 11.4213 23.1332 11.5528C23.0668 11.6844 22.9208 12.0308 22.7762 12.2162C22.6315 12.4015 22.5559 12.5143 22.5106 12.5546C22.4653 12.595 22.1399 12.8338 22.1642 12.9198C22.2233 12.9011 22.5967 12.7605 22.8677 12.4553C23.1387 12.1501 23.1927 11.9639 23.4048 11.7973C23.6169 11.6307 23.7834 11.3516 23.8827 11.1207C23.9659 10.9058 23.9472 10.8387 24.0518 10.6481L24.0511 10.6475Z" fill="#646464"/>
<path fill-rule="evenodd" clip-rule="evenodd" d="M14.3271 14.816C14.3271 14.816 14.268 15.0603 14.1336 15.1812C14.0021 15.2995 13.7684 15.4014 13.7417 15.6002C13.7094 15.7989 13.9753 15.8984 13.9753 15.8984C13.9753 15.8984 13.8302 16.1373 13.8302 16.3172C13.8302 16.5026 13.8249 16.5374 13.8436 16.7146C13.8223 16.7283 13.8042 16.7464 13.7905 16.7677C13.7905 16.7677 13.8038 16.9396 13.9355 17.0469C14.0672 17.1542 14.1798 17.2188 14.2469 17.1919C14.2571 17.2138 14.2661 17.2362 14.2738 17.2592C14.2738 17.2592 14.3733 17.0067 14.4404 16.7865C14.5075 16.561 14.5666 16.593 14.5933 16.2896C14.6201 15.9862 14.912 15.4652 14.912 15.4652L15.1111 15.02L14.7863 14.7675L14.3271 14.8158V14.816Z" fill="#929292"/>
<path fill-rule="evenodd" clip-rule="evenodd" d="M14.9312 15.2538C14.8642 15.3225 14.8024 15.3962 14.7462 15.474C14.6604 15.5923 14.5933 15.6995 14.467 15.7454C14.3408 15.7912 14.2603 15.7909 14.2682 15.9173C14.2762 16.0437 14.3945 16.0971 14.4616 16.1616C14.5341 16.2287 14.5933 16.3414 14.561 16.4678C14.6012 16.4491 14.6738 16.4275 14.7409 16.2825C14.808 16.1375 15.2773 15.254 15.2773 15.254H14.9312V15.2538Z" fill="#525252"/>
<path fill-rule="evenodd" clip-rule="evenodd" d="M16.7821 13.2153C16.7821 13.2153 16.8223 13.1081 16.7821 13.0302C16.7417 12.9496 16.4974 12.9227 16.3765 12.8314C16.2503 12.7374 16.0972 12.672 15.9709 12.7133C15.9897 12.6676 16.0649 12.5681 16.0032 12.5467C15.944 12.5279 15.724 12.6273 15.6649 12.6729C15.6057 12.7186 15.4714 12.7722 15.4446 12.8046C15.4179 12.837 15.3721 12.8986 15.3452 12.8717C15.3182 12.853 15.305 12.8046 15.2593 12.8314C15.2136 12.8581 14.9938 13.0381 14.9532 13.1429C14.9127 13.2477 14.8215 13.4814 14.5477 13.7471C14.2738 14.0128 14.1555 14.1849 14.2361 14.2842C14.3166 14.3835 14.3543 14.3111 14.3678 14.397C14.3781 14.4813 14.3736 14.5667 14.3543 14.6494C14.3221 14.7891 14.2685 14.9206 14.3409 14.9475C14.5262 15.0067 14.7063 14.8944 14.7465 14.9288C14.827 15.0012 14.7008 15.2617 14.8914 15.3127C15.0849 15.3658 15.2756 15.2671 15.2756 15.2671L15.9791 14.8884L16.6559 14.5313L17.0021 13.8464L16.8164 13.2745L16.781 13.2153H16.7821Z" fill="#B8B8B8"/>
<path fill-rule="evenodd" clip-rule="evenodd" d="M16.1182 14.8509C16.1182 14.8509 15.9999 14.671 16.1451 14.5124C16.2902 14.3538 16.4968 14.2869 16.5774 14.1876C16.562 14.1687 16.5415 14.1547 16.5182 14.1474C16.5717 14.0517 16.6533 13.9748 16.7519 13.927C16.7117 13.8868 16.6579 13.8546 16.599 13.8546C16.4673 13.8546 16.3865 13.9351 16.2658 13.9351C16.1477 13.9351 16.1343 13.876 16.1343 13.876C16.1343 13.876 16.3331 13.8572 16.3141 13.7686C16.2954 13.6746 16.261 13.6746 16.261 13.6746C16.261 13.6746 16.645 13.5152 16.7121 13.4303C16.7792 13.3453 16.7712 13.2449 16.7847 13.2047C16.8302 13.2047 17.096 13.0651 17.2035 13.1242C17.311 13.1833 17.2357 13.3444 17.2357 13.3444C17.2357 13.3444 17.5609 13.0999 17.7266 12.8602C17.8716 12.8737 17.939 12.7609 18.0453 12.7609C18.177 12.7609 18.3837 12.9408 18.4239 13.3248C18.4508 13.545 18.491 13.6712 18.4508 14.0606C18.4321 14.2809 18.4374 14.751 18.5039 14.9844C18.5494 15.1697 18.6569 15.1509 18.6569 15.1509C18.6404 15.2074 18.6077 15.2578 18.5629 15.2959C18.4903 15.363 18.4823 15.5404 18.4903 15.6075C18.501 15.6566 18.5145 15.705 18.5307 15.7525C18.5307 15.7525 18.4448 15.8518 18.4232 15.9191C18.4044 15.9862 18.3159 16.0318 18.2513 16.0318C18.1867 16.0318 18.2191 16.0263 18.1332 16.0318C18.0474 16.0373 18.0205 16.0506 17.9667 16.0318C17.9128 16.0131 17.8727 15.9915 17.8943 15.8194C17.913 15.6475 17.2309 15.2474 17.2309 15.2474L16.1157 14.85L16.1182 14.8509Z" fill="#A8A8A8"/>
<path fill-rule="evenodd" clip-rule="evenodd" d="M14.8373 16.5482C14.8373 16.5482 15.0816 16.8732 16.0861 16.8732C16.564 16.8732 16.7306 16.8276 16.8296 16.8006C16.937 16.7737 17.3397 16.6155 17.7453 16.1373C18.1105 15.705 18.03 15.5278 18.03 15.5278L17.8175 15.4956L17.1271 15.5896L15.0843 16.4597L14.8364 16.5482H14.8373Z" fill="#505050"/>
<path fill-rule="evenodd" clip-rule="evenodd" d="M15.5864 16.6287C15.5864 16.6287 14.7163 16.8222 14.7163 16.2716C14.7163 15.7345 15.2534 15.1705 15.3878 15.0712C15.5274 14.9717 15.8604 14.8588 15.8604 14.8588H16.6634L16.8164 15.2643L16.7493 16.1397L15.5864 16.6285V16.6287Z" fill="#212121"/>
<path fill-rule="evenodd" clip-rule="evenodd" d="M16.3895 15.0229C16.3895 15.0229 16.2231 14.8698 15.8444 15.076C15.4657 15.2822 15.1595 15.7133 15.1407 16.1047C15.122 16.451 15.4254 16.7089 15.898 16.7223C16.2498 16.7356 16.462 16.6954 16.5695 16.6692C16.5426 16.637 16.4029 16.4625 16.4029 16.4625L16.3896 15.0231L16.3895 15.0229Z" fill="#B1B1B1"/>
<path fill-rule="evenodd" clip-rule="evenodd" d="M16.2257 15.1086C16.2257 15.1086 16.1855 15.0764 16.0664 15.1409C15.967 15.194 15.8221 15.3343 15.7093 15.4337C15.6367 15.4928 15.591 15.5195 15.55 15.5652C15.3834 15.764 15.2437 16.089 15.3244 16.2501C15.4052 16.4112 15.6709 16.5965 16.3476 16.4703L16.2237 15.1088L16.2257 15.1086Z" fill="#D5D5D5"/>
<path fill-rule="evenodd" clip-rule="evenodd" d="M16.0055 15.4417C16.0055 15.4417 15.898 15.6083 15.898 15.8742C15.898 16.1454 16.0512 16.5777 16.6152 16.6099C17.0475 16.6368 17.3374 15.987 17.6516 15.7345C17.8906 15.5412 18.0356 15.5357 18.0356 15.5357C18.0356 15.5357 17.7913 15.2702 17.1388 14.9262C16.4943 14.5798 15.7718 14.5341 15.3797 15.0659C15.565 15.0524 16.1639 14.8993 16.1639 14.8993L16.4567 14.9933L16.0055 15.4419V15.4417Z" fill="#212121"/>
<path fill-rule="evenodd" clip-rule="evenodd" d="M16.8486 15.7935C16.8299 15.7534 16.8164 15.6995 16.8943 15.6863C16.9722 15.673 17.0071 15.6808 17.034 15.7394C17.0609 15.798 17.0871 15.8468 17.0473 15.8711C17.0071 15.8925 16.9023 15.8711 16.8485 15.7932L16.8486 15.7935ZM16.7224 15.4149C16.7224 15.4149 16.6955 15.4336 16.709 15.3961C16.7143 15.3506 16.7493 15.2699 16.8352 15.2888C16.921 15.3078 16.9025 15.4016 16.8883 15.4285C16.8741 15.4554 16.8024 15.5009 16.7486 15.4816C16.7418 15.4799 16.7355 15.4765 16.7302 15.4719C16.7249 15.4673 16.7208 15.4614 16.7181 15.4549C16.7155 15.4484 16.7145 15.4413 16.7151 15.4343C16.7157 15.4273 16.718 15.4205 16.7217 15.4145L16.7224 15.4149Z" fill="#666666"/>
<path fill-rule="evenodd" clip-rule="evenodd" d="M9.45319 15.5865C9.45319 15.5865 9.66562 15.7459 9.91239 15.7397C10.1567 15.7342 10.4709 15.4819 10.6159 15.3206C10.7017 15.2266 10.7752 15.1273 10.8549 15.0494C10.9221 14.9824 10.9676 14.9501 10.9999 14.9045C11.0455 14.8514 11.0939 14.7515 11.1181 14.7191C11.059 14.7648 10.9731 14.8455 10.8844 14.8992C10.7986 14.9523 10.6132 15.0521 10.538 15.079C10.4656 15.1059 9.71359 15.5039 9.71359 15.5039L9.45319 15.5865Z" fill="#929292"/>
<path fill-rule="evenodd" clip-rule="evenodd" d="M9.77783 13.6024C9.77783 13.6024 9.89591 13.5218 10.1243 13.4706C10.3445 13.4175 10.7876 13.3766 10.7876 13.3766L11.1528 13.536L11.2978 14.0865L11.0322 14.6587L10.6939 14.8711L10.3098 14.2535L9.77872 13.6034L9.77783 13.6024Z" fill="#8D8D8D"/>
<path fill-rule="evenodd" clip-rule="evenodd" d="M9.29992 14.0938L9.17352 14.1881C9.17352 14.1881 9.20592 14.129 9.23265 13.9491C9.25938 13.7693 9.39923 13.3315 9.60334 13.079C9.80745 12.8266 9.80214 12.8401 9.80214 12.8401C9.78336 12.8366 9.76406 12.8372 9.74553 12.8418C9.727 12.8464 9.70967 12.855 9.69469 12.8668C9.72159 12.8073 9.89349 12.5949 10.0654 12.4887C10.2373 12.3824 10.3044 12.349 10.4842 12.4355C10.6641 12.5221 10.7098 12.5671 10.8415 12.5618C10.9732 12.5565 11.0858 12.4168 11.0858 12.4168C11.0858 12.4168 11.1127 12.5026 11.0134 12.7014C10.914 12.9002 10.5219 13.3056 10.5219 13.3056L9.70549 13.8642L9.29992 14.0943V14.0938Z" fill="#C9C9C9"/>
<path fill-rule="evenodd" clip-rule="evenodd" d="M9.90385 13.5352C9.90385 13.5352 10.4948 13.6157 10.6746 13.4493C10.6799 13.4681 10.7015 13.4681 10.7015 13.4815C10.7001 13.4917 10.6954 13.5011 10.6881 13.5083C10.7076 13.5051 10.7274 13.5034 10.7472 13.5029C10.7708 13.51 10.7952 13.5145 10.8198 13.5164C10.8396 13.516 10.8593 13.5141 10.8789 13.5109C10.877 13.5243 10.8725 13.5371 10.8656 13.5487C10.8586 13.5602 10.8494 13.5703 10.8385 13.5782C10.8655 13.5782 10.8917 13.5835 10.8917 13.6049C10.8917 13.6263 10.897 13.6909 10.8647 13.7044C10.8381 13.7118 10.8096 13.7098 10.7842 13.6989C10.7863 13.7498 10.8001 13.7994 10.8246 13.8441C10.8777 13.9434 10.991 14.0565 11.1432 14.0239C11.1432 14.0239 11.2236 14.2172 10.8853 14.6469C10.8398 14.706 10.7913 14.7866 10.7323 14.8537C10.709 14.9044 10.6912 14.9575 10.6792 15.0121C10.6792 15.0121 11.2514 14.7919 11.4151 14.2896C11.5817 13.7848 11.6139 13.288 11.5817 12.8235C11.5762 12.6918 11.5548 12.598 11.5226 12.5307C11.442 12.3641 11.2163 12.391 11.1251 12.485C10.9934 12.6168 10.7732 12.9442 10.4671 13.1698C10.1556 13.3953 10.1423 13.4353 9.90314 13.5352H9.90385Z" fill="#BBBBBB"/>
<path fill-rule="evenodd" clip-rule="evenodd" d="M9.19515 14.2603C9.19515 14.2603 9.08238 14.3274 9.02326 14.579C8.96413 14.8367 9.07636 15.1509 9.14133 15.2503C9.2063 15.3496 9.35376 15.621 9.65967 15.6344C9.73538 15.634 9.81026 15.6185 9.87989 15.5887C9.98668 15.5398 10.0868 15.4775 10.178 15.4034C10.3097 15.3041 10.417 15.2182 10.4035 15.2101C10.3713 15.1966 9.59257 14.5521 9.59257 14.5521L9.29977 14.2253L9.19497 14.2607L9.19515 14.2603Z" fill="#505050"/>
<path fill-rule="evenodd" clip-rule="evenodd" d="M9.93117 15.3289C9.93117 15.3289 10.0896 15.3156 10.1836 15.2565C10.2776 15.1974 9.63306 14.5583 9.63306 14.5583L9.67873 15.2487L9.93117 15.3289Z" fill="#3B3B3B"/>
<path fill-rule="evenodd" clip-rule="evenodd" d="M9.24605 14.2118C9.24605 14.2118 9.1655 14.3649 9.1655 14.4052C9.15205 14.5368 9.19241 14.9503 9.22463 15.0818C9.25685 15.2215 9.43139 15.4336 9.6571 15.4336C9.7966 15.4336 9.99009 15.3477 9.99009 15.3263C9.99009 15.2994 9.79129 15.2732 9.73765 15.1732C9.70543 15.1201 9.69198 14.988 9.68454 14.8545C9.67923 14.7687 9.67923 14.6747 9.71145 14.6421C9.78403 14.5616 9.79731 14.3305 9.79731 14.3305L10.0551 13.8517H9.71605L9.31049 14.1041L9.24605 14.2118Z" fill="#96C8D8"/>
<path fill-rule="evenodd" clip-rule="evenodd" d="M9.14679 14.3597C9.14679 14.3597 9.41233 14.008 9.65167 13.9273C9.891 13.8465 9.9981 13.895 9.9981 13.895L9.85843 14.2523L9.65963 14.4725L9.67309 14.5853C9.67309 14.5853 9.64069 14.8834 9.83949 15.0901C10.0383 15.2969 10.1859 15.2889 10.272 15.2889C10.358 15.2889 10.6049 15.2164 10.7312 14.9183C10.8439 14.6391 10.9379 14.281 10.7124 13.9219C10.492 13.5647 10.1027 13.5509 10.0275 13.5509C9.95225 13.5509 9.36152 13.5805 9.14679 14.3592V14.3597Z" fill="#212121"/>
<path fill-rule="evenodd" clip-rule="evenodd" d="M15.9652 15.5544C15.8659 15.5087 15.9599 15.2296 16.0592 15.1435C16.1585 15.0575 16.2847 14.9583 16.5051 14.9447C16.5855 14.9394 16.6634 14.9904 16.6501 15.0442C16.6313 15.1435 16.4917 15.2832 16.3654 15.3825C16.1909 15.5195 16.0779 15.6054 15.9652 15.5544Z" fill="#F5F5F5"/>
<path fill-rule="evenodd" clip-rule="evenodd" d="M10.5941 14.0319C10.6667 14.0266 10.7607 14.085 10.7794 14.1636C10.7982 14.2495 10.7338 14.4213 10.5941 14.4213C10.4813 14.4213 10.4222 14.2817 10.4222 14.2415C10.4235 14.2084 10.4327 14.1762 10.4491 14.1475C10.4544 14.1393 10.4679 14.0453 10.5941 14.0319Z" fill="#F4F4F4"/>
<path fill-rule="evenodd" clip-rule="evenodd" d="M9.54683 14.0938C9.54683 14.0938 9.36148 14.1797 9.27562 14.3593C9.21427 14.492 9.19571 14.6405 9.22251 14.7842C9.23597 14.8513 9.30306 15.0177 9.34873 15.0768C9.39441 15.136 9.45619 15.1763 9.50186 15.1708C9.54753 15.1653 9.64136 15.0446 9.64136 14.9722C9.64136 14.8998 9.64685 14.5936 9.73536 14.427C9.81325 14.2606 9.54736 14.094 9.54736 14.094L9.54683 14.0938Z" fill="#C2C2C2"/>
<path fill-rule="evenodd" clip-rule="evenodd" d="M9.57368 14.0801C9.54146 14.0989 9.48782 14.1258 9.5011 14.1607C9.51455 14.1929 9.62731 14.2138 9.66768 14.2924C9.71335 14.3729 9.71335 14.4588 9.6999 14.4991C9.73497 14.4825 9.7668 14.4597 9.7939 14.4319C9.85302 14.3648 9.92543 14.2736 9.98721 14.2736C10.0276 14.2736 10.0678 14.2924 10.1055 14.2924C10.1646 14.2924 10.2235 14.2736 10.2317 14.2118C10.245 14.1313 10.1189 14.0587 10.0463 14.0722C10.0598 14.019 10.0786 13.9406 10.0194 13.8868C9.9603 13.833 9.77513 13.9272 9.73477 13.9541C9.69441 13.981 9.57368 14.0803 9.57368 14.0803V14.0801Z" fill="#D3D3D3"/>
<path fill-rule="evenodd" clip-rule="evenodd" d="M13.8409 19.7223L14.2384 19.6049L14.3511 19.6855C14.3511 19.6855 14.4315 19.8574 14.5579 19.8788C14.5175 19.9646 14.4127 20.0381 14.4182 20.099C14.4237 20.1599 14.4773 20.2065 14.4773 20.2065C14.4773 20.2065 14.1201 20.7972 14.8238 21.3925C14.6572 21.4596 14.4451 21.5519 14.3324 21.605C14.4127 21.6237 14.5846 21.6581 14.6572 21.7232C14.7298 21.7884 14.7298 21.8091 14.7969 21.8494C14.864 21.8898 14.9041 21.9434 14.8909 21.9675C14.8452 21.9406 14.6921 21.8602 14.6653 21.9353C14.6386 22.0104 14.002 21.981 14.002 21.981L12.9278 22.1877C12.9278 22.1877 12.968 22.0803 12.8552 21.981C12.7237 21.8629 12.5626 21.9863 12.3907 21.8547C12.1652 21.6829 12.1571 21.4841 12.0847 21.409C12.1571 21.3633 12.3049 21.2962 12.6566 21.2497C12.6432 21.2228 12.5975 21.1422 12.6244 21.0698C12.6566 20.9758 12.7908 20.9167 12.7506 20.8043C12.8098 20.7908 12.8365 20.7908 12.9843 20.6055C13.124 20.4201 13.2098 20.3799 13.3173 20.3665C13.4247 20.353 13.4892 20.3665 13.688 20.1811C13.8275 20.0496 13.782 19.9368 13.782 19.9368C13.782 19.9368 13.8731 19.9073 13.8411 19.7219L13.8409 19.7223Z" fill="#ACACAC"/>
<path fill-rule="evenodd" clip-rule="evenodd" d="M12.6674 19.7819C12.6727 19.755 12.6943 19.7416 12.8393 19.755C12.9843 19.7685 13.9027 19.6692 14.1525 19.6557C14.4049 19.637 15.2938 19.6502 15.7263 19.7416C16.1587 19.8329 16.5963 19.9404 16.8084 19.994C17.0208 20.0532 17.0878 20.0744 17.0796 20.1013C17.0743 20.1282 17.0265 20.1544 16.9991 20.147C16.9723 20.1417 16.2687 19.9268 16.0513 19.8814C15.8339 19.8361 15.0817 19.7149 14.6705 19.7221C14.2865 19.7276 14.1334 19.7168 13.8085 19.7543C13.4835 19.7947 12.9464 19.8483 12.7853 19.8269C12.626 19.8081 12.6589 19.8081 12.6671 19.7812L12.6674 19.7819Z" fill="#BBBBBB"/>
<path fill-rule="evenodd" clip-rule="evenodd" d="M14.8292 21.8869C14.8292 21.8869 15.3797 22.185 15.5785 22.5502C15.7235 22.8214 15.4926 22.9557 15.4926 22.9557C15.4926 22.9557 15.8042 22.9557 15.7638 23.1276C15.7451 23.2349 15.2268 23.5249 14.8803 23.678C14.5286 23.8311 14.542 23.8232 14.3701 23.8499C14.2035 23.8768 13.747 23.7968 13.653 23.9304C13.559 24.0641 13.5999 24.2018 13.6261 24.2233C13.653 24.242 13.8706 24.2689 13.8706 24.2689C13.8706 24.2689 13.8249 24.3951 13.3738 24.4086C12.9228 24.422 12.8098 24.4541 12.7829 24.5026C12.756 24.5481 12.8688 24.5214 13.0757 24.5557C13.2825 24.5879 13.5724 24.6088 13.5724 24.6088C13.5724 24.6088 13.4784 24.6894 13.2341 24.7538C12.9548 24.8262 12.517 24.8935 12.3855 24.974C12.4526 25.0197 12.5521 25.0868 12.5979 25.0921C12.4852 25.119 12.3265 25.1781 12.2998 25.1995C12.34 25.2265 12.3938 25.2587 12.3938 25.2587C12.3938 25.2587 12.1681 25.5299 12.0366 25.5971C11.905 25.6644 11.1477 26.016 10.8871 25.9489C10.2373 25.777 10.1567 25.0654 9.99829 25.0117C9.7593 24.9312 9.64654 25.0921 9.43429 24.9793C9.52829 24.9122 9.57945 24.872 9.67876 24.8264C9.5713 24.7733 9.01544 24.4208 9.01544 24.4208C8.95731 24.2941 8.89279 24.1705 8.82213 24.0503C8.71468 23.8649 8.55659 23.6178 8.43798 23.4003C8.18023 22.9223 8.16678 22.7021 7.93311 22.4309C7.97347 22.3778 8.11296 22.3852 8.11296 22.3852L10.0709 23.0297L13.5425 23.1303L14.4454 21.8414L14.8293 21.887L14.8292 21.8869Z" fill="#C4C4C4"/>
<path fill-rule="evenodd" clip-rule="evenodd" d="M9.68658 23.8526C9.70753 23.8759 9.73196 23.8958 9.75899 23.9117C9.82626 23.9574 9.92557 24.0112 9.99266 24.0915C10.0196 24.0514 10.0867 23.9788 10.2051 24.0915C10.3235 24.2043 10.4706 24.1239 10.5622 24.1507C10.6562 24.1831 10.6615 24.1963 10.6615 24.1963C10.6615 24.1963 10.7146 24.1507 10.8334 24.1023C10.9059 24.0754 10.9918 24.0567 11.0858 24.0299C11.1717 24.0112 11.2657 23.9843 11.3303 23.9843C11.3894 24.0245 11.6015 24.2498 12.4528 23.9172C13.2558 23.6056 13.441 23.5707 13.5753 23.6189C13.5888 23.5867 13.6022 23.5249 13.809 23.533C13.809 23.4472 13.6371 23.1544 13.6371 23.1544L12.6891 22.8295H12.1706L10.6158 23.1142L9.75421 23.6058L9.68712 23.8536L9.68658 23.8526Z" fill="#A7A7A7"/>
<path fill-rule="evenodd" clip-rule="evenodd" d="M9.16821 23.3074C9.16821 23.3074 9.18698 23.4524 9.40189 23.6055C9.61432 23.7585 9.68106 23.8498 9.68106 23.8498C9.68106 23.8498 9.72142 23.7967 9.75364 23.7426C9.78586 23.6834 9.81276 23.6163 9.8664 23.5976C9.97386 23.5519 10.2182 23.6378 10.272 23.6243C10.3176 23.611 10.3042 23.517 10.3525 23.517C10.4653 23.5115 10.5377 23.5894 10.578 23.5894C10.6184 23.5894 10.7175 23.5841 10.731 23.5627C10.7445 23.5413 10.7498 23.3182 10.9029 23.2108C11.0695 23.0927 11.2736 23.1437 11.3278 23.1706C11.3278 23.2108 11.3331 23.3103 11.4405 23.3156C11.548 23.3209 11.5586 23.3021 11.653 23.3343C11.7473 23.3666 11.8597 23.329 11.9107 23.4873C11.9564 23.474 12.0638 23.4606 12.0369 23.3074C12.09 23.2673 12.1364 23.2403 12.2494 23.0819C12.2763 23.0417 12.3218 22.996 12.3568 22.9369C12.4508 22.9369 12.5636 22.9182 12.7139 23.0497C12.6682 23.0819 12.6413 23.1028 12.628 23.1355C12.6673 23.1745 12.7032 23.2167 12.7353 23.2618C12.7756 23.3149 12.8026 23.38 12.8535 23.3935C12.9663 23.4257 13.1517 23.38 13.3584 23.3935C13.5572 23.4069 13.7236 23.4793 13.7962 23.525C13.8231 23.5117 13.8231 23.5062 13.8902 23.5197C13.9573 23.5331 14.0083 23.5385 13.9359 23.4526C13.9761 23.4714 14.0217 23.5117 14.0621 23.4714C14.1025 23.431 14.1345 23.3721 14.2473 23.3586C14.36 23.3451 14.4004 23.3639 14.4461 23.2458C14.5052 23.1008 14.3011 23.1008 14.3011 23.1008C14.3011 23.1008 14.3951 23.0148 14.4999 22.902C14.6261 22.784 14.7711 22.6308 14.806 22.4428C14.8651 22.0964 14.5268 22.0509 14.5268 22.0509L12.8859 22.5558L10.8799 22.4563L9.16928 23.3076L9.16821 23.3074Z" fill="#7D7D7D"/>
<path fill-rule="evenodd" clip-rule="evenodd" d="M7.69381 18.5676C7.69381 18.5676 7.6407 18.6347 7.60795 18.7931C7.5752 18.9516 7.58919 18.9328 7.56228 19.0456C7.53537 19.1584 7.20486 20.2809 7.32878 20.6595C7.4527 21.0382 7.66726 21.1779 7.80144 21.484C7.82835 21.551 7.85455 21.5914 7.86853 21.6505C7.91421 21.8492 7.87402 22.0023 7.92766 22.2011C7.94643 22.2682 7.99493 22.3461 8.06733 22.4266C8.22666 22.593 8.48635 22.7515 8.59841 22.8642C8.75667 23.0308 8.98238 23.3693 9.2697 23.4013C9.42282 23.4201 9.64039 23.3557 9.82025 23.2484C9.97957 23.1489 10.078 23.0094 10.2451 22.9297C10.3632 22.8706 10.4894 22.8492 10.6022 22.8223C10.8358 22.7766 11.0481 22.7692 11.1743 22.7954C11.3676 22.8357 11.8242 22.9754 12.0771 22.9754C12.2748 22.9722 12.4714 22.9452 12.6626 22.8949C13.0465 22.7821 13.5111 22.5886 13.8173 22.5027C13.9972 22.4496 14.1422 22.4356 14.29 22.4034C14.5424 22.3443 14.7545 22.2638 14.8754 22.1106C14.7949 22.0166 14.6955 21.8716 14.1583 21.877C13.5488 21.8904 12.8451 22.2287 12.4986 22.2825C12.1522 22.3363 12.0019 22.3818 11.6151 22.2422C11.2359 22.1011 11.2234 22.0078 11.2234 22.0078C11.2234 22.0078 10.8252 21.7293 10.6586 21.0194C10.4921 20.3096 10.6586 19.7923 11.0911 19.3007C11.2039 19.1745 11.177 19.0617 11.177 19.0617C11.177 19.0617 11.4616 18.6777 11.3837 18.3182C11.2979 17.9609 10.7473 18.0335 10.7473 18.0335L7.69399 18.5676H7.69381Z" fill="#636363"/>
<path fill-rule="evenodd" clip-rule="evenodd" d="M8.15307 19.7628C8.12939 19.8073 8.11826 19.8574 8.12085 19.9077C8.12616 19.9801 8.14776 20.0741 8.36515 20.2864C8.55049 20.4716 8.51013 20.6783 8.51013 20.6783C8.51013 20.6783 8.60342 20.6971 8.85657 20.5787C9.05537 20.4847 9.12211 20.6512 9.12211 20.6512C9.17998 20.6209 9.24271 20.6009 9.30746 20.5921C9.36613 20.5867 9.42291 20.5686 9.47386 20.539C9.47386 20.539 9.70754 20.778 9.91165 20.8907C10.097 20.9902 10.2044 21.0573 10.2958 20.9902C10.3817 20.9311 10.3817 20.8102 10.3762 20.7566C10.3549 20.7071 10.3279 20.6602 10.2958 20.6169C10.2367 20.531 10.1427 20.4315 10.1365 20.3514C10.123 20.1662 10.2761 19.9458 10.2437 19.8922C10.2114 19.8385 10.0908 19.8251 9.79269 19.9325C9.48395 20.0345 8.15183 19.7633 8.15183 19.7633L8.15307 19.7628Z" fill="#333333"/>
<path fill-rule="evenodd" clip-rule="evenodd" d="M8.85662 20.963C8.85662 20.963 8.70368 20.8181 8.75732 20.1144C8.82225 20.1135 8.88708 20.1198 8.95062 20.1332C8.95062 20.1332 9.034 20.6784 8.85662 20.963Z" fill="#232323"/>
<path fill-rule="evenodd" clip-rule="evenodd" d="M7.76649 18.0306C7.78783 18.0148 7.80763 17.9971 7.82562 17.9775C7.77251 18.0768 7.52733 18.4743 7.72613 19.1C7.92493 19.723 8.42432 20.1875 9.03931 20.2091C9.65429 20.2307 9.97754 19.9298 10.3472 19.4787C10.4922 19.2988 10.6587 19.0731 10.8064 18.9202C11.0266 18.681 11.1985 18.6139 11.1985 18.3831C11.1985 17.9104 10.715 17.6982 10.0034 17.4861C9.29174 17.274 8.64985 17.3002 8.31686 17.4454C7.99202 17.6036 7.85235 17.7702 7.76631 18.0308L7.76649 18.0306Z" fill="#212121"/>
<path fill-rule="evenodd" clip-rule="evenodd" d="M10.0518 21.1751L10.1049 21.1482C10.1049 21.1482 10.1182 20.9358 10.2042 20.9415C10.2901 20.9549 10.3304 21.0679 10.3223 21.108C10.317 21.1482 10.2956 21.2155 10.2095 21.2073C10.0968 21.21 10.0513 21.1751 10.0513 21.1751H10.0518Z" fill="#383838"/>
<path fill-rule="evenodd" clip-rule="evenodd" d="M9.81274 20.2727C9.81274 20.2727 9.86585 20.254 9.93082 20.3184C9.98393 20.3184 10.2155 20.2915 10.2881 20.3372C10.3606 20.3829 10.3821 20.4231 10.3821 20.4231C10.3821 20.4231 10.1109 20.4822 9.96304 20.4231C9.81274 20.3721 9.81274 20.2727 9.81274 20.2727Z" fill="#272727"/>
<path fill-rule="evenodd" clip-rule="evenodd" d="M11.0078 20.3131C11.0078 20.2996 10.8628 20.2003 10.7097 20.1679C10.6828 20.1626 10.6773 20.1814 10.6566 20.1814C10.6431 20.176 10.6378 20.1357 10.6378 20.1357L10.5507 20.1815C10.5507 20.1815 10.5373 20.2003 10.583 20.2346C10.6231 20.2669 10.6904 20.2938 10.7092 20.3474C10.7279 20.401 10.7279 20.4198 10.7361 20.4279C10.7414 20.4332 10.8354 20.4279 10.8811 20.401C10.9267 20.3741 11.0128 20.3302 11.0073 20.3125L11.0078 20.3131Z" fill="#96C8D8"/>
<path fill-rule="evenodd" clip-rule="evenodd" d="M9.65167 20.8584C9.65167 20.8584 9.6784 20.6732 9.85844 20.6651C10.0436 20.6516 10.0787 20.8315 10.0787 20.8315L9.9712 20.9389C9.9712 20.9363 9.89066 20.8235 9.65256 20.8584H9.65167Z" fill="#272727"/>
<path fill-rule="evenodd" clip-rule="evenodd" d="M10.8199 20.0608C10.8199 20.0608 10.7204 20.1682 10.5003 20.2005C10.4816 20.1735 10.4412 20.1199 10.5003 20.0341C10.5595 19.9482 10.6265 19.9213 10.6936 19.948C10.7232 19.9528 10.7509 19.966 10.7732 19.986C10.7956 20.0059 10.8118 20.0319 10.8199 20.0608Z" fill="#4E4E4E"/>
<path fill-rule="evenodd" clip-rule="evenodd" d="M11.2252 20.1923C11.2307 20.1654 11.2119 20.16 11.2252 20.1466C11.2385 20.1331 11.3112 20.1064 11.3247 20.1197C11.33 20.1252 11.3247 20.1466 11.3247 20.1728C11.3247 20.199 11.3247 20.2259 11.3112 20.2452C11.2925 20.2721 11.2388 20.2856 11.2119 20.2776C11.185 20.2696 11.1797 20.2319 11.1797 20.2245C11.193 20.2192 11.2252 20.2057 11.2252 20.1923ZM11.6837 19.9023C11.6837 19.8888 11.7294 19.8619 11.7563 19.8619C11.7964 19.8619 11.7964 19.8942 11.8019 19.9023C11.8152 19.9076 11.8152 19.8968 11.8287 19.9211C11.8421 19.9453 11.8611 19.9882 11.8474 20.0151C11.8338 20.042 11.7803 20.0606 11.7671 20.0552C11.7483 20.0418 11.6892 19.9211 11.6837 19.9023Z" fill="#96C8D8"/>
<path fill-rule="evenodd" clip-rule="evenodd" d="M10.7607 20.2542C10.7607 20.2542 10.8198 20.2675 10.9004 20.3348C10.8734 20.3535 10.8331 20.3749 10.8331 20.3749C10.8331 20.3749 10.8278 20.3132 10.7607 20.254V20.2542Z" fill="#636363"/>
<path fill-rule="evenodd" clip-rule="evenodd" d="M10.6292 19.6633C10.6157 19.65 10.6694 19.6178 10.7016 19.6231C10.7338 19.6284 10.7473 19.65 10.7821 19.6553C10.817 19.6606 10.8225 19.6419 10.8353 19.6284C10.848 19.615 10.8944 19.6231 10.9023 19.6284C10.9073 19.6343 10.9118 19.6406 10.9158 19.6472C10.9164 19.637 10.919 19.627 10.9236 19.6178C10.9282 19.6087 10.9347 19.6006 10.9425 19.5941C10.9528 19.5865 10.9647 19.5814 10.9773 19.579C10.9899 19.5767 11.0028 19.5772 11.0151 19.5806C11.0204 19.5994 11.0473 19.6665 11.042 19.6799C11.0367 19.6934 10.9562 19.7123 10.9425 19.6987C10.956 19.7311 11.0151 19.7982 11.0231 19.8114C11.031 19.8247 10.964 19.8571 10.9372 19.8518C10.8997 19.8492 10.6687 19.7148 10.6285 19.6638L10.6292 19.6633ZM10.9809 19.2175C10.976 19.204 10.9665 19.1926 10.954 19.1853C10.9353 19.18 10.8735 19.1853 10.8735 19.2175C10.8735 19.2497 10.9266 19.43 10.9863 19.5238C11.0535 19.6178 11.099 19.6955 11.1447 19.7171C11.159 19.7236 11.1753 19.7245 11.1903 19.7195C11.2052 19.7145 11.2177 19.704 11.2252 19.6902C11.2306 19.6767 11.244 19.5774 11.2387 19.3437C11.2334 19.1101 11.2252 18.8845 11.2118 18.8711C11.1983 18.8576 11.1447 18.8578 11.1259 18.8845C11.1072 18.9113 10.9863 19.1773 10.9808 19.2175H10.9809Z" fill="#505050"/>
<path fill-rule="evenodd" clip-rule="evenodd" d="M10.7419 20.5926C10.7419 20.5926 10.6479 20.5334 10.5566 20.5738C10.4707 20.6142 10.476 20.7726 10.476 20.7726C10.4953 20.7802 10.5162 20.7829 10.5368 20.7805C10.5574 20.7782 10.5772 20.7709 10.5943 20.7591C10.6534 20.719 10.7285 20.6519 10.7419 20.5927V20.5926Z" fill="#4E4E4E"/>
<path fill-rule="evenodd" clip-rule="evenodd" d="M10.9191 20.8047C10.9138 20.7516 10.866 20.7516 10.866 20.7241C10.8693 20.711 10.8769 20.6994 10.8876 20.6911C10.8983 20.6828 10.9115 20.6784 10.925 20.6785C10.9519 20.6785 10.9781 20.7107 11.011 20.7316C11.0432 20.7503 11.0916 20.7847 11.0969 20.8256C11.1022 20.8665 11.0438 20.9785 10.9788 20.9785C10.9138 20.9785 10.9331 20.8576 10.9197 20.804L10.9191 20.8047ZM11.4375 20.7321C11.4375 20.7321 11.33 20.7643 11.338 20.7321C11.3459 20.6999 11.3704 20.6919 11.4053 20.6919C11.423 20.6734 11.4468 20.6619 11.4723 20.6595C11.487 20.6588 11.5013 20.6636 11.5125 20.673C11.5125 20.673 11.5851 20.6408 11.6065 20.6595C11.6279 20.6783 11.612 20.6783 11.6253 20.6999C11.6422 20.7239 11.6533 20.7514 11.6577 20.7804C11.6577 20.8019 11.5771 20.8475 11.5125 20.8396C11.4375 20.8234 11.4507 20.7456 11.4375 20.7321ZM12.0631 20.6112C12.0631 20.6112 12.0953 20.63 12.0686 20.6516C12.0498 20.6703 11.9558 20.7047 11.8751 20.7107C11.7945 20.7107 11.7221 20.724 11.7221 20.6972C11.7221 20.6705 11.7892 20.6167 11.8294 20.6032C11.8375 20.5931 11.8477 20.585 11.8594 20.5794C11.871 20.5738 11.8838 20.571 11.8967 20.571C11.9289 20.571 12.0549 20.5576 12.09 20.5522C12.1222 20.5468 12.1491 20.5655 12.1302 20.5924C12.1222 20.6112 12.0631 20.6112 12.0631 20.6112ZM12.2484 19.782C12.2484 19.782 12.2081 19.8679 12.1626 19.8679C12.1169 19.8625 12.1169 19.8491 12.1169 19.8356C12.1169 19.8169 12.1626 19.7685 12.1571 19.7551C12.1438 19.7551 12.1114 19.7551 12.1169 19.7229C12.1169 19.696 12.1626 19.6637 12.2028 19.6698C12.2331 19.6448 12.2709 19.6307 12.3102 19.6296C12.3559 19.6296 12.3961 19.6429 12.3961 19.6698C12.3961 19.6967 12.343 19.7556 12.3235 19.7693C12.3021 19.7907 12.2752 19.8047 12.2484 19.7825V19.782ZM11.6361 21.369C11.6361 21.369 11.583 21.3745 11.583 21.4013C11.583 21.4147 11.5963 21.4147 11.6152 21.4068C11.6261 21.4061 11.6369 21.4043 11.6474 21.4013C11.6527 21.4068 11.6527 21.4335 11.6931 21.4335C11.7262 21.429 11.7582 21.4181 11.7871 21.4013C11.8193 21.388 11.8462 21.3744 11.8462 21.3482C11.8328 21.3025 11.8059 21.2809 11.7657 21.2809C11.7451 21.2796 11.7246 21.2843 11.7065 21.2943C11.7065 21.2943 11.6931 21.2674 11.6474 21.2943C11.6017 21.3212 11.6071 21.3212 11.6205 21.3347C11.6446 21.3561 11.6366 21.3701 11.6366 21.3701L11.6361 21.369ZM11.3327 21.6484C11.3327 21.6349 11.3998 21.608 11.4185 21.6162C11.4373 21.6215 11.4909 21.7235 11.4909 21.7343C11.4909 21.7477 11.4238 21.7799 11.3969 21.7799C11.37 21.7799 11.3245 21.7343 11.3245 21.7268C11.3245 21.7215 11.3567 21.7135 11.3567 21.7081C11.3647 21.6948 11.3327 21.6624 11.3327 21.6489V21.6484ZM11.1202 21.2563C11.1337 21.251 11.1337 21.2375 11.1525 21.2241C11.1583 21.2202 11.165 21.2176 11.172 21.2167C11.179 21.2158 11.1861 21.2165 11.1928 21.2188C11.1976 21.2103 11.2041 21.203 11.212 21.1974C11.2199 21.1918 11.229 21.188 11.2385 21.1864C11.2707 21.181 11.2976 21.1864 11.2916 21.1998C11.2916 21.2402 11.3185 21.2669 11.3185 21.2991C11.3185 21.3313 11.2997 21.3717 11.2326 21.3986C11.1656 21.4174 11.0742 21.4174 11.0608 21.4121C11.0473 21.4068 11.0338 21.3529 11.0473 21.326C11.0608 21.2991 11.0983 21.2697 11.1199 21.2563H11.1202Z" fill="#96C8D8"/>
<path fill-rule="evenodd" clip-rule="evenodd" d="M11.2058 21.2746C11.2058 21.2746 11.1601 21.3015 11.1601 21.315C11.1561 21.328 11.1543 21.3415 11.1548 21.3551C11.1548 21.3631 11.2139 21.3498 11.2219 21.3417C11.2246 21.3364 11.2058 21.2886 11.2058 21.2746Z" fill="#636363"/>
<path fill-rule="evenodd" clip-rule="evenodd" d="M10.8064 21.1483C10.8331 21.1537 10.8788 21.1483 10.9137 21.1617C10.9406 21.1752 10.9593 21.2021 10.9324 21.2343C10.9055 21.2665 10.8793 21.3148 10.8197 21.3067C10.7526 21.3014 10.6881 21.2665 10.6881 21.2396C10.687 21.2226 10.6893 21.2055 10.6948 21.1894C10.7003 21.1732 10.709 21.1584 10.7204 21.1456C10.7473 21.1242 10.7606 21.1376 10.8062 21.1483H10.8064Z" fill="#505050"/>
<path fill-rule="evenodd" clip-rule="evenodd" d="M10.7741 21.1752C10.7741 21.1752 10.6882 21.2423 10.6666 21.2747C10.6397 21.3069 10.5082 21.4733 10.468 21.5082C10.4814 21.4847 10.4966 21.4622 10.5135 21.4411C10.4604 21.4751 10.4206 21.5263 10.4007 21.5861C10.3685 21.6856 10.5808 21.7392 10.7203 21.7796C10.8598 21.82 10.9138 21.8327 10.9138 21.8327C10.8624 21.7555 10.8183 21.6737 10.7821 21.5884C10.7289 21.4622 10.7015 21.4487 10.7364 21.3896C10.7633 21.3305 10.8037 21.2903 10.8037 21.2446C10.7875 21.2021 10.7741 21.1752 10.7741 21.1752Z" fill="#4E4E4E"/>
<path fill-rule="evenodd" clip-rule="evenodd" d="M7.71263 21.3874C7.73218 21.391 7.75222 21.391 7.77176 21.3874C7.81195 21.3819 8.23097 21.2281 8.66875 21.2557C8.99648 21.2755 9.32132 21.3289 9.63815 21.415C10.1887 21.56 10.8734 21.8473 11.3165 22.0113C11.4346 22.0567 11.5502 22.1375 11.6352 22.1695C11.9737 22.3012 11.9869 22.3012 12.1857 22.3361C12.4194 22.3683 12.6584 22.2904 12.9082 22.2368C13.2142 22.1695 13.7379 22.1373 14.1971 22.0702C14.3456 22.0496 14.492 22.0164 14.6349 21.9709C14.6349 21.9709 14.2697 22.3361 13.3941 22.4676C13.0402 22.5214 12.6806 22.5259 12.3254 22.4811C12.0461 22.4542 11.8609 22.4138 11.7212 22.3736C11.5628 22.328 11.2378 22.207 10.8377 22.1081C10.5583 22.0355 10.2468 21.9819 9.8897 21.9148C9.00882 21.7535 8.05288 21.5683 7.71228 21.3885L7.71263 21.3874Z" fill="#212121"/>
<path fill-rule="evenodd" clip-rule="evenodd" d="M6.72426 19.7279C6.51183 19.9078 6.28648 20.0797 6.06644 20.2461L5.40312 20.7557C5.17759 20.9221 4.95737 21.094 4.73166 21.2606C4.50595 21.4272 4.2806 21.5854 4.04126 21.7386C4.25369 21.5587 4.47904 21.3921 4.70458 21.2284C4.93011 21.0646 5.16396 20.9041 5.38152 20.738L6.04484 20.2276C6.27302 20.0612 6.49324 19.8894 6.72426 19.7283V19.7279ZM5.55076 21.6077C5.55076 21.6077 5.78974 21.4089 6.08786 21.1298C6.45837 20.7835 6.91226 20.3402 7.05725 20.2599L5.55058 21.6079L5.55076 21.6077Z" fill="#96C8D8"/>
<path fill-rule="evenodd" clip-rule="evenodd" d="M5.55078 21.6076C5.66903 21.4895 5.79525 21.3741 5.92147 21.2611L6.11479 21.0947C6.17391 21.0416 6.24118 20.982 6.30013 20.9228C6.41821 20.8048 6.53381 20.6784 6.65188 20.5576C6.71041 20.4969 6.77229 20.4395 6.83723 20.3857C6.8697 20.357 6.90576 20.3326 6.94451 20.3132C6.9769 20.2944 7.01178 20.26 7.05727 20.254C7.03054 20.2944 6.99832 20.3132 6.97141 20.348C6.9392 20.3749 6.91229 20.4072 6.88556 20.4339C6.82643 20.493 6.75934 20.5467 6.70021 20.6005C6.57399 20.7079 6.44246 20.8129 6.31624 20.9253C6.19002 21.0377 6.07195 21.159 5.94555 21.2717C5.80871 21.3873 5.68249 21.5001 5.55078 21.6081V21.6076ZM7.15676 20.5334C7.15676 20.5334 6.28137 21.3902 6.10133 21.5297L7.15676 20.5334Z" fill="#96C8D8"/>
<path fill-rule="evenodd" clip-rule="evenodd" d="M7.15681 20.5334C7.07806 20.6246 6.99363 20.7107 6.90402 20.7912L6.63848 21.0436C6.55262 21.1295 6.47189 21.2155 6.38073 21.3014C6.28673 21.3819 6.20087 21.4607 6.10138 21.5351L6.35913 21.2826C6.44516 21.1968 6.53916 21.1244 6.63051 21.0383L6.88826 20.7859C6.97677 20.6974 7.06281 20.6113 7.15681 20.5334ZM7.19699 20.998C7.1163 21.2232 7.02122 21.443 6.91234 21.656C6.6868 22.1072 6.34851 22.671 6.20069 22.9585L7.19699 20.998Z" fill="#96C8D8"/>
<path fill-rule="evenodd" clip-rule="evenodd" d="M7.19696 20.9981C7.19696 21.0974 7.17005 21.1835 7.13783 21.2693C7.10642 21.3552 7.07062 21.4395 7.03055 21.5218C6.99019 21.6023 6.94452 21.6883 6.89884 21.7662C6.85317 21.8441 6.79953 21.9245 6.75917 22.0052L6.48797 22.4832C6.39396 22.6425 6.30262 22.8027 6.20331 22.9559C6.2704 22.784 6.36175 22.6229 6.44778 22.4644C6.54178 22.3051 6.62764 22.1458 6.71332 21.981C6.75515 21.8988 6.79279 21.8146 6.82609 21.7287C6.86627 21.6427 6.90646 21.5621 6.93885 21.4842C6.97904 21.3984 7.01125 21.3176 7.05162 21.2399C7.09711 21.1565 7.13482 21.076 7.1966 20.9981H7.19696Z" fill="#96C8D8"/>
<path fill-rule="evenodd" clip-rule="evenodd" d="M8.15308 23.2C8.15308 23.2 7.88754 23.5518 7.9141 23.9975C7.9865 23.764 8.07785 23.4068 8.15308 23.2ZM8.40552 23.5526C8.40552 23.5526 8.31152 24.5086 8.23363 24.9786C8.34374 24.4353 8.36516 24.481 8.40552 23.5526ZM10.1644 25.0351C10.1644 25.0351 9.76702 26.2034 9.75888 26.5281C9.84492 26.1942 10.0113 25.5121 10.1644 25.0342V25.0351Z" fill="#C1C1C1"/>
<path fill-rule="evenodd" clip-rule="evenodd" d="M11.0937 23.1279C11.0937 23.1279 11.7382 24.1913 12.2217 25.0989C12.0909 24.6421 11.7899 23.8045 11.0937 23.1279Z" fill="#AEAEAE"/>
<path fill-rule="evenodd" clip-rule="evenodd" d="M12.8259 24.6934C13.1798 25.3189 13.4989 25.9635 13.7819 26.6242C13.7282 26.1676 13.5831 25.3862 12.8259 24.6934Z" fill="#C6C6C6"/>
<path fill-rule="evenodd" clip-rule="evenodd" d="M17.9175 26.2612C18.0248 26.1941 18.2371 25.8287 18.4224 25.7376C18.6076 25.6436 18.7472 25.6248 18.9138 25.4395C19.0802 25.246 19.1263 25.1279 19.4911 24.9749C20.0015 24.7545 19.6504 24.4699 19.6504 24.4699C19.7066 24.4147 19.7668 24.3635 19.8303 24.3169C19.962 24.2176 20.1149 24.0967 20.1017 23.8845C20.0829 23.5274 20.0158 23.0091 19.723 22.7083C20.0077 22.6492 20.5527 22.609 20.8914 22.5231C21.2833 22.4236 21.4633 22.284 21.4633 22.284C21.4633 22.284 21.2378 21.9 21.603 21.5134C21.9682 21.1267 22.2663 20.8957 22.4866 20.4632C22.2341 20.431 21.8493 20.2968 20.8671 20.67C20.9201 20.695 20.9713 20.7236 21.0203 20.7559C21.0203 20.7559 20.4161 20.9225 20.1958 21.1078C19.8117 21.4326 19.7634 21.6985 19.3472 21.8973C18.931 22.0961 18.512 22.0423 18.1657 22.2034C17.8194 22.3645 17.7683 22.5015 17.6419 22.5607C17.6688 22.5929 17.6366 22.6465 17.6876 22.6922C17.6553 22.7379 17.4673 23.0439 17.2767 23.0439C17.2955 23.1165 17.4565 23.1702 17.4565 23.1702C17.4565 23.1702 17.3385 23.2562 17.0377 23.2776C17.1907 23.4369 17.3358 23.6106 17.7359 23.863C17.7037 23.9301 17.5693 24.0296 17.6231 24.1558C17.6823 24.2821 17.8356 24.4539 18.4475 24.5936C18.136 24.6069 17.7709 24.6795 17.2792 24.6124C16.7877 24.5533 16.7072 24.5184 16.4038 24.5936C16.436 24.6258 16.5218 24.6258 16.5971 24.7117C16.5165 24.717 16.0117 24.6526 15.8398 24.8783C15.6599 25.1118 15.582 25.4959 15.5955 25.7537C15.5015 25.7993 15.4101 25.8799 15.4558 26.0465C15.5015 26.2131 15.7405 26.2667 15.8936 26.3713C16.0465 26.4841 16.06 26.5243 16.2051 26.4975C16.3581 26.4653 16.5836 26.3124 16.7153 26.3124C16.847 26.3124 16.9409 26.4117 16.9409 26.4117C16.9409 26.4117 17.2981 26.2398 17.333 26.272C17.3652 26.3042 17.3383 26.511 17.3732 26.5432C17.4086 26.5675 17.8109 26.3285 17.9184 26.2612H17.9175Z" fill="#D4D4D4"/>
<path fill-rule="evenodd" clip-rule="evenodd" d="M25.7242 15.5143C24.0458 11.18 19.8967 10.377 19.8967 10.377H8.05914L8.10481 14.7919H10.4623V24.6503H8.05896V29.0572H19.569C22.343 29.0572 24.5666 26.2695 24.5666 26.2695C28.1275 21.2156 25.724 15.5143 25.724 15.5143H25.7242ZM19.6308 23.2994C19.6308 23.2994 18.728 24.6019 17.7457 24.6019H15.7807L15.7341 14.8027H18.2558C18.2558 14.8027 19.4242 15.047 20.2405 17.3591C20.2405 17.3591 21.3226 20.6695 19.6308 23.2994Z" fill="white" fill-opacity="0.8"/>
</g>
</g>
<path d="M84.9971 34.8227C93.283 34.8227 100 28.0858 100 19.7755C100 11.4651 93.283 4.72827 84.9971 4.72827C76.7112 4.72827 69.9942 11.4651 69.9942 19.7755C69.9942 28.0858 76.7112 34.8227 84.9971 34.8227Z" fill="#96C8D8"/>
<path d="M86.5963 21.1642V21.1618C86.4926 21.169 85.9571 21.2005 84.7656 21.2005C83.8128 21.2005 83.1447 21.1739 82.9083 21.1618V21.1642C79.2444 21.0021 76.5116 20.3634 76.5116 19.5966C76.5116 18.8321 79.2468 18.191 82.9083 18.0289V20.5279C83.1471 20.5449 83.8345 20.586 84.7825 20.586C85.921 20.586 86.4902 20.5376 86.5963 20.5279V18.0314C90.253 18.1959 92.9786 18.8345 92.9786 19.599C92.9786 20.3634 90.2506 21.0021 86.5963 21.1666V21.1642ZM86.5963 17.7725V15.5372H91.6978V12.1286H77.8093V15.5372H82.9107V17.7725C78.7644 17.9636 75.6481 18.7861 75.6481 19.7732C75.6481 20.7602 78.7668 21.5827 82.9107 21.7762V28.9418H86.5987V21.7762C90.7378 21.5851 93.8494 20.7626 93.8494 19.7756C93.8494 18.791 90.7378 17.966 86.5987 17.7749" fill="white"/>
<g clip-path="url(#clip1)">
<path d="M51.0551 34.2519C59.6851 34.2519 66.681 27.2559 66.681 18.626C66.681 9.99598 59.6851 3 51.0551 3C42.4251 3 35.4291 9.99598 35.4291 18.626C35.4291 27.2559 42.4251 34.2519 51.0551 34.2519Z" fill="#96C8D8"/>
<path d="M56.1335 13.2545C55.3522 11.3013 53.4967 11.2036 51.2504 11.5943L50.4691 8.85974L48.8089 9.34805L49.5902 11.9849C49.1995 12.0826 48.7112 12.2779 48.2229 12.3756L47.4416 9.64104L45.7813 10.1294L46.5626 12.8639C46.172 12.9616 45.879 13.0592 45.4884 13.1569L43.2421 13.9382L43.7304 15.6961C43.7304 15.6961 45 15.3054 44.9024 15.3054C45.586 15.1101 45.879 15.4031 46.0743 15.7938L46.9533 18.919C46.9533 18.919 47.051 18.919 47.1486 18.919L46.9533 19.0166L48.2229 23.4114C48.2229 23.6067 48.2229 23.9974 47.7346 24.1927L46.5626 24.5834L46.758 26.6343L48.9065 26.0483C49.2972 25.9506 49.6878 25.853 50.0785 25.7553L50.8598 28.4898L52.52 28.0015L51.7387 25.267C52.227 25.1693 52.6177 25.0717 53.106 24.8763L53.8873 27.6109L55.5476 27.1226L54.7663 24.388C57.5008 23.4114 59.2587 22.1418 58.7704 19.4073C58.3798 17.2587 57.1102 16.5751 55.3522 16.6727C56.3289 15.6961 56.7195 14.7195 56.1335 13.2545ZM55.5476 19.8956C56.1335 21.9465 52.52 22.7278 51.3481 23.1184L50.2738 19.4073C51.4458 19.1143 54.8639 17.747 55.5476 19.8956ZM53.2037 14.9148C53.7896 16.7704 50.7621 17.454 49.7855 17.747L48.8089 14.4265C49.7855 14.1335 52.7154 12.9616 53.2037 14.9148Z" fill="white"/>
</g>
<defs>
<clipPath id="clip0">
<rect width="33.1924" height="33.1924" fill="white" transform="translate(0 3)"/>
</clipPath>
<clipPath id="clip1">
<rect width="31.2519" height="31.2519" fill="white" transform="translate(35.4291 3)"/>
</clipPath>
</defs>
</svg>
