<svg width="100" height="40" viewBox="0 0 100 40" fill="none" xmlns="http://www.w3.org/2000/svg">
<g clip-path="url(#clip0)">
<path d="M46.2185 13.2811C47.0184 13.2632 47.8144 13.3959 48.5652 13.6722C49.1872 13.9059 49.7504 14.273 50.2152 14.7478C50.6487 15.2034 50.9745 15.7506 51.1685 16.3489C51.3772 16.9963 51.4804 17.6731 51.4741 18.3533C51.5349 19.064 51.4346 19.7793 51.1807 20.4459C50.9267 21.1125 50.5257 21.7132 50.0074 22.2033C48.7146 23.1219 47.1391 23.5547 45.5585 23.4255H43.8963V29.6955H39.1174V13.2811H46.2185ZM44.7396 20.3822C44.9892 20.3991 45.2395 20.3644 45.475 20.2803C45.7105 20.1962 45.9262 20.0644 46.1085 19.8933C46.4615 19.4662 46.6326 18.9176 46.5852 18.3655C46.5852 17.0293 45.9741 16.3611 44.7519 16.3611H43.8963V20.37L44.7396 20.3822ZM28.7285 26.2489V22.9733H34.3874V19.6H28.7408V16.7889H34.7785V13.2811H28.7408V11.7778H23.9985V29.7567H34.9985V26.2489H28.7285ZM57.7808 18.72C58.1903 18.6849 58.6028 18.7329 58.9934 18.861C59.384 18.9891 59.7448 19.1947 60.0541 19.4655C60.3034 19.7317 60.4967 20.0451 60.6227 20.3873C60.7486 20.7295 60.8047 21.0935 60.7874 21.4578C60.7892 21.7418 60.7564 22.025 60.6896 22.3011C60.6274 22.5602 60.5243 22.8078 60.3841 23.0344C60.2476 23.2546 60.069 23.4457 59.8585 23.5967C59.6233 23.7569 59.3566 23.8652 59.0763 23.9144C59.4039 23.933 59.7223 24.0294 60.0052 24.1955C60.255 24.3455 60.4713 24.5452 60.6407 24.7822C60.8084 25.0191 60.9326 25.284 61.0074 25.5644C61.0822 25.8434 61.1192 26.1312 61.1174 26.42C61.1221 26.8626 61.0603 27.3035 60.9341 27.7278C60.8211 28.1084 60.6249 28.459 60.3596 28.7544C60.0759 29.0571 59.7239 29.2876 59.333 29.4267C58.8426 29.5995 58.325 29.6823 57.8052 29.6711H53.4663V18.6711L57.7808 18.72ZM57.0107 23.0344C57.1416 23.0412 57.272 23.0144 57.3897 22.9567C57.5073 22.8989 57.6083 22.8121 57.683 22.7044C57.841 22.4748 57.9223 22.2009 57.9152 21.9222C57.9234 21.6357 57.8422 21.3538 57.683 21.1155C57.6097 21.0056 57.5094 20.9164 57.3916 20.8565C57.2739 20.7965 57.1427 20.7679 57.0107 20.7733H56.3141V23.0222L57.0107 23.0344ZM57.1207 27.6544C57.2557 27.6535 57.3888 27.6235 57.5111 27.5665C57.6334 27.5096 57.742 27.427 57.8296 27.3244C58.0573 27.033 58.1664 26.6663 58.1352 26.2978C58.1619 25.941 58.0527 25.5874 57.8296 25.3078C57.7437 25.2023 57.6357 25.117 57.5132 25.0579C57.3907 24.9987 57.2568 24.9672 57.1207 24.9655H56.3263V27.6422L57.1207 27.6544ZM69.1352 18.7322L71.8119 29.7322H68.7807L68.4874 27.8133H66.2019L65.8963 29.7078H62.9141L65.5419 18.7078L69.1352 18.7322ZM67.3141 20.9811L66.5319 25.65H68.133L67.3507 20.9811H67.3141ZM77.0307 18.7322L78.8763 25.5033V18.72H81.553V29.72H78.4607L76.5541 22.9367V29.72H73.8407V18.72L77.0307 18.7322ZM87.2363 18.7322V22.9489L89.363 18.7322H92.4063L89.6319 23.5355L92.7852 29.7078H89.5219L87.8963 25.87L87.2974 26.7989V29.7078H84.3885V18.7078L87.2363 18.7322ZM15.1252 24.1955C15.1252 24.5378 15.1252 24.8311 15.1252 25.1C15.0983 25.5144 15.0245 25.9244 14.9052 26.3222C14.8392 26.5833 14.6888 26.8154 14.4774 26.9822C14.2668 27.1186 14.0193 27.1869 13.7685 27.1778C13.4623 27.1932 13.1601 27.1026 12.913 26.9211C12.6572 26.6799 12.4857 26.3628 12.4241 26.0167C12.2654 25.4496 12.163 24.8683 12.1185 24.2811C12.1185 23.5478 12.1185 22.627 12.1185 21.5189C12.1185 20.4107 12.1185 19.49 12.1185 18.7567C12.135 18.1723 12.2087 17.591 12.3385 17.0211C12.4002 16.675 12.5716 16.3578 12.8274 16.1167C13.0746 15.9352 13.3767 15.8445 13.683 15.86C13.8791 15.8469 14.0752 15.8878 14.2497 15.9783C14.4242 16.0688 14.5706 16.2054 14.673 16.3733C14.9273 16.9792 15.0321 17.6373 14.9785 18.2922V18.7933H19.5619V18.1822C19.5901 17.4473 19.4993 16.7126 19.293 16.0067C19.0767 15.3861 18.7116 14.8279 18.2296 14.3811C17.7107 13.8965 17.0878 13.5369 16.4085 13.33C15.5249 13.0655 14.6051 12.9418 13.683 12.9633C12.638 12.9374 11.5963 13.0903 10.603 13.4155C9.79967 13.6926 9.09743 14.2034 8.58631 14.8822C8.02722 15.6723 7.65524 16.5793 7.49853 17.5344C7.28434 18.8512 7.19431 20.1852 7.22964 21.5189C7.2141 22.8358 7.30402 24.1519 7.49853 25.4544C7.61623 26.3981 7.94183 27.304 8.45186 28.1067C8.93782 28.8001 9.63758 29.3153 10.4441 29.5733C11.5008 29.8959 12.603 30.0445 13.7074 30.0133C14.4544 30.0141 15.1995 29.9404 15.9319 29.7933C16.6278 29.6564 17.2838 29.3639 17.8508 28.9378C18.4426 28.4783 18.9091 27.8773 19.2074 27.19C19.5785 26.2922 19.7536 25.3254 19.7207 24.3544V24.1711L15.1252 24.1955Z" fill="#96C8D8"/>
</g>
<defs>
<clipPath id="clip0">
<rect width="100" height="40" fill="white"/>
</clipPath>
</defs>
</svg>
