<svg width="100" height="40" viewBox="0 0 100 40" fill="none" xmlns="http://www.w3.org/2000/svg">
<path d="M6.22998 5.04004H5.03998V6.23004H6.22998V5.04004Z" fill="#96C8D8"/>
<path d="M7.42004 5.04004H6.23004V6.23004H7.42004V5.04004Z" fill="#96C8D8"/>
<path d="M8.60998 5.04004H7.41998V6.23004H8.60998V5.04004Z" fill="#96C8D8"/>
<path d="M9.79999 5.04004H8.60999V6.23004H9.79999V5.04004Z" fill="#96C8D8"/>
<path d="M10.9899 5.04004H9.79993V6.23004H10.9899V5.04004Z" fill="#96C8D8"/>
<path d="M12.18 5.04004H10.99V6.23004H12.18V5.04004Z" fill="#96C8D8"/>
<path d="M13.3699 5.04004H12.1799V6.23004H13.3699V5.04004Z" fill="#96C8D8"/>
<path d="M15.7499 5.04004H14.5599V6.23004H15.7499V5.04004Z" fill="#96C8D8"/>
<path d="M19.32 5.04004H18.13V6.23004H19.32V5.04004Z" fill="#96C8D8"/>
<path d="M20.5101 5.04004H19.3201V6.23004H20.5101V5.04004Z" fill="#96C8D8"/>
<path d="M21.7 5.04004H20.51V6.23004H21.7V5.04004Z" fill="#96C8D8"/>
<path d="M22.8901 5.04004H21.7001V6.23004H22.8901V5.04004Z" fill="#96C8D8"/>
<path d="M27.65 5.04004H26.46V6.23004H27.65V5.04004Z" fill="#96C8D8"/>
<path d="M28.84 5.04004H27.65V6.23004H28.84V5.04004Z" fill="#96C8D8"/>
<path d="M30.03 5.04004H28.84V6.23004H30.03V5.04004Z" fill="#96C8D8"/>
<path d="M31.22 5.04004H30.03V6.23004H31.22V5.04004Z" fill="#96C8D8"/>
<path d="M32.41 5.04004H31.22V6.23004H32.41V5.04004Z" fill="#96C8D8"/>
<path d="M33.6 5.04004H32.41V6.23004H33.6V5.04004Z" fill="#96C8D8"/>
<path d="M34.79 5.04004H33.6V6.23004H34.79V5.04004Z" fill="#96C8D8"/>
<path d="M6.22998 6.22998H5.03998V7.41998H6.22998V6.22998Z" fill="#96C8D8"/>
<path d="M13.3699 6.22998H12.1799V7.41998H13.3699V6.22998Z" fill="#96C8D8"/>
<path d="M16.94 6.22998H15.75V7.41998H16.94V6.22998Z" fill="#96C8D8"/>
<path d="M18.1301 6.22998H16.9401V7.41998H18.1301V6.22998Z" fill="#96C8D8"/>
<path d="M25.27 6.22998H24.08V7.41998H25.27V6.22998Z" fill="#96C8D8"/>
<path d="M27.65 6.22998H26.46V7.41998H27.65V6.22998Z" fill="#96C8D8"/>
<path d="M34.79 6.22998H33.6V7.41998H34.79V6.22998Z" fill="#96C8D8"/>
<path d="M6.22998 7.42004H5.03998V8.61004H6.22998V7.42004Z" fill="#96C8D8"/>
<path d="M8.60998 7.42004H7.41998V8.61004H8.60998V7.42004Z" fill="#96C8D8"/>
<path d="M9.79999 7.42004H8.60999V8.61004H9.79999V7.42004Z" fill="#96C8D8"/>
<path d="M10.9899 7.42004H9.79993V8.61004H10.9899V7.42004Z" fill="#96C8D8"/>
<path d="M13.3699 7.42004H12.1799V8.61004H13.3699V7.42004Z" fill="#96C8D8"/>
<path d="M18.1301 7.42004H16.9401V8.61004H18.1301V7.42004Z" fill="#96C8D8"/>
<path d="M20.5101 7.42004H19.3201V8.61004H20.5101V7.42004Z" fill="#96C8D8"/>
<path d="M21.7 7.42004H20.51V8.61004H21.7V7.42004Z" fill="#96C8D8"/>
<path d="M22.8901 7.42004H21.7001V8.61004H22.8901V7.42004Z" fill="#96C8D8"/>
<path d="M24.08 7.42004H22.89V8.61004H24.08V7.42004Z" fill="#96C8D8"/>
<path d="M27.65 7.42004H26.46V8.61004H27.65V7.42004Z" fill="#96C8D8"/>
<path d="M30.03 7.42004H28.84V8.61004H30.03V7.42004Z" fill="#96C8D8"/>
<path d="M31.22 7.42004H30.03V8.61004H31.22V7.42004Z" fill="#96C8D8"/>
<path d="M32.41 7.42004H31.22V8.61004H32.41V7.42004Z" fill="#96C8D8"/>
<path d="M34.79 7.42004H33.6V8.61004H34.79V7.42004Z" fill="#96C8D8"/>
<path d="M6.22998 8.60999H5.03998V9.79999H6.22998V8.60999Z" fill="#96C8D8"/>
<path d="M8.60998 8.60999H7.41998V9.79999H8.60998V8.60999Z" fill="#96C8D8"/>
<path d="M9.79999 8.60999H8.60999V9.79999H9.79999V8.60999Z" fill="#96C8D8"/>
<path d="M10.9899 8.60999H9.79993V9.79999H10.9899V8.60999Z" fill="#96C8D8"/>
<path d="M13.3699 8.60999H12.1799V9.79999H13.3699V8.60999Z" fill="#96C8D8"/>
<path d="M20.5101 8.60999H19.3201V9.79999H20.5101V8.60999Z" fill="#96C8D8"/>
<path d="M21.7 8.60999H20.51V9.79999H21.7V8.60999Z" fill="#96C8D8"/>
<path d="M25.27 8.60999H24.08V9.79999H25.27V8.60999Z" fill="#96C8D8"/>
<path d="M27.65 8.60999H26.46V9.79999H27.65V8.60999Z" fill="#96C8D8"/>
<path d="M30.03 8.60999H28.84V9.79999H30.03V8.60999Z" fill="#96C8D8"/>
<path d="M31.22 8.60999H30.03V9.79999H31.22V8.60999Z" fill="#96C8D8"/>
<path d="M32.41 8.60999H31.22V9.79999H32.41V8.60999Z" fill="#96C8D8"/>
<path d="M34.79 8.60999H33.6V9.79999H34.79V8.60999Z" fill="#96C8D8"/>
<path d="M6.22998 9.80005H5.03998V10.99H6.22998V9.80005Z" fill="#96C8D8"/>
<path d="M8.60998 9.80005H7.41998V10.99H8.60998V9.80005Z" fill="#96C8D8"/>
<path d="M9.79999 9.80005H8.60999V10.99H9.79999V9.80005Z" fill="#96C8D8"/>
<path d="M10.9899 9.80005H9.79993V10.99H10.9899V9.80005Z" fill="#96C8D8"/>
<path d="M13.3699 9.80005H12.1799V10.99H13.3699V9.80005Z" fill="#96C8D8"/>
<path d="M16.94 9.80005H15.75V10.99H16.94V9.80005Z" fill="#96C8D8"/>
<path d="M19.32 9.80005H18.13V10.99H19.32V9.80005Z" fill="#96C8D8"/>
<path d="M22.8901 9.80005H21.7001V10.99H22.8901V9.80005Z" fill="#96C8D8"/>
<path d="M25.27 9.80005H24.08V10.99H25.27V9.80005Z" fill="#96C8D8"/>
<path d="M27.65 9.80005H26.46V10.99H27.65V9.80005Z" fill="#96C8D8"/>
<path d="M30.03 9.80005H28.84V10.99H30.03V9.80005Z" fill="#96C8D8"/>
<path d="M31.22 9.80005H30.03V10.99H31.22V9.80005Z" fill="#96C8D8"/>
<path d="M32.41 9.80005H31.22V10.99H32.41V9.80005Z" fill="#96C8D8"/>
<path d="M34.79 9.80005H33.6V10.99H34.79V9.80005Z" fill="#96C8D8"/>
<path d="M6.22998 10.99H5.03998V12.18H6.22998V10.99Z" fill="#96C8D8"/>
<path d="M13.3699 10.99H12.1799V12.18H13.3699V10.99Z" fill="#96C8D8"/>
<path d="M18.1301 10.99H16.9401V12.18H18.1301V10.99Z" fill="#96C8D8"/>
<path d="M20.5101 10.99H19.3201V12.18H20.5101V10.99Z" fill="#96C8D8"/>
<path d="M22.8901 10.99H21.7001V12.18H22.8901V10.99Z" fill="#96C8D8"/>
<path d="M27.65 10.99H26.46V12.18H27.65V10.99Z" fill="#96C8D8"/>
<path d="M34.79 10.99H33.6V12.18H34.79V10.99Z" fill="#96C8D8"/>
<path d="M6.22998 12.1799H5.03998V13.3699H6.22998V12.1799Z" fill="#96C8D8"/>
<path d="M7.42004 12.1799H6.23004V13.3699H7.42004V12.1799Z" fill="#96C8D8"/>
<path d="M8.60998 12.1799H7.41998V13.3699H8.60998V12.1799Z" fill="#96C8D8"/>
<path d="M9.79999 12.1799H8.60999V13.3699H9.79999V12.1799Z" fill="#96C8D8"/>
<path d="M10.9899 12.1799H9.79993V13.3699H10.9899V12.1799Z" fill="#96C8D8"/>
<path d="M12.18 12.1799H10.99V13.3699H12.18V12.1799Z" fill="#96C8D8"/>
<path d="M13.3699 12.1799H12.1799V13.3699H13.3699V12.1799Z" fill="#96C8D8"/>
<path d="M15.7499 12.1799H14.5599V13.3699H15.7499V12.1799Z" fill="#96C8D8"/>
<path d="M18.1301 12.1799H16.9401V13.3699H18.1301V12.1799Z" fill="#96C8D8"/>
<path d="M20.5101 12.1799H19.3201V13.3699H20.5101V12.1799Z" fill="#96C8D8"/>
<path d="M22.8901 12.1799H21.7001V13.3699H22.8901V12.1799Z" fill="#96C8D8"/>
<path d="M25.27 12.1799H24.08V13.3699H25.27V12.1799Z" fill="#96C8D8"/>
<path d="M27.65 12.1799H26.46V13.3699H27.65V12.1799Z" fill="#96C8D8"/>
<path d="M28.84 12.1799H27.65V13.3699H28.84V12.1799Z" fill="#96C8D8"/>
<path d="M30.03 12.1799H28.84V13.3699H30.03V12.1799Z" fill="#96C8D8"/>
<path d="M31.22 12.1799H30.03V13.3699H31.22V12.1799Z" fill="#96C8D8"/>
<path d="M32.41 12.1799H31.22V13.3699H32.41V12.1799Z" fill="#96C8D8"/>
<path d="M33.6 12.1799H32.41V13.3699H33.6V12.1799Z" fill="#96C8D8"/>
<path d="M34.79 12.1799H33.6V13.3699H34.79V12.1799Z" fill="#96C8D8"/>
<path d="M15.7499 13.37H14.5599V14.56H15.7499V13.37Z" fill="#96C8D8"/>
<path d="M18.1301 13.37H16.9401V14.56H18.1301V13.37Z" fill="#96C8D8"/>
<path d="M19.32 13.37H18.13V14.56H19.32V13.37Z" fill="#96C8D8"/>
<path d="M21.7 13.37H20.51V14.56H21.7V13.37Z" fill="#96C8D8"/>
<path d="M24.08 13.37H22.89V14.56H24.08V13.37Z" fill="#96C8D8"/>
<path d="M6.22998 14.5599H5.03998V15.7499H6.22998V14.5599Z" fill="#96C8D8"/>
<path d="M7.42004 14.5599H6.23004V15.7499H7.42004V14.5599Z" fill="#96C8D8"/>
<path d="M9.79999 14.5599H8.60999V15.7499H9.79999V14.5599Z" fill="#96C8D8"/>
<path d="M10.9899 14.5599H9.79993V15.7499H10.9899V14.5599Z" fill="#96C8D8"/>
<path d="M13.3699 14.5599H12.1799V15.7499H13.3699V14.5599Z" fill="#96C8D8"/>
<path d="M16.94 14.5599H15.75V15.7499H16.94V14.5599Z" fill="#96C8D8"/>
<path d="M18.1301 14.5599H16.9401V15.7499H18.1301V14.5599Z" fill="#96C8D8"/>
<path d="M19.32 14.5599H18.13V15.7499H19.32V14.5599Z" fill="#96C8D8"/>
<path d="M22.8901 14.5599H21.7001V15.7499H22.8901V14.5599Z" fill="#96C8D8"/>
<path d="M24.08 14.5599H22.89V15.7499H24.08V14.5599Z" fill="#96C8D8"/>
<path d="M27.65 14.5599H26.46V15.7499H27.65V14.5599Z" fill="#96C8D8"/>
<path d="M34.79 14.5599H33.6V15.7499H34.79V14.5599Z" fill="#96C8D8"/>
<path d="M6.22998 15.75H5.03998V16.94H6.22998V15.75Z" fill="#96C8D8"/>
<path d="M7.42004 15.75H6.23004V16.94H7.42004V15.75Z" fill="#96C8D8"/>
<path d="M9.79999 15.75H8.60999V16.94H9.79999V15.75Z" fill="#96C8D8"/>
<path d="M12.18 15.75H10.99V16.94H12.18V15.75Z" fill="#96C8D8"/>
<path d="M16.94 15.75H15.75V16.94H16.94V15.75Z" fill="#96C8D8"/>
<path d="M20.5101 15.75H19.3201V16.94H20.5101V15.75Z" fill="#96C8D8"/>
<path d="M21.7 15.75H20.51V16.94H21.7V15.75Z" fill="#96C8D8"/>
<path d="M22.8901 15.75H21.7001V16.94H22.8901V15.75Z" fill="#96C8D8"/>
<path d="M24.08 15.75H22.89V16.94H24.08V15.75Z" fill="#96C8D8"/>
<path d="M26.46 15.75H25.27V16.94H26.46V15.75Z" fill="#96C8D8"/>
<path d="M28.84 15.75H27.65V16.94H28.84V15.75Z" fill="#96C8D8"/>
<path d="M30.03 15.75H28.84V16.94H30.03V15.75Z" fill="#96C8D8"/>
<path d="M31.22 15.75H30.03V16.94H31.22V15.75Z" fill="#96C8D8"/>
<path d="M32.41 15.75H31.22V16.94H32.41V15.75Z" fill="#96C8D8"/>
<path d="M33.6 15.75H32.41V16.94H33.6V15.75Z" fill="#96C8D8"/>
<path d="M8.60998 16.9401H7.41998V18.1301H8.60998V16.9401Z" fill="#96C8D8"/>
<path d="M9.79999 16.9401H8.60999V18.1301H9.79999V16.9401Z" fill="#96C8D8"/>
<path d="M10.9899 16.9401H9.79993V18.1301H10.9899V16.9401Z" fill="#96C8D8"/>
<path d="M12.18 16.9401H10.99V18.1301H12.18V16.9401Z" fill="#96C8D8"/>
<path d="M13.3699 16.9401H12.1799V18.1301H13.3699V16.9401Z" fill="#96C8D8"/>
<path d="M15.7499 16.9401H14.5599V18.1301H15.7499V16.9401Z" fill="#96C8D8"/>
<path d="M18.1301 16.9401H16.9401V18.1301H18.1301V16.9401Z" fill="#96C8D8"/>
<path d="M19.32 16.9401H18.13V18.1301H19.32V16.9401Z" fill="#96C8D8"/>
<path d="M24.08 16.9401H22.89V18.1301H24.08V16.9401Z" fill="#96C8D8"/>
<path d="M27.65 16.9401H26.46V18.1301H27.65V16.9401Z" fill="#96C8D8"/>
<path d="M28.84 16.9401H27.65V18.1301H28.84V16.9401Z" fill="#96C8D8"/>
<path d="M31.22 16.9401H30.03V18.1301H31.22V16.9401Z" fill="#96C8D8"/>
<path d="M34.79 16.9401H33.6V18.1301H34.79V16.9401Z" fill="#96C8D8"/>
<path d="M8.60998 18.13H7.41998V19.32H8.60998V18.13Z" fill="#96C8D8"/>
<path d="M9.79999 18.13H8.60999V19.32H9.79999V18.13Z" fill="#96C8D8"/>
<path d="M10.9899 18.13H9.79993V19.32H10.9899V18.13Z" fill="#96C8D8"/>
<path d="M14.56 18.13H13.37V19.32H14.56V18.13Z" fill="#96C8D8"/>
<path d="M16.94 18.13H15.75V19.32H16.94V18.13Z" fill="#96C8D8"/>
<path d="M18.1301 18.13H16.9401V19.32H18.1301V18.13Z" fill="#96C8D8"/>
<path d="M19.32 18.13H18.13V19.32H19.32V18.13Z" fill="#96C8D8"/>
<path d="M20.5101 18.13H19.3201V19.32H20.5101V18.13Z" fill="#96C8D8"/>
<path d="M25.27 18.13H24.08V19.32H25.27V18.13Z" fill="#96C8D8"/>
<path d="M28.84 18.13H27.65V19.32H28.84V18.13Z" fill="#96C8D8"/>
<path d="M31.22 18.13H30.03V19.32H31.22V18.13Z" fill="#96C8D8"/>
<path d="M32.41 18.13H31.22V19.32H32.41V18.13Z" fill="#96C8D8"/>
<path d="M33.6 18.13H32.41V19.32H33.6V18.13Z" fill="#96C8D8"/>
<path d="M34.79 18.13H33.6V19.32H34.79V18.13Z" fill="#96C8D8"/>
<path d="M10.9899 19.3201H9.79993V20.5101H10.9899V19.3201Z" fill="#96C8D8"/>
<path d="M13.3699 19.3201H12.1799V20.5101H13.3699V19.3201Z" fill="#96C8D8"/>
<path d="M16.94 19.3201H15.75V20.5101H16.94V19.3201Z" fill="#96C8D8"/>
<path d="M19.32 19.3201H18.13V20.5101H19.32V19.3201Z" fill="#96C8D8"/>
<path d="M20.5101 19.3201H19.3201V20.5101H20.5101V19.3201Z" fill="#96C8D8"/>
<path d="M22.8901 19.3201H21.7001V20.5101H22.8901V19.3201Z" fill="#96C8D8"/>
<path d="M25.27 19.3201H24.08V20.5101H25.27V19.3201Z" fill="#96C8D8"/>
<path d="M27.65 19.3201H26.46V20.5101H27.65V19.3201Z" fill="#96C8D8"/>
<path d="M34.79 19.3201H33.6V20.5101H34.79V19.3201Z" fill="#96C8D8"/>
<path d="M6.22998 20.51H5.03998V21.7H6.22998V20.51Z" fill="#96C8D8"/>
<path d="M8.60998 20.51H7.41998V21.7H8.60998V20.51Z" fill="#96C8D8"/>
<path d="M9.79999 20.51H8.60999V21.7H9.79999V20.51Z" fill="#96C8D8"/>
<path d="M10.9899 20.51H9.79993V21.7H10.9899V20.51Z" fill="#96C8D8"/>
<path d="M15.7499 20.51H14.5599V21.7H15.7499V20.51Z" fill="#96C8D8"/>
<path d="M16.94 20.51H15.75V21.7H16.94V20.51Z" fill="#96C8D8"/>
<path d="M22.8901 20.51H21.7001V21.7H22.8901V20.51Z" fill="#96C8D8"/>
<path d="M24.08 20.51H22.89V21.7H24.08V20.51Z" fill="#96C8D8"/>
<path d="M25.27 20.51H24.08V21.7H25.27V20.51Z" fill="#96C8D8"/>
<path d="M26.46 20.51H25.27V21.7H26.46V20.51Z" fill="#96C8D8"/>
<path d="M30.03 20.51H28.84V21.7H30.03V20.51Z" fill="#96C8D8"/>
<path d="M33.6 20.51H32.41V21.7H33.6V20.51Z" fill="#96C8D8"/>
<path d="M6.22998 21.7H5.03998V22.89H6.22998V21.7Z" fill="#96C8D8"/>
<path d="M7.42004 21.7H6.23004V22.89H7.42004V21.7Z" fill="#96C8D8"/>
<path d="M8.60998 21.7H7.41998V22.89H8.60998V21.7Z" fill="#96C8D8"/>
<path d="M10.9899 21.7H9.79993V22.89H10.9899V21.7Z" fill="#96C8D8"/>
<path d="M13.3699 21.7H12.1799V22.89H13.3699V21.7Z" fill="#96C8D8"/>
<path d="M14.56 21.7H13.37V22.89H14.56V21.7Z" fill="#96C8D8"/>
<path d="M18.1301 21.7H16.9401V22.89H18.1301V21.7Z" fill="#96C8D8"/>
<path d="M19.32 21.7H18.13V22.89H19.32V21.7Z" fill="#96C8D8"/>
<path d="M20.5101 21.7H19.3201V22.89H20.5101V21.7Z" fill="#96C8D8"/>
<path d="M22.8901 21.7H21.7001V22.89H22.8901V21.7Z" fill="#96C8D8"/>
<path d="M24.08 21.7H22.89V22.89H24.08V21.7Z" fill="#96C8D8"/>
<path d="M26.46 21.7H25.27V22.89H26.46V21.7Z" fill="#96C8D8"/>
<path d="M27.65 21.7H26.46V22.89H27.65V21.7Z" fill="#96C8D8"/>
<path d="M30.03 21.7H28.84V22.89H30.03V21.7Z" fill="#96C8D8"/>
<path d="M31.22 21.7H30.03V22.89H31.22V21.7Z" fill="#96C8D8"/>
<path d="M32.41 21.7H31.22V22.89H32.41V21.7Z" fill="#96C8D8"/>
<path d="M33.6 21.7H32.41V22.89H33.6V21.7Z" fill="#96C8D8"/>
<path d="M34.79 21.7H33.6V22.89H34.79V21.7Z" fill="#96C8D8"/>
<path d="M6.22998 22.89H5.03998V24.08H6.22998V22.89Z" fill="#96C8D8"/>
<path d="M8.60998 22.89H7.41998V24.08H8.60998V22.89Z" fill="#96C8D8"/>
<path d="M15.7499 22.89H14.5599V24.08H15.7499V22.89Z" fill="#96C8D8"/>
<path d="M16.94 22.89H15.75V24.08H16.94V22.89Z" fill="#96C8D8"/>
<path d="M19.32 22.89H18.13V24.08H19.32V22.89Z" fill="#96C8D8"/>
<path d="M22.8901 22.89H21.7001V24.08H22.8901V22.89Z" fill="#96C8D8"/>
<path d="M25.27 22.89H24.08V24.08H25.27V22.89Z" fill="#96C8D8"/>
<path d="M26.46 22.89H25.27V24.08H26.46V22.89Z" fill="#96C8D8"/>
<path d="M28.84 22.89H27.65V24.08H28.84V22.89Z" fill="#96C8D8"/>
<path d="M31.22 22.89H30.03V24.08H31.22V22.89Z" fill="#96C8D8"/>
<path d="M32.41 22.89H31.22V24.08H32.41V22.89Z" fill="#96C8D8"/>
<path d="M34.79 22.89H33.6V24.08H34.79V22.89Z" fill="#96C8D8"/>
<path d="M6.22998 24.08H5.03998V25.27H6.22998V24.08Z" fill="#96C8D8"/>
<path d="M8.60998 24.08H7.41998V25.27H8.60998V24.08Z" fill="#96C8D8"/>
<path d="M13.3699 24.08H12.1799V25.27H13.3699V24.08Z" fill="#96C8D8"/>
<path d="M14.56 24.08H13.37V25.27H14.56V24.08Z" fill="#96C8D8"/>
<path d="M15.7499 24.08H14.5599V25.27H15.7499V24.08Z" fill="#96C8D8"/>
<path d="M16.94 24.08H15.75V25.27H16.94V24.08Z" fill="#96C8D8"/>
<path d="M18.1301 24.08H16.9401V25.27H18.1301V24.08Z" fill="#96C8D8"/>
<path d="M20.5101 24.08H19.3201V25.27H20.5101V24.08Z" fill="#96C8D8"/>
<path d="M21.7 24.08H20.51V25.27H21.7V24.08Z" fill="#96C8D8"/>
<path d="M24.08 24.08H22.89V25.27H24.08V24.08Z" fill="#96C8D8"/>
<path d="M25.27 24.08H24.08V25.27H25.27V24.08Z" fill="#96C8D8"/>
<path d="M26.46 24.08H25.27V25.27H26.46V24.08Z" fill="#96C8D8"/>
<path d="M27.65 24.08H26.46V25.27H27.65V24.08Z" fill="#96C8D8"/>
<path d="M28.84 24.08H27.65V25.27H28.84V24.08Z" fill="#96C8D8"/>
<path d="M30.03 24.08H28.84V25.27H30.03V24.08Z" fill="#96C8D8"/>
<path d="M32.41 24.08H31.22V25.27H32.41V24.08Z" fill="#96C8D8"/>
<path d="M33.6 24.08H32.41V25.27H33.6V24.08Z" fill="#96C8D8"/>
<path d="M15.7499 25.27H14.5599V26.46H15.7499V25.27Z" fill="#96C8D8"/>
<path d="M16.94 25.27H15.75V26.46H16.94V25.27Z" fill="#96C8D8"/>
<path d="M18.1301 25.27H16.9401V26.46H18.1301V25.27Z" fill="#96C8D8"/>
<path d="M19.32 25.27H18.13V26.46H19.32V25.27Z" fill="#96C8D8"/>
<path d="M20.5101 25.27H19.3201V26.46H20.5101V25.27Z" fill="#96C8D8"/>
<path d="M25.27 25.27H24.08V26.46H25.27V25.27Z" fill="#96C8D8"/>
<path d="M30.03 25.27H28.84V26.46H30.03V25.27Z" fill="#96C8D8"/>
<path d="M32.41 25.27H31.22V26.46H32.41V25.27Z" fill="#96C8D8"/>
<path d="M33.6 25.27H32.41V26.46H33.6V25.27Z" fill="#96C8D8"/>
<path d="M6.22998 26.46H5.03998V27.65H6.22998V26.46Z" fill="#96C8D8"/>
<path d="M7.42004 26.46H6.23004V27.65H7.42004V26.46Z" fill="#96C8D8"/>
<path d="M8.60998 26.46H7.41998V27.65H8.60998V26.46Z" fill="#96C8D8"/>
<path d="M9.79999 26.46H8.60999V27.65H9.79999V26.46Z" fill="#96C8D8"/>
<path d="M10.9899 26.46H9.79993V27.65H10.9899V26.46Z" fill="#96C8D8"/>
<path d="M12.18 26.46H10.99V27.65H12.18V26.46Z" fill="#96C8D8"/>
<path d="M13.3699 26.46H12.1799V27.65H13.3699V26.46Z" fill="#96C8D8"/>
<path d="M16.94 26.46H15.75V27.65H16.94V26.46Z" fill="#96C8D8"/>
<path d="M19.32 26.46H18.13V27.65H19.32V26.46Z" fill="#96C8D8"/>
<path d="M22.8901 26.46H21.7001V27.65H22.8901V26.46Z" fill="#96C8D8"/>
<path d="M25.27 26.46H24.08V27.65H25.27V26.46Z" fill="#96C8D8"/>
<path d="M27.65 26.46H26.46V27.65H27.65V26.46Z" fill="#96C8D8"/>
<path d="M30.03 26.46H28.84V27.65H30.03V26.46Z" fill="#96C8D8"/>
<path d="M34.79 26.46H33.6V27.65H34.79V26.46Z" fill="#96C8D8"/>
<path d="M6.22998 27.65H5.03998V28.84H6.22998V27.65Z" fill="#96C8D8"/>
<path d="M13.3699 27.65H12.1799V28.84H13.3699V27.65Z" fill="#96C8D8"/>
<path d="M16.94 27.65H15.75V28.84H16.94V27.65Z" fill="#96C8D8"/>
<path d="M19.32 27.65H18.13V28.84H19.32V27.65Z" fill="#96C8D8"/>
<path d="M21.7 27.65H20.51V28.84H21.7V27.65Z" fill="#96C8D8"/>
<path d="M24.08 27.65H22.89V28.84H24.08V27.65Z" fill="#96C8D8"/>
<path d="M25.27 27.65H24.08V28.84H25.27V27.65Z" fill="#96C8D8"/>
<path d="M30.03 27.65H28.84V28.84H30.03V27.65Z" fill="#96C8D8"/>
<path d="M33.6 27.65H32.41V28.84H33.6V27.65Z" fill="#96C8D8"/>
<path d="M34.79 27.65H33.6V28.84H34.79V27.65Z" fill="#96C8D8"/>
<path d="M6.22998 28.84H5.03998V30.03H6.22998V28.84Z" fill="#96C8D8"/>
<path d="M8.60998 28.84H7.41998V30.03H8.60998V28.84Z" fill="#96C8D8"/>
<path d="M9.79999 28.84H8.60999V30.03H9.79999V28.84Z" fill="#96C8D8"/>
<path d="M10.9899 28.84H9.79993V30.03H10.9899V28.84Z" fill="#96C8D8"/>
<path d="M13.3699 28.84H12.1799V30.03H13.3699V28.84Z" fill="#96C8D8"/>
<path d="M15.7499 28.84H14.5599V30.03H15.7499V28.84Z" fill="#96C8D8"/>
<path d="M18.1301 28.84H16.9401V30.03H18.1301V28.84Z" fill="#96C8D8"/>
<path d="M19.32 28.84H18.13V30.03H19.32V28.84Z" fill="#96C8D8"/>
<path d="M20.5101 28.84H19.3201V30.03H20.5101V28.84Z" fill="#96C8D8"/>
<path d="M22.8901 28.84H21.7001V30.03H22.8901V28.84Z" fill="#96C8D8"/>
<path d="M24.08 28.84H22.89V30.03H24.08V28.84Z" fill="#96C8D8"/>
<path d="M25.27 28.84H24.08V30.03H25.27V28.84Z" fill="#96C8D8"/>
<path d="M26.46 28.84H25.27V30.03H26.46V28.84Z" fill="#96C8D8"/>
<path d="M27.65 28.84H26.46V30.03H27.65V28.84Z" fill="#96C8D8"/>
<path d="M28.84 28.84H27.65V30.03H28.84V28.84Z" fill="#96C8D8"/>
<path d="M30.03 28.84H28.84V30.03H30.03V28.84Z" fill="#96C8D8"/>
<path d="M6.22998 30.03H5.03998V31.22H6.22998V30.03Z" fill="#96C8D8"/>
<path d="M8.60998 30.03H7.41998V31.22H8.60998V30.03Z" fill="#96C8D8"/>
<path d="M9.79999 30.03H8.60999V31.22H9.79999V30.03Z" fill="#96C8D8"/>
<path d="M10.9899 30.03H9.79993V31.22H10.9899V30.03Z" fill="#96C8D8"/>
<path d="M13.3699 30.03H12.1799V31.22H13.3699V30.03Z" fill="#96C8D8"/>
<path d="M15.7499 30.03H14.5599V31.22H15.7499V30.03Z" fill="#96C8D8"/>
<path d="M16.94 30.03H15.75V31.22H16.94V30.03Z" fill="#96C8D8"/>
<path d="M19.32 30.03H18.13V31.22H19.32V30.03Z" fill="#96C8D8"/>
<path d="M20.5101 30.03H19.3201V31.22H20.5101V30.03Z" fill="#96C8D8"/>
<path d="M21.7 30.03H20.51V31.22H21.7V30.03Z" fill="#96C8D8"/>
<path d="M22.8901 30.03H21.7001V31.22H22.8901V30.03Z" fill="#96C8D8"/>
<path d="M27.65 30.03H26.46V31.22H27.65V30.03Z" fill="#96C8D8"/>
<path d="M33.6 30.03H32.41V31.22H33.6V30.03Z" fill="#96C8D8"/>
<path d="M34.79 30.03H33.6V31.22H34.79V30.03Z" fill="#96C8D8"/>
<path d="M6.22998 31.22H5.03998V32.41H6.22998V31.22Z" fill="#96C8D8"/>
<path d="M8.60998 31.22H7.41998V32.41H8.60998V31.22Z" fill="#96C8D8"/>
<path d="M9.79999 31.22H8.60999V32.41H9.79999V31.22Z" fill="#96C8D8"/>
<path d="M10.9899 31.22H9.79993V32.41H10.9899V31.22Z" fill="#96C8D8"/>
<path d="M13.3699 31.22H12.1799V32.41H13.3699V31.22Z" fill="#96C8D8"/>
<path d="M16.94 31.22H15.75V32.41H16.94V31.22Z" fill="#96C8D8"/>
<path d="M18.1301 31.22H16.9401V32.41H18.1301V31.22Z" fill="#96C8D8"/>
<path d="M19.32 31.22H18.13V32.41H19.32V31.22Z" fill="#96C8D8"/>
<path d="M21.7 31.22H20.51V32.41H21.7V31.22Z" fill="#96C8D8"/>
<path d="M24.08 31.22H22.89V32.41H24.08V31.22Z" fill="#96C8D8"/>
<path d="M26.46 31.22H25.27V32.41H26.46V31.22Z" fill="#96C8D8"/>
<path d="M30.03 31.22H28.84V32.41H30.03V31.22Z" fill="#96C8D8"/>
<path d="M31.22 31.22H30.03V32.41H31.22V31.22Z" fill="#96C8D8"/>
<path d="M32.41 31.22H31.22V32.41H32.41V31.22Z" fill="#96C8D8"/>
<path d="M33.6 31.22H32.41V32.41H33.6V31.22Z" fill="#96C8D8"/>
<path d="M34.79 31.22H33.6V32.41H34.79V31.22Z" fill="#96C8D8"/>
<path d="M6.22998 32.41H5.03998V33.6H6.22998V32.41Z" fill="#96C8D8"/>
<path d="M13.3699 32.41H12.1799V33.6H13.3699V32.41Z" fill="#96C8D8"/>
<path d="M15.7499 32.41H14.5599V33.6H15.7499V32.41Z" fill="#96C8D8"/>
<path d="M16.94 32.41H15.75V33.6H16.94V32.41Z" fill="#96C8D8"/>
<path d="M18.1301 32.41H16.9401V33.6H18.1301V32.41Z" fill="#96C8D8"/>
<path d="M19.32 32.41H18.13V33.6H19.32V32.41Z" fill="#96C8D8"/>
<path d="M22.8901 32.41H21.7001V33.6H22.8901V32.41Z" fill="#96C8D8"/>
<path d="M28.84 32.41H27.65V33.6H28.84V32.41Z" fill="#96C8D8"/>
<path d="M30.03 32.41H28.84V33.6H30.03V32.41Z" fill="#96C8D8"/>
<path d="M32.41 32.41H31.22V33.6H32.41V32.41Z" fill="#96C8D8"/>
<path d="M33.6 32.41H32.41V33.6H33.6V32.41Z" fill="#96C8D8"/>
<path d="M34.79 32.41H33.6V33.6H34.79V32.41Z" fill="#96C8D8"/>
<path d="M6.22998 33.6H5.03998V34.79H6.22998V33.6Z" fill="#96C8D8"/>
<path d="M7.42004 33.6H6.23004V34.79H7.42004V33.6Z" fill="#96C8D8"/>
<path d="M8.60998 33.6H7.41998V34.79H8.60998V33.6Z" fill="#96C8D8"/>
<path d="M9.79999 33.6H8.60999V34.79H9.79999V33.6Z" fill="#96C8D8"/>
<path d="M10.9899 33.6H9.79993V34.79H10.9899V33.6Z" fill="#96C8D8"/>
<path d="M12.18 33.6H10.99V34.79H12.18V33.6Z" fill="#96C8D8"/>
<path d="M13.3699 33.6H12.1799V34.79H13.3699V33.6Z" fill="#96C8D8"/>
<path d="M15.7499 33.6H14.5599V34.79H15.7499V33.6Z" fill="#96C8D8"/>
<path d="M18.1301 33.6H16.9401V34.79H18.1301V33.6Z" fill="#96C8D8"/>
<path d="M20.5101 33.6H19.3201V34.79H20.5101V33.6Z" fill="#96C8D8"/>
<path d="M25.27 33.6H24.08V34.79H25.27V33.6Z" fill="#96C8D8"/>
<path d="M26.46 33.6H25.27V34.79H26.46V33.6Z" fill="#96C8D8"/>
<path d="M31.22 33.6H30.03V34.79H31.22V33.6Z" fill="#96C8D8"/>
<path d="M34.79 33.6H33.6V34.79H34.79V33.6Z" fill="#96C8D8"/>
<path d="M52.3438 20.5703C52.3438 21.6328 52.1719 22.5573 51.8281 23.3438C51.4844 24.125 51.0078 24.7526 50.3984 25.2266L52.2891 26.7109L50.7969 28.0312L48.375 26.0859C48.099 26.1328 47.8125 26.1562 47.5156 26.1562C46.5729 26.1562 45.7318 25.9297 44.9922 25.4766C44.2526 25.0234 43.6797 24.3776 43.2734 23.5391C42.8672 22.6953 42.6615 21.7266 42.6562 20.6328V20.0703C42.6562 18.9505 42.8568 17.9661 43.2578 17.1172C43.6641 16.263 44.2344 15.6094 44.9688 15.1562C45.7083 14.6979 46.5521 14.4688 47.5 14.4688C48.4479 14.4688 49.2891 14.6979 50.0234 15.1562C50.763 15.6094 51.3333 16.263 51.7344 17.1172C52.1406 17.9661 52.3438 18.9479 52.3438 20.0625V20.5703ZM49.9688 20.0547C49.9688 18.862 49.7552 17.9557 49.3281 17.3359C48.901 16.7161 48.2917 16.4062 47.5 16.4062C46.7135 16.4062 46.1068 16.7135 45.6797 17.3281C45.2526 17.9375 45.0365 18.8333 45.0312 20.0156V20.5703C45.0312 21.7318 45.2448 22.6328 45.6719 23.2734C46.099 23.9141 46.7135 24.2344 47.5156 24.2344C48.3021 24.2344 48.9062 23.9271 49.3281 23.3125C49.75 22.6927 49.9635 21.7917 49.9688 20.6094V20.0547ZM58.2734 21.8359H56.4062V26H54.0625V14.625H58.2891C59.6328 14.625 60.6693 14.9245 61.3984 15.5234C62.1276 16.1224 62.4922 16.9688 62.4922 18.0625C62.4922 18.8385 62.3229 19.487 61.9844 20.0078C61.651 20.5234 61.1432 20.9349 60.4609 21.2422L62.9219 25.8906V26H60.4062L58.2734 21.8359ZM56.4062 19.9375H58.2969C58.8854 19.9375 59.3411 19.7891 59.6641 19.4922C59.987 19.1901 60.1484 18.776 60.1484 18.25C60.1484 17.7135 59.9948 17.2917 59.6875 16.9844C59.3854 16.6771 58.9193 16.5234 58.2891 16.5234H56.4062V19.9375ZM67.8438 21.4375L66.625 22.75V26H64.2812V14.625H66.625V19.7812L67.6562 18.3672L70.5547 14.625H73.4375L69.3984 19.6797L73.5547 26H70.7656L67.8438 21.4375ZM83.5312 20.5703C83.5312 21.6901 83.3333 22.6719 82.9375 23.5156C82.5417 24.3594 81.974 25.0104 81.2344 25.4688C80.5 25.9271 79.6562 26.1562 78.7031 26.1562C77.7604 26.1562 76.9193 25.9297 76.1797 25.4766C75.4401 25.0234 74.8672 24.3776 74.4609 23.5391C74.0547 22.6953 73.849 21.7266 73.8438 20.6328V20.0703C73.8438 18.9505 74.0443 17.9661 74.4453 17.1172C74.8516 16.263 75.4219 15.6094 76.1562 15.1562C76.8958 14.6979 77.7396 14.4688 78.6875 14.4688C79.6354 14.4688 80.4766 14.6979 81.2109 15.1562C81.9505 15.6094 82.5208 16.263 82.9219 17.1172C83.3281 17.9661 83.5312 18.9479 83.5312 20.0625V20.5703ZM81.1562 20.0547C81.1562 18.862 80.9427 17.9557 80.5156 17.3359C80.0885 16.7161 79.4792 16.4062 78.6875 16.4062C77.901 16.4062 77.2943 16.7135 76.8672 17.3281C76.4401 17.9375 76.224 18.8333 76.2188 20.0156V20.5703C76.2188 21.7318 76.4323 22.6328 76.8594 23.2734C77.2865 23.9141 77.901 24.2344 78.7031 24.2344C79.4896 24.2344 80.0938 23.9271 80.5156 23.3125C80.9375 22.6927 81.151 21.7917 81.1562 20.6094V20.0547ZM85.2344 26V14.625H88.7344C89.7344 14.625 90.6276 14.8516 91.4141 15.3047C92.2057 15.7526 92.8229 16.3932 93.2656 17.2266C93.7083 18.0547 93.9297 18.9974 93.9297 20.0547V20.5781C93.9297 21.6354 93.7109 22.5755 93.2734 23.3984C92.8411 24.2214 92.2292 24.8594 91.4375 25.3125C90.6458 25.7656 89.7526 25.9948 88.7578 26H85.2344ZM87.5781 16.5234V24.1172H88.7109C89.6276 24.1172 90.3281 23.8177 90.8125 23.2188C91.2969 22.6198 91.5443 21.763 91.5547 20.6484V20.0469C91.5547 18.8906 91.3151 18.0156 90.8359 17.4219C90.3568 16.8229 89.6562 16.5234 88.7344 16.5234H87.5781Z" fill="#96C8D8"/>
</svg>
