<svg width="20" height="20" viewBox="0 0 20 20" fill="none" xmlns="http://www.w3.org/2000/svg">
<path d="M2.06729 3.91187C1.28178 4.93386 0.689485 6.11179 0.344604 7.39144H5.54683L2.06729 3.91187Z" fill="#0052B4"/>
<path d="M19.6557 7.3914C19.3108 6.11179 18.7185 4.93386 17.933 3.91187L14.4535 7.3914H19.6557Z" fill="#0052B4"/>
<path d="M0.344604 12.6082C0.689527 13.8878 1.28183 15.0657 2.0673 16.0876L5.54677 12.6082H0.344604Z" fill="#0052B4"/>
<path d="M16.0882 2.06697C15.0662 1.28146 13.8883 0.68916 12.6086 0.344238V5.54646L16.0882 2.06697Z" fill="#0052B4"/>
<path d="M3.91217 17.9326C4.93415 18.7181 6.11206 19.3104 7.39165 19.6553V14.4531L3.91217 17.9326Z" fill="#0052B4"/>
<path d="M7.39171 0.344238C6.11208 0.68916 4.93414 1.28146 3.91217 2.06693L7.39171 5.54643V0.344238Z" fill="#0052B4"/>
<path d="M12.6086 19.6553C13.8883 19.3104 15.0662 18.7181 16.0882 17.9326L12.6086 14.4531V19.6553Z" fill="#0052B4"/>
<path d="M14.4535 12.6082L17.933 16.0877C18.7185 15.0657 19.3108 13.8878 19.6557 12.6082H14.4535Z" fill="#0052B4"/>
<path d="M19.9154 8.69566H11.3044H11.3044V0.0846484C10.8774 0.0290625 10.4421 0 10 0C9.55785 0 9.12262 0.0290625 8.69566 0.0846484V8.69559V8.69563H0.0846484C0.0290625 9.12262 0 9.55793 0 10C0 10.4421 0.0290625 10.8774 0.0846484 11.3043H8.69559H8.69563V19.9154C9.12262 19.9709 9.55785 20 10 20C10.4421 20 10.8774 19.971 11.3043 19.9154V11.3044V11.3044H19.9154C19.9709 10.8774 20 10.4421 20 10C20 9.55793 19.9709 9.12262 19.9154 8.69566Z" fill="#D80027"/>
<path d="M12.6086 12.6092L17.071 17.0715C17.2762 16.8664 17.472 16.6519 17.6588 16.4295L13.8384 12.6091H12.6086V12.6092Z" fill="#D80027"/>
<path d="M7.39114 12.6091H7.39106L2.92865 17.0714C3.13381 17.2767 3.34831 17.4725 3.57066 17.6592L7.39114 13.8388V12.6091Z" fill="#D80027"/>
<path d="M7.39119 7.39142V7.39134L2.92877 2.92896C2.72353 3.13411 2.52774 3.3486 2.34094 3.57095L6.16144 7.39138H7.39119V7.39142Z" fill="#D80027"/>
<path d="M12.6086 7.3915L17.0711 2.92908C16.8659 2.72385 16.6514 2.52807 16.4291 2.34131L12.6086 6.16174V7.3915Z" fill="#D80027"/>
</svg>
