<svg width="1326" height="17" viewBox="0 0 1326 17" fill="none" xmlns="http://www.w3.org/2000/svg">
<g clip-path="url(#clip0)">
<path d="M0 2.2713L21.8036 15.0809L43.6071 2.2713" stroke="#DFEAF0" stroke-width="5"/>
<path d="M87.2144 15.0809L65.4108 2.27133L43.6072 15.0809" stroke="#DFEAF0" stroke-width="5"/>
<path d="M87.2144 2.2713L109.018 15.0809L130.822 2.2713" stroke="#DFEAF0" stroke-width="5"/>
<path d="M174.429 15.0809L152.625 2.27133L130.822 15.0809" stroke="#DFEAF0" stroke-width="5"/>
<path d="M174.429 2.2713L196.232 15.0809L218.036 2.2713" stroke="#DFEAF0" stroke-width="5"/>
<path d="M261.643 15.0809L239.839 2.27133L218.036 15.0809" stroke="#DFEAF0" stroke-width="5"/>
<path d="M261.643 2.2713L283.447 15.0809L305.25 2.2713" stroke="#DFEAF0" stroke-width="5"/>
<path d="M348.857 15.0809L327.054 2.27133L305.25 15.0809" stroke="#DFEAF0" stroke-width="5"/>
<path d="M348.857 2.2713L370.661 15.0809L392.465 2.2713" stroke="#DFEAF0" stroke-width="5"/>
<path d="M442.071 14.8096L420.268 1.99997L398.464 14.8096" stroke="#DFEAF0" stroke-width="5"/>
<path d="M442.071 2L463.875 14.8096L485.678 2" stroke="#DFEAF0" stroke-width="5"/>
<path d="M529.286 14.8096L507.482 1.99997L485.678 14.8096" stroke="#DFEAF0" stroke-width="5"/>
<path d="M529.286 2L551.089 14.8096L572.893 2" stroke="#DFEAF0" stroke-width="5"/>
<path d="M616.5 14.8096L594.696 1.99997L572.893 14.8096" stroke="#DFEAF0" stroke-width="5"/>
<path d="M616.5 2L638.304 14.8096L660.107 2" stroke="#DFEAF0" stroke-width="5"/>
<path d="M703.714 14.8096L681.911 1.99997L660.107 14.8096" stroke="#DFEAF0" stroke-width="5"/>
<path d="M703.714 2L725.518 14.8096L747.322 2" stroke="#DFEAF0" stroke-width="5"/>
<path d="M790.929 14.8096L769.125 1.99997L747.322 14.8096" stroke="#DFEAF0" stroke-width="5"/>
<path d="M790.929 2L812.732 14.8096L834.536 2" stroke="#DFEAF0" stroke-width="5"/>
<path d="M884.143 14.8096L862.339 1.99997L840.536 14.8096" stroke="#DFEAF0" stroke-width="5"/>
<path d="M884.143 2L905.947 14.8096L927.75 2" stroke="#DFEAF0" stroke-width="5"/>
<path d="M971.357 14.8096L949.554 1.99997L927.75 14.8096" stroke="#DFEAF0" stroke-width="5"/>
<path d="M971.357 2L993.161 14.8096L1014.96 2" stroke="#DFEAF0" stroke-width="5"/>
<path d="M1058.57 14.8096L1036.77 1.99997L1014.96 14.8096" stroke="#DFEAF0" stroke-width="5"/>
<path d="M1058.57 2L1080.38 14.8096L1102.18 2" stroke="#DFEAF0" stroke-width="5"/>
<path d="M1145.79 14.8096L1123.98 1.99997L1102.18 14.8096" stroke="#DFEAF0" stroke-width="5"/>
<path d="M1145.79 2L1167.59 14.8096L1189.39 2" stroke="#DFEAF0" stroke-width="5"/>
<path d="M1233 14.8096L1211.2 1.99997L1189.39 14.8096" stroke="#DFEAF0" stroke-width="5"/>
<path d="M1239 2L1260.8 14.8096L1282.61 2" stroke="#DFEAF0" stroke-width="5"/>
<path d="M1326.21 14.8096L1304.41 1.99997L1282.61 14.8096" stroke="#DFEAF0" stroke-width="5"/>
<path d="M1326.21 2L1348.02 14.8096L1369.82 2" stroke="#DFEAF0" stroke-width="5"/>
</g>
<defs>
<clipPath id="clip0">
<rect width="1326" height="17" fill="white"/>
</clipPath>
</defs>
</svg>
