<svg width="24" height="24" viewBox="0 0 24 24" fill="none" xmlns="http://www.w3.org/2000/svg">
<path d="M19.7782 4.22182C17.7007 2.14421 14.9382 1 12 1C9.06184 1 6.29926 2.14421 4.22182 4.22182C2.14421 6.29926 1 9.06184 1 12C1 14.9382 2.14421 17.7007 4.22182 19.7782C6.29926 21.8558 9.06184 23 12 23C13.4692 23 14.8943 22.7138 16.2118 22.1682C17.5292 21.6225 18.7392 20.8172 19.7782 19.7782C21.8558 17.7007 23 14.9382 23 12C23 9.06184 21.8558 6.29926 19.7782 4.22182ZM15.7745 14.8631C17.43 13.4091 19.4933 12.5752 21.6945 12.4713C21.5926 14.5979 20.7963 16.697 19.3077 18.3963L15.7745 14.8631ZM21.6718 11.1814V11.1821C20.4512 11.2361 19.2595 11.4897 18.1199 11.9404C16.9187 12.4153 15.8254 13.0903 14.8615 13.9499L12.9114 12L19.3077 5.6037C20.7153 7.21033 21.5038 9.1743 21.6718 11.1814ZM11.9404 18.1199C11.4899 19.2594 11.2363 20.4514 11.1823 21.6718C11.1819 21.6718 11.1817 21.6718 11.1814 21.6718C9.1743 21.5038 7.21033 20.7153 5.6037 19.3077L12 12.9114L13.9499 14.8615C13.0903 15.8254 12.4153 16.9187 11.9404 18.1199ZM8.2253 9.13687C6.56999 10.5906 4.50598 11.4236 2.30551 11.5284C2.40739 9.40173 3.20349 7.30298 4.69229 5.6037L8.2253 9.13687ZM5.6037 4.69229C7.30298 3.20316 9.40224 2.40689 11.5287 2.30501C11.4246 4.50648 10.5909 6.56999 9.13687 8.2253L5.6037 4.69229ZM12.0596 5.87997C12.5101 4.74046 12.7637 3.54825 12.8177 2.32767H12.8189C14.8255 2.49619 16.7897 3.28423 18.3963 4.69229L12 11.0884L10.0501 9.13855C10.9095 8.17444 11.5846 7.08125 12.0596 5.87997ZM2.32817 12.8186C2.32817 12.8184 2.32817 12.8184 2.32817 12.8184C3.54858 12.7642 4.74046 12.5101 5.87997 12.0596C7.08125 11.5847 8.17444 10.9097 9.13855 10.0501L11.0884 12L4.69229 18.3963C3.28456 16.7897 2.49619 14.8255 2.32817 12.8186ZM12.4713 21.6947C12.5754 19.4932 13.4091 17.43 14.8631 15.7745L18.3963 19.3077C16.697 20.7965 14.5981 21.5926 12.4713 21.6947Z" fill="#1BA3C4" stroke="#1BA3C4" stroke-width="0.4"/>
</svg>
