<svg width="24" height="28" viewBox="0 0 24 28" fill="none" xmlns="http://www.w3.org/2000/svg">
<path d="M7.41031 19.3305C7.63339 17.2485 8.90084 15.4232 10.7737 14.4868L10.9206 14.4133C12.2166 13.7653 13.7101 13.6323 15.1002 14.0412C17.539 14.7585 19.2137 16.9967 19.2137 19.5388V20.386C19.2137 23.6673 16.5537 26.3273 13.2725 26.3273C9.74074 26.3273 6.98879 23.2648 7.36504 19.7531L7.41031 19.3305Z" fill="#E8F3FA"/>
<path d="M6.91193 21.6628C6.42819 21.3141 5.99812 20.8957 5.63646 20.4222L2.95029 23.1084L4.20832 24.3664L6.91193 21.6628Z" fill="#1BA3C4"/>
<path d="M9.66649 22.7506V26.595H11.2902V22.7403C11.0125 22.7794 10.7287 22.7997 10.4402 22.7997C10.1781 22.7997 9.91983 22.783 9.66649 22.7506Z" fill="#1BA3C4"/>
<path d="M14.001 21.6392L16.7381 24.3763L18.0161 23.0982L15.2853 20.3674C14.9232 20.8527 14.49 21.2818 14.001 21.6392Z" fill="#1BA3C4"/>
<path d="M16.4156 17.6519H20.2348V16.0248H16.437C16.4662 16.2654 16.4812 16.5103 16.4812 16.7587C16.4812 17.0622 16.4588 17.3605 16.4156 17.6519Z" fill="#1BA3C4"/>
<path d="M15.3443 13.2304L18.0063 10.5685L16.7482 9.31043L14.1037 11.955C14.5772 12.3166 14.9956 12.7467 15.3443 13.2304Z" fill="#1BA3C4"/>
<path d="M11.2902 10.7771V7.08179H9.66649V10.7668C9.91983 10.7344 10.1781 10.7177 10.4402 10.7177C10.7287 10.7177 11.0125 10.738 11.2902 10.7771Z" fill="#1BA3C4"/>
<path d="M6.83151 11.9136L4.21821 9.30031L2.94013 10.5784L5.55971 13.198C5.91709 12.709 6.34618 12.2757 6.83151 11.9136Z" fill="#1BA3C4"/>
<path d="M4.44338 16.0248H0.721558V17.6519H4.46483C4.42163 17.3605 4.39925 17.0622 4.39925 16.7587C4.39925 16.5103 4.41424 16.2654 4.44338 16.0248Z" fill="#1BA3C4"/>
<path fill-rule="evenodd" clip-rule="evenodd" d="M10.4781 25.5307C15.5335 25.5307 19.187 21.894 19.187 16.8385C19.187 11.783 15.5335 8.17011 10.4781 8.17011C5.42257 8.17011 1.82645 11.783 1.82645 16.8385C1.82645 21.894 5.42257 25.5307 10.4781 25.5307ZM10.4781 27.2435C16.2245 27.2435 20.883 22.585 20.883 16.8385C20.883 11.092 16.2245 6.43359 10.4781 6.43359C4.73157 6.43359 0.0731201 11.092 0.0731201 16.8385C0.0731201 22.585 4.73157 27.2435 10.4781 27.2435Z" fill="#1BA3C4"/>
<path fill-rule="evenodd" clip-rule="evenodd" d="M10.4401 21.237C12.9134 21.237 14.9184 19.232 14.9184 16.7587C14.9184 14.2854 12.9134 12.2804 10.4401 12.2804C7.96684 12.2804 5.96184 14.2854 5.96184 16.7587C5.96184 19.232 7.96684 21.237 10.4401 21.237ZM10.4401 22.7997C13.7765 22.7997 16.4811 20.0951 16.4811 16.7587C16.4811 13.4224 13.7765 10.7178 10.4401 10.7178C7.1038 10.7178 4.39917 13.4224 4.39917 16.7587C4.39917 20.0951 7.1038 22.7997 10.4401 22.7997Z" fill="#1BA3C4"/>
<path d="M11.0524 0.207617C9.63021 -0.180465 8.16272 0.65782 7.77464 2.07998L6.21558 7.7933C6.7425 7.58973 7.29151 7.43059 7.85804 7.32046L9.18319 2.46435C9.35899 1.82011 10.0238 1.44037 10.668 1.61617L17.377 3.44692C18.0395 3.62772 18.4186 4.3234 18.2115 4.9782L18.2017 5.0091L16.2088 3.99067C14.8961 3.31983 13.2882 3.84015 12.6173 5.15283L11.5179 7.30423C12.0131 7.39591 12.4953 7.52498 12.9612 7.68842L13.9175 5.81725C14.2214 5.2226 14.9498 4.9869 15.5444 5.29079L21.8075 8.49148C22.4021 8.79537 22.6378 9.52378 22.3339 10.1184L19.4274 15.8058C19.4674 16.1644 19.4879 16.5289 19.4879 16.8981C19.4879 17.7733 19.3727 18.6216 19.1565 19.4287C19.2653 19.2918 19.3621 19.1421 19.4447 18.9804L23.6341 10.7828C24.3049 9.47016 23.7846 7.8622 22.4719 7.19137L19.5199 5.68278L19.6035 5.41867C20.0609 3.97321 19.2239 2.43749 17.7613 2.03837L11.0524 0.207617Z" fill="#1BA3C4"/>
<path d="M12.0401 3.37721C12.112 3.43106 12.1726 3.49856 12.2184 3.57584C12.2643 3.6531 12.2945 3.73864 12.3073 3.82757C12.3201 3.91651 12.3152 4.00709 12.293 4.09415C12.2708 4.18121 12.2316 4.26304 12.1778 4.33497C12.1239 4.40689 12.0564 4.4675 11.9792 4.51333L10.6421 5.30669L9.84871 3.9696C9.75612 3.81355 9.72932 3.62711 9.77419 3.4513C9.81906 3.27548 9.93193 3.1247 10.088 3.03211C10.244 2.93952 10.4305 2.91271 10.6063 2.95758C10.7821 3.00245 10.9329 3.11532 11.0255 3.27137L11.1206 3.4317L11.2809 3.33657C11.3582 3.2907 11.4437 3.26051 11.5327 3.24771C11.6216 3.23491 11.7122 3.23976 11.7992 3.26198C11.8863 3.2842 11.9681 3.32335 12.0401 3.37721Z" fill="#1BA3C4"/>
<path d="M20.3272 9.37546C19.9005 9.16325 19.4376 8.54012 19.4376 8.54012C19.4376 8.54012 19.4821 9.33975 19.2552 9.76821C19.0339 10.186 18.3718 10.5958 18.3718 10.5958C18.3718 10.5958 19.1488 10.6125 19.5683 10.8391C19.9644 11.053 20.3935 11.6441 20.3935 11.6441C20.3935 11.6441 20.3803 10.879 20.5924 10.4615C20.8101 10.0331 21.4593 9.58832 21.4593 9.58832C21.4593 9.58832 20.73 9.57578 20.3272 9.37546Z" fill="#1BA3C4"/>
</svg>
