<svg width="22" height="24" viewBox="0 0 22 24" fill="none" xmlns="http://www.w3.org/2000/svg">
<path d="M14.9247 10.1551C14.8234 10.1551 14.7228 10.1578 14.6226 10.1624C14.3745 8.87796 14.376 7.20568 15.1663 5.3241C15.9148 5.10615 16.7119 4.94463 17.5578 4.84137L17.3994 3.54461C15.3384 3.79631 13.5066 4.38059 11.9447 5.28129C11.959 4.16242 11.6212 3.22213 10.934 2.47703C8.91491 0.287658 4.59831 0.733719 4.41546 0.753795L3.70058 0.832268L3.84729 1.53631C3.88478 1.71633 4.79689 5.95894 7.50387 7.20132C8.00102 7.42947 8.5205 7.54343 9.0601 7.54343C9.08989 7.54343 9.11985 7.54243 9.14977 7.54174C8.80657 7.92496 8.48845 8.33213 8.19763 8.76334C7.8739 9.24333 7.60791 9.71604 7.38956 10.163C7.28522 10.1579 7.18049 10.1553 7.07545 10.1553C3.534 10.1553 0.652832 13.0364 0.652832 16.5779C0.652832 20.119 3.534 23 7.07545 23C8.5073 23 9.8812 22.5274 11.0024 21.6594C12.0881 22.4993 13.4489 23 14.9248 23C18.4661 23 21.3471 20.1189 21.3471 16.5776C21.3471 13.0362 18.466 10.1551 14.9247 10.1551ZM8.05079 6.0149C6.52357 5.31565 5.67826 3.15847 5.32539 2.00858C6.685 1.98764 8.90659 2.20568 9.97378 3.36275C10.5359 3.97229 10.7401 4.78411 10.5945 5.83797C9.63842 6.30219 8.80386 6.35967 8.05079 6.0149ZM9.28067 9.49368C10.3506 7.90723 11.7873 6.70906 13.5728 5.90738C13.0569 7.65256 13.1113 9.19133 13.3281 10.3561C12.471 10.5762 11.6827 10.9694 11.0023 11.4958C10.3282 10.9739 9.56269 10.5951 8.74808 10.3759C8.90233 10.0891 9.07878 9.79307 9.28067 9.49368ZM7.07541 21.6935C4.25433 21.6935 1.95918 19.3986 1.95918 16.5778C1.95918 13.8332 4.13165 11.5867 6.84721 11.4669C6.51821 12.4175 6.43303 13.072 6.42715 13.12L7.7237 13.2799C7.7251 13.2687 7.81559 12.5743 8.19428 11.5849C8.85808 11.7331 9.48574 12.0127 10.0424 12.41C9.08275 13.5325 8.50234 14.9885 8.50234 16.5776C8.50234 18.1667 9.08275 19.6227 10.0424 20.7452C9.18034 21.3603 8.14838 21.6935 7.07541 21.6935ZM14.9247 21.6935C12.1037 21.6935 9.80869 19.3985 9.80869 16.5775C9.80869 14.1937 11.4477 12.1855 13.6579 11.6204C14.0656 12.829 14.5844 13.5497 14.6099 13.5847L15.6654 12.815C15.6563 12.8024 15.3065 12.3103 14.9888 11.4624C17.7803 11.4969 20.0407 13.778 20.0407 16.5776C20.0407 19.3985 17.7457 21.6935 14.9247 21.6935Z" fill="#1BA3C4" stroke="#1BA3C4" stroke-width="0.37626"/>
</svg>
