<svg width="22" height="22" viewBox="0 0 22 22" fill="none" xmlns="http://www.w3.org/2000/svg">
<g clip-path="url(#clip0_14966_587)">
<path d="M-0.00103569 10.3098C0.131538 8.1648 0.888908 6.1055 2.1777 4.38575C3.4665 2.66601 5.23038 1.361 7.25189 0.631607C9.2734 -0.0977824 11.4642 -0.219666 13.5541 0.280983C15.6441 0.781631 17.5418 1.88293 19.0134 3.4491C20.485 5.01527 21.4662 6.97784 21.8359 9.09488C22.2055 11.2119 21.9476 13.3909 21.0939 15.3631C20.2402 17.3353 18.828 19.0146 17.0314 20.194C15.2349 21.3733 13.1325 22.0011 10.9834 22H4.5823C3.36709 21.9988 2.20201 21.5155 1.34273 20.6563C0.483452 19.797 0.000177383 18.6319 -0.00103569 17.4167V10.3098ZM1.8323 17.4167C1.8323 18.146 2.12203 18.8455 2.63775 19.3612C3.15348 19.877 3.85295 20.1667 4.5823 20.1667H10.9834C12.2769 20.1661 13.5557 19.8929 14.7365 19.3649C15.9173 18.8369 16.9735 18.0659 17.8364 17.1023C18.7034 16.1391 19.3544 15.0017 19.7459 13.7663C20.1373 12.531 20.2601 11.2262 20.106 9.93945C19.8627 7.90989 18.9509 6.01903 17.5142 4.56496C16.0776 3.11088 14.1979 2.1763 12.1714 1.90853C11.7761 1.85898 11.3781 1.83388 10.9797 1.83336C8.84345 1.82753 6.77331 2.57394 5.1323 3.94169C4.1739 4.73823 3.38723 5.72108 2.81998 6.83069C2.25273 7.94029 1.91671 9.15353 1.8323 10.3969V17.4167Z" fill="#1BA3C4"/>
<path d="M7.33341 8.24996H11.0001C11.2432 8.24996 11.4764 8.15338 11.6483 7.98147C11.8202 7.80957 11.9167 7.57641 11.9167 7.33329C11.9167 7.09018 11.8202 6.85702 11.6483 6.68511C11.4764 6.5132 11.2432 6.41663 11.0001 6.41663H7.33341C7.0903 6.41663 6.85714 6.5132 6.68523 6.68511C6.51333 6.85702 6.41675 7.09018 6.41675 7.33329C6.41675 7.57641 6.51333 7.80957 6.68523 7.98147C6.85714 8.15338 7.0903 8.24996 7.33341 8.24996Z" fill="#1BA3C4"/>
<path d="M14.6667 10.0834H7.33341C7.0903 10.0834 6.85714 10.18 6.68523 10.3519C6.51333 10.5238 6.41675 10.7569 6.41675 11C6.41675 11.2432 6.51333 11.4763 6.68523 11.6482C6.85714 11.8201 7.0903 11.9167 7.33341 11.9167H14.6667C14.9099 11.9167 15.143 11.8201 15.3149 11.6482C15.4868 11.4763 15.5834 11.2432 15.5834 11C15.5834 10.7569 15.4868 10.5238 15.3149 10.3519C15.143 10.18 14.9099 10.0834 14.6667 10.0834Z" fill="#1BA3C4"/>
<path d="M14.6667 13.75H7.33341C7.0903 13.75 6.85714 13.8466 6.68523 14.0185C6.51333 14.1904 6.41675 14.4236 6.41675 14.6667C6.41675 14.9098 6.51333 15.1429 6.68523 15.3148C6.85714 15.4868 7.0903 15.5833 7.33341 15.5833H14.6667C14.9099 15.5833 15.143 15.4868 15.3149 15.3148C15.4868 15.1429 15.5834 14.9098 15.5834 14.6667C15.5834 14.4236 15.4868 14.1904 15.3149 14.0185C15.143 13.8466 14.9099 13.75 14.6667 13.75Z" fill="#1BA3C4"/>
</g>
<defs>
<clipPath id="clip0_14966_587">
<rect width="22" height="22" fill="white"/>
</clipPath>
</defs>
</svg>
