<svg width="9" height="30" viewBox="0 0 9 30" fill="none" xmlns="http://www.w3.org/2000/svg">
<path d="M4.75077 15L0.0981908 2.72338C-0.244647 1.6284 0.338996 0.454388 1.40179 0.101166C2.46459 -0.252056 3.60409 0.349262 3.94692 1.44425L9 15L3.94692 28.5557C3.60409 29.6507 2.46459 30.2521 1.40179 29.8988C0.338996 29.5456 -0.244647 28.3716 0.0981909 27.2766L4.75077 15Z" fill="#FF9E2C"/>
<path d="M4.75077 15L0.0981908 2.72338C-0.244647 1.6284 0.338996 0.454388 1.40179 0.101166C2.46459 -0.252056 3.60409 0.349262 3.94692 1.44425L9 15L3.94692 28.5557C3.60409 29.6507 2.46459 30.2521 1.40179 29.8988C0.338996 29.5456 -0.244647 28.3716 0.0981909 27.2766L4.75077 15Z" fill="url(#paint0_linear)"/>
<defs>
<linearGradient id="paint0_linear" x1="4.5" y1="30" x2="4.5" y2="0" gradientUnits="userSpaceOnUse">
<stop stop-color="#ffb72c"/>
<stop offset="1" stop-color="#ff9e2c"/>
</linearGradient>
</defs>
</svg>
