<svg width="90" height="36" viewBox="0 0 90 36" fill="none" xmlns="http://www.w3.org/2000/svg">
<path fill-rule="evenodd" clip-rule="evenodd" d="M18.7313 29.0564C19.8435 29.0564 20.2694 28.4175 20.2694 27.8022C20.2694 26.2404 17.7847 26.7847 17.7847 25.8381C17.7847 25.4595 18.1397 25.1755 18.6366 25.1755C18.8679 25.178 19.0963 25.2275 19.3079 25.3211C19.5194 25.4146 19.7097 25.5503 19.8671 25.7198L20.1747 25.3412C19.9785 25.1478 19.7454 24.9959 19.4893 24.8942C19.2332 24.7926 18.9594 24.7434 18.6839 24.7496C17.8557 24.7496 17.2404 25.2229 17.2404 25.9328C17.2404 27.4236 19.7251 26.8083 19.7251 27.8969C19.7251 28.2282 19.4885 28.6304 18.7313 28.6304C18.4878 28.6395 18.2453 28.5955 18.0206 28.5015C17.7959 28.4076 17.5943 28.2658 17.4297 28.0862L17.1221 28.4885C17.3213 28.7166 17.5695 28.8969 17.8482 29.0157C18.1268 29.1345 18.4287 29.1889 18.7313 29.1747V29.0564ZM27.6052 29.1747V25.2465H28.9303V24.7733H25.7594V25.2465H27.0846V28.9617H27.6052V29.1747ZM36.3608 28.9617C36.5922 28.9843 36.8257 28.9549 37.0443 28.8757C37.2629 28.7966 37.4611 28.6696 37.6243 28.504C37.7876 28.3385 37.9118 28.1386 37.988 27.9189C38.0642 27.6993 38.0903 27.4654 38.0646 27.2343V24.7733H37.544V27.3289C37.544 27.6427 37.4193 27.9437 37.1974 28.1656C36.9755 28.3875 36.6746 28.5121 36.3608 28.5121C36.047 28.5121 35.746 28.3875 35.5241 28.1656C35.3022 27.9437 35.1776 27.6427 35.1776 27.3289V24.7733H34.657V27.3526C34.635 27.5818 34.664 27.8131 34.7418 28.0298C34.8197 28.2465 34.9445 28.4433 35.1073 28.6061C35.2701 28.7689 35.4669 28.8937 35.6836 28.9716C35.9003 29.0494 36.1316 29.0784 36.3608 29.0564V28.9617ZM45.5187 28.5121H44.5958V25.2465H45.5187C45.9517 25.2465 46.367 25.4186 46.6732 25.7248C46.9794 26.031 47.1515 26.4463 47.1515 26.8793C47.1515 27.3124 46.9794 27.7277 46.6732 28.0339C46.367 28.3401 45.9517 28.5121 45.5187 28.5121V28.5121ZM45.5187 28.9617C45.8124 28.993 46.1094 28.9621 46.3904 28.8711C46.6714 28.7801 46.9302 28.6311 47.1498 28.4336C47.3694 28.2361 47.5451 27.9946 47.6653 27.7248C47.7855 27.455 47.8477 27.1629 47.8477 26.8675C47.8477 26.5721 47.7855 26.28 47.6653 26.0102C47.5451 25.7404 47.3694 25.4989 47.1498 25.3014C46.9302 25.1039 46.6714 24.9548 46.3904 24.8639C46.1094 24.7729 45.8124 24.742 45.5187 24.7733H44.0042V28.9617H45.5187ZM53.517 28.9617H54.0376V24.7733H53.4697L53.517 28.9617ZM61.965 28.5831C61.5131 28.5831 61.0798 28.4036 60.7602 28.0841C60.4407 27.7646 60.2612 27.3312 60.2612 26.8793C60.2612 26.4275 60.4407 25.9941 60.7602 25.6746C61.0798 25.355 61.5131 25.1755 61.965 25.1755C62.4169 25.1755 62.8502 25.355 63.1698 25.6746C63.4893 25.9941 63.6688 26.4275 63.6688 26.8793C63.6688 27.3312 63.4893 27.7646 63.1698 28.0841C62.8502 28.4036 62.4169 28.5831 61.965 28.5831ZM61.965 29.0564C62.3991 29.0753 62.829 28.9638 63.1992 28.7364C63.5695 28.5089 63.8632 28.1759 64.0426 27.7801C64.2219 27.3844 64.2788 26.944 64.2058 26.5156C64.1328 26.0873 63.9333 25.6906 63.6329 25.3765C63.3325 25.0625 62.9451 24.8456 62.5204 24.7536C62.0957 24.6617 61.6532 24.6989 61.2499 24.8605C60.8465 25.0222 60.5008 25.3008 60.2571 25.6606C60.0134 26.0203 59.883 26.4448 59.8826 26.8793C59.8663 27.1615 59.9083 27.444 60.006 27.7092C60.1036 27.9744 60.2548 28.2166 60.4502 28.4209C60.6455 28.6251 60.8809 28.7869 61.1415 28.8963C61.4021 29.0056 61.6824 29.0601 61.965 29.0564ZM71.2412 29.0564C72.3771 29.0564 72.7794 28.4175 72.7794 27.8022C72.7794 26.2404 70.2947 26.7847 70.2947 25.8381C70.2947 25.4595 70.6733 25.1755 71.1702 25.1755C71.4022 25.1736 71.632 25.2212 71.8441 25.315C72.0563 25.4089 72.2461 25.5469 72.4007 25.7198L72.7084 25.3412C72.5121 25.1478 72.279 24.9959 72.0229 24.8942C71.7669 24.7926 71.493 24.7434 71.2175 24.7496C70.3893 24.7496 69.7741 25.2229 69.7741 25.9328C69.7741 27.4236 72.2588 26.8083 72.2588 27.8969C72.2588 28.2282 72.0221 28.6304 71.2885 28.6304C71.053 28.6327 70.8196 28.5854 70.6036 28.4917C70.3875 28.3979 70.1936 28.2597 70.0344 28.0862L69.7267 28.4885C69.926 28.7166 70.1742 28.8969 70.4528 29.0157C70.7314 29.1345 71.0333 29.1889 71.3359 29.1747L71.2412 29.0564ZM58.4864 16.0176V20.7504H53.4697H35.3196H20.577C20.0393 20.759 19.5053 20.661 19.0057 20.4619C18.5061 20.2629 18.0509 19.9669 17.6664 19.5909C16.9519 18.8444 16.5462 17.8554 16.5305 16.8222V10.9063C16.5196 9.8019 16.9155 8.73213 17.6427 7.90097C18.3671 7.19967 19.3322 6.80179 20.3404 6.78877H40.5256V15.5917H52.3575V6.78877H58.3444V10.9063L64.2131 6.78877H72.1168L63.8581 13.6513L72.2114 20.7504H64.0238L58.4864 16.0176ZM65.3253 13.6513L74.7908 5.88954H63.9054L59.4093 9.15515V5.88954H51.5766V14.6215H41.6378V5.81855H20.3404C19.6961 5.80214 19.0552 5.9175 18.457 6.15758C17.8588 6.39766 17.316 6.75739 16.8618 7.21472C15.9806 8.22654 15.5304 9.54307 15.6076 10.8826V16.7749C15.627 18.0416 16.1162 19.2559 16.9801 20.1825C17.4496 20.6571 18.0103 21.0318 18.6285 21.284C19.2467 21.5361 19.9095 21.6605 20.577 21.6496H36.3608H54.4872H59.4093V18.0054L63.6925 21.5786H74.7671L65.3253 13.6513Z" fill="#87CADA"/>
<path fill-rule="evenodd" clip-rule="evenodd" d="M34.5388 7.71162V10.9772H22.4703C22.366 10.9717 22.2618 10.9877 22.164 11.0244C22.0663 11.061 21.9772 11.1175 21.9023 11.1902C21.7742 11.342 21.7068 11.5359 21.713 11.7345V12.1841H34.5388V15.3787H21.713V15.8046C21.714 15.9877 21.7812 16.1643 21.9023 16.3016C22.0434 16.4348 22.229 16.5107 22.4229 16.5145H34.5388V19.7802H20.6955C20.2628 19.7971 19.8311 19.7285 19.425 19.5783C19.0189 19.428 18.6465 19.1991 18.3291 18.9046C17.7988 18.3199 17.4964 17.564 17.4772 16.7749V10.8352C17.4466 9.96629 17.7517 9.11891 18.3291 8.46886C18.9221 7.94526 19.6917 7.66618 20.4825 7.68795H34.5388V7.71162ZM35.5327 7.68795H39.7448V16.4909H52.6889V19.7802H35.4853V7.68795H35.5327ZM64.4971 7.68795H69.5375L62.4384 13.5802L69.6795 19.6618H64.3788L57.5637 13.9589V19.6618H53.4698V7.75894H57.5873V12.7757L64.5681 7.75894" fill="#87CADA"/>
</svg>
