<svg width="90" height="36" viewBox="0 0 90 36" fill="none" xmlns="http://www.w3.org/2000/svg">
<path d="M22.4309 17.5494C22.8288 16.9794 23.0321 16.3431 23.0374 15.6382L23.0286 10.6742C23.0347 10.5638 23.0339 10.4616 23.0251 10.3667C22.9405 9.45325 22.5391 8.68453 21.8201 8.06137C21.1011 7.43903 20.2485 7.12664 19.2616 7.12664L15.7485 7.125L15.7529 17.5494H22.4309ZM20.0932 9.79918C20.3288 10.0044 20.4606 10.2645 20.4902 10.5793C20.4929 10.6112 20.4964 10.6423 20.499 10.6742L20.5077 15.6382C20.5042 15.9694 20.3803 16.2491 20.1351 16.4773C19.8899 16.7054 19.5923 16.8199 19.2424 16.8191L18.2433 16.8183L18.2416 9.49087L19.2407 9.49169C19.574 9.49169 19.8576 9.59391 20.0932 9.79918V9.79918Z" fill="#87CADA"/>
<path d="M23.2715 20.0592C23.2165 19.4655 23.0236 18.9291 22.6938 18.4498H15.7549L15.7592 28.8726L19.5228 28.8742C20.5594 28.875 21.4434 28.5283 22.1737 27.8356C22.9041 27.1429 23.2741 26.308 23.2837 25.3307L23.2749 20.3667C23.2811 20.2563 23.2802 20.1541 23.2715 20.0592ZM20.7523 25.3291C20.7496 25.6603 20.6257 25.94 20.3805 26.1681C20.1353 26.3963 19.8456 26.5108 19.5132 26.5108L18.2645 26.51L18.268 19.1826L19.5271 19.1834C19.8465 19.1834 20.124 19.2864 20.3613 19.4909C20.5987 19.6961 20.7313 19.9562 20.761 20.271C20.7636 20.3029 20.7671 20.334 20.7697 20.3659L20.7523 25.3291Z" fill="#87CADA"/>
<path d="M33.3892 9.49659L35.8944 9.49414L35.8909 17.5257H38.3961L38.3996 9.49169L40.6544 9.48841L40.664 7.125L33.3988 7.13318L33.3892 9.49659Z" fill="#87CADA"/>
<path d="M38.39 28.8717L38.3952 18.426H35.89L35.8848 28.8741L38.39 28.8717Z" fill="#87CADA"/>
<path d="M25.0977 7.125L25.0942 17.5257H31.6091L31.6126 16.8158L27.5855 16.8175L27.589 9.49087L31.589 9.49496L31.5968 7.13154L25.0977 7.125Z" fill="#87CADA"/>
<path d="M31.6126 26.5164L27.5995 26.5074L27.6022 19.1808L31.6022 19.1841L31.6056 18.426H25.0943L25.0908 28.8684L31.5899 28.8741L31.6126 26.5164Z" fill="#87CADA"/>
<path d="M67.9565 9.49169L70.4696 9.49087L70.4688 17.5257H72.981L72.9827 9.49005L75.2436 9.48923L75.2532 7.125L67.9661 7.12745L67.9565 9.49169Z" fill="#87CADA"/>
<path d="M72.9789 28.8733L72.9807 18.426H70.4676L70.4658 28.8741L72.9789 28.8733Z" fill="#87CADA"/>
<path d="M60.4277 7.12909L60.4233 17.5257H66.9966L66.9923 16.8158L62.9443 16.8183L62.9486 9.49169L66.9958 9.48923L67.0045 7.125L60.4277 7.12909Z" fill="#87CADA"/>
<path d="M60.4233 18.426L60.4189 28.8741L62.9486 28.8725L62.9608 19.1817L67.0088 19.1792L67.0036 18.426H60.4233Z" fill="#87CADA"/>
<path d="M53.7221 17.5257L53.7309 10.6726C53.7344 10.3414 53.8591 10.0617 54.107 9.83274C54.3539 9.60458 54.6445 9.48927 54.9796 9.48927C55.3138 9.48927 55.6 9.59149 55.8364 9.79594C56.0729 10.0004 56.2056 10.2604 56.2344 10.5761C56.237 10.608 56.2405 10.6391 56.2431 10.671L56.2387 17.5265H58.7343L58.7387 10.6693C58.7448 10.5589 58.7439 10.4567 58.7352 10.3619C58.6514 9.44838 58.2527 8.68048 57.5389 8.05814C56.8242 7.4358 55.9769 7.12585 54.9953 7.12585C53.963 7.12667 53.0843 7.47423 52.3574 8.16772C51.6305 8.86202 51.2614 9.69699 51.2509 10.6742L51.2466 17.5257H53.7221Z" fill="#87CADA"/>
<path d="M56.2379 18.4261L56.2335 25.3275C56.2301 25.6587 56.1044 25.9383 55.8566 26.1665C55.6088 26.3955 55.3164 26.51 54.9805 26.51C54.6445 26.51 54.3575 26.4078 54.121 26.2033C53.8845 25.9989 53.751 25.7388 53.7222 25.4231C53.7196 25.3921 53.7161 25.3602 53.7135 25.3283L53.7222 18.4253H51.2475L51.2431 25.3307C51.2362 25.4411 51.2379 25.5433 51.2458 25.6382C51.3295 26.5525 51.7274 27.3204 52.4421 27.9419C53.1559 28.5643 54.0041 28.8742 54.9857 28.8742C56.0171 28.8734 56.8967 28.5267 57.6236 27.8323C58.3505 27.1389 58.7196 26.3031 58.7301 25.3258L58.7344 18.4261H56.2379Z" fill="#87CADA"/>
<path d="M43.4389 17.5257H47.5401C47.089 17.1716 46.6352 16.8175 46.1771 16.4634C45.3665 15.7699 44.9136 14.8875 44.8185 13.8162C44.8028 13.6428 44.7949 13.4613 44.7949 13.2724L44.8141 10.6718C44.8176 10.3406 44.9433 10.0609 45.1893 9.83274C45.4354 9.60458 45.7242 9.49009 46.0576 9.49009C46.39 9.49009 46.6745 9.59231 46.9092 9.79676C47.1431 10.002 47.2748 10.2621 47.3028 10.5769C47.3054 10.6088 47.3089 10.6399 47.3115 10.6718L47.308 12.3262L49.8054 12.3254L49.8089 10.671C49.8159 10.5606 49.815 10.4584 49.8071 10.3635C49.726 9.45001 49.3289 8.68129 48.6169 8.05895C47.904 7.43662 47.0567 7.12585 46.075 7.12585C45.0427 7.12585 44.1614 7.47342 43.4328 8.1669C42.7033 8.86121 42.3324 9.69617 42.3185 10.6734L42.3115 13.983C42.3019 14.2513 42.308 14.5113 42.3307 14.7632C42.4284 15.8639 42.7975 16.7856 43.4389 17.5257V17.5257Z" fill="#87CADA"/>
<path d="M48.6003 18.426H44.4868C44.9607 18.7965 45.438 19.1661 45.9188 19.5366C46.7338 20.2301 47.1483 21.1125 47.2434 22.1838C47.2591 22.3571 47.2538 22.7391 47.2565 22.7276L47.2617 25.3282C47.2573 25.6594 47.1308 25.9391 46.8821 26.1672C46.6334 26.3962 46.3411 26.5099 46.0043 26.5107C45.6675 26.5107 45.3812 26.4085 45.1448 26.204C44.9083 25.9996 44.7757 25.7395 44.7477 25.4239C44.7451 25.3928 44.7416 25.3609 44.739 25.329L44.7678 23.6738L42.2704 23.6746L42.2669 25.3298C42.26 25.4402 42.2608 25.5424 42.2687 25.6373C42.3498 26.5516 42.746 27.3195 43.4589 27.9418C44.1718 28.5642 45.0182 28.8749 46.0008 28.8749C47.0331 28.8749 47.9135 28.5282 48.643 27.8339C49.3725 27.1404 49.7442 26.3046 49.7573 25.3274L49.7643 22.0178C49.7739 21.7503 49.7669 21.4895 49.7451 21.2376C49.6465 20.1115 49.2643 19.1743 48.6003 18.426V18.426Z" fill="#87CADA"/>
<path d="M9 22.0186V13.844L13.4023 17.9689L9 22.0186Z" fill="#87CADA"/>
<path d="M80.6249 22.0693V13.8938L76.2227 17.9811L80.6249 22.0693Z" fill="#87CADA"/>
</svg>
