<svg width="90" height="36" viewBox="0 0 90 36" fill="none" xmlns="http://www.w3.org/2000/svg">
<g clip-path="url(#clip0)">
<path d="M4.2601 13.7625C4.12885 13.3875 3.9976 13.0125 3.8851 12.6375C3.78078 12.2502 3.69938 11.857 3.64135 11.46C3.6076 11.2388 3.61135 11.2313 3.8251 11.16C4.25272 11.0088 4.69332 10.897 5.14135 10.8263C5.35135 10.7963 5.35885 10.8 5.38885 11.0138C5.50542 11.9059 5.75837 12.7748 6.13885 13.59C6.18385 13.6838 6.20635 13.8338 6.30385 13.8375C6.40135 13.8413 6.44635 13.6838 6.49135 13.5863C6.87287 12.7806 7.12593 11.9202 7.24135 11.0363C7.27135 10.7963 7.27885 10.7888 7.5226 10.8263C7.97078 10.9 8.41134 11.0142 8.83885 11.1675C9.03385 11.235 9.0301 11.2425 9.0001 11.4563C8.89334 12.1638 8.71492 12.8586 8.4676 13.53C8.44135 13.605 8.3551 13.695 8.4376 13.7663C8.5201 13.8375 8.58385 13.7663 8.6551 13.7213C9.3552 13.4323 9.99213 13.0094 10.5301 12.4763L10.6051 12.4013C10.8039 12.2063 10.8039 12.2063 11.0251 12.4013C11.3571 12.6697 11.6646 12.9671 11.9439 13.29C12.0826 13.455 12.0826 13.4588 11.9439 13.6088C10.9162 14.6929 9.59478 15.4539 8.14135 15.7988C8.07385 15.7988 8.00635 15.8288 7.93885 15.8475C7.7776 15.8963 7.76635 15.93 7.8901 16.0538C8.29449 16.4642 8.74067 16.8312 9.22135 17.1488C9.37135 17.25 9.3751 17.2463 9.55135 17.0813C10.2863 16.3961 11.1288 15.8361 12.0451 15.4238C12.3151 15.3 12.5926 15.195 12.8701 15.0938C13.0576 15.0225 13.0914 15.0413 13.1664 15.2288C13.3391 15.6396 13.4746 16.065 13.5714 16.5C13.6126 16.6988 13.6126 16.71 13.4064 16.7813C12.9614 16.937 12.532 17.1341 12.1239 17.37C11.8648 17.5237 11.6145 17.6914 11.3739 17.8725C11.3064 17.9213 11.1976 17.9625 11.2089 18.0563C11.2201 18.15 11.3551 18.165 11.4376 18.1913C12.0623 18.39 12.7078 18.5158 13.3614 18.5663C13.8526 18.6038 13.7589 18.5888 13.7364 19.0088C13.6957 19.4043 13.6166 19.7949 13.5001 20.175C13.4401 20.3775 13.4364 20.385 13.2264 20.37C12.5125 20.3203 11.806 20.1946 11.1189 19.995C9.40166 19.4949 7.8401 18.5657 6.58135 17.295C6.3301 17.0438 6.3751 17.0175 6.1051 17.295C4.76604 18.6552 3.08007 19.6227 1.2301 20.0925C0.664862 20.24 0.0875609 20.3367 -0.494899 20.3813C-0.764899 20.4038 -0.761149 20.3813 -0.836149 20.1413C-0.949251 19.7377 -1.02581 19.3248 -1.0649 18.9075C-1.0949 18.63 -1.09115 18.6225 -0.798649 18.6C-0.163245 18.5583 0.465587 18.4464 1.07635 18.2663L1.39885 18.1613C1.4926 18.1275 1.5001 18.0675 1.42885 18.0075C1.32916 17.9236 1.22528 17.8447 1.1176 17.7713C0.541654 17.365 -0.0865208 17.0383 -0.749899 16.8C-0.982399 16.7213 -0.982399 16.7175 -0.929899 16.485C-0.834049 16.0595 -0.698454 15.644 -0.524899 15.2438C-0.427399 15.0225 -0.423649 15.015 -0.194899 15.0938C0.555906 15.3545 1.27041 15.7099 1.93135 16.1513C2.35159 16.4337 2.7502 16.7471 3.12385 17.0888C3.28885 17.2388 3.28885 17.2388 3.47635 17.115C3.91054 16.8257 4.31501 16.4941 4.68385 16.125C4.72885 16.0838 4.7701 16.0388 4.81135 15.9938C4.8526 15.9488 4.8451 15.8663 4.7626 15.8363C4.71347 15.8196 4.66338 15.8058 4.6126 15.795C3.14058 15.4665 1.79749 14.7128 0.750101 13.6275L0.678851 13.5525C0.66325 13.5403 0.650638 13.5246 0.641967 13.5067C0.633296 13.4889 0.628791 13.4693 0.628791 13.4494C0.628791 13.4296 0.633296 13.41 0.641967 13.3921C0.650638 13.3742 0.66325 13.3586 0.678851 13.3463C1.02106 12.9582 1.39759 12.6017 1.80385 12.2813C1.88635 12.2138 1.94635 12.255 2.00635 12.315C2.1996 12.5292 2.40627 12.7309 2.6251 12.9188C3.06271 13.2679 3.54913 13.5509 4.06885 13.7588C4.09679 13.7749 4.12847 13.7834 4.16073 13.7834C4.19298 13.7834 4.22467 13.7749 4.2526 13.7588" fill="#87CADA"/>
<path d="M6.30393 25.575C6.08643 25.575 5.86893 25.575 5.65143 25.575C5.43393 25.575 5.43018 25.53 5.43018 25.3312C5.43018 24.6675 5.43018 24.0037 5.43018 23.3437C5.43653 23.1445 5.36985 22.9498 5.24268 22.7962C4.51893 21.8662 3.80643 20.9212 3.09018 19.9987C2.90643 19.7587 2.91018 19.7587 3.18768 19.6237C3.55066 19.4524 3.90371 19.2609 4.24518 19.05C4.50393 18.8887 4.50393 18.8925 4.68393 19.125L6.13144 21C6.32644 21.2512 6.33019 21.2512 6.50644 21L7.98394 19.0687C8.13394 18.8737 8.13769 18.87 8.34019 18.9975C8.72573 19.2361 9.12519 19.4515 9.53644 19.6425C9.71644 19.7287 9.72019 19.755 9.60019 19.9125C8.85019 20.8837 8.11894 21.855 7.37269 22.8187C7.2621 22.9524 7.20351 23.1215 7.20769 23.295C7.20769 23.9587 7.20769 24.6225 7.20769 25.2825C7.20769 25.5225 7.20769 25.5412 6.96769 25.5562C6.72769 25.5712 6.51394 25.5562 6.28894 25.5562" fill="#87CADA"/>
<path d="M32.4449 19.2262C32.4449 19.6012 32.4449 19.9762 32.4449 20.3512C32.4517 20.4455 32.4334 20.5399 32.3919 20.6249C32.3504 20.7098 32.2872 20.7823 32.2087 20.835C30.7649 21.93 28.7737 21.96 27.5587 21.1875C26.4074 20.4712 25.9499 19.4025 25.9762 18.0825C26.0174 15.7912 28.0499 14.4262 30.0487 14.685C30.7435 14.7556 31.4085 15.0035 31.9799 15.405C32.1712 15.5437 32.2162 15.6862 32.0362 15.87C31.9762 15.93 31.9312 16.0012 31.8749 16.065C31.6762 16.2787 31.5599 16.6162 31.2749 16.695C30.9899 16.7737 30.8062 16.4625 30.5662 16.3462C30.201 16.1523 29.7858 16.0732 29.3749 16.1194C28.964 16.1655 28.5767 16.3348 28.2637 16.605C27.9254 16.9279 27.6982 17.3498 27.6146 17.81C27.5311 18.2701 27.5955 18.745 27.7987 19.1662C27.9714 19.5449 28.2608 19.8584 28.6245 20.0608C28.9881 20.2632 29.407 20.344 29.8199 20.2912C30.1158 20.2718 30.4057 20.1981 30.6749 20.0737C30.7534 20.0446 30.822 19.994 30.8731 19.9277C30.9242 19.8613 30.9555 19.782 30.9637 19.6987C31.0349 19.14 30.9637 19.0387 30.3899 19.0275C29.2874 19.0012 29.4749 19.2262 29.4562 18.0337C29.4562 17.7862 29.4862 17.64 29.7899 17.6587C30.5399 17.6587 31.3087 17.6587 32.0699 17.6587C32.3437 17.6587 32.4449 17.7675 32.4449 18.0337C32.4449 18.435 32.4449 18.8362 32.4449 19.2375V19.2262Z" fill="#87CADA"/>
<path d="M41.9776 19.1962C41.9776 19.5712 41.9776 19.9462 41.9776 20.3212C41.9834 20.4255 41.9619 20.5294 41.9152 20.6228C41.8685 20.7162 41.7982 20.7958 41.7114 20.8537C41.0619 21.3307 40.293 21.6182 39.49 21.6844C38.687 21.7506 37.8813 21.5929 37.1626 21.2287C36.5016 20.8292 35.9908 20.2227 35.7094 19.5034C35.4281 18.784 35.3918 17.992 35.6064 17.25C35.8372 16.4178 36.3628 15.6979 37.0852 15.2246C37.8076 14.7513 38.6774 14.5568 39.5326 14.6775C40.2287 14.7423 40.8957 14.988 41.4676 15.39C41.6926 15.5512 41.7226 15.705 41.5239 15.9037C41.4639 15.9637 41.4151 16.035 41.3626 16.0987C41.1826 16.305 41.0364 16.5862 40.8076 16.6912C40.5789 16.7962 40.3501 16.47 40.1101 16.3575C39.6992 16.1341 39.2241 16.0584 38.7641 16.143C38.3041 16.2276 37.8871 16.4675 37.5826 16.8225C37.2636 17.2215 37.0917 17.7181 37.0958 18.229C37.0999 18.7398 37.2797 19.2336 37.6051 19.6275C37.9341 19.9579 38.3576 20.178 38.8171 20.2573C39.2766 20.3365 39.7494 20.2711 40.1701 20.07C40.3106 19.9649 40.4129 19.8169 40.4616 19.6484C40.5104 19.4798 40.5028 19.3 40.4401 19.1362C40.4215 19.0993 40.3931 19.0683 40.3581 19.0465C40.323 19.0246 40.2826 19.0129 40.2413 19.0125C40.1138 19.0125 39.9863 19.0125 39.8663 19.0125C39.5814 18.975 39.1914 19.1662 39.0376 18.9C38.8839 18.6337 38.9814 18.1987 38.9889 17.8425C38.9889 17.715 39.0826 17.6587 39.1989 17.6587H41.7301C41.9138 17.6587 41.9888 17.76 41.9851 17.94C41.9851 18.3637 41.9851 18.7837 41.9851 19.2075L41.9776 19.1962Z" fill="#87CADA"/>
<path d="M75.4237 14.7263C76.2034 14.6941 76.9735 14.908 77.625 15.3376C77.9625 15.5476 77.9662 15.5851 77.7262 15.9263C77.5462 16.1813 77.4337 16.5526 77.1487 16.6501C76.8637 16.7476 76.6462 16.4026 76.365 16.3163C76.0837 16.2301 75.8887 16.1476 75.645 16.0876C75.5109 16.0545 75.3716 16.0484 75.2351 16.0696C75.0986 16.0909 74.9677 16.139 74.85 16.2113C74.763 16.251 74.6892 16.3149 74.6375 16.3953C74.5858 16.4758 74.5583 16.5694 74.5583 16.6651C74.5583 16.7607 74.5858 16.8543 74.6375 16.9348C74.6892 17.0152 74.763 17.0791 74.85 17.1188C75.1162 17.2438 75.3937 17.343 75.6787 17.4151C76.211 17.544 76.7277 17.7301 77.22 17.9701C77.5212 18.1255 77.7684 18.3684 77.929 18.6669C78.0896 18.9654 78.1562 19.3055 78.12 19.6426C78.1421 19.9942 78.0622 20.3447 77.8899 20.652C77.7176 20.9594 77.4602 21.2104 77.1487 21.3751C76.125 21.9038 75.0675 21.8101 74.025 21.4238C73.6298 21.2745 73.2604 21.0645 72.93 20.8013C72.765 20.6701 72.7312 20.5463 72.8962 20.3888C72.9862 20.3026 73.0612 20.1976 73.1475 20.1038C73.3012 19.9313 73.4287 19.7026 73.6237 19.6126C73.875 19.4963 73.9987 19.8151 74.1975 19.9201C74.6535 20.1853 75.17 20.3287 75.6975 20.3363C75.8878 20.3416 76.0767 20.3017 76.2487 20.2201C76.3451 20.1874 76.4293 20.1265 76.4905 20.0453C76.5517 19.9641 76.5871 19.8663 76.5919 19.7648C76.5968 19.6632 76.5709 19.5625 76.5178 19.4758C76.4646 19.3891 76.3865 19.3205 76.2937 19.2788C75.9166 19.0919 75.5189 18.9496 75.1087 18.8551C74.79 18.7538 74.4562 18.6788 74.145 18.5513C73.8218 18.4435 73.5401 18.2381 73.3386 17.9634C73.1371 17.6886 73.0258 17.3582 73.02 17.0176C72.9665 16.6388 73.0267 16.2527 73.193 15.9082C73.3592 15.5637 73.624 15.2764 73.9537 15.0826C74.3967 14.8195 74.9102 14.7003 75.4237 14.7413" fill="#87CADA"/>
<path d="M17.3475 15.1875C17.8454 15.1317 18.3469 15.1142 18.8475 15.135C19.0875 15.135 19.1663 15.315 19.26 15.4725C19.5975 16.0312 19.9275 16.2225 20.265 16.8C20.3738 16.98 20.4862 17.1562 20.5912 17.325C20.805 17.325 20.835 17.1562 20.9062 17.0437C21.2812 16.4137 21.6862 15.7912 22.0537 15.15C22.1007 15.0333 22.1832 14.9342 22.2895 14.8669C22.3958 14.7996 22.5206 14.7675 22.6462 14.775C23.0625 14.775 23.4825 14.775 23.8762 14.775C24 14.9962 23.8575 15.1012 23.7863 15.2137C23.1188 16.2637 22.455 17.3175 21.7725 18.3562C21.5382 18.6832 21.4206 19.0794 21.4387 19.4812C21.4687 20.0287 21.4387 20.58 21.4387 21.1275C21.4387 21.5887 21.4387 21.5887 20.9925 21.6075C19.9012 21.6525 19.8375 21.645 19.92 20.5875C20.01 19.4625 19.7025 18.855 19.0275 17.9625C18.4875 17.2387 18.0413 16.44 17.5613 15.675C17.4394 15.5438 17.3631 15.3768 17.3438 15.1987" fill="#87CADA"/>
<path d="M86.5612 18.1387C86.5612 17.19 86.5612 16.2412 86.5612 15.2925C86.5612 14.7937 86.5612 14.7937 87.0337 14.7825C88.1025 14.7562 88.0987 14.7562 88.1025 15.8362C88.1025 17.1225 88.1025 18.4087 88.1025 19.695C88.1025 20.1825 88.1025 20.1862 88.5787 20.19C89.4 20.19 90.225 20.19 91.0462 20.19C91.485 20.19 91.4962 20.19 91.4962 20.655C91.4962 21.7987 91.6162 21.6 90.5812 21.6075C89.4 21.6075 88.2187 21.6075 87.0375 21.6075C86.565 21.6075 86.5575 21.6075 86.5537 21.1125C86.5537 20.1225 86.5537 19.1287 86.5537 18.1387H86.5612Z" fill="#87CADA"/>
<path d="M82.9687 18.1837C82.9687 19.155 82.9687 20.1262 82.9687 21.0975C82.9687 21.6 82.9687 21.6 82.4962 21.6112C81.4012 21.6375 81.3975 21.6375 81.3975 20.5237C81.3975 18.8137 81.3975 17.1037 81.3975 15.3937C81.3975 14.79 81.3975 14.79 81.9675 14.7825C82.9687 14.7825 82.9687 14.7825 82.9687 15.78C82.9687 16.5825 82.9687 17.385 82.9687 18.1875" fill="#87CADA"/>
<path d="M58.3499 17.955C57.7612 18.1763 57.1462 18.0488 56.5424 18.06C56.3812 18.06 56.3549 17.9175 56.3549 17.7863C56.3549 17.5538 56.3549 17.325 56.3549 17.0363C56.3549 16.0238 56.1974 16.2 57.2924 16.1813C57.6289 16.162 57.9662 16.2 58.2899 16.2938C58.4638 16.34 58.6187 16.44 58.7325 16.5793C58.8462 16.7187 58.9132 16.8904 58.9237 17.07C58.9374 17.2599 58.8893 17.449 58.7865 17.6092C58.6838 17.7694 58.5319 17.892 58.3537 17.9588L58.3499 17.955ZM59.1037 19.2413C59.1766 19.1818 59.253 19.1267 59.3324 19.0763C59.7728 18.8372 60.1207 18.458 60.3211 17.9988C60.5215 17.5396 60.5629 17.0267 60.4387 16.5413C60.2437 15.54 59.5912 14.9888 58.4249 14.8425C57.2587 14.6963 56.1749 14.8125 55.0724 14.7825C54.7912 14.7825 54.7837 14.9588 54.7837 15.1575C54.7837 17.185 54.7837 19.2125 54.7837 21.24C54.7837 21.4988 54.8512 21.6338 55.1399 21.615C55.4134 21.5963 55.6878 21.5963 55.9612 21.615C56.2687 21.6375 56.3699 21.51 56.3587 21.21C56.3587 20.745 56.3587 20.28 56.3587 19.815C56.3587 19.6913 56.3587 19.5638 56.5049 19.5C56.7217 19.4327 56.9537 19.4325 57.1705 19.4994C57.3873 19.5663 57.5789 19.6973 57.7199 19.875C58.0537 20.3625 58.3837 20.8538 58.7174 21.3413C58.8112 21.48 58.8899 21.6225 59.0924 21.6188C59.5874 21.6188 60.0824 21.6188 60.7237 21.6188L59.1037 19.2488" fill="#87CADA"/>
<path d="M49.9649 18.4087C49.9348 18.9034 49.7124 19.3668 49.3452 19.6996C48.978 20.0325 48.4951 20.2085 47.9998 20.19C47.8723 20.19 47.7448 20.19 47.6248 20.19C46.7098 20.19 46.8336 20.2837 46.8261 19.3725C46.8261 18.5287 46.8261 17.685 46.8261 16.8412C46.8261 16.0912 46.8073 16.1775 47.5236 16.1812C47.7746 16.177 48.0256 16.1945 48.2736 16.2337C48.7817 16.3065 49.2412 16.5752 49.5537 16.9823C49.8663 17.3895 50.0071 17.9028 49.9461 18.4125L49.9649 18.4087ZM48.6673 14.865C47.6398 14.6962 46.6011 14.82 45.5698 14.7825C45.2923 14.7825 45.2773 14.9512 45.2773 15.1575C45.2773 17.1825 45.2773 19.2112 45.2773 21.2362C45.2773 21.5587 45.4161 21.6112 45.6973 21.6112C46.0986 21.6112 46.4998 21.6112 46.9011 21.6112C47.3249 21.6112 47.7486 21.6337 48.1686 21.6112C48.688 21.6082 49.2 21.4883 49.6668 21.2604C50.1335 21.0326 50.543 20.7026 50.8649 20.295C51.2304 19.8276 51.4662 19.2721 51.5486 18.6846C51.631 18.097 51.5571 17.4981 51.3342 16.9482C51.1114 16.3983 50.7475 15.9169 50.2793 15.5525C49.8111 15.1881 49.2551 14.9535 48.6673 14.8725" fill="#87CADA"/>
<path d="M65.9061 18.6975L66.7274 16.7175C67.0399 17.3583 67.308 18.0199 67.5299 18.6975H65.9061ZM70.1549 21.0675C69.3849 19.2225 68.6024 17.3787 67.8074 15.5362C67.3836 14.5462 67.5636 14.7862 66.5699 14.7337C66.4057 14.7081 66.2378 14.7446 66.0991 14.8361C65.9604 14.9277 65.8608 15.0677 65.8199 15.2287C65.0211 17.1562 64.1924 19.0762 63.3749 21C63.2632 21.1847 63.2121 21.3997 63.2286 21.615C63.6336 21.615 64.0161 21.615 64.3911 21.615C64.4956 21.6294 64.6017 21.6032 64.6875 21.5418C64.7733 21.4804 64.8323 21.3885 64.8524 21.285C64.9499 21.0075 65.0774 20.7375 65.1824 20.4637C65.2083 20.349 65.2751 20.2476 65.3704 20.1786C65.4656 20.1096 65.5828 20.0776 65.6999 20.0887C66.3974 20.0887 67.0911 20.0887 67.7886 20.0887C67.8934 20.0769 67.999 20.1029 68.0863 20.162C68.1736 20.2212 68.237 20.3095 68.2649 20.4112C68.3736 20.7075 68.4974 21 68.6174 21.2925C68.6811 21.45 68.7524 21.6 68.9699 21.5962C69.4086 21.5962 69.8436 21.5962 70.2636 21.5962C70.2981 21.4125 70.2591 21.2226 70.1549 21.0675V21.0675Z" fill="#87CADA"/>
</g>
<defs>
<clipPath id="clip0">
<rect width="90" height="36" fill="white"/>
</clipPath>
</defs>
</svg>
