<svg width="90" height="36" viewBox="0 0 90 36" fill="none" xmlns="http://www.w3.org/2000/svg">
<g clip-path="url(#clip0)">
<path d="M11.2101 11.2927L19.7884 15.3028C19.5868 15.1679 15.5071 12.4112 14.25 10.2296C12.9574 7.99649 13.0522 6.34246 14.1433 4.74396C15.2344 3.14546 17.9383 2.13796 22.0496 2.40372C26.1609 2.66948 30.6832 3.91892 34.075 6.98107C34.075 6.98107 31.1813 1.82064 23.8166 0.376837C16.4519 -1.06697 10.7831 1.84841 7.51388 4.83519C6.64815 5.62849 6.20144 6.38212 6.05518 7.10403C6.12238 9.30147 11.2101 11.2927 11.2101 11.2927Z" fill="#87CADA"/>
<path d="M14.1433 31.256C13.0483 29.6575 12.9574 28.0035 14.25 25.7704C15.5427 23.5372 19.7963 20.6932 19.7963 20.6932L11.2101 24.7073C11.2101 24.7073 6.11843 26.6985 6.05518 28.896C6.20144 29.6179 6.64815 30.3715 7.51388 31.1648C10.7831 34.1516 16.448 37.063 23.8127 35.6192C31.1813 34.1794 34.075 29.0189 34.075 29.0189C30.6832 32.0811 26.1609 33.3345 22.0496 33.5963C17.9383 33.862 15.2344 32.8585 14.1433 31.256Z" fill="#87CADA"/>
<path d="M11.21 24.7074L19.7963 20.6933C19.7963 20.6933 22.2354 19.3844 22.2354 18.0873C22.2354 18.0595 22.2354 18.0278 22.2314 18.0001C22.2314 17.9723 22.2354 17.9406 22.2354 17.9128C22.2354 16.6157 19.7963 15.3068 19.7963 15.3068C19.7963 15.3068 19.7923 15.3028 19.7884 15.3028L11.21 11.2927C11.21 11.2927 6.12235 9.30548 6.05515 7.10803C5.64797 9.10318 7.53758 10.8286 9.09511 12.3081C11.1784 14.2795 12.1035 16.2389 12.0876 18.0001C12.1035 19.7612 11.1784 21.7206 9.09511 23.696C7.53758 25.1715 5.64797 26.8969 6.05515 28.896C6.1184 26.6986 11.21 24.7074 11.21 24.7074Z" fill="#87CADA"/>
<path d="M27.0544 18.8687C27.0544 19.0749 27.1572 19.2296 27.3628 19.3288C27.5683 19.4319 27.8253 19.4835 28.1415 19.4875C28.4538 19.4914 28.7622 19.4756 29.0626 19.4478C29.3631 19.4161 29.6477 19.3843 29.9126 19.3447C30.1814 19.305 30.3316 19.2852 30.3711 19.2852C30.3988 19.8603 30.2841 20.2689 30.0311 20.5068C29.7781 20.7448 29.2682 20.8638 28.5013 20.8638C27.4458 20.8638 26.671 20.6496 26.1729 20.2173C25.6787 19.7849 25.4297 19.0432 25.4297 17.9802C25.4297 17.4487 25.4969 17.0005 25.6313 16.6355C25.7657 16.2666 25.9634 15.989 26.2243 15.7946C26.4852 15.6042 26.7738 15.4654 27.094 15.3861C27.4142 15.3068 27.7897 15.2671 28.2167 15.2671C29.035 15.2671 29.6398 15.4416 30.0232 15.7907C30.4106 16.1397 30.6044 16.695 30.6044 17.4566C30.6044 17.7501 30.549 17.9802 30.4344 18.1587C30.3237 18.3332 30.1735 18.4522 29.9956 18.5117C29.8137 18.5712 29.5963 18.6148 29.3433 18.6426C29.0903 18.6704 28.8373 18.6783 28.5922 18.6664C28.3432 18.6545 28.0783 18.6664 27.7897 18.7021C27.5051 18.7338 27.256 18.7893 27.0544 18.8687ZM27.003 17.8255C27.1137 17.7462 27.2995 17.6946 27.5525 17.6668C27.8055 17.6391 28.0427 17.6272 28.2641 17.6232C28.4855 17.6192 28.6831 17.5716 28.8531 17.4844C29.0231 17.3931 29.1061 17.2543 29.1022 17.0639C29.1022 16.8934 28.9677 16.7506 28.695 16.6355C28.3194 16.4769 27.9518 16.465 27.596 16.5959C27.1019 16.7744 26.9042 17.1829 27.003 17.8255Z" fill="#87CADA"/>
<path d="M36.9848 17.1591V20.7765C36.7555 20.7884 36.5539 20.7884 36.3918 20.7725C36.2257 20.7567 36.0716 20.717 35.9214 20.6575C35.7711 20.598 35.6644 20.4989 35.5932 20.364C35.5221 20.2291 35.4944 20.0586 35.4984 19.8523V17.7064V17.6866V17.1908C35.3995 16.7069 34.9489 16.5165 34.1503 16.6157C33.7353 16.6672 33.4941 16.7069 33.4269 16.7347C33.4467 16.8457 33.4585 16.9806 33.4585 17.1313V19.8523C33.4665 20.0586 33.4309 20.2291 33.3597 20.364C33.2886 20.4989 33.1779 20.598 33.0316 20.6575C32.8853 20.717 32.7312 20.7567 32.5651 20.7725C32.3991 20.7884 32.2015 20.7924 31.9722 20.7765V15.9374C31.9722 15.505 32.664 15.275 34.0436 15.2432C36.0004 15.1917 36.9808 15.8303 36.9848 17.1591Z" fill="#87CADA"/>
<path d="M42.1673 13.1172C42.2661 13.1886 42.3887 13.2362 42.5389 13.256C42.6891 13.2758 42.8235 13.2877 42.9461 13.2877C43.0686 13.2877 43.1872 13.3076 43.2979 13.3433C43.4086 13.379 43.4955 13.4662 43.5588 13.6051C43.622 13.7439 43.6537 13.9462 43.6537 14.2119V20.0744C43.6458 20.0824 43.6141 20.1181 43.5588 20.1895C43.5035 20.2609 43.4521 20.3164 43.4046 20.36C43.3572 20.4037 43.2742 20.4592 43.1477 20.5306C43.0212 20.602 42.8828 20.6535 42.7326 20.6932C42.5824 20.7329 42.3768 20.7686 42.1199 20.8043C41.8629 20.836 41.5704 20.8558 41.2502 20.8558C40.2342 20.8558 39.5029 20.6337 39.0601 20.1934C38.6174 19.7532 38.396 19.0193 38.396 17.992C38.396 17.5954 38.4474 17.2384 38.5541 16.925C38.6609 16.6117 38.7992 16.3539 38.9732 16.1555C39.1471 15.9572 39.3527 15.7906 39.5938 15.6597C39.831 15.5288 40.0721 15.4336 40.3172 15.3821C40.5623 15.3305 40.8153 15.3027 41.0802 15.3027C41.5901 15.3027 41.9499 15.3821 42.1712 15.5407V13.1172H42.1673ZM42.1673 18.0833V16.6712C42.0803 16.6434 41.9854 16.6196 41.8866 16.5998C41.7838 16.5799 41.6573 16.5641 41.5071 16.5561C41.3569 16.5442 41.2106 16.5482 41.0762 16.5601C40.9418 16.572 40.7995 16.6117 40.6572 16.6791C40.5109 16.7465 40.3884 16.8338 40.2816 16.9409C40.1749 17.052 40.0919 17.2027 40.0247 17.397C39.9575 17.5914 39.9259 17.8215 39.9259 18.0872C39.9259 18.3371 39.9654 18.5592 40.0445 18.7417C40.1235 18.9281 40.2223 19.0709 40.337 19.1701C40.4516 19.2692 40.5939 19.3446 40.7639 19.3922C40.9339 19.4398 41.0841 19.4715 41.2185 19.4834C41.3529 19.4953 41.4992 19.4914 41.6573 19.4715C41.8155 19.4557 41.9262 19.4398 41.9894 19.4279C42.0527 19.416 42.108 19.4001 42.1633 19.3882H42.1752C42.1712 19.3962 42.1712 18.9598 42.1673 18.0833Z" fill="#87CADA"/>
<path d="M45.0571 18.0238C45.0492 17.9841 45.0452 17.9326 45.0413 17.8652C45.0373 17.7977 45.0492 17.6708 45.0729 17.4764C45.0966 17.286 45.1322 17.0996 45.1875 16.9251C45.2389 16.7506 45.3338 16.5562 45.4643 16.342C45.5947 16.1318 45.7607 15.9493 45.9544 15.7946C46.1482 15.6439 46.413 15.513 46.7411 15.4138C47.0692 15.3107 47.4487 15.2592 47.8717 15.2592C48.1682 15.2592 48.441 15.283 48.694 15.3306C48.943 15.3782 49.1604 15.4416 49.3423 15.5209C49.5241 15.6003 49.6862 15.6994 49.8285 15.8184C49.9708 15.9374 50.0894 16.0564 50.1803 16.1715C50.2713 16.2865 50.3503 16.4253 50.4136 16.584C50.4768 16.7426 50.5243 16.8815 50.5559 16.9965C50.5875 17.1115 50.6112 17.2464 50.627 17.405C50.6389 17.5597 50.6468 17.6787 50.6508 17.7581C50.6547 17.8374 50.6547 17.9405 50.6508 18.0595C50.6468 18.1825 50.6468 18.2499 50.6468 18.2618C50.6468 18.3689 50.6428 18.4641 50.6349 18.5514C50.627 18.6386 50.6073 18.7735 50.5756 18.9599C50.544 19.1463 50.4966 19.3129 50.4373 19.4557C50.378 19.6025 50.2831 19.7611 50.1566 19.9317C50.0262 20.1023 49.8759 20.249 49.702 20.3641C49.5281 20.4791 49.2988 20.5782 49.0181 20.6576C48.7374 20.7369 48.4212 20.7766 48.0733 20.7766C47.7096 20.7766 47.3855 20.7528 47.1009 20.7052C46.8162 20.6576 46.5751 20.5981 46.3774 20.5227C46.1798 20.4474 46.0058 20.3442 45.8556 20.2094C45.7054 20.0785 45.5868 19.9396 45.4959 19.8008C45.405 19.662 45.3259 19.4914 45.2666 19.2852C45.2073 19.0789 45.1638 18.8845 45.1322 18.6942C45.1006 18.5038 45.0769 18.2856 45.0571 18.0238ZM46.5316 18.115C46.5514 18.3451 46.579 18.5315 46.6146 18.6664C46.6502 18.8013 46.7174 18.9361 46.8123 19.067C46.9072 19.1979 47.0534 19.2971 47.2432 19.3566C47.4329 19.4161 47.678 19.4478 47.9745 19.4478C48.2038 19.4478 48.4054 19.4121 48.5675 19.3367C48.7335 19.2653 48.856 19.182 48.9351 19.0868C49.0142 18.9956 49.0774 18.8806 49.1249 18.7497C49.1723 18.6188 49.196 18.5196 49.2039 18.4522C49.2118 18.3848 49.2158 18.3134 49.2158 18.234C49.2158 18.2261 49.2158 18.1944 49.2158 18.1309C49.2158 18.0674 49.2158 18.0159 49.2158 17.9723C49.2158 17.9286 49.2118 17.8652 49.2039 17.7779C49.196 17.6906 49.1841 17.6192 49.1683 17.5558C49.1525 17.4923 49.1288 17.4169 49.0972 17.3336C49.0656 17.2464 49.03 17.175 48.9865 17.1115C48.943 17.0481 48.8877 16.9846 48.8165 16.9172C48.7454 16.8497 48.6702 16.7982 48.5833 16.7545C48.4963 16.7109 48.3935 16.6752 48.271 16.6514C48.1484 16.6236 48.014 16.6117 47.8717 16.6117C47.6069 16.6117 47.3815 16.6474 47.1997 16.7228C47.0139 16.7942 46.8795 16.8815 46.7925 16.9767C46.7055 17.0719 46.6423 17.1988 46.5949 17.3535C46.5474 17.5082 46.5237 17.6311 46.5197 17.7144C46.5158 17.8017 46.5197 17.9088 46.5237 18.0436C46.5316 18.0754 46.5316 18.1031 46.5316 18.115Z" fill="#87CADA"/>
<path d="M55.6831 15.2631C55.6752 15.275 55.6791 15.3464 55.6871 15.4733C55.6989 15.6002 55.695 15.7192 55.6831 15.8342C55.6712 15.9493 55.6436 16.0762 55.604 16.2071C55.5645 16.338 55.4854 16.4451 55.3629 16.5244C55.2403 16.6037 55.0822 16.6434 54.8925 16.6434C54.6158 16.6434 54.4023 16.6553 54.2481 16.6751C54.0979 16.695 53.9595 16.7465 53.8409 16.8259C53.7223 16.9052 53.6433 17.0163 53.6037 17.163C53.5642 17.3098 53.5444 17.5081 53.5444 17.758V20.9391C53.4258 20.8519 53.2677 20.7844 53.074 20.7368C52.8803 20.6853 52.7143 20.6496 52.5799 20.6218C52.4455 20.594 52.3229 20.5187 52.2201 20.3878C52.1134 20.2569 52.062 20.0705 52.062 19.8245V17.163C52.062 17.1233 52.062 17.0678 52.066 17.0004C52.0699 16.929 52.0818 16.8338 52.1015 16.7108C52.1213 16.5879 52.1529 16.4649 52.2004 16.3419C52.2478 16.219 52.315 16.0921 52.4099 15.9612C52.5008 15.8303 52.6155 15.7113 52.7459 15.6121C52.8764 15.513 53.0463 15.4297 53.2559 15.3622C53.4654 15.2948 53.6947 15.2631 53.9556 15.2631C54.3983 15.2631 54.7264 15.2631 54.936 15.2631C55.1455 15.2631 55.2641 15.2631 55.2838 15.2631C55.3036 15.2631 55.3431 15.2631 55.3985 15.2631C55.4459 15.2631 55.5447 15.2631 55.6831 15.2631Z" fill="#87CADA"/>
<path d="M58.3789 22.974C58.2603 22.8867 58.1022 22.8352 57.9085 22.8193C57.7148 22.8034 57.5488 22.7955 57.4143 22.7955C57.2799 22.7955 57.1574 22.7241 57.0546 22.5813C56.9479 22.4385 56.8965 22.2045 56.8965 21.8792V16.0168C56.9044 16.0088 56.936 15.9731 56.9914 15.9017C57.0467 15.8303 57.0981 15.7788 57.1455 15.7391C57.193 15.6994 57.276 15.6439 57.4025 15.5685C57.529 15.4971 57.6673 15.4376 57.8176 15.398C57.9678 15.3583 58.1734 15.3226 58.4303 15.2869C58.6873 15.2552 58.9798 15.2354 59.3 15.2354C60.316 15.2354 61.0473 15.4575 61.49 15.8978C61.9328 16.338 62.1542 17.0718 62.1542 18.0992C62.1542 18.595 62.0751 19.0273 61.917 19.3922C61.7588 19.7572 61.5454 20.0348 61.2766 20.2331C61.0078 20.4275 60.7271 20.5703 60.4266 20.6615C60.1262 20.7528 59.806 20.7964 59.47 20.7964C59.0154 20.7964 58.6517 20.7488 58.3789 20.6576V22.974V22.974ZM58.3789 18.004V19.416C58.4856 19.4478 58.6003 19.4755 58.7189 19.4954C58.8414 19.5152 58.9956 19.5311 59.1774 19.5469C59.3632 19.5588 59.5332 19.539 59.6914 19.4874C59.8495 19.4359 59.9997 19.3566 60.146 19.2574C60.2922 19.1582 60.4069 18.9996 60.4938 18.7814C60.5808 18.5632 60.6243 18.3015 60.6243 17.996C60.6243 17.7461 60.5848 17.524 60.5017 17.3416C60.4187 17.1551 60.3239 17.0123 60.2132 16.9132C60.1025 16.814 59.9602 16.7387 59.7823 16.6911C59.6044 16.6395 59.4542 16.6117 59.3356 16.5998C59.217 16.5879 59.0668 16.5959 58.8889 16.6157C58.711 16.6355 58.6003 16.6474 58.5608 16.6554C58.5212 16.6633 58.4619 16.6752 58.3829 16.695H58.371C58.371 16.695 58.371 17.1313 58.3789 18.004Z" fill="#87CADA"/>
<path d="M65.0323 15.4535C65.3565 15.3226 65.8981 15.2552 66.6571 15.2552C67.0287 15.2552 67.3449 15.3186 67.6058 15.4456C67.8707 15.5725 68.0604 15.7153 68.179 15.8779C68.2976 16.0406 68.3885 16.227 68.4518 16.4332C68.515 16.6435 68.5506 16.7982 68.5546 16.9013C68.5625 17.0044 68.5625 17.0917 68.5546 17.1631V20.7805C67.5623 20.9114 67.0682 20.606 67.0682 19.8563C67.0682 19.5787 67.0682 19.2138 67.0682 18.7616C67.0761 17.7739 67.0287 17.175 66.9298 16.9568C66.831 16.7426 66.5187 16.6276 66.0008 16.6157C65.6767 16.6157 65.3525 16.6752 65.0284 16.7942V19.8563C65.0402 20.253 64.9177 20.5148 64.6568 20.6378C64.3959 20.7607 64.0243 20.8083 63.542 20.7805V13.026C63.6606 13.1133 63.8187 13.1648 64.0124 13.1807C64.2061 13.1966 64.3722 13.2045 64.5066 13.2045C64.641 13.2045 64.7635 13.2759 64.8663 13.4187C64.973 13.5615 65.0244 13.7955 65.0244 14.1208V15.4535H65.0323Z" fill="#87CADA"/>
<path d="M70.2107 14.6959C70.0605 14.5372 69.9814 14.3468 69.9814 14.1287C69.9814 13.9105 70.0605 13.7241 70.2147 13.5654C70.3689 13.4108 70.5547 13.3314 70.776 13.3314C70.9935 13.3314 71.1793 13.4108 71.3374 13.5654C71.4916 13.7201 71.5706 13.9066 71.5706 14.1287C71.5706 14.3468 71.4916 14.5333 71.3374 14.6919C71.1832 14.8466 70.9974 14.926 70.776 14.926C70.5586 14.926 70.3689 14.8506 70.2107 14.6959ZM71.5074 16.2547C71.5074 15.9295 71.456 15.6955 71.3492 15.5527C71.2425 15.4099 71.1239 15.3385 70.9895 15.3385C70.8551 15.3385 70.6891 15.3305 70.4954 15.3147C70.3017 15.2988 70.1435 15.2472 70.0249 15.16V20.7726C70.5072 20.8003 70.8788 20.7527 71.1397 20.6298C71.4006 20.5068 71.5232 20.249 71.5113 19.8484V16.2547H71.5074Z" fill="#87CADA"/>
<path d="M77.9867 17.1591V20.7765C77.7574 20.7884 77.5558 20.7884 77.3937 20.7725C77.2277 20.7567 77.0735 20.717 76.9233 20.6575C76.7731 20.598 76.6664 20.4989 76.5952 20.364C76.524 20.2291 76.4964 20.0586 76.5003 19.8523V17.7064V17.6866V17.1908C76.4015 16.7069 75.9508 16.5165 75.1523 16.6157C74.7372 16.6672 74.4961 16.7069 74.4289 16.7347C74.4486 16.8457 74.4605 16.9806 74.4605 17.1313V19.8523C74.4684 20.0586 74.4328 20.2291 74.3617 20.364C74.2905 20.4989 74.1798 20.598 74.0336 20.6575C73.8873 20.717 73.7331 20.7567 73.5671 20.7725C73.4011 20.7884 73.2034 20.7924 72.9741 20.7765V15.9374C72.9741 15.505 73.6659 15.275 75.0456 15.2432C76.9984 15.1917 77.9788 15.8303 77.9867 17.1591Z" fill="#87CADA"/>
<path d="M79.7891 16.6554C79.7891 16.6356 79.7852 16.6078 79.7773 16.5761C79.7694 16.5443 79.7694 16.4769 79.7733 16.3817C79.7773 16.2865 79.7852 16.1953 79.805 16.108C79.8208 16.0208 79.8564 15.9256 79.9038 15.8145C79.9552 15.7034 80.0184 15.6122 80.1014 15.5368C80.1845 15.4615 80.2952 15.398 80.4375 15.3425C80.5798 15.2909 80.7458 15.2632 80.9395 15.2632C80.9988 15.2632 81.0897 15.2632 81.2162 15.2632C81.3862 15.2552 81.5641 15.2552 81.746 15.2632C81.9278 15.2711 82.1096 15.279 82.2915 15.287C82.4733 15.2989 82.6512 15.3266 82.8212 15.3702C82.9912 15.4178 83.1572 15.4734 83.3114 15.5408C83.4656 15.6082 83.6079 15.7034 83.7383 15.8224C83.8688 15.9454 83.9795 16.0842 84.0743 16.2429C84.1692 16.4015 84.2443 16.5959 84.2957 16.8299C84.3471 17.06 84.3748 17.3218 84.3748 17.6153V17.6867V17.7581V17.8374V17.9088V17.9881V18.0675V18.1587V18.2579V18.357V18.476V18.6347V18.714C84.3748 18.9877 84.3432 19.2336 84.2839 19.4557C84.2246 19.6779 84.1495 19.8564 84.0625 19.9991C83.9716 20.138 83.8609 20.2609 83.7304 20.368C83.6 20.4751 83.4735 20.5505 83.3588 20.6021C83.2442 20.6536 83.1098 20.6933 82.9596 20.7211C82.8093 20.7528 82.6908 20.7686 82.6077 20.7766C82.5247 20.7845 82.4259 20.7885 82.3152 20.7885H80.9474C80.9277 20.7885 80.896 20.7885 80.8565 20.7845C80.817 20.7805 80.7419 20.7726 80.6351 20.7528C80.5244 20.7369 80.4217 20.7131 80.3228 20.6774C80.224 20.6457 80.1133 20.5902 79.9908 20.5148C79.8682 20.4394 79.7654 20.3482 79.6785 20.2451C79.5915 20.1419 79.5203 20.0071 79.461 19.8445C79.4017 19.6779 79.3701 19.4914 79.3701 19.2891C79.3701 18.9242 79.4176 18.6188 79.5085 18.3689C79.5994 18.119 79.7417 17.9286 79.9275 17.7938C80.1173 17.6589 80.3268 17.5637 80.5561 17.5122C80.7853 17.4606 81.066 17.4328 81.3981 17.4328C81.9713 17.4328 82.3626 17.3932 82.5722 17.3178C82.7817 17.2424 82.8845 17.1234 82.8845 16.9648C82.8845 16.7387 82.667 16.588 82.2361 16.5086C81.8052 16.4293 81.3467 16.4134 80.8604 16.4571C80.3782 16.4928 80.0184 16.5602 79.7891 16.6554ZM82.9279 18.1547C82.9003 18.1865 82.8647 18.2261 82.8133 18.2737C82.7619 18.3213 82.6512 18.3808 82.4812 18.4562C82.3112 18.5315 82.1294 18.5712 81.9476 18.5712C81.6234 18.5712 81.3625 18.6109 81.1609 18.6902C80.9593 18.7695 80.8604 18.8806 80.8604 19.0274C80.8604 19.1979 80.9316 19.3288 81.0779 19.4161C81.2241 19.5033 81.5127 19.547 81.9476 19.547C82.1255 19.547 82.2638 19.547 82.3587 19.543C82.4536 19.539 82.5445 19.5152 82.6275 19.4676C82.7105 19.42 82.7659 19.3764 82.8014 19.3367C82.8331 19.2971 82.8607 19.2138 82.8845 19.0829C82.9082 18.952 82.92 18.829 82.924 18.71C82.924 18.591 82.9279 18.4046 82.9279 18.1547Z" fill="#87CADA"/>
</g>
<defs>
<clipPath id="clip0">
<rect width="90" height="36" fill="white"/>
</clipPath>
</defs>
</svg>
