<svg width="90" height="36" viewBox="0 0 90 36" fill="none" xmlns="http://www.w3.org/2000/svg">
<path d="M25.2056 5.16833H33.9086L34.1234 8.1013H33.6085C33.4055 6.89585 33.379 6.63482 32.9377 6.16847C32.4964 5.70213 31.6196 5.73146 30.9105 5.73146H28.6862C28.612 5.72629 28.5375 5.73666 28.4676 5.76192C28.3977 5.78718 28.3338 5.82676 28.2802 5.87811C28.1788 6.00258 28.1293 6.16114 28.1419 6.32099V10.0576H29.1158C29.3555 10.0656 29.594 10.0196 29.8136 9.92315C30.0331 9.82668 30.228 9.68216 30.3838 9.50032C30.7075 9.12881 30.8821 8.55688 30.9076 7.78454H31.4372V13.0257H30.9076C30.8821 12.1576 30.7045 11.5368 30.375 11.1633C30.2072 10.9754 29.9994 10.8273 29.7667 10.7299C29.5341 10.6325 29.2825 10.5881 29.0304 10.6002H28.1478V14.806C28.1434 14.8772 28.156 14.9483 28.1847 15.0136C28.2133 15.0789 28.2571 15.1364 28.3125 15.1815C28.476 15.2828 28.6681 15.3281 28.8598 15.3105H30.6251C32.5317 15.3105 33.632 14.6887 33.9233 12.2602H34.4765L34.2676 15.8824H25.2056V15.2958H25.6851C25.9085 15.3172 26.1326 15.2624 26.3207 15.1404C26.3833 15.0831 26.4322 15.0125 26.4637 14.9338C26.4953 14.8551 26.5087 14.7703 26.5031 14.6858V6.32099C26.5111 6.24077 26.5019 6.15977 26.4761 6.08339C26.4502 6.00701 26.4082 5.93702 26.353 5.87811C26.2083 5.7686 26.028 5.71636 25.847 5.73146H25.2056V5.16833Z" fill="#87CADA"/>
<path d="M33.7261 8.71143H37.6539V9.23349C37.3484 9.21604 37.0425 9.2589 36.7536 9.35961C36.6939 9.38815 36.6435 9.43314 36.6086 9.48927C36.5737 9.5454 36.5556 9.61032 36.5565 9.67637C36.5572 9.79299 36.5833 9.90807 36.633 10.0137L38.5395 14.2606L40.2754 10.1544C40.3003 10.0858 40.3132 10.0134 40.3137 9.94034C40.3137 9.56883 39.9459 9.33712 39.2103 9.24522V8.71143H42.1879V9.23349C41.9299 9.24823 41.6808 9.33236 41.467 9.47693C41.2872 9.61692 41.148 9.8022 41.0639 10.0137L38.416 16.0996H38.004L35.1795 9.84648C35.1042 9.65668 34.9742 9.49337 34.8059 9.37721C34.4568 9.27779 34.0949 9.23035 33.732 9.23643L33.7261 8.71143Z" fill="#87CADA"/>
<path d="M44.9622 8.4973C45.4194 8.48849 45.8732 8.57708 46.2933 8.75714C46.7135 8.9372 47.0902 9.20459 47.3983 9.54144C48.0766 10.2938 48.4306 11.2821 48.384 12.2926C48.4044 12.9882 48.2529 13.6782 47.9426 14.3016C47.655 14.8481 47.2185 15.3025 46.6834 15.6127C46.1505 15.9321 45.5398 16.0995 44.918 16.0966C44.4726 16.1 44.0316 16.0074 43.6253 15.8252C43.2191 15.643 42.8571 15.3754 42.5643 15.0407C41.8986 14.2865 41.5508 13.3051 41.5933 12.3014C41.5515 11.3 41.8981 10.3211 42.5613 9.56783C42.8599 9.22678 43.2292 8.95442 43.6437 8.76958C44.0583 8.58475 44.5081 8.49185 44.9622 8.4973V8.4973ZM44.9622 9.0399C44.68 9.03984 44.4025 9.11111 44.1555 9.24703C43.9085 9.38296 43.7002 9.57911 43.5499 9.81714C43.1811 10.3353 42.9968 11.1526 42.9968 12.2691C42.9968 13.3856 43.1802 14.2176 43.547 14.765C43.6955 15.0062 43.9035 15.2054 44.1513 15.3436C44.3991 15.4817 44.6783 15.5542 44.9622 15.554C45.2517 15.5565 45.5371 15.4853 45.7915 15.3473C46.0458 15.2092 46.2606 15.0089 46.4156 14.765C46.7863 14.2391 46.9717 13.3797 46.9717 12.187C46.9717 11.0803 46.7883 10.2796 46.4215 9.78487C46.2587 9.55062 46.0402 9.36024 45.7855 9.23075C45.5309 9.10126 45.248 9.03669 44.9622 9.04283V9.0399Z" fill="#87CADA"/>
<path d="M50.7733 5.02759V14.8266C50.7693 14.8875 50.7788 14.9485 50.8011 15.0053C50.8235 15.0621 50.8582 15.1133 50.9028 15.1551C51.0361 15.2589 51.2016 15.3128 51.3706 15.3076H51.8325V15.8942H48.3607V15.3076H48.7873C48.9742 15.3204 49.1588 15.2605 49.3022 15.1404C49.3623 15.0774 49.4088 15.0026 49.4386 14.9209C49.4685 14.8391 49.4812 14.7521 49.4758 14.6653V6.53513C49.4849 6.43285 49.4712 6.32982 49.4356 6.23347C49.3999 6.13712 49.3434 6.04982 49.2699 5.97787C49.0761 5.81248 48.8276 5.72468 48.5726 5.7315H47.9282V5.16837L50.7733 5.02759Z" fill="#87CADA"/>
<path d="M54.4273 8.58228V13.3366C54.3958 13.8252 54.5538 14.3071 54.8686 14.6828C55.0126 14.8395 55.1889 14.9632 55.3855 15.0452C55.5821 15.1273 55.7943 15.1657 56.0073 15.158C56.289 15.1611 56.5678 15.1004 56.8226 14.9805C57.0775 14.8606 57.3017 14.6846 57.4784 14.4658C57.8825 13.9803 58.0921 13.3628 58.0668 12.7324V10.0458C58.0722 9.93628 58.0509 9.82706 58.0048 9.72748C57.9587 9.62789 57.8891 9.5409 57.802 9.4739C57.4908 9.30457 57.1379 9.22629 56.784 9.24806V8.71133L59.3084 8.58228V14.4687C59.3012 14.5833 59.3182 14.698 59.3582 14.8056C59.3983 14.9132 59.4605 15.0113 59.5409 15.0934C59.7188 15.2473 59.9502 15.3252 60.1852 15.3105H60.6383V15.8238L58.2198 15.8765L58.0668 14.4687C57.7008 14.9182 57.2623 15.3037 56.7693 15.6096C56.3728 15.8536 55.9171 15.9854 55.4512 15.9909C55.149 15.9984 54.8483 15.9445 54.5676 15.8326C54.2869 15.7207 54.032 15.553 53.8183 15.3398C53.373 14.9116 53.1504 14.1842 53.1504 13.1577V10.0458C53.1578 9.92213 53.1323 9.79869 53.0765 9.68797C53.0207 9.57725 52.9366 9.48317 52.8326 9.41524C52.5362 9.28365 52.212 9.22626 51.8882 9.24806V8.71133L54.4273 8.58228Z" fill="#87CADA"/>
<path d="M62.095 5.79016H62.6099V8.72312H66.9879V9.42703H62.6099V14.0171C62.59 14.3481 62.6949 14.6744 62.9041 14.9322C62.9934 15.0347 63.1044 15.1162 63.229 15.171C63.3536 15.2258 63.4888 15.2524 63.625 15.249C63.8 15.2452 63.9716 15.1996 64.1252 15.1159C64.2788 15.0321 64.41 14.9128 64.5076 14.768C64.7528 14.4473 64.896 13.9164 64.9372 13.1754H65.4521C65.4207 14.1295 65.203 14.8374 64.7989 15.2988C64.6051 15.5241 64.3631 15.7033 64.0907 15.8231C63.8183 15.9428 63.5224 16.0002 63.2248 15.991C62.9716 16.0058 62.718 15.9704 62.4786 15.8868C62.2392 15.8032 62.0188 15.6732 61.8302 15.5041C61.6622 15.3384 61.5307 15.1397 61.4441 14.9205C61.3575 14.7014 61.3176 14.4666 61.3271 14.2312V9.4153H60.0767V8.8815C60.5812 8.81491 61.0416 8.56025 61.3653 8.16879C61.8165 7.60175 62.0597 6.80888 62.095 5.79016Z" fill="#87CADA"/>
<path d="M65.4434 8.71143L68.3061 8.62637V14.7856C68.2995 14.851 68.3071 14.9172 68.3284 14.9794C68.3498 15.0417 68.3843 15.0986 68.4297 15.1463C68.5537 15.2504 68.712 15.3047 68.874 15.2989H69.3918V15.8854H65.8935V15.2989H66.3672C66.4565 15.3066 66.5464 15.296 66.6314 15.2677C66.7164 15.2395 66.7947 15.1942 66.8615 15.1346C66.9749 15.002 67.0319 14.8304 67.0204 14.6565V10.2894C67.0292 10.1706 67.012 10.0513 66.9698 9.93984C66.9276 9.82839 66.8615 9.72746 66.7762 9.64411C66.568 9.48485 66.3082 9.40759 66.0465 9.42707H65.4581L65.4434 8.71143ZM67.4382 5.32092C67.5517 5.32094 67.6641 5.3441 67.7683 5.38899C67.8725 5.43388 67.9664 5.49955 68.0443 5.58196C68.1276 5.66088 68.1938 5.756 68.2389 5.86142C68.2839 5.96685 68.3068 6.08036 68.3061 6.19495C68.3055 6.30464 68.2828 6.41309 68.2394 6.51386C68.1959 6.61463 68.1326 6.70566 68.0531 6.78154C67.9747 6.86263 67.8805 6.92684 67.7763 6.97023C67.672 7.01361 67.56 7.03524 67.447 7.03377C67.3329 7.03514 67.2198 7.01321 67.1145 6.96932C67.0093 6.92544 66.9142 6.86053 66.835 6.7786C66.7552 6.70287 66.6914 6.61193 66.6474 6.51117C66.6034 6.41042 66.5802 6.30189 66.5791 6.19201C66.5792 6.07885 66.6026 5.96692 66.6476 5.86304C66.6926 5.75916 66.7584 5.66552 66.8409 5.58782C66.9171 5.50555 67.0095 5.43969 67.1122 5.39429C67.2149 5.3489 67.3258 5.32493 67.4382 5.32386V5.32092Z" fill="#87CADA"/>
<path d="M73.0048 8.4973C73.462 8.48849 73.9159 8.57708 74.336 8.75714C74.7561 8.9372 75.1328 9.20459 75.4409 9.54144C76.1203 10.2934 76.4754 11.2817 76.4295 12.2926C76.45 12.9882 76.2984 13.6782 75.9882 14.3016C75.7004 14.848 75.264 15.3024 74.7289 15.6127C74.196 15.9319 73.5854 16.0993 72.9636 16.0966C72.5181 16.1002 72.0771 16.0077 71.6708 15.8255C71.2645 15.6432 70.9026 15.3755 70.6098 15.0407C69.9439 14.2866 69.596 13.3051 69.6389 12.3014C69.5954 11.3008 69.94 10.322 70.601 9.56783C70.8999 9.2264 71.2697 8.95381 71.6848 8.76897C72.0998 8.58412 72.5502 8.49142 73.0048 8.4973V8.4973ZM73.0048 9.0399C72.7227 9.03984 72.4451 9.11111 72.1982 9.24703C71.9512 9.38296 71.7428 9.57911 71.5925 9.81714C71.2238 10.3353 71.0394 11.1526 71.0394 12.2691C71.0394 13.3856 71.2228 14.2176 71.5896 14.765C71.7381 15.0062 71.9462 15.2054 72.194 15.3436C72.4417 15.4817 72.7209 15.5542 73.0048 15.554C73.2949 15.557 73.5809 15.4861 73.8358 15.348C74.0906 15.2099 74.3059 15.0093 74.4612 14.765C74.8319 14.2391 75.0173 13.3797 75.0173 12.187C75.0173 11.0803 74.8339 10.2796 74.4671 9.78487C74.304 9.5502 74.085 9.35956 73.8298 9.23004C73.5746 9.10053 73.2911 9.03621 73.0048 9.04283V9.0399Z" fill="#87CADA"/>
<path d="M76.2793 8.71135L78.6684 8.5647C78.7756 9.08426 78.8473 9.61047 78.8831 10.1397C79.1627 9.66219 79.5544 9.25957 80.0247 8.96651C80.4704 8.70556 80.979 8.5707 81.4958 8.57643C81.914 8.56638 82.3274 8.66762 82.6933 8.86973C83.0359 9.07757 83.3068 9.38448 83.4701 9.74961C83.67 10.1732 83.7706 10.6366 83.7643 11.1046V14.5949C83.7542 14.6944 83.7647 14.7949 83.795 14.8902C83.8254 14.9856 83.875 15.0737 83.9408 15.1492C84.1099 15.2745 84.3195 15.333 84.5292 15.3134H84.7381V15.9H81.5517V15.3134H81.6135C81.8602 15.3365 82.1077 15.2799 82.3196 15.1521C82.3883 15.0924 82.4421 15.0176 82.4768 14.9336C82.5116 14.8497 82.5262 14.7588 82.5197 14.6682V11.5974C82.5587 11.0852 82.457 10.5722 82.2255 10.1133C82.091 9.89192 81.8987 9.71113 81.6691 9.59025C81.4395 9.46937 81.1813 9.41294 80.9221 9.42699C80.6433 9.42344 80.3675 9.48437 80.1164 9.60497C79.8652 9.72558 79.6455 9.90259 79.4745 10.1221C79.0674 10.6379 78.8587 11.2818 78.8861 11.9376V14.5919C78.8759 14.6917 78.8866 14.7925 78.9175 14.8879C78.9484 14.9833 78.9988 15.0713 79.0656 15.1463C79.2358 15.2691 79.4445 15.3273 79.654 15.3105H79.857V15.8971H76.6471V15.3105H76.8471C77.0491 15.3245 77.25 15.2708 77.4179 15.158C77.479 15.1148 77.5288 15.0576 77.5631 14.9913C77.5974 14.9249 77.6152 14.8514 77.6151 14.7767V10.1544C77.6239 10.0276 77.6063 9.90029 77.5632 9.78063C77.5202 9.66098 77.4527 9.55154 77.365 9.45925C77.1661 9.28945 76.9083 9.20415 76.6471 9.22168H76.2793V8.71135Z" fill="#87CADA"/>
<path d="M37.5336 18.2435L38.1633 17.1113H38.6782L38.9724 21.6281H38.4722C38.0799 20.3298 37.6278 19.3902 37.1158 18.8095C36.8394 18.4692 36.4914 18.1935 36.0964 18.0019C35.7014 17.8104 35.269 17.7076 34.8298 17.7009C34.1964 17.6947 33.5777 17.891 33.0644 18.261C32.5042 18.686 32.0858 19.2698 31.864 19.9358C31.5874 20.6807 31.4462 21.4316 31.4462 22.7837C31.4027 23.7278 31.5446 24.6713 31.864 25.5612C32.076 26.2084 32.4777 26.7775 33.0174 27.1948C33.5225 27.5481 34.1276 27.731 34.7444 27.7169C35.1234 27.7407 35.5032 27.6864 35.8601 27.5572C36.217 27.428 36.5434 27.2267 36.8187 26.9661C37.0643 26.7086 37.2557 26.4046 37.3815 26.0721C37.5073 25.7396 37.5651 25.3854 37.5513 25.0303V23.9657C37.5548 23.8896 37.5388 23.8138 37.5049 23.7456C37.4709 23.6773 37.42 23.6188 37.3571 23.5756C37.1615 23.4679 36.9384 23.4199 36.7157 23.4377H35.7565V22.901H40.1816V23.4377H39.8344C39.6185 23.4186 39.4023 23.4712 39.2195 23.5873C39.1579 23.6404 39.1094 23.7069 39.0778 23.7816C39.0461 23.8564 39.0322 23.9374 39.0371 24.0185V28.3387H38.534C38.3496 27.6661 38.1535 27.0208 37.9456 26.4029C37.6119 26.9784 37.1409 27.463 36.5745 27.8137C36.0289 28.1324 35.4061 28.2958 34.7739 28.2859C33.8403 28.2892 32.924 28.0355 32.1259 27.5527C31.2966 27.0571 30.6221 26.3411 30.1781 25.4849C29.7004 24.6594 29.4592 23.7189 29.4808 22.7661C29.4619 21.807 29.7082 20.8613 30.1928 20.0326C30.6463 19.1657 31.3199 18.4325 32.1465 17.9062C32.8878 17.4067 33.7586 17.1326 34.6532 17.1172C35.1239 17.1149 35.5912 17.1964 36.0331 17.3577C36.5751 17.5761 37.081 17.8747 37.5336 18.2435Z" fill="#87CADA"/>
<path d="M47.831 27.5058L47.9516 27.717C47.9516 28.1217 47.4632 28.0777 47.0072 28.0777C46.66 28.0777 45.9627 28.0601 45.7214 27.8783C45.4802 27.6965 45.3831 27.4882 45.2036 27.0131C44.8373 27.4326 44.3977 27.7824 43.9061 28.0455C43.4877 28.2257 43.0348 28.3128 42.5792 28.3006C41.9798 28.3422 41.3847 28.1741 40.8962 27.8255C40.7101 27.6821 40.56 27.4974 40.4579 27.2862C40.3557 27.0749 40.3043 26.8428 40.3078 26.6083C40.3078 25.8634 40.7471 25.2445 41.6259 24.7518C42.7178 24.1978 43.9086 23.8639 45.1301 23.7692V22.6723C45.1311 22.4823 45.0896 22.2945 45.0087 22.1225C44.9277 21.9506 44.8094 21.7987 44.6622 21.678C44.3354 21.3988 43.9156 21.2513 43.4854 21.2645C43.0842 21.2537 42.6874 21.3488 42.335 21.5402C42.1055 21.679 41.9907 21.8139 41.9907 21.9449C42.0181 22.079 42.0823 22.2029 42.1761 22.3027C42.3055 22.4571 42.3837 22.6477 42.3997 22.8483C42.4037 22.9525 42.3859 23.0564 42.3474 23.1533C42.3089 23.2503 42.2505 23.3382 42.1761 23.4114C42.0979 23.4855 42.0054 23.543 41.9043 23.5803C41.8031 23.6176 41.6954 23.634 41.5876 23.6284C41.4687 23.6317 41.3503 23.6105 41.2399 23.5661C41.1296 23.5217 41.0296 23.455 40.9462 23.3703C40.8608 23.2823 40.794 23.1779 40.7501 23.0635C40.7061 22.9491 40.6857 22.827 40.6903 22.7046C40.6903 22.1981 40.9757 21.7367 41.5464 21.3202C42.2074 20.8754 42.9948 20.6552 43.7913 20.6925C44.6446 20.6925 45.2968 20.8763 45.7479 21.2439C45.9581 21.4023 46.1287 21.607 46.2461 21.8421C46.3635 22.0773 46.4246 22.3363 46.4246 22.599V26.5145C46.4118 26.7514 46.4713 26.9866 46.5953 27.189C46.6387 27.2629 46.6969 27.327 46.7663 27.3774C46.8356 27.4279 46.9146 27.4636 46.9983 27.4823C47.275 27.5103 47.5532 27.5182 47.831 27.5058V27.5058ZM45.1565 24.2649C43.8561 24.4448 42.9352 24.7381 42.3938 25.1448C42.1941 25.2963 42.0345 25.4941 41.9289 25.721C41.8232 25.948 41.7748 26.1972 41.7877 26.447C41.7675 26.7833 41.8805 27.114 42.1025 27.368C42.2078 27.4782 42.3355 27.5648 42.4771 27.622C42.6186 27.6791 42.7708 27.7055 42.9234 27.6994C43.2186 27.7013 43.511 27.6414 43.7816 27.5237C44.0522 27.406 44.2951 27.233 44.4945 27.016C44.7147 26.7882 44.887 26.5188 45.0011 26.2236C45.1153 25.9284 45.1692 25.6135 45.1595 25.2973L45.1565 24.2649Z" fill="#87CADA"/>
<path d="M47.5662 20.9037L49.6258 20.7747C49.7327 21.2767 49.8065 21.7852 49.8464 22.2969C50.1511 21.8272 50.5522 21.4274 51.0233 21.1237C51.4126 20.8948 51.8571 20.7761 52.309 20.7805C52.7517 20.7632 53.1865 20.9001 53.5389 21.1677C53.9091 21.5058 54.1685 21.9474 54.2833 22.4347C54.5679 21.9419 54.9576 21.5173 55.4248 21.1911C55.8307 20.9213 56.3081 20.7783 56.7959 20.7805C57.0696 20.7611 57.3442 20.8038 57.599 20.9054C57.8538 21.007 58.0822 21.1649 58.267 21.3671C58.7039 21.9304 58.9269 22.6296 58.8966 23.341V26.8899C58.8864 26.9703 58.8957 27.052 58.9239 27.1281C58.9521 27.2042 58.9982 27.2724 59.0585 27.3269C59.2446 27.457 59.4701 27.5191 59.6969 27.5029H60.0559V28.0895H56.437V27.5029H56.7988C57.0246 27.5241 57.2511 27.4705 57.4432 27.3504C57.5071 27.2927 57.5571 27.2212 57.5892 27.1414C57.6213 27.0617 57.6348 26.9756 57.6286 26.8899V23.3263C57.6598 22.8816 57.5234 22.4413 57.2461 22.0916C57.1178 21.9478 56.9592 21.834 56.7817 21.7585C56.6042 21.6829 56.4121 21.6474 56.2192 21.6545C55.906 21.6491 55.5983 21.738 55.3366 21.9097C55.067 22.0914 54.8548 22.3457 54.7246 22.643C54.5313 23.0005 54.4188 23.396 54.3951 23.8015V26.8899C54.3876 26.9746 54.3988 27.06 54.4278 27.14C54.4567 27.22 54.5028 27.2928 54.5628 27.3533C54.7133 27.465 54.8995 27.5182 55.0865 27.5029H55.5778V28.0895H51.906V27.5029H52.3208C52.5286 27.5192 52.7358 27.4655 52.9093 27.3504C52.9701 27.3051 53.0194 27.2463 53.0532 27.1785C53.0869 27.1107 53.1041 27.0359 53.1034 26.9603V23.646C53.1034 22.946 52.9789 22.4386 52.7298 22.1238C52.6128 21.9705 52.4607 21.8473 52.2861 21.7646C52.1115 21.682 51.9196 21.6422 51.7265 21.6487C51.4891 21.6364 51.2523 21.6806 51.0354 21.7775C50.8185 21.8744 50.6278 22.0212 50.479 22.2059C50.0662 22.7228 49.8467 23.3667 49.8582 24.0273V26.8899C49.8484 26.9713 49.8565 27.0539 49.8819 27.1318C49.9073 27.2098 49.9494 27.2814 50.0053 27.3416C50.1967 27.4638 50.423 27.5204 50.6496 27.5029H51.0174V28.0895H47.3838V27.5029H47.9281C48.0998 27.5148 48.2695 27.4601 48.4018 27.3504C48.4557 27.3009 48.4982 27.2404 48.5267 27.1731C48.5551 27.1058 48.5687 27.0333 48.5666 26.9603V22.2675C48.5757 22.1613 48.5626 22.0543 48.5282 21.9533C48.4938 21.8524 48.4387 21.7596 48.3665 21.6809C48.132 21.5178 47.8522 21.4317 47.5662 21.4346V20.9037Z" fill="#87CADA"/>
<path d="M60.2089 20.9037L62.7745 20.8186V26.9779C62.7679 27.0433 62.7755 27.1094 62.7968 27.1717C62.8181 27.2339 62.8527 27.2909 62.8981 27.3386C63.0231 27.4428 63.1824 27.4972 63.3453 27.4911H64.1603V28.0777H59.7676V27.4911H60.8238C60.9131 27.499 61.0031 27.4885 61.0881 27.4603C61.1732 27.432 61.2514 27.3866 61.3181 27.3269C61.4311 27.1941 61.4871 27.0224 61.4741 26.8488V22.3438C61.4832 22.2245 61.466 22.1047 61.4238 21.9928C61.3817 21.8808 61.3154 21.7794 61.2299 21.6956C61.0218 21.5361 60.7619 21.4588 60.5002 21.4786H60.206L60.2089 20.9037ZM61.9066 17.5132C62.0201 17.513 62.1325 17.5361 62.2368 17.581C62.341 17.6259 62.4349 17.6917 62.5127 17.7742C62.596 17.8532 62.6622 17.9483 62.7073 18.0537C62.7523 18.1591 62.7752 18.2726 62.7745 18.3872C62.7739 18.4969 62.7512 18.6054 62.7078 18.7061C62.6643 18.8069 62.6009 18.8979 62.5215 18.9738C62.4214 19.0721 62.2986 19.1444 62.164 19.1844C62.0293 19.2244 61.8869 19.2309 61.7492 19.2033C61.6114 19.1756 61.4826 19.1148 61.3739 19.026C61.2653 18.9372 61.1801 18.8232 61.1259 18.694C61.0717 18.5647 61.0502 18.4242 61.0631 18.2848C61.0761 18.1453 61.1231 18.0111 61.2002 17.894C61.2772 17.7769 61.3819 17.6804 61.5051 17.613C61.6282 17.5456 61.7661 17.5093 61.9066 17.5073V17.5132Z" fill="#87CADA"/>
<path d="M63.9487 20.9037L66.3378 20.7571C66.4448 21.2767 66.5165 21.8029 66.5526 22.3321C66.8321 21.8546 67.2239 21.452 67.6942 21.1589C68.1442 20.8955 68.6582 20.7605 69.18 20.7688C69.5982 20.7588 70.0115 20.86 70.3775 21.0621C70.7204 21.2695 70.9914 21.5766 71.1542 21.942C71.3538 22.3657 71.4544 22.829 71.4484 23.297V26.7872C71.4384 26.8868 71.4488 26.9873 71.4792 27.0826C71.5096 27.1779 71.5592 27.2661 71.625 27.3416C71.794 27.4669 72.0036 27.5254 72.2134 27.5058H72.4223V28.0924H69.2212V27.5058H69.283C69.5296 27.5288 69.7771 27.4723 69.9891 27.3445C70.0566 27.2863 70.11 27.2136 70.1452 27.1317C70.1804 27.0499 70.1964 26.9612 70.1921 26.8723V23.7898C70.231 23.2767 70.1293 22.7627 69.8979 22.3027C69.7633 22.0806 69.5706 21.8991 69.3405 21.7777C69.1104 21.6563 68.8515 21.5995 68.5915 21.6135C68.3128 21.6102 68.0371 21.6712 67.786 21.7918C67.5348 21.9124 67.3151 22.0893 67.144 22.3086C66.7371 22.8246 66.5284 23.4684 66.5555 24.1241V26.7784C66.5453 26.8782 66.556 26.979 66.5869 27.0744C66.6178 27.1698 66.6682 27.2578 66.735 27.3328C66.9053 27.4556 67.1139 27.5139 67.3235 27.497H67.5265V28.0836H64.0135V27.497H64.5136C64.7156 27.5107 64.9164 27.4571 65.0844 27.3445C65.1459 27.301 65.1959 27.2434 65.2303 27.1765C65.2646 27.1096 65.2822 27.0354 65.2816 26.9603V22.335C65.2906 22.2082 65.273 22.0809 65.23 21.9612C65.1869 21.8415 65.1193 21.7321 65.0315 21.6399C64.8327 21.4698 64.5749 21.3845 64.3136 21.4023H63.9458L63.9487 20.9037Z" fill="#87CADA"/>
<path d="M77.8681 21.2997C78.3801 20.7835 79.81 20.0297 80.266 20.0121C80.3955 19.9945 80.5273 20.0033 80.6532 20.0381C80.7792 20.0729 80.8967 20.1329 80.9987 20.2145C81.1664 20.3787 80.8633 20.7454 80.8633 20.98C80.8696 21.1526 80.8084 21.3208 80.6927 21.4493C80.6432 21.5078 80.5815 21.555 80.5119 21.5874C80.4423 21.6198 80.3664 21.6367 80.2896 21.637C79.9973 21.637 79.8012 21.4581 79.7011 21.1003C79.66 20.9477 79.5903 20.8715 79.4922 20.8715C79.0287 21.034 78.6004 21.2828 78.23 21.6047C78.4155 21.8444 78.5679 22.1078 78.6831 22.3878C78.7664 22.6172 78.8082 22.8595 78.8067 23.1035C78.8139 23.5174 78.7016 23.9246 78.4831 24.2767C78.2108 24.6639 77.8416 24.9734 77.4121 25.1741C76.9734 25.4183 76.4816 25.5522 75.9793 25.5642H75.1437C74.7422 25.531 74.3386 25.5944 73.9668 25.749C73.8726 25.8083 73.7958 25.8913 73.7441 25.9897C73.6925 26.088 73.6678 26.1983 73.6726 26.3092C73.6686 26.4 73.6886 26.4902 73.7304 26.571C73.7722 26.6517 73.8344 26.7202 73.9109 26.7697C74.1907 26.9009 74.5001 26.9565 74.8083 26.931L76.703 26.8929C77.6602 26.8929 78.3467 27.0522 78.7626 27.3709C78.9673 27.5214 79.132 27.7196 79.2422 27.9481C79.3525 28.1766 79.405 28.4286 79.3952 28.682C79.3987 28.977 79.3358 29.269 79.211 29.5365C79.0863 29.804 78.9028 30.0402 78.6743 30.2276C78.0035 30.8142 77.0022 31.1075 75.6703 31.1075C74.5699 31.1075 73.754 30.9061 73.2224 30.5033C73.0393 30.3894 72.8864 30.2332 72.7768 30.0479C72.6672 29.8625 72.6041 29.6535 72.5928 29.4387C72.601 29.283 72.6419 29.1308 72.7129 28.9918C72.7838 28.8529 72.8833 28.7303 73.0047 28.6321C73.3979 28.3275 73.8667 28.1349 74.361 28.0748C73.9401 27.9938 73.5464 27.8082 73.2165 27.5352C73.0942 27.4236 72.9969 27.2876 72.931 27.136C72.8651 26.9843 72.832 26.8205 72.834 26.6553C72.8247 26.3418 72.9315 26.0359 73.1341 25.7959C73.4333 25.4974 73.8055 25.282 74.2139 25.1712C73.8178 24.9643 73.4799 24.6618 73.2312 24.2913C73.0078 23.9412 72.8932 23.533 72.9017 23.1181C72.9 22.7873 72.9729 22.4603 73.1149 22.1613C73.257 21.8623 73.4647 21.5989 73.7226 21.3906C74.323 20.9032 75.0821 20.6526 75.8557 20.6867C76.2066 20.6855 76.5557 20.7369 76.8913 20.8392C77.238 20.9436 77.5672 21.0988 77.8681 21.2997ZM76.3029 28.0719C75.3614 28.0719 74.6896 28.2019 74.2875 28.462C74.1131 28.5526 73.9656 28.6872 73.8598 28.8525C73.754 29.0177 73.6935 29.2077 73.6843 29.4035C73.681 29.5675 73.7211 29.7296 73.8006 29.8733C73.8802 30.017 73.9964 30.1372 74.1374 30.2218C74.6542 30.5174 75.2463 30.656 75.841 30.6207C76.7217 30.6207 77.3846 30.475 77.8299 30.1836C78.2752 29.8923 78.4988 29.5707 78.5007 29.2187C78.4991 29.0053 78.4255 28.7987 78.2918 28.6321C78.1195 28.4291 77.8882 28.2846 77.6298 28.2186C77.1963 28.11 76.7495 28.0636 76.3029 28.0807V28.0719ZM75.8498 21.1677C75.6359 21.1625 75.4236 21.2048 75.2282 21.2916C75.0328 21.3783 74.8592 21.5073 74.72 21.6693C74.4027 22.0666 74.2444 22.5672 74.2757 23.0741C74.2424 23.6093 74.3998 24.1391 74.72 24.57C74.8584 24.7352 75.0313 24.8683 75.2266 24.9602C75.4218 25.052 75.6349 25.1003 75.8508 25.1017C76.0667 25.1031 76.2804 25.0575 76.4768 24.9682C76.6733 24.8789 76.8479 24.748 76.9884 24.5846C77.3053 24.1634 77.4617 23.6437 77.4298 23.1181C77.4579 22.607 77.2978 22.1032 76.9796 21.7015C76.8431 21.5348 76.6706 21.401 76.475 21.3101C76.2793 21.2192 76.0656 21.1735 75.8498 21.1765V21.1677Z" fill="#87CADA"/>
<path d="M80.5395 20.0649C80.7711 20.0688 80.9918 20.1632 81.1542 20.3278C81.3165 20.4924 81.4075 20.714 81.4075 20.9448C81.407 21.0545 81.3844 21.163 81.3409 21.2638C81.2975 21.3646 81.234 21.4556 81.1544 21.5314C81.0543 21.6298 80.9314 21.7022 80.7966 21.7422C80.6618 21.7821 80.5192 21.7885 80.3814 21.7608C80.2435 21.733 80.1146 21.672 80.006 21.5829C79.8974 21.4939 79.8123 21.3797 79.7583 21.2503C79.7043 21.1208 79.683 20.9802 79.6962 20.8406C79.7095 20.701 79.7569 20.5668 79.8343 20.4498C79.9117 20.3328 80.0168 20.2365 80.1403 20.1694C80.2637 20.1023 80.4018 20.0664 80.5425 20.0649H80.5395Z" fill="#87CADA"/>
<path d="M20.5572 26.9192H20.3689H20.2718V26.4528H20.4013C20.5005 26.4424 20.6009 26.4534 20.6955 26.4851C20.7332 26.5034 20.7648 26.5323 20.7862 26.5683C20.8076 26.6042 20.818 26.6457 20.8161 26.6875C20.8164 26.7212 20.8095 26.7546 20.7957 26.7854C20.7819 26.8162 20.7616 26.8436 20.7361 26.8659C20.7107 26.8882 20.6808 26.9047 20.6484 26.9144C20.616 26.9241 20.5819 26.9267 20.5484 26.9221L20.5572 26.9192ZM21.1044 26.6933C21.1074 26.6218 21.0936 26.5506 21.0639 26.4854C21.0343 26.4202 20.9897 26.3628 20.9338 26.3179C20.7957 26.225 20.628 26.1863 20.463 26.2094H19.9893V27.7228H20.2836V27.1655H20.5366L20.8308 27.7287H21.1545L20.8161 27.1127C20.9045 27.0856 20.9813 27.0299 21.0345 26.9546C21.0878 26.8792 21.1144 26.7883 21.1103 26.6963L21.1044 26.6933ZM20.5219 28.1627C20.2891 28.1627 20.0616 28.0939 19.868 27.965C19.6745 27.8361 19.5237 27.6529 19.4346 27.4385C19.3455 27.2241 19.3222 26.9882 19.3676 26.7607C19.413 26.5331 19.5251 26.3241 19.6897 26.16C19.8543 25.9959 20.064 25.8842 20.2923 25.8389C20.5206 25.7936 20.7572 25.8169 20.9723 25.9057C21.1873 25.9945 21.3711 26.1448 21.5004 26.3378C21.6297 26.5307 21.6988 26.7575 21.6988 26.9896C21.6988 27.3007 21.5748 27.5991 21.3541 27.8191C21.1334 28.0391 20.834 28.1627 20.5219 28.1627ZM20.5219 25.5231C20.2309 25.5231 19.9465 25.6091 19.7046 25.7702C19.4627 25.9314 19.2741 26.1604 19.1628 26.4284C19.0514 26.6963 19.0223 26.9912 19.079 27.2756C19.1358 27.5601 19.2759 27.8214 19.4817 28.0265C19.6874 28.2316 19.9495 28.3713 20.2349 28.4279C20.5203 28.4844 20.816 28.4554 21.0849 28.3444C21.3537 28.2334 21.5834 28.0454 21.7451 27.8043C21.9067 27.5631 21.993 27.2796 21.993 26.9896C21.993 26.6006 21.838 26.2276 21.5621 25.9526C21.2862 25.6776 20.912 25.5231 20.5219 25.5231" fill="#87CADA"/>
<path d="M4.90137 6.28281C11.9627 2.51688 21.1129 6.48811 21.8014 16.076C8.67916 17.1025 7.09919 11.2131 4.90137 6.28281Z" fill="#87CADA"/>
<path d="M4.90137 26.8399C11.9627 30.6058 21.1129 26.6346 21.8014 17.0467C8.67916 16.0202 7.09919 21.9066 4.90137 26.8399Z" fill="#87CADA"/>
<path d="M19.3507 9.27446C16.023 4.86036 9.92382 3.60505 4.875 6.29164C6.84334 10.7087 8.31738 15.8912 18.0296 16.1875C18.9604 14.5138 19.4475 12.6311 19.4448 10.7175C19.4441 10.235 19.4126 9.753 19.3507 9.27446V9.27446ZM7.25524 21.983C7.54946 22.0035 7.82015 22.0182 8.10848 22.0182C9.9779 22.019 11.8185 21.5585 13.4659 20.6778C15.1134 19.797 16.5165 18.5234 17.55 16.9706C11.7127 17.2551 8.96761 19.3697 7.25524 21.983Z" fill="#87CADA"/>
</svg>
