<svg width="90" height="36" viewBox="0 0 90 36" fill="none" xmlns="http://www.w3.org/2000/svg">
<path d="M72.285 9.78378H83.25V12.9932H79.425V26.6014H76.11V12.9932H72.285V9.78378ZM58.1325 9.78378H61.065L67.5675 20.0541V9.78378H70.8825V26.6014H67.95L61.4475 16.3311V26.6014H58.1325V9.78378ZM47.6775 9.78378H56.3475V12.9932H48.6975V16.5878H55.2V19.7973H48.6975V23.3919H56.3475V26.6014H47.6775V32.25H47.04V3.75H47.6775V9.78378Z" fill="#87CADA"/>
<path d="M21.285 9.78381H32.25V12.9933H24.7275V16.5879H31.23V19.7973H24.7275V23.3919H32.25V26.6014H21.285V9.78381ZM6.75 9.78381H9.81L16.185 20.0541V9.78381H19.5V26.6014H16.5675L10.065 16.3311V26.6014H6.75V9.78381ZM33.78 9.78381H44.745V12.9933H40.92V26.6014H37.605V12.9933H33.78V9.78381Z" fill="#87CADA"/>
</svg>
