<svg width="90" height="36" viewBox="0 0 90 36" fill="none" xmlns="http://www.w3.org/2000/svg">
<path d="M16.9317 13.4858C16.8982 12.6406 16.6249 11.8223 16.1438 11.1266C15.9081 10.8379 15.6073 10.6091 15.2661 10.459C14.9249 10.3089 14.5531 10.2418 14.1809 10.2632C13.8545 10.2474 13.5282 10.2978 13.2217 10.4113C12.9152 10.5248 12.6348 10.6991 12.3974 10.9237C12.1784 11.1457 12.007 11.41 11.8934 11.7004C11.7798 11.9908 11.7266 12.3013 11.7368 12.6129C11.7122 13.3732 11.9886 14.1124 12.5059 14.6701C13.2293 15.3742 14.0194 16.0063 14.8651 16.5575C15.4291 16.914 15.9741 17.2998 16.4977 17.7135C16.9202 18.0736 17.3073 18.4733 17.6537 18.9072C18.0388 19.3671 18.3435 19.8887 18.5549 20.4501C18.8001 21.088 18.9187 21.7675 18.904 22.4507C18.9381 23.0619 18.85 23.6737 18.6451 24.2505C18.4401 24.8273 18.1223 25.3575 17.7103 25.8102C16.9317 26.617 15.7946 27.0039 14.3272 27.0039C13.7053 27.0346 13.0846 26.923 12.5122 26.6777C11.9399 26.4325 11.4311 26.0599 11.0243 25.5884C10.1819 24.5537 9.73823 23.2513 9.77398 21.9175H11.5575C11.5338 22.82 11.811 23.7048 12.3455 24.4324C12.6091 24.7386 12.9403 24.9794 13.3128 25.1358C13.6854 25.2921 14.0892 25.3599 14.4923 25.3336C14.8533 25.3527 15.2142 25.2939 15.5504 25.1612C15.8867 25.0285 16.1904 24.825 16.441 24.5645C16.945 23.9526 17.1949 23.1707 17.1394 22.3799C17.1591 21.5811 16.8701 20.8054 16.3325 20.2142C15.5808 19.4419 14.7434 18.7581 13.8365 18.1759C13.2357 17.7701 12.7261 17.3942 12.3077 17.0482C11.8958 16.7091 11.5094 16.34 11.1517 15.9441C10.7775 15.5307 10.4846 15.0505 10.2883 14.5286C10.0625 13.968 9.95026 13.3682 9.95799 12.7639C9.93674 12.2039 10.0318 11.6455 10.2373 11.1242C10.4428 10.6028 10.7542 10.1296 11.1517 9.7347C12.0009 8.96002 13.1222 8.5529 14.2706 8.60229C14.8577 8.57955 15.443 8.68226 15.9873 8.90356C16.5316 9.12487 17.0225 9.45969 17.4272 9.88568C18.2151 10.7303 18.6398 11.924 18.7106 13.4858H16.9317ZM31.4219 22.026C31.2333 23.0293 30.8861 23.9961 30.3932 24.8901C30.0244 25.5625 29.488 26.1281 28.8362 26.5321C28.1912 26.8699 27.4688 27.0326 26.7412 27.0039C26.0197 27.0324 25.3035 26.8696 24.6651 26.5321C24.0036 26.1429 23.458 25.5842 23.0845 24.9137C22.5834 24.0235 22.2357 23.0553 22.0559 22.0496C21.7944 20.6639 21.6711 19.2557 21.6879 17.8456C21.6696 16.4214 21.7929 14.9989 22.0559 13.599C22.2301 12.5946 22.5714 11.6265 23.0656 10.735C23.4179 10.0716 23.9489 9.52022 24.5986 9.14327C25.2482 8.76632 25.9905 8.57891 26.7412 8.60229C27.4723 8.58903 28.1943 8.76628 28.8362 9.11659C29.4971 9.49883 30.0368 10.0598 30.3932 10.735C30.8874 11.6266 31.2287 12.5947 31.403 13.599C31.6668 14.9988 31.7901 16.4213 31.771 17.8456C31.7785 19.2553 31.6553 20.6627 31.403 22.0496L31.4219 22.026ZM29.6053 14.1133C29.5056 13.3132 29.2827 12.5334 28.9447 11.8013C28.7372 11.3213 28.4008 10.9081 27.9727 10.6076C27.5963 10.3799 27.1647 10.2595 26.7247 10.2595C26.2847 10.2595 25.8532 10.3799 25.4767 10.6076C25.0487 10.9081 24.7122 11.3213 24.5047 11.8013C24.1801 12.5383 23.9579 13.3162 23.8442 14.1133C23.665 15.3411 23.5845 16.5813 23.6035 17.822C23.5845 19.0626 23.665 20.3028 23.8442 21.5306C23.9439 22.3307 24.1667 23.1106 24.5047 23.8426C24.7122 24.3227 25.0487 24.7359 25.4767 25.0364C25.8532 25.2641 26.2847 25.3845 26.7247 25.3845C27.1647 25.3845 27.5963 25.2641 27.9727 25.0364C28.4008 24.7359 28.7372 24.3227 28.9447 23.8426C29.2693 23.1057 29.4916 22.3278 29.6053 21.5306C29.7844 20.3028 29.8649 19.0626 29.8459 17.822C29.8649 16.5813 29.7844 15.3411 29.6053 14.1133V14.1133ZM34.9842 8.8618H42.661V10.4896H36.914V16.5905H41.2455V18.2278H36.9282V26.7491H34.9984V8.85708L34.9842 8.8618ZM54.3295 8.8618V10.4896H50.6822V26.768H48.7524V10.4896H45.0674V8.83821L54.3295 8.8618Z" fill="#87CADA"/>
<path d="M56.4386 8.85712H61.1948C61.7671 8.82697 62.3393 8.91768 62.8742 9.12336C63.4092 9.32904 63.8948 9.64506 64.2995 10.0509C65.07 10.9392 65.4702 12.0893 65.4177 13.2641C65.4398 14.142 65.2106 15.008 64.7571 15.7601C64.2807 16.4909 63.546 17.0149 62.6999 17.2275V17.2841C63.6599 17.5007 64.5025 18.0721 65.0591 18.8837C65.603 19.7619 65.8754 20.7812 65.8424 21.8138C65.8424 25.1166 63.955 26.7728 60.0954 26.7728H56.4764V8.84296L56.4386 8.85712ZM58.3685 16.5528H59.4537C60.8692 16.5528 61.8978 16.298 62.5206 15.8167C63.1434 15.3354 63.4643 14.4767 63.4643 13.2829C63.4643 12.2732 63.2252 11.5576 62.7471 11.1361C62.2753 10.7114 61.4448 10.5133 60.2841 10.5133H58.3543V16.5528H58.3685ZM58.3685 25.1308H60.2983C61.2604 25.1998 62.2142 24.9126 62.9783 24.3239C63.5634 23.7908 63.8937 22.9462 63.8937 21.8138C63.8937 20.6011 63.6011 19.6999 63.0302 19.096C62.4593 18.492 61.5628 18.1948 60.3124 18.1948H58.3826L58.3685 25.1308ZM77.0815 8.85712V10.4897H70.8344V16.5905H75.4442V18.2278H70.8344V25.1166H77.3741V26.7492H68.881V8.85712H77.0721H77.0815ZM88.3395 8.85712V10.4897H84.6545V26.768H82.7247V10.4897H79.0538V8.83824L88.3395 8.85712ZM3.40891 16.2036V27.004H5.26323V16.2036C4.96565 16.2984 4.65546 16.3478 4.34314 16.3499C4.02306 16.3483 3.705 16.299 3.39947 16.2036H3.40891ZM4.38089 10.1075C4.70178 10.1075 5.01542 10.2029 5.28196 10.3816C5.5485 10.5603 5.7559 10.8142 5.87782 11.111C5.99974 11.4078 6.03067 11.7342 5.96668 12.0486C5.90268 12.3631 5.74666 12.6514 5.51843 12.877C5.2902 13.1025 5.00007 13.2552 4.6849 13.3155C4.36972 13.3758 4.04374 13.341 3.74837 13.2156C3.45299 13.0902 3.20156 12.8798 3.02602 12.6112C2.85048 12.3426 2.75875 12.0279 2.76249 11.707C2.76743 11.2827 2.93883 10.8773 3.23977 10.5781C3.54071 10.2789 3.94711 10.1099 4.37145 10.1075H4.38089ZM4.38089 8.64007C3.77244 8.64194 3.17822 8.82419 2.67335 9.16378C2.16849 9.50337 1.77566 9.98504 1.54454 10.5479C1.31342 11.1107 1.2544 11.7295 1.37493 12.3259C1.49547 12.9223 1.79014 13.4695 2.2217 13.8984C2.65325 14.3273 3.20231 14.6187 3.79943 14.7355C4.39654 14.8524 5.01491 14.7896 5.57633 14.555C6.13774 14.3204 6.617 13.9247 6.95348 13.4177C7.28996 12.9108 7.46857 12.3155 7.4667 11.707C7.46547 11.3022 7.38436 10.9016 7.22802 10.5283C7.07169 10.1549 6.8432 9.81601 6.55565 9.53109C6.26811 9.24618 5.92716 9.02081 5.55235 8.86791C5.17754 8.71501 4.77624 8.63759 4.37145 8.64007H4.38089Z" fill="#87CADA"/>
</svg>
