<svg width="90" height="36" viewBox="0 0 90 36" fill="none" xmlns="http://www.w3.org/2000/svg">
<path d="M67.1133 34.1581C66.683 33.6815 66.4697 33.0264 66.4697 32.1946C66.4697 31.2497 66.6739 30.5161 67.0823 29.9937C67.4906 29.4712 68.1421 29.21 69.0366 29.21C69.5799 29.202 70.121 29.2798 70.6391 29.4403V29.8651C70.1391 29.704 69.6158 29.6232 69.0895 29.626C68.3104 29.626 67.7574 29.8461 67.4305 30.2864C67.1035 30.7267 66.9395 31.3652 66.9383 32.2017C66.9383 33.719 67.6584 34.4777 69.0986 34.4777C69.3668 34.4773 69.6346 34.4546 69.8989 34.4098C70.1351 34.3723 70.3663 34.3088 70.588 34.2206V32.266H68.9928V31.8912H71.0219V34.4562C70.7853 34.5964 70.5265 34.6971 70.2562 34.7543C69.8591 34.842 69.4527 34.8821 69.0457 34.8739C68.1877 34.8739 67.5435 34.6359 67.1133 34.1599" fill="#87CADA"/>
<path d="M50.5379 32.8033L49.3274 29.6742L48.126 32.8033H50.5379ZM49.0321 29.2993H49.641L51.7575 34.7901H51.269L50.6509 33.1836H48.0221L47.4041 34.7901H46.9082L49.0321 29.2993Z" fill="#87CADA"/>
<path d="M52.6709 29.2993H53.2288L55.2578 33.3656L57.2869 29.2993H57.8447V34.7901H57.3726V29.9812L55.4492 33.8351H55.0755L53.1431 29.9812V34.7901H52.6709V29.2993Z" fill="#87CADA"/>
<path d="M59.6299 29.2993H59.1504V34.7901H59.6299V29.2993Z" fill="#87CADA"/>
<path d="M60.9351 29.2993H61.3872L64.8619 34.0903V29.2993H65.3414V34.7901H64.8802L61.4145 30.0062V34.7901H60.9351V29.2993Z" fill="#87CADA"/>
<path d="M42.0409 34.1581C41.6106 33.6815 41.3955 33.0264 41.3955 32.1946C41.3955 31.2497 41.6003 30.5161 42.0099 29.9936C42.4195 29.4712 43.0697 29.2112 43.9606 29.2136C44.5039 29.2055 45.045 29.2833 45.563 29.4438V29.8651C45.0631 29.704 44.5398 29.6232 44.0134 29.6259C43.2344 29.6259 42.6814 29.8461 42.3544 30.2864C42.0275 30.7267 41.8634 31.3651 41.8622 32.2017C41.8622 33.719 42.5823 34.4776 44.0225 34.4776C44.2908 34.4772 44.5585 34.4546 44.8229 34.4098C45.0591 34.3723 45.2903 34.3088 45.512 34.2206V32.266H43.9186V31.8911H45.9459V34.4562C45.7092 34.5964 45.4505 34.6971 45.1802 34.7543C44.7831 34.8419 44.3766 34.882 43.9697 34.8739C43.1116 34.8739 42.4675 34.6359 42.0372 34.1599" fill="#87CADA"/>
<path d="M32.2711 32.7605L30.2603 29.2993H31.4872L32.8636 31.7805L34.2382 29.2993H35.4578L33.447 32.7605V34.7901H32.2711V32.7605Z" fill="#87CADA"/>
<path d="M37.155 32.0358L35.1788 29.2993H36.5644L37.8606 31.1308L39.1586 29.2993H40.5423L38.5661 32.0358L40.5951 34.7901H39.1932L37.8606 32.9551L36.5279 34.7901H35.126L37.155 32.0358Z" fill="#87CADA"/>
<path d="M41.5902 18.5748C35.6361 9.72995 36.1302 6.05278 36.6497 4.84967C35.2368 6.38457 34.2824 8.27059 33.8912 10.3012C33.5 12.3317 33.687 14.4286 34.4318 16.362C35.1765 18.2955 36.4503 19.991 38.1135 21.2628C39.7768 22.5347 41.7655 23.3339 43.8617 23.5729C43.8617 22.2252 42.7442 20.3598 41.5847 18.5748" fill="#87CADA"/>
<path d="M45.1925 19.0193C51.8375 10.4154 53.203 5.39233 53.3962 4.50338C52.3257 3.43408 51.0481 2.58461 49.6382 2.0047C48.2283 1.42479 46.7144 1.1261 45.1852 1.1261C43.6559 1.1261 42.142 1.42479 40.7321 2.0047C39.3222 2.58461 38.0446 3.43408 36.9741 4.50338C37.1765 5.3959 38.5419 10.4154 45.1779 19.0193" fill="#87CADA"/>
<path d="M53.7372 4.8479C54.2513 6.03852 54.7417 9.64786 48.9973 18.2892C48.9919 18.3003 48.9858 18.311 48.979 18.3213C47.7612 20.1742 46.5361 22.1609 46.5361 23.5729C48.6319 23.3327 50.6198 22.5326 52.2823 21.2602C53.9448 19.9878 55.2177 18.2921 55.9618 16.3587C56.7059 14.4253 56.8924 12.3288 56.501 10.2986C56.1096 8.26833 55.1554 6.38265 53.7427 4.8479" fill="#87CADA"/>
<path d="M23.2322 33.4459C23.4826 33.1472 23.6078 32.6885 23.6078 32.0697C23.6078 31.3937 23.4862 30.9118 23.2432 30.6238C22.9989 30.3382 22.6106 30.1936 22.0764 30.1936C21.5423 30.1936 21.1539 30.3382 20.9097 30.6238C20.6654 30.9094 20.545 31.3931 20.545 32.0697C20.545 32.6897 20.6702 33.1484 20.9206 33.4459C21.1704 33.7458 21.555 33.894 22.0782 33.894C22.6015 33.894 22.9898 33.7458 23.2359 33.4459H23.2322ZM19.3491 32.0697C19.3491 31.076 19.574 30.3525 20.0237 29.8991C20.4733 29.4457 21.16 29.2172 22.0837 29.2136C23.0013 29.2136 23.685 29.4421 24.1346 29.8991C24.5843 30.356 24.8092 31.0796 24.8092 32.0697C24.8092 33.9404 23.9007 34.8752 22.0837 34.874C20.2667 34.8728 19.3552 33.938 19.3491 32.0697Z" fill="#87CADA"/>
<path d="M28.0032 32.0179C28.2638 32.0346 28.5221 31.9606 28.7324 31.8091C28.8224 31.7227 28.8917 31.6179 28.9352 31.5021C28.9787 31.3863 28.9954 31.2625 28.984 31.1397C28.9952 31.0183 28.981 30.896 28.9421 30.7803C28.9032 30.6646 28.8406 30.5579 28.758 30.4667C28.5661 30.3106 28.3193 30.2343 28.0707 30.2543H26.7945V32.0179H28.0032ZM25.6187 29.2993H28.3095C28.9366 29.2993 29.4033 29.46 29.7151 29.7848C30.0268 30.1097 30.1799 30.5613 30.1799 31.1397C30.1932 31.48 30.0911 31.8151 29.8897 32.0928C29.6882 32.3704 29.3986 32.5751 29.0661 32.6748C29.1482 32.7424 29.22 32.8211 29.2794 32.9087C29.3501 33.0188 29.4111 33.1346 29.4617 33.255L30.1417 34.7901H28.9184L28.2566 33.3139C28.2173 33.2091 28.1499 33.1166 28.0616 33.0461C27.9562 32.9899 27.8366 32.9645 27.717 32.9729H26.7945V34.7901H25.6187V29.2993Z" fill="#87CADA"/>
</svg>
