<svg width="90" height="36" viewBox="0 0 90 36" fill="none" xmlns="http://www.w3.org/2000/svg">
<path d="M10.999 8.39625C8.49291 8.40021 6.09062 9.39751 4.31856 11.1696C2.54649 12.9416 1.5492 15.3439 1.54524 17.85C1.53747 18.7706 1.67413 19.6867 1.95024 20.565C4.44774 17.2275 7.28649 12.0787 7.59774 11.25C7.90899 10.5337 8.16024 10.1887 9.00024 10.3462C9.21774 10.41 9.59274 10.7812 9.49899 11.5612C8.93649 16.0237 9.40524 22.95 10.4665 22.0612C11.434 21.2812 13.6165 17.0062 14.3027 15.3525C14.6477 14.4787 14.8315 13.98 15.6115 14.0437C16.234 14.1075 16.3277 14.7937 16.3277 15.0112C16.4365 16.9596 17.01 18.8536 18.0002 20.535C18.3115 21.0637 17.7827 21.0975 17.0327 20.2837C16.3244 19.4154 15.7643 18.4359 15.3752 17.385C15.2515 17.01 12.6602 24.84 9.69774 23.9062C7.42149 23.22 7.42149 18.0412 7.54524 15.5437C7.57524 15.2925 5.17524 20.2237 3.11649 22.9987C4.01208 24.3647 5.24706 25.4746 6.7005 26.2199C8.15395 26.9651 9.77602 27.3201 11.4079 27.2501C13.0397 27.1801 14.6254 26.6874 16.0097 25.8204C17.394 24.9534 18.5294 23.7418 19.3047 22.3042C20.08 20.8665 20.4686 19.2522 20.4325 17.6192C20.3965 15.9863 19.9369 14.3907 19.0989 12.9887C18.2609 11.5867 17.0731 10.4263 15.652 9.62132C14.2308 8.81629 12.6248 8.39415 10.9915 8.39625H10.999Z" fill="#87CADA"/>
<path d="M31.9951 15.0113L29.6251 22.1888H29.1863L26.8163 15.0113H26.6926V22.1888H25.8188V14.295H27.4088L29.4376 20.4413L31.4363 14.295H33.0563V22.1888H32.1826L32.1526 15.0113H31.9951Z" fill="#87CADA"/>
<path d="M45.9113 16.695C45.4035 16.6293 44.8873 16.6938 44.4113 16.8825C44.1317 17.0036 43.8694 17.1612 43.6313 17.3512V22.095H42.6338V16.0725H43.35L43.4738 16.695C43.7163 16.4706 44.004 16.3005 44.3175 16.1962C45.2213 15.885 45.8175 15.915 45.9713 16.0087L45.9113 16.695Z" fill="#87CADA"/>
<path d="M51.435 17.4451C51.356 17.1185 51.1946 16.8177 50.9662 16.5713C50.744 16.3442 50.4639 16.1821 50.1562 16.1026C49.7661 16.0239 49.3693 15.9824 48.9712 15.9788C48.5725 15.9669 48.1739 16.0085 47.7862 16.1026C47.4786 16.1821 47.1985 16.3442 46.9762 16.5713C46.739 16.8124 46.5741 17.1151 46.5 17.4451C46.395 17.872 46.3446 18.3105 46.35 18.7501V19.4063C46.3451 19.8686 46.398 20.3297 46.5075 20.7788C46.5865 21.1053 46.7479 21.4062 46.9762 21.6526C47.197 21.8805 47.4758 22.0438 47.7825 22.1251C48.1727 22.2037 48.5695 22.2452 48.9675 22.2488C49.3663 22.2608 49.7648 22.2191 50.1525 22.1251C50.4602 22.0455 50.7403 21.8834 50.9625 21.6563C51.197 21.4143 51.3593 21.1117 51.4312 20.7826C51.5407 20.3334 51.5937 19.8723 51.5887 19.4101V18.7501C51.5949 18.3102 51.5432 17.8714 51.435 17.4451V17.4451ZM50.625 19.3801C50.6395 19.7662 50.6181 20.1529 50.5612 20.5351C50.5184 20.762 50.4219 20.9754 50.28 21.1576C50.1523 21.3131 49.9771 21.4225 49.7812 21.4688C49.5273 21.5385 49.2645 21.5701 49.0012 21.5626C48.7381 21.568 48.4756 21.5364 48.2212 21.4688C48.0254 21.4225 47.8502 21.3131 47.7225 21.1576C47.5966 20.9697 47.511 20.7577 47.4712 20.5351C47.43 20.1514 47.4088 19.7659 47.4075 19.3801V18.7238C47.3928 18.3588 47.4142 17.9933 47.4712 17.6326C47.4911 17.4047 47.5786 17.1879 47.7225 17.0101C47.8502 16.8545 48.0254 16.7451 48.2212 16.6988C48.4752 16.6291 48.738 16.5975 49.0012 16.6051C49.2644 16.5996 49.5269 16.6312 49.7812 16.6988C49.9737 16.7529 50.1468 16.8609 50.28 17.0101C50.4283 17.1883 50.5255 17.4034 50.5612 17.6326C50.6031 17.9634 50.6244 18.2966 50.625 18.6301V19.3801Z" fill="#87CADA"/>
<path d="M41.5427 20.16C41.5491 20.358 41.539 20.5561 41.5127 20.7525C41.4891 21.0922 41.3456 21.4125 41.1077 21.6562C40.8844 21.8839 40.6029 22.0461 40.2939 22.125C39.9062 22.219 39.5077 22.2607 39.1089 22.2487C38.7109 22.2451 38.3141 22.2036 37.9239 22.125C37.6366 22.057 37.3757 21.9056 37.1739 21.69C36.9456 21.4436 36.7842 21.1427 36.7052 20.8162C36.5957 20.3671 36.5428 19.906 36.5477 19.4437V18.75C36.5444 18.3088 36.5973 17.869 36.7052 17.4412C36.7771 17.112 36.9394 16.8094 37.1739 16.5675C37.3806 16.3581 37.6395 16.2078 37.9239 16.1325C38.3116 16.0384 38.7102 15.9968 39.1089 16.0087C39.507 16.0123 39.9037 16.0538 40.2939 16.1325C40.6016 16.212 40.8817 16.3741 41.1039 16.6012C41.3204 16.8441 41.452 17.1508 41.4789 17.475C41.5208 17.6696 41.531 17.8696 41.5089 18.0675H40.6652C40.6676 17.6987 40.5815 17.3347 40.4139 17.0062C40.2807 16.8571 40.1077 16.7491 39.9152 16.695C39.6609 16.6273 39.3983 16.5958 39.1352 16.6012C38.872 16.5937 38.6091 16.6253 38.3552 16.695C38.1593 16.7413 37.9841 16.8506 37.8564 17.0062C37.7159 17.1839 37.6311 17.3992 37.6127 17.625C37.5556 17.9857 37.5342 18.3513 37.5489 18.7162V19.3725C37.5502 19.7583 37.5715 20.1438 37.6127 20.5275C37.6525 20.7501 37.738 20.9621 37.8639 21.15C37.9916 21.3055 38.1668 21.4149 38.3627 21.4612C38.617 21.5288 38.8796 21.5604 39.1427 21.555C39.4059 21.5625 39.6688 21.5309 39.9227 21.4612C40.1185 21.4149 40.2938 21.3055 40.4214 21.15C40.6025 20.8498 40.69 20.5026 40.6727 20.1525" fill="#87CADA"/>
<path d="M65.8802 16.635C66.2072 16.4096 66.5645 16.2316 66.9414 16.1063C67.2479 16.0281 67.5626 15.9866 67.8789 15.9825C68.2213 15.9693 68.5622 16.0334 68.8764 16.17C69.1062 16.2804 69.3086 16.4405 69.4689 16.6388C69.7684 16.4577 70.0819 16.301 70.4064 16.17C70.7665 16.0348 71.1468 15.9612 71.5314 15.9525C71.8721 15.9579 72.2095 16.0213 72.5289 16.14C72.7364 16.198 72.921 16.3185 73.0577 16.485C73.2156 16.7129 73.3323 16.9668 73.4027 17.235C73.4455 17.451 73.4556 17.6722 73.4327 17.8913V22.125L72.5289 22.155V17.9138C72.5444 17.5736 72.4335 17.2397 72.2177 16.9763C72.105 16.8579 71.9694 16.7636 71.8192 16.6991C71.6691 16.6347 71.5073 16.6014 71.3439 16.6013C71.0265 16.5846 70.7087 16.6265 70.4064 16.725C70.155 16.8174 69.9225 16.9546 69.7202 17.13L69.7502 22.155H68.8764V17.9138C68.8899 17.7239 68.8683 17.5333 68.8127 17.3513C68.7503 17.1712 68.6432 17.0099 68.5014 16.8825C68.3889 16.7742 68.2488 16.699 68.0964 16.665C67.9336 16.6224 67.766 16.6009 67.5977 16.6013C67.0057 16.5833 66.4279 16.7835 65.9739 17.1638L65.9402 22.125H65.0664V16.125H65.7827L65.8802 16.635Z" fill="#87CADA"/>
<path d="M75.675 14.295H74.7075V15.2625H75.675V14.295Z" fill="#87CADA"/>
<path d="M75.6792 16.1025H74.7417V22.125H75.6792V16.1025Z" fill="#87CADA"/>
<path d="M35.4904 14.355H34.5229V15.3225H35.4904V14.355Z" fill="#87CADA"/>
<path d="M35.4941 16.1663H34.5566V22.1888H35.4941V16.1663Z" fill="#87CADA"/>
<path d="M77.6739 16.125L77.7976 16.7175C78.1098 16.5054 78.4443 16.3281 78.7951 16.1888C79.1562 16.0607 79.537 15.9972 79.9201 16.0013C80.2472 15.9901 80.5739 16.0319 80.8876 16.125C81.1297 16.1888 81.3541 16.3067 81.5439 16.47C81.7116 16.6615 81.8391 16.8846 81.9189 17.1263C82.0006 17.4525 82.0422 17.7875 82.0426 18.1238V22.125H81.0451V18.1313C81.0482 17.8374 81.0168 17.5441 80.9514 17.2575C80.9139 17.0988 80.8257 16.9566 80.7001 16.8525C80.5757 16.7618 80.4395 16.6886 80.2951 16.635C80.0998 16.5968 79.9016 16.5754 79.7026 16.5713C79.3841 16.5778 79.0683 16.6309 78.7651 16.7288C78.4619 16.8122 78.1761 16.9493 77.9214 17.1338V22.095H76.9839V16.095C77.2129 16.1215 77.4435 16.1315 77.6739 16.125Z" fill="#87CADA"/>
<path d="M87.3454 16.1025L87.3154 16.695C87.0324 16.471 86.7161 16.2926 86.3779 16.1663C86.0602 16.0414 85.7218 15.9777 85.3804 15.9788C85.0543 15.9831 84.7297 16.0246 84.4129 16.1025C84.1419 16.166 83.8939 16.3036 83.6967 16.5C83.4686 16.7349 83.3069 17.026 83.2279 17.3438C83.1165 17.7926 83.0635 18.2539 83.0704 18.7163V19.4325C83.0635 19.8949 83.1165 20.3562 83.2279 20.805C83.3177 21.1184 83.478 21.407 83.6967 21.6488C83.893 21.8479 84.1411 21.9882 84.4129 22.0538C84.7271 22.1449 85.0535 22.1866 85.3804 22.1775C85.7021 22.1758 86.0204 22.1121 86.3179 21.99C86.6045 21.8643 86.8762 21.7071 87.1279 21.5213L87.1579 22.1775C87.1621 22.3999 87.1304 22.6215 87.0642 22.8338C87.0261 23.0007 86.9385 23.1523 86.8129 23.2688C86.6524 23.3971 86.4743 23.5019 86.2842 23.58C85.5362 23.6584 84.7821 23.6584 84.0342 23.58L83.9104 24.1725C84.2059 24.2484 84.5092 24.29 84.8142 24.2963C85.1592 24.3263 85.4704 24.2663 85.7817 24.2663C86.6254 24.2663 87.1242 24.1725 87.4992 23.8313C87.7069 23.6124 87.8692 23.3546 87.9767 23.0727C88.0842 22.7908 88.1347 22.4903 88.1254 22.1888V16.1025H87.3454ZM87.1879 20.94C86.956 21.1234 86.6913 21.2608 86.4079 21.345C86.108 21.4556 85.79 21.509 85.4704 21.5025C85.2481 21.5067 85.0265 21.475 84.8142 21.4088C84.6303 21.3542 84.4671 21.2458 84.3454 21.0975C84.2336 20.8578 84.1493 20.6062 84.0942 20.3475C84.0241 20.03 83.9926 19.7051 84.0004 19.38V18.6938C83.994 18.3786 84.0255 18.0639 84.0942 17.7563C84.1537 17.4901 84.259 17.2364 84.4054 17.0063C84.5271 16.858 84.6903 16.7496 84.8742 16.695C85.0865 16.6288 85.3081 16.5971 85.5304 16.6013C85.8062 16.5835 86.0825 16.6257 86.3404 16.725C86.6565 16.8389 86.9452 17.0177 87.1879 17.25V20.9325V20.94Z" fill="#87CADA"/>
<path d="M56.8013 16.1025L56.7713 16.695C56.4841 16.4774 56.1687 16.2995 55.8338 16.1663C55.5161 16.0414 55.1777 15.9777 54.8363 15.9788C54.5102 15.9831 54.1856 16.0246 53.8688 16.1025C53.5965 16.1654 53.3471 16.303 53.1488 16.5C52.9208 16.7349 52.759 17.026 52.6801 17.3438C52.5686 17.7926 52.5157 18.2539 52.5226 18.7163V19.4325C52.5157 19.8949 52.5686 20.3562 52.6801 20.805C52.7698 21.1184 52.9302 21.407 53.1488 21.6488C53.3452 21.8479 53.5932 21.9882 53.8651 22.0538C54.1792 22.1449 54.5056 22.1866 54.8326 22.1775C55.1542 22.1758 55.4725 22.1121 55.7701 21.99C56.0566 21.8643 56.3283 21.7071 56.5801 21.5213H56.6251V22.1775C56.6292 22.3999 56.5976 22.6215 56.5313 22.8338C56.4932 23.0007 56.4057 23.1523 56.2801 23.2688C56.1271 23.4078 55.9471 23.5138 55.7513 23.58C55.0034 23.6584 54.2493 23.6584 53.5013 23.58L53.3776 24.1725C53.673 24.2484 53.9763 24.29 54.2813 24.2963C54.6263 24.3263 54.9376 24.2663 55.2488 24.2663C56.0926 24.2663 56.5913 24.1725 56.9663 23.8313C57.1747 23.6108 57.3371 23.351 57.444 23.067C57.5509 22.7831 57.6001 22.4807 57.5888 22.1775V16.1025H56.8013ZM56.6438 20.94C56.4153 21.1221 56.1545 21.2595 55.8751 21.345C55.5751 21.4556 55.2572 21.509 54.9376 21.5025C54.7152 21.5067 54.4936 21.475 54.2813 21.4088C54.0975 21.3542 53.9342 21.2458 53.8126 21.0975C53.7007 20.8578 53.6165 20.6062 53.5613 20.3475C53.4913 20.03 53.4598 19.7051 53.4676 19.38V18.6938C53.4612 18.3786 53.4927 18.0639 53.5613 17.7563C53.6209 17.4901 53.7262 17.2364 53.8726 17.0063C53.9942 16.858 54.1575 16.7496 54.3413 16.695C54.5536 16.6288 54.7752 16.5971 54.9976 16.6013C55.2733 16.5835 55.5497 16.6257 55.8076 16.725C56.1196 16.8403 56.4044 17.019 56.6438 17.25V20.94Z" fill="#87CADA"/>
<path d="M63.0413 16.1663L62.9476 16.6013C62.6186 16.3975 62.2737 16.2207 61.9163 16.0725C61.4596 15.946 60.9801 15.9242 60.5138 16.0088C60.1739 16.0978 59.8482 16.2341 59.5463 16.4138C59.3267 16.6172 59.1473 16.8602 59.0175 17.13C58.9074 17.4518 58.8443 17.7877 58.83 18.1275C58.752 18.8955 58.752 19.6695 58.83 20.4375C58.9008 20.881 59.0602 21.3057 59.2988 21.6863C59.5707 21.9497 59.9028 22.1428 60.2663 22.2488C60.7506 22.3424 61.2483 22.3424 61.7326 22.2488C62.1489 22.0972 62.5465 21.8984 62.9176 21.6563L63.0413 22.185H63.7501V16.1663H63.0413ZM62.8538 21.0413C62.5091 21.2544 62.1434 21.4316 61.7626 21.57C61.433 21.6323 61.0946 21.6323 60.765 21.57C60.4725 21.4954 60.2104 21.3315 60.015 21.1013C59.8769 20.8876 59.8015 20.6394 59.7976 20.385C59.6727 19.5471 59.6727 18.6954 59.7976 17.8575C59.8031 17.6301 59.8567 17.4064 59.9551 17.2013C60.0837 16.9785 60.281 16.8035 60.5176 16.7025C60.8921 16.5927 61.2852 16.5608 61.6726 16.6088C62.0778 16.7376 62.4738 16.8943 62.8576 17.0775V21.0338L62.8538 21.0413Z" fill="#87CADA"/>
<path d="M63.0078 16.1025V16.1663H63.0416V16.1025H63.0078Z" fill="#87CADA"/>
</svg>
