<svg width="90" height="36" viewBox="0 0 90 36" fill="none" xmlns="http://www.w3.org/2000/svg">
<path fill-rule="evenodd" clip-rule="evenodd" d="M85.0991 22.3984L84.8554 21L84.375 22.3984H84L83.5249 21L83.2778 22.3984H82.8578L83.2328 20.1904H83.6524L84.1774 21.7358L84.7061 20.1904H85.125L85.5 22.3984H85.0991ZM82.3219 22.3984H81.8872V20.5954H81.4875V20.1795H82.7355V20.5954H82.323V22.3984H82.3219ZM76.3969 26.4015H75.1875V23.6895L73.3125 20.1465H74.613L75.8014 22.3965L76.9856 20.1465H78.2711L76.3961 23.6933V26.4L76.3969 26.4015ZM72.9469 26.4015L72.4485 25.1138H69.8509L69.3413 26.3977H68.082L70.5255 20.1465H71.7551L74.2061 26.4015H72.9469V26.4015ZM71.1469 21.8059L70.2923 23.9509H71.9974L71.1469 21.8059ZM64.3875 20.1465H65.5909V25.2499H67.356V26.3831H64.3762L64.3875 20.1465ZM62.3149 23.6677C61.8941 23.7501 61.4653 23.7834 61.0369 23.7671V26.4161H59.8226V20.1465H61.0931C61.6003 20.12 62.1081 20.1835 62.5931 20.334C62.9027 20.4509 63.166 20.6653 63.3431 20.9449C63.5273 21.2509 63.6197 21.6034 63.6094 21.9604C63.6274 22.3579 63.5038 22.749 63.2606 23.064C63.0175 23.3604 62.6864 23.5718 62.3152 23.6677H62.3149ZM62.1428 21.4177C61.8991 21.3149 61.6343 21.2719 61.3706 21.2925H61.0294L61.0369 22.5877H61.4119C61.6249 22.5987 61.8384 22.5776 62.0452 22.5251C62.1588 22.4869 62.2572 22.4135 62.3261 22.3155C62.3985 22.2068 62.434 22.0777 62.4274 21.9473C62.4341 21.8415 62.411 21.736 62.3607 21.6428C62.3105 21.5495 62.2351 21.4722 62.1431 21.4196L62.1428 21.4177ZM52.7989 21.0203C52.2267 21.0092 51.6735 21.2258 51.2609 21.6225C50.8483 22.0192 50.6102 22.5634 50.5987 23.1356C50.5987 23.1551 50.5987 23.175 50.5987 23.1949C50.591 23.5908 50.6879 23.9817 50.8796 24.3281C51.0674 24.6569 51.3441 24.926 51.678 25.1044C52.03 25.2946 52.4246 25.3922 52.8247 25.3879C53.1637 25.3917 53.4996 25.324 53.8106 25.1891C54.1786 25.0032 54.511 24.754 54.7927 24.453L55.632 25.3155C55.2405 25.7145 54.7794 26.0387 54.2715 26.2721C53.8066 26.4577 53.3095 26.5491 52.809 26.541C52.3535 26.5613 51.8986 26.49 51.4712 26.3313C51.0437 26.1727 50.6525 25.9299 50.3205 25.6174C49.9447 25.255 49.6598 24.8091 49.489 24.3158C49.3182 23.8225 49.2663 23.2958 49.3375 22.7787C49.4088 22.2616 49.6011 21.7686 49.8989 21.3398C50.1968 20.9111 50.5916 20.5588 51.0514 20.3115C51.5913 20.012 52.1991 19.8562 52.8165 19.8589C53.352 19.8595 53.8812 19.974 54.3691 20.1947C54.8569 20.4154 55.2923 20.7373 55.6462 21.1391L54.7837 21.9379C54.5351 21.6555 54.2302 21.4283 53.8886 21.2706C53.547 21.1129 53.1762 21.0283 52.8 21.0221L52.7989 21.0203ZM55.6511 21.1328V21.1402L55.6474 21.1361L55.6511 21.1328ZM47.1472 20.0104H48.3765V26.3944H47.1472V20.0137V20.0104ZM44.9771 26.3944H43.7396V21.2025H42.585V20.0137H46.1794V21.2025H44.9775V26.3977L44.9771 26.3944ZM41.4315 26.3944L40.9219 25.0819H38.2688L37.7404 26.3944H36.4545L38.9809 20.0104H40.2184L42.7309 26.3944H41.4341H41.4315ZM39.6176 21.7031L38.7442 23.9107H40.4797L39.6176 21.7031ZM33.8123 22.35L32.4292 26.3974H31.3418L29.985 22.3684L29.2725 26.4158H28.0508L29.1787 20.0134H30.3855L31.8855 24.4658L33.4072 20.0134H34.614L35.7049 26.3974H34.509L33.8123 22.35ZM25.8997 26.1656C25.3932 26.4378 24.8246 26.5735 24.2498 26.5594C23.6209 26.5709 22.9994 26.4228 22.4434 26.1289C21.9169 25.8394 21.483 25.407 21.1916 24.8816C20.8864 24.3593 20.7273 23.7646 20.7307 23.1596C20.7195 22.3409 21.0256 21.5496 21.585 20.9516C21.9169 20.589 22.3234 20.3026 22.7765 20.1121C23.2297 19.9215 23.7187 19.8315 24.21 19.848C24.7538 19.8443 25.2929 19.9493 25.7955 20.157C26.264 20.3662 26.6829 20.6722 27.0247 21.0547L26.1518 21.9011C25.9085 21.63 25.6108 21.4131 25.2783 21.2645C24.9457 21.1159 24.5855 21.0389 24.2212 21.0386C23.9251 21.0307 23.6304 21.0819 23.3544 21.1893C23.0783 21.2967 22.8265 21.4581 22.6136 21.6641C22.405 21.8578 22.2395 22.0931 22.1278 22.3549C22.0161 22.6167 21.9607 22.899 21.9653 23.1836C21.9601 23.4774 22.0172 23.769 22.1329 24.0392C22.2485 24.3094 22.42 24.552 22.6361 24.7511C22.8564 24.9631 23.1166 25.1291 23.4016 25.2397C23.6866 25.3502 23.9907 25.403 24.2962 25.395C24.6748 25.4078 25.0496 25.3162 25.3796 25.1303C25.6925 24.9305 25.939 24.6423 26.088 24.3022H24.213V23.1615H27.4875V23.4304C27.4808 23.9844 27.3312 24.5273 27.0532 25.0066C26.7751 25.4858 26.3781 25.8852 25.9005 26.166L25.8997 26.1656ZM18.741 25.0837H16.116L15.5876 26.3962H14.2871L16.7944 20.0122H18.0499L20.55 26.3962H19.2645L18.741 25.0837ZM17.433 21.7061L16.56 23.9138H18.3L17.433 21.7061ZM12.1897 26.3974L10.7273 23.6929H10.6147V26.3974H9.3705V20.0137H10.683C11.201 19.9857 11.72 20.0492 12.216 20.2012C12.5263 20.3244 12.7891 20.5436 12.966 20.8267C13.1567 21.1386 13.253 21.499 13.2431 21.8644C13.2567 22.239 13.149 22.6081 12.936 22.9166C12.6968 23.2237 12.368 23.4487 11.9951 23.5605L13.5356 26.3974H12.1901H12.1897ZM12.0172 21.8531C12.0224 21.7245 11.9857 21.5976 11.9128 21.4915C11.8399 21.3854 11.7346 21.3057 11.6126 21.2644C11.3969 21.2119 11.1747 21.1909 10.953 21.2021H10.6125L10.6088 22.5083H10.9838C11.2635 22.5341 11.545 22.4822 11.7971 22.3582C11.8739 22.2999 11.9344 22.2229 11.9731 22.1345C12.0117 22.0462 12.0272 21.9495 12.018 21.8535L12.0172 21.8531ZM7.04025 23.5935C6.61083 23.6771 6.17313 23.7105 5.736 23.6929V26.3974H4.5V20.0137H5.8125C6.3323 19.9862 6.85286 20.0511 7.35 20.2054C7.66071 20.3279 7.92369 20.5472 8.1 20.8309C8.28798 21.1423 8.38297 21.5011 8.37375 21.8647C8.38664 22.2628 8.2607 22.653 8.0175 22.9684C7.76762 23.2763 7.42523 23.4957 7.041 23.5939L7.04025 23.5935ZM6.85275 21.3161C6.60883 21.2195 6.34576 21.181 6.08437 21.2036H5.7375V22.5098H6.1125C6.32949 22.52 6.54678 22.4976 6.75712 22.4434C6.87303 22.4036 6.97299 22.3274 7.04212 22.2263C7.11467 22.1176 7.15127 21.9889 7.14675 21.8584C7.15392 21.7496 7.13019 21.641 7.07831 21.5451C7.02642 21.4493 6.94849 21.37 6.8535 21.3165L6.85275 21.3161Z" fill="#87CADA"/>
<path fill-rule="evenodd" clip-rule="evenodd" d="M68.8065 35.625C66.3709 35.6454 63.984 34.9418 61.9489 33.6035C59.9137 32.2652 58.322 30.3524 57.3758 28.108C56.4295 25.8635 56.1713 23.3886 56.634 20.9971C57.0966 18.6057 58.2593 16.4056 59.9744 14.6761C61.6895 12.9465 63.8797 11.7655 66.2672 11.2827C68.6546 10.8 71.1317 11.0374 73.384 11.9648C75.6363 12.8922 77.5623 14.4678 78.9177 16.4917C80.2731 18.5155 80.9967 20.8963 80.9967 23.3321C81.0102 26.5787 79.7335 29.6978 77.4475 32.0031C75.1614 34.3085 72.0532 35.6113 68.8065 35.625ZM68.8065 12.3311C65.9056 12.3551 63.1317 13.5243 61.0888 15.584C59.046 17.6438 57.8997 20.4273 57.8997 23.3284C57.8997 26.2294 59.046 29.0129 61.0888 31.0727C63.1317 33.1325 65.9056 34.3017 68.8065 34.3256V34.3294H68.8103C71.7275 34.3289 74.5251 33.1695 76.5876 31.1064C78.65 29.0432 79.8084 26.2452 79.8079 23.328C79.8074 20.4107 78.6481 17.6132 76.5849 15.5507C74.5218 13.4883 71.7238 12.3299 68.8065 12.3304V12.3311ZM72.501 19.0504C68.3187 19.3129 66.6203 14.3445 70.4044 14.1079C74.4342 13.8555 76.5904 18.7792 72.501 19.05V19.0504ZM68.0059 9.74624C65.8949 9.81829 63.8398 10.4439 62.0468 11.5605C61.7824 10.719 60.6165 7.57911 57.6109 5.83649C58.6684 5.89585 59.6929 6.22579 60.5863 6.79468C61.4797 7.36358 62.2121 8.15237 62.7132 9.08549C62.7132 9.08549 61.5477 4.13137 61.8679 0.375366C64.2304 3.28612 66.0465 8.04486 66.0465 8.04486C65.9383 6.98713 66.101 5.91924 66.5194 4.94174C66.9377 3.96424 67.598 3.10928 68.4379 2.45736C66.9109 5.65611 67.7674 8.96249 68.0059 9.74624Z" fill="#87CADA"/>
</svg>
