<svg width="48" height="48" viewBox="0 0 144 144" fill="none" xmlns="http://www.w3.org/2000/svg">
<rect width="48" height="48"/>
<path d="M21.6 121.538V21.6284H47.4341C52.97 21.3648 58.7695 22.9465 63.5146 25.8463C68.2596 28.746 70.8958 34.0183 70.3685 39.5542V53.5257C70.3685 60.6433 66.1507 65.3884 57.4515 68.2881C66.4143 70.397 70.8958 75.4057 70.8958 82.7869V102.031C71.1594 107.567 68.7869 113.102 64.3054 116.793C59.824 120.22 54.5517 121.802 49.0158 121.802L21.6 121.538ZM49.5431 56.9527V39.8178C49.5431 36.3908 47.4341 34.5455 43.4799 34.5455V62.225C47.6978 62.225 49.5431 60.3797 49.5431 56.9527ZM49.5431 103.612V78.3055C49.5431 74.8785 47.4341 73.0332 43.4799 73.0332V108.885C47.6978 108.621 49.5431 107.039 49.5431 103.612Z" fill="#1095B5"/>
<path d="M111.855 121.747H122.4L122.136 72.4509H97.8839V87.7405H102.365V106.457C102.365 108.039 101.311 108.83 99.2019 108.83C97.093 108.83 96.0386 108.039 96.0386 106.457V37.1266C96.0386 35.5449 97.093 34.7541 99.2019 34.7541C101.311 34.7541 102.365 35.5449 102.365 37.1266V57.1613H122.4V38.7083C122.4 26.8457 114.755 21.0462 98.9383 21.0462C82.3306 21.0462 74.1586 27.6365 74.1586 40.5536V105.93C73.6314 110.938 75.7403 115.947 79.9581 118.847C83.9123 121.483 88.6574 122.801 93.666 122.801C99.4655 122.538 104.738 120.165 108.956 116.211L111.855 121.747Z" fill="#1095B5"/>
</svg>
