<?xml version="1.0" encoding="utf-8"?>
<!-- Generator: Adobe Illustrator 26.3.1, SVG Export Plug-In . SVG Version: 6.00 Build 0)  -->
<svg version="1.1" id="Layer_1" xmlns="http://www.w3.org/2000/svg" xmlns:xlink="http://www.w3.org/1999/xlink" x="0px" y="0px"
	 viewBox="0 0 206.2 175.6" style="enable-background:new 0 0 206.2 175.6;" xml:space="preserve">
<style type="text/css">
	.st0{fill:#00BADB;}
	.st1{fill:#F9A11B;}
</style>
<path class="st0" d="M4.8,5.8h40.5c12.8,0,22.5,1,29.1,3c6.6,2,11.9,6,16,12.1c4.1,6.1,6.1,15.9,6.1,29.4c0,9.1-1.4,19.7-4.3,23.3
	c-2.9,3.6-8.5,6.4-16.9,8.3C84.6,84,91,87.5,94.3,92.4c3.3,4.9,5,12.5,5,22.6v18.7c0,10.6-1.2,18.4-3.6,23.5
	c-2.4,5.1-6.3,8.6-11.5,10.4c-5.3,1.9-16.1,2.8-32.4,2.8h-47V5.8z M45.4,32.5v39c1.7-0.1,3.1-0.1,4.1-0.1c4,0,6.5-1,7.6-2.9
	c1.1-2,1.6-11.8,1.6-21.1c0-4.9-0.5-8.3-1.4-10.3c-0.9-2-2.1-3.2-3.5-3.7C52.4,32.9,49.6,32.6,45.4,32.5z M45.4,95.8v48
	c5.7-0.2,9.4-1.1,11-2.7c1.6-1.6,2.4-5.6,2.4-11.9v-18.8c0-6.7-0.7-10.7-2.1-12.2C55.2,96.8,51.4,96,45.4,95.8z"/>
<path class="st1" d="M201.2,67.5h-40.6V49.1c0-8.9-0.4-14.5-1.2-16.8c-0.8-2.3-2.6-3.4-5.5-3.4c-2.5,0-4.2,1-5.1,2.9
	c-0.9,1.9-1.4,6.9-1.4,14.9v83.5c0,7,0.5,11.6,1.4,13.9c0.9,2.2,2.7,3.3,5.4,3.3c3,0,5-1.3,6-3.8c1.1-2.5,1.6-7.4,1.6-14.7v-22.8
	h-8.2V82.4h47.6v88.1h-25.5l-3.8-11.2c-2.8,4.8-6.3,8.4-10.5,10.9c-4.2,2.4-9.2,3.6-14.9,3.6c-6.8,0-13.2-1.7-19.2-5
	c-6-3.3-10.5-7.4-13.6-12.3c-3.1-4.9-5-10-5.8-15.4c-0.8-5.4-1.2-17.7-1.2-28.4V66.3c0-14.9,0.8-30,2.4-36.8
	c1.6-6.8,6.2-12.9,13.9-18.6c7.6-5.6,17.5-8.4,29.6-8.4c11.9,0,21.8,2.4,29.6,7.3c7.8,4.9,13,10.7,15.3,17.4
	c2.4,6.7,3.6,16.5,3.6,29.3V67.5z"/>
</svg>
